<?xml version="1.0" encoding="UTF-8" standalone="no"?>
<svg
   xmlns:dc="http://purl.org/dc/elements/1.1/"
   xmlns:cc="http://creativecommons.org/ns#"
   xmlns:rdf="http://www.w3.org/1999/02/22-rdf-syntax-ns#"
   xmlns:svg="http://www.w3.org/2000/svg"
   xmlns="http://www.w3.org/2000/svg"
   xmlns:sodipodi="http://sodipodi.sourceforge.net/DTD/sodipodi-0.dtd"
   xmlns:inkscape="http://www.inkscape.org/namespaces/inkscape"
   width="301.8956"
   height="393.57141"
   viewBox="0 0 241.51648 314.85713"
   version="1.1"
   id="svg2"
   inkscape:version="0.48.1 r9760"
   sodipodi:docname="big_eye_cow.svg">
  <metadata
     id="metadata110">
    <rdf:RDF>
      <cc:Work
         rdf:about="">
        <dc:format>image/svg+xml</dc:format>
        <dc:type
           rdf:resource="http://purl.org/dc/dcmitype/StillImage" />
      </cc:Work>
    </rdf:RDF>
  </metadata>
  <defs
     id="defs108" />
  <sodipodi:namedview
     pagecolor="#ffffff"
     bordercolor="#666666"
     borderopacity="1"
     objecttolerance="10"
     gridtolerance="10"
     guidetolerance="10"
     inkscape:pageopacity="0"
     inkscape:pageshadow="2"
     inkscape:window-width="640"
     inkscape:window-height="482"
     id="namedview106"
     showgrid="false"
     fit-margin-top="0"
     fit-margin-left="0"
     fit-margin-right="0"
     fit-margin-bottom="0"
     inkscape:zoom="0.62758621"
     inkscape:cx="332.59615"
     inkscape:cy="190.41207"
     inkscape:window-x="649"
     inkscape:window-y="29"
     inkscape:window-maximized="0"
     inkscape:current-layer="svg2" />
  <path
     d="m 0,-3.3414491e-6 241.51648,0 L 241.51648,314.85713 0,314.85713 0,-3.3414491e-6 z"
     id="path4"
     inkscape:connector-curvature="0"
     style="fill:#ffffff;opacity:0" />
  <path
     d="m 121.78692,14.052195 c 1.14,-1.35 2.31,-2.67 3.48,-3.99 4.38,1.55 6.57,5.87 9.38,9.24 5.51,6.9 10.66,14.08 16.42,20.77 6.89,-8.16 14.85,-15.33 22.2,-23.08 2.07,-2.38 4.71,-4.12 7.28,-5.9 -0.33,0.46 -0.99,1.38 -1.32,1.84 2.22,-0.14 3.56,1.28 4.59,3.01 -3.54,7.6 -7.15,15.17 -10.7,22.77 5.54,-0.66 11.85,-1.96 16.82,1.37 3.04,1.99 6.28,4.75 6.38,8.69 -0.02,3.74 -2.94,6.57 -5.87,8.45 -4.92,2.94 -10.78,3.88 -16.44,3.84 -1.51,-0.46 -3.04,-0.85 -4.56,-1.26 0.57,3.3 1,6.62 1.7,9.89 5.91,-0.73 12.27,1.17 16.08,5.92 5.38,5.99 5.13,15.34 0.77,21.84 11.84,9.619995 23.56,19.379995 35.31,29.099995 4.4,4.68 9.83,8.81 12.13,15.03 2.88,6.92 1.06,15.11 -3.68,20.75 -7.53,9.25 -19.2,13.63 -30.48,16.24 -8.93,1.89 -18.11,2.3 -27.2,1.58 -0.02,19.52 0.03,39.05 -0.02,58.58 -0.71,3.16 -4.27,3.42 -6.98,3.11 -0.05,18.86 0.09,37.72 -0.07,56.57 -2.05,2.72 -6.02,0.88 -8.94,1.38 -0.5,2.92 1.34,6.89 -1.38,8.94 -3.4,0.16 -6.82,0.16 -10.22,0 -0.33,-0.33 -0.99,-0.99 -1.32,-1.32 -0.16,-21.86 -0.02,-43.74 -0.07,-65.61 -7.41,0 -14.82,0 -22.23,0 -0.15,7.86 -3.23,15.52 -8.61,21.25 2.83,2.67 2.92,8.25 -1.16,9.74 -2.95,1.2 -5.09,-1.49 -6.42,-3.71 -2.99,1.86 -6.33,3.02 -9.729997,3.9 0.26,1.98 0.77,4.24 -0.54,5.99 -1.44,2.45 -5.23,2.76 -7.05,0.58 -1.49,-1.53 -1.24,-3.78 -1.41,-5.72 -2.81,-0.25 -5.62,-0.63 -8.33,-1.49 -0.56,1.66 -0.73,3.73 -2.32,4.8 -2.17,1.78 -5.71,0.73 -6.75,-1.82 -1.22,-2.12 -0.18,-4.5 0.57,-6.57 -2.02,-1.57 -4.03,-3.16 -6.02,-4.77 -0.06,11.47 0.11,22.96 -0.07,34.43 -2.05,2.72 -6.02,0.88 -8.94,1.38 -0.5,2.92 1.34,6.89 -1.38,8.94 -3.4,0.16 -6.82,0.16 -10.22,0 -0.33,-0.33 -0.99,-0.99 -1.32,-1.32 -0.17,-21.86 0.02,-43.72 -0.15,-65.58 -2.94,0.15 -7.06,0.52 -7.9,-3.1 -0.09,-43.55 0.08,-87.1 -0.09,-130.64 -2.69,3.97 -5.64,7.84 -7.42,12.35 -2.68,7.02 -7.36,13.65 -7.18,21.44 1.49,7.18 8.2,12.34 8.29,19.98 1.05,7.17 -2.11,13.93 -5.78,19.86 -4.25,6.39 -3.59,14.44 -3.43,21.74 6.45,7.55 6.66,19.44 -0.05,26.91 -0.74,0.22 -2.22,0.66 -2.97,0.87 -0.1,0.49 -0.31,1.45 -0.41,1.94 -0.07,-0.38 -0.21,-1.14 -0.28,-1.53 -4.47,-0.26 -6.3000001,-5.1 -7.5900001,-8.7 -2.56,-6.89 -1.27,-15.01 4.1700001,-20.16 0.69,-7.68 -1.05,-15.9 2.54,-23.07 2.57,-5.62 6.66,-11.33 5.52,-17.83 -0.73,-6.48 -6.66,-10.78 -7.78,-17.13 -0.93,-6.82 0.48,-13.81 3.31,-20.04 1.09,-2.33 1.96,-4.74 2.88,-7.12 1.74,-3.12 3,-6.46 4.46,-9.71 3.54,-6.18 6.79,-12.919995 12.38,-17.519995 4.08,-1.67 6.33,-5.66 9.92,-7.99 6.07,-2.79 12.88,-3.72 19.51,-3.59 16.52,-0.03 33.03,0.04 49.549997,0.01 2.76,-8.33 10.39,-14.22 18.92,-15.7 0.08,-0.49 0.22,-1.47 0.29,-1.96 -7.19,1.7 -15.01,0.91 -21.54,-2.62 -3.44,-1.95 -6.95,-5.38 -6.33,-9.7 0.66,-4.37 4.82,-6.78 8.11,-9.11 5.62,-2.32 11.68,-1.35 17.31,0.4 -3.22,-8.69 -6.41,-17.38 -9.62,-26.06 z"
     id="path8"
     inkscape:connector-curvature="0"
     style="fill:#000000" />
  <path
     d="m 125.58692,13.442195 c 4.39,4.34 7.74,9.57 11.66,14.32 3.28,4.39 6.92,8.52 9.89,13.13 2.43,0.02 4.86,0.02 7.29,-0.03 8.14,-8.97 16.88,-17.35 25.32,-26.03 0.02,0.56 0.06,1.67 0.08,2.23 -4.56,9.28 -8.71,18.75 -13.3,28.01 -0.91,-1.09 -1.84,-2.17 -2.76,-3.25 -8.01,-0.39 -16.02,-0.93 -24.04,-0.89 -1.14,0.82 -2.29,1.62 -3.44,2.41 -2.65,-6.23 -4.75,-12.68 -7.18,-19 -1.27,-3.6 -2.91,-7.11 -3.52,-10.9 z"
     id="path12"
     inkscape:connector-curvature="0"
     style="fill:#ffffff" />
  <path
     d="m 109.31692,48.742195 c 2.43,-3.46 5.85,-6.41 10.19,-6.95 l 0.05,-0.46 c 2.77,0.53 5.58,0.91 8.34,1.5 1.45,0.36 2.92,0.66 4.39,0.95 1.83,1.78 2.59,4.24 2.18,6.77 -5.27,-2.41 -12.11,-3.04 -16.94,0.66 -1.95,1.22 -1.49,3.57 -1.17,5.48 -3.12,-1.77 -6.92,-3.86 -7.04,-7.95 z"
     id="path18"
     inkscape:connector-curvature="0"
     style="fill:#ffffff" />
  <path
     d="m 171.70692,42.392195 c 1.64,-0.15 3.29,-0.28 4.94,-0.38 l -0.19,-0.58 c 2.58,-0.02 5.16,-0.11 7.74,0.03 1.32,0.56 2.66,1.07 3.99,1.58 1.42,1.25 2.76,2.59 3.98,4.03 l 0.68,0.56 c -0.49,3.67 -3.29,5.96 -6.24,7.8 -0.18,-2.35 -0.6,-5 -3.01,-6.08 -4.98,-2.64 -11.24,-2.21 -16.09,0.54 1.43,-2.48 2.7,-5.05 4.2,-7.5 z"
     id="path20"
     inkscape:connector-curvature="0"
     style="fill:#ffffff" />
  <path
     d="m 138.11692,47.862195 c 0.24,-1.52 -0.15,-3.74 1.74,-4.27 7.45,-0.08 14.91,0.19 22.35,0.39 0.67,0.93 1.35,1.86 2.04,2.78 0.22,8.07 2.19,15.94 3.29,23.91 -3.75,1.89 -7.02,4.79 -8.86,8.61 -2.67,-9.42 -11.89,-15.95 -21.54,-16.28 0.23,-5.06 0.97,-10.08 0.98,-15.14 z"
     id="path24"
     inkscape:connector-curvature="0"
     style="fill:#ffffff" />
  <path
     d="m 167.73692,51.702195 c 4.44,-2.91 10.44,-3.51 15.17,-0.94 1.26,0.73 3.15,2.66 1.34,3.94 -3.98,3.6 -10.43,3.44 -15,1.08 -0.74,-1.27 -1.05,-2.71 -1.51,-4.08 z"
     id="path30"
     inkscape:connector-curvature="0"
     style="fill:#f7b7ce" />
  <path
     d="m 121.38692,50.862195 c 3.61,-1.11 7.67,-0.97 11.11,0.65 2.61,0.96 2.09,5.3 -0.59,5.84 -4.65,1.75 -11.13,1.81 -14.49,-2.4 -0.39,-2.26 2.22,-3.46 3.97,-4.09 z"
     id="path32"
     inkscape:connector-curvature="0"
     style="fill:#f7b7ce" />
  <path
     d="m 131.44692,68.392195 c 9.06,-2.86 19.69,2.5 22.73,11.5 3.28,8.23 -0.54,18.46 -8.33,22.619995 -5.22,2.99 -11.87,3.28 -17.27,0.58 -5.98,-2.68 -10.06,-8.849995 -10.59,-15.339995 -0.79,-8.57 5.14,-17.13 13.46,-19.36 z"
     id="path36"
     inkscape:connector-curvature="0"
     style="fill:#ffffff" />
  <path
     d="m 169.43692,73.992195 c 6.72,-2.71 15.14,1.12 17.5,7.97 2.86,6.75 -1.07,15.3 -8.01,17.62 -6.53,2.679995 -14.81,-0.83 -17.37,-7.42 -3.25,-6.85 0.69,-15.84 7.88,-18.17 z"
     id="path40"
     inkscape:connector-curvature="0"
     style="fill:#ffffff" />
  <path
     d="m 145.49692,81.282195 c 4.08,-1.42 8.48,3.02 7.13,7.1 -1.08,4 -6.73,5.68 -9.52,2.39 -3.1,-2.83 -1.51,-8.32 2.39,-9.49 z"
     id="path46"
     inkscape:connector-curvature="0"
     style="fill:#000000" />
  <path
     d="m 165.49692,81.282195 c 4.67,-1.67 9.36,4.33 6.52,8.43 -1.89,3.45 -7.21,3.8 -9.4,0.48 -2.53,-2.97 -0.68,-7.8 2.88,-8.91 z"
     id="path48"
     inkscape:connector-curvature="0"
     style="fill:#000000" />
  <path
     d="m 70.496923,83.972195 c 14.34,-0.38 28.69,-0.07 43.039997,-0.17 -0.56,7.3 2.03,14.96 7.64,19.809995 2.95,2.87 6.88,4.32 10.73,5.55 -0.31,5.2 -0.14,10.48 -1.37,15.59 -0.16,-0.31 -0.49,-0.93 -0.65,-1.24 -1.5,-1.11 -2.88,-2.36 -4.21,-3.64 -4.68,-0.7 -9.41,-1.72 -14.14,-0.95 -3.47,1.4 -6.87,3.2 -9.6,5.8 -3.529997,6.16 -3.829997,13.51 -6.519997,19.99 -1.26,0.71 -2.74,0.87 -4.12,1.24 -3.94,3.17 -6.22,7.72 -8.09,12.31 -0.42,4.13 -0.35,8.33 0.23,12.45 3.32,3.34 7.42,5.92 12.06,6.9 7.359997,2.79 15.319997,2.36 23.039997,2.17 2.22,-0.98 4.48,-1.86 6.72,-2.79 1.64,-5.54 5.76,-9.89 7.25,-15.48 8.57,11.33 23.11,15.85 36.57,18 0,6.29 0,12.59 0,18.89 -4.49,0.98 -8.22,3.87 -12.54,5.33 -2.73,-1.06 -5.17,-2.77 -7.91,-3.8 -3.27,-0.27 -6.69,-0.57 -9.89,0.17 -3.34,2.45 -7.79,4.79 -8.39,9.33 -0.57,2.38 -0.32,4.84 -0.32,7.26 2.88,4.41 8.14,5.79 12.83,7.36 5.53,3.18 12.14,1.4 18.19,1.75 1.73,-1.4 3.23,-3.04 4.52,-4.85 1.14,-0.53 2.29,-1.06 3.43,-1.61 0.15,5.81 0.06,11.64 0.08,17.46 -42.99,0 -85.989997,0 -128.979997,0 0.01,-1.81 0.01,-3.62 0,-5.42 5.7,-6.14 13.2,-10.8 16.92,-18.57 4.8,-5.74 3.13,-13.69 1.96,-20.41 -2.01,-3.03 -2.81,-6.63 -4.25,-9.92 -4.16,-6.4 -10.03,-11.34 -14.63,-17.39 -0.03,-14.37 -0.01,-28.74 -0.02,-43.11 3.07,-0.08 6.36,-0.18 9.05,-1.83 2.24,-3.29 4.42,-6.62 6.9,-9.75 6.02,3.98 2.66,13.53 9.06,17.3 3,3.25 7.95,2.55 11.51,0.65 3.66,-1.52 5.76,-5.06 8.03,-8.09 5.99,-8.07 2.99,-18.72 2.2,-27.879995 -3.55,-5.93 -11.68,-4.14 -16.33,-8.41 z"
     id="path52"
     inkscape:connector-curvature="0"
     style="fill:#ffffff" />
  <path
     d="m 35.146923,94.752195 c 0.62,-0.67 1.25,-1.34 1.87,-2.01 -0.73,3.73 -1.38,7.479995 -2.56,11.099995 -2.07,2.62 -3.84,5.45 -5.91,8.08 0.03,0.3 0.1,0.91 0.13,1.22 l -1.21,0.06 0.25,1.28 -1.17,0 c 0.04,0.31 0.12,0.95 0.16,1.27 -0.74,1.31 -1.45,2.64 -2.17,3.97 -0.03,0.24 -0.1,0.73 -0.13,0.97 -1.46,3.04 -2.83,6.12 -4.22,9.2 -0.96,2.57 -1.68,5.21 -2.45,7.84 -0.18,2.82 0.11,5.63 0.91,8.34 1.8,3.27 3.75,6.46 5.72,9.63 0.66,2.05 1.27,4.11 1.9,6.17 0.08,1.49 0.16,2.97 0.23,4.46 l -0.51,0.04 c -0.18,6.49 -4.54,11.63 -6.93,17.39 -2.11,4.39 -1.7,9.39 -2.24,14.11 0.23,1.05 0.45,2.1 0.66,3.17 -0.9,0.01 -1.79,0.03 -2.69,0.05 0.06,-3.79 0.09,-7.58 0.1,-11.37 0.5,-3.01 1.07,-6.02 2.37,-8.8 0.88,-1.73 1.77,-3.46 2.71,-5.15 0.88,-1.89 1.64,-3.84 2.38,-5.78 0.34,-1.06 0.69,-2.12 1.07,-3.16 0.59,-5.44 -1.63,-10.59 -4.64,-14.98 -1.65,-2.63 -3.11,-5.44 -3.65,-8.52 l -0.51,0 c 0.16,-3.26 0.69,-6.48 1.14,-9.71 0.69,-1.96 1.36,-3.93 2.05,-5.9 1.22,-2.68 2.32,-5.4 3.54,-8.08 0.06,-0.22 0.17,-0.65 0.23,-0.87 0.64,-1.27 1.27,-2.55 1.91,-3.82 0.48,-1.04 0.97,-2.08 1.46,-3.11 0.67,-1.22 1.32,-2.44 1.96,-3.67 l 0.8,-0.03 c -0.03,-0.3 -0.1,-0.91 -0.13,-1.21 0.82,-1.23 1.62,-2.47 2.4,-3.73 l 0.64,-0.05 c -0.01,-0.32 -0.05,-0.96 -0.07,-1.28 1.63,-2.309995 3.13,-4.709995 4.6,-7.119995 z"
     id="path58"
     inkscape:connector-curvature="0"
     style="fill:#ffffff" />
  <path
     d="m 158.50692,93.952195 c 2.83,6.329995 9.68,10.569995 16.63,10.049995 3.92,-0.12 7.51,-1.99 10.6,-4.279995 9.29,7.649995 18.52,15.369995 27.86,22.949995 -14.73,-5.52 -30.9,-6.93 -46.39,-4.31 -11.91,2.15 -24.29,6.22 -32.78,15.3 0.83,-7.99 0.61,-16.03 0.93,-24.05 10.04,0.38 20.04,-5.95 23.15,-15.659995 z"
     id="path60"
     inkscape:connector-curvature="0"
     style="fill:#ffffff" />
  <path
     d="m 169.62692,122.61219 c 16.78,-2.38 34.71,-0.4 49.66,7.98 6.25,3.74 12.49,9.47 13.04,17.19 0.53,6.65 -3.77,12.52 -8.84,16.34 -9.27,7.04 -20.9,10.11 -32.3,11.39 -15.72,1.43 -32.28,-0.76 -46.1,-8.75 -5.85,-3.62 -11.61,-8.9 -12.53,-16.09 -0.95,-6.8 3.31,-13.04 8.48,-17 8.22,-6.34 18.43,-9.53 28.59,-11.06 z"
     id="path64"
     inkscape:connector-curvature="0"
     style="fill:#f7b7ce" />
  <path
     d="m 157.48692,131.29219 c 4.08,-1.44 8.49,3.01 7.14,7.08 -1.07,4.02 -6.76,5.7 -9.54,2.38 -3.08,-2.84 -1.48,-8.3 2.4,-9.46 z"
     id="path70"
     inkscape:connector-curvature="0"
     style="fill:#000000" />
  <path
     d="m 200.47692,131.29219 c 4.09,-1.44 8.51,3.01 7.15,7.09 -1.07,3.99 -6.7,5.67 -9.5,2.42 -3.12,-2.82 -1.55,-8.34 2.35,-9.51 z"
     id="path72"
     inkscape:connector-curvature="0"
     style="fill:#000000" />
  <path
     d="m 45.986923,241.80219 c 2.36,0 4.73,0 7.09,0 0,21.33 0,42.67 0,64 -2.33,0 -4.67,0 -7,0 -0.02,-21.33 0.06,-42.67 -0.09,-64 z"
     id="path84"
     inkscape:connector-curvature="0"
     style="fill:#ffffff" />
  <path
     d="m 60.326923,241.83219 c 19.38,-0.05 38.75,-0.04 58.129997,-0.01 -0.34,10 -6.29,19.61 -15.31,24.06 -11.339997,5.98 -26.569997,3.75 -35.299997,-5.78 -4.77,-4.85 -7.2,-11.56 -7.52,-18.27 z"
     id="path86"
     inkscape:connector-curvature="0"
     style="fill:#f7b7ce" />
  <path
     d="m 148.07692,241.80219 c 2.33,0 4.67,0 7,0 0,21.33 0,42.67 0,64 -2.33,0 -4.67,0 -7,0 0,-21.33 0,-42.67 0,-64 z"
     id="path88"
     inkscape:connector-curvature="0"
     style="fill:#ffffff" />
  <path
     d="m 158.07692,241.80219 c 2,0 4,0 6,0 0,18.33 0,36.67 0,55 -2,0 -4,0 -6,0 0,-18.33 0,-36.67 0,-55 z"
     id="path90"
     inkscape:connector-curvature="0"
     style="fill:#ffffff" />
  <path
     d="m 56.076923,296.80219 c 0.03,-17.46 -0.08,-34.91 0.1,-52.36 0.31,5.82 2.69,11.22 5.9,16.02 0,12.11 0,24.23 0,36.34 -2,0 -4,0 -6,0 z"
     id="path92"
     inkscape:connector-curvature="0"
     style="fill:#ffffff" />
  <path
     d="m 108.01692,268.70219 c 1.71,-1.63 3.54,-3.12 5.46,-4.5 1.31,2.08 2.33,5.47 -0.46,6.88 -2.06,1.53 -3.8,-1.04 -5,-2.38 z"
     id="path96"
     inkscape:connector-curvature="0"
     style="fill:#f7b7ce" />
  <path
     d="m 73.986923,276.51219 c -3.14,-1.05 -2.76,-4.67 -1.55,-7.04 2.03,0.95 4.03,1.95 6,3.01 -0.98,1.78 -1.87,4.5 -4.45,4.03 z"
     id="path100"
     inkscape:connector-curvature="0"
     style="fill:#f7b7ce" />
  <path
     d="m 89.426923,273.95219 c 2.09,-0.23 4.18,-0.4 6.28,-0.49 0.17,2.24 0.26,5.75 -2.78,6 -3.05,0.35 -3.63,-3.22 -3.5,-5.51 z"
     id="path104"
     inkscape:connector-curvature="0"
     style="fill:#f7b7ce" />
</svg>
