<?xml version="1.0"?><svg width="160" height="160" xmlns="http://www.w3.org/2000/svg">
 <title>3yr birthday cake</title>
 <g>
  <title>Layer 1</title>
  <path d="m142.587997,108.357002c0,12.471001 -29.228996,22.592003 -65.244194,22.592003c-36.015003,0 -65.244503,-10.121002 -65.244503,-22.592003c0,-12.470901 29.2295,-22.592201 65.244503,-22.592201c36.015198,0 65.244194,10.1213 65.244194,22.592201z" stroke-width="1.41592pt" stroke="#000000" fill-rule="evenodd" fill="#000000" id="path850"/>
  <path d="m77.343697,42.6744c-31.240898,0 -56.595896,9.0653 -56.595896,20.2351c0,0.5182 0.215199,39.443497 0.215199,39.697502c0,11.169998 25.355001,20.235001 56.5959,20.235001c31.241104,0 56.5961,-9.065002 56.5961,-20.235001l-0.214996,-38.925201c0,0 0,-0.508102 0,-0.772301c0,-11.1698 -25.355003,-20.2351 -56.596306,-20.2351z" stroke-width="1.16248pt" stroke="#000000" fill-rule="evenodd" fill="#ffffff" id="path829"/>
  <path d="m19.026199,58.5331c-0.462299,4.153698 -4.4211,15.395298 3.564701,13.637501c7.970699,0.627098 -0.124001,13.693596 8.2458,14.206497c6.801201,0.516304 1.0697,-10.291801 7.242599,-7.014702c6.293999,1.262604 5.483299,7.471405 6.3386,11.670601c4.158199,3.3265 5.5084,-2.501999 4.2341,-5.192596c3.122101,-4.528702 11.814301,-2.601501 16.329399,-0.912498c2.515602,4.585999 4.2967,14.047699 12.238899,11.482201c5.293602,-1.606705 7.611099,-11.265503 13,-12.126305c4.850601,0.047798 5.2043,11.7509 10.576698,6.451004c1.465004,-4.320999 9.301003,-12.107101 14.100006,-6.909805c4.834,4.445107 12.223999,1.106201 10.426994,-6.526695c2.591003,-4.517204 10.151009,1.838097 10.166008,-10.5895c1.162994,-5.864902 0.210999,-11.300301 -7.860008,-16.026302c-4.882996,-2.337299 -12.125,-3.453598 -19.224998,-6.361599c-7.698997,-2.7048 -14.924896,-4.160599 -23.042603,-5.298302c-14.164398,-0.241199 -25.948395,1.4305 -39.862797,4.077103c-6.5695,0.784401 -11.244801,4.882698 -17.2358,6.8993c-3.773399,1.734699 -7.6542,5.225601 -9.2376,8.5341z" stroke-width="1.31491pt" stroke="#000000" fill-rule="evenodd" fill="#000000" id="path833"/>
  <path d="m22.469299,64.417801c0,5.147896 5.118101,4.272896 8.177401,7.0616c2.989698,1.362602 5.006102,2.353897 8.607801,2.353897c5.106197,0 -0.650402,-1.669495 -2.152,-2.353897c-3.543301,0 -9.038101,-1.8703 -9.038101,-5.100098c-2.1234,-1.9356 -2.4755,-1.961502 -5.5951,-1.961502z" stroke-width="1pt" fill-rule="evenodd" fill-opacity="0.8" fill="#ffffff" id="path835"/>
  <path d="m52.1661,75.402496c1.344501,2.451103 7.797501,3.530907 13.342003,3.530907c2.936897,1.338493 15.493896,2.446098 15.493896,-1.569305c0,-3.017899 -7.943497,-0.784599 -9.468498,-0.784599c-2.707802,0 -13.789402,-3.515297 -15.4939,-1.961601c-1.657799,0 -2.047501,0.118904 -3.873501,0.784599z" stroke-width="1pt" fill-rule="evenodd" fill-opacity="0.8" fill="#ffffff" id="path836"/>
  <path d="m90.040199,76.579498c3.129402,2.8526 13.670799,1.027199 18.506798,-1.177002c1.910004,-1.160599 9.038002,-1.898499 9.038002,-4.315399c1.68,-1.531395 -6.199997,-0.625298 -7.317001,0.392303c-5.415001,0 -13.1119,1.176903 -19.366997,1.176903c-2.613998,0 -1.311005,2.897293 -0.860802,3.923195z" stroke-width="1pt" fill-rule="evenodd" fill-opacity="0.8" fill="#ffffff" id="path837"/>
  <path d="m126.023003,71.264603c1.433998,-1.565804 4.778999,-5.211006 6.258995,-8.444603c0,-1.357998 2.083008,-6.031799 -0.367996,-6.031799c-2.076996,0 -4.417999,3.0214 -4.417999,5.2276c-0.969002,1.0583 -0.024002,6.031799 -2.209,6.031799c0,3.175797 -2.440002,3.217003 0.736,3.217003z" stroke-width="0.936403pt" fill-rule="evenodd" fill-opacity="0.8" fill="#ffffff" id="path838"/>
  <path d="m117.154999,49.5098c-3.473999,0 -6.812996,-1.731899 -10.760002,-3.5308c-4.742996,-1.0807 -9.459396,-3.1385 -14.202896,-3.1385c0,5.638699 8.884903,9.092899 14.202896,6.6693c3.978004,0 6.401001,1.986801 10.760002,0z" stroke-width="1pt" fill-rule="evenodd" fill-opacity="0.8" fill="#ffffff" id="path839"/>
  <path d="m80.384201,42.791199c-1.264297,-0.373199 -8.099701,-0.864597 -12.237305,-0.292698c-2.652794,0.3666 -5.260296,1.123798 -8.020496,1.505199c-4.189999,0.579102 -4.5126,3.004501 -0.038399,2.386101c4.428799,-0.612 8.774197,-0.022202 13.3848,-0.659401c2.282799,1.532902 5.990196,-1.487099 6.9114,-2.939201z" stroke-width="1pt" fill-rule="evenodd" fill-opacity="0.8" fill="#ffffff" id="path840"/>
  <path d="m44.849499,48.332901c-1.911198,0 -6.761799,2.353897 -9.898899,2.353897c-2.1572,0 -9.468599,1.641602 -9.468599,3.530804c-2.768801,2.523899 7.704699,-1.569302 11.620501,-1.569302c2.268398,0 6.455799,0.106201 6.455799,-1.961502c1.598598,0 1.291199,-1.080898 1.291199,-2.353897z" stroke-width="1pt" fill-rule="evenodd" fill-opacity="0.8" fill="#ffffff" id="path841"/>
  <path d="m31.077101,61.6716c2.5889,0 8.042498,0.784599 12.050798,0.784599c2.0387,-1.858299 7.316601,0.726799 7.316601,-3.1385c0,-0.813599 -9.1194,-1.569298 -10.3293,-1.569298c-1.663601,0 -6.093899,0.847099 -9.038099,3.923199z" stroke-width="1pt" fill-rule="evenodd" fill-opacity="0.8" fill="#ffffff" id="path842"/>
  <path d="m47.431801,70.302498c3.2794,-2.989296 5.896297,-5.374802 9.0382,-8.238598c1.676598,-1.528301 6.253998,0.288101 1.7215,2.353901c0,2.404297 -2.2117,4.315399 -4.734303,4.315399c-2.1124,1.925499 -2.817699,1.569298 -6.025398,1.569298z" stroke-width="1pt" fill-rule="evenodd" fill-opacity="0.8" fill="#ffffff" id="path843"/>
  <path d="m52.1661,49.9021c0,2.255802 10.3293,2.924599 10.3293,5.100101c3.185097,0 1.668297,-4.315403 -1.291199,-4.315403c-3.764202,0 -5.354301,-1.4562 -9.038101,-0.784698z" stroke-width="1pt" fill-rule="evenodd" fill-opacity="0.8" fill="#ffffff" id="path844"/>
  <path d="m85.305901,45.979c-2.252403,2.0532 -2.409599,7.061699 -5.595001,7.061699c0,4.579201 5.595001,2.231102 5.595001,-0.784698c1.163696,-1.060699 2.152,-5.0583 0,-6.277z" stroke-width="1pt" fill-rule="evenodd" fill-opacity="0.8" fill="#ffffff" id="path845"/>
  <path d="m78.850098,64.417801c0,0.863701 1.721603,5.997398 1.721603,6.669296c3.483002,1.587502 4.7342,-1.318794 4.7342,-3.923195c-3.243202,-2.9562 0.179398,-7.930302 -6.455803,-2.746101z" stroke-width="1pt" fill-rule="evenodd" fill-opacity="0.8" fill="#ffffff" id="path846"/>
  <path d="m119.737,52.6483c-1.838997,0 -14.329002,1.799 -15.494003,3.923199c0,6.227699 8.742004,0.784599 12.912003,0.784599c2.431999,0 2.974998,-2.557098 2.582001,-4.707798z" stroke-width="1pt" fill-rule="evenodd" fill-opacity="0.8" fill="#ffffff" id="path847"/>
  <path d="m119.737,65.594704c-2.786003,-2.539104 -7.681,-1.961605 -11.621002,-1.961605c-2.935997,0 -5.282997,2.746204 -1.291,2.746204c3.413002,0 6.102005,0.784599 9.899002,0.784599c1.779999,0 0.637001,0.163399 3.013,-1.569199z" stroke-width="1pt" fill-rule="evenodd" fill-opacity="0.8" fill="#ffffff" id="path848"/>
  <g transform="matrix(1.37724 0 0 1.2554 -92.3763 -13.9512)" id="g862">
   <path d="m116.374001,29.6569c1.051003,1.837999 2.829002,0.862799 4.758003,1.007c1.956993,0.1654 2.813995,-1.1094 4.006996,-1.503401c3.476006,2.100901 0.397003,4.957199 1.079002,8.575001c0.047997,2.639 0.475998,6.873798 0.879997,9.674301c0.164001,2.295097 -5.928001,2.471699 -7.086998,1.4501c-0.957001,-0.584 -1.701004,-2.451103 -1.102005,-4.614201c0.162003,-2.6647 -0.678993,-4.053101 -1.169998,-6.677902c0.136002,-3.223999 -3.386002,-4.167698 -1.364998,-7.910898z" stroke-width="0.710481pt" stroke-linejoin="round" stroke="#000000" fill-rule="evenodd" fill="#ffffff" id="path857"/>
   <path d="m116.370003,29.3139c0.776001,0.214001 2.404999,0.4114 3.187996,0.087799c0.875999,0 2.124001,0.265701 2.764,-0.263599c0.5,0 1.913002,-0.175699 2.550003,-0.175699c0.804001,0 -0.425003,-0.274 -0.425003,0.439299c-0.588997,0 -1.070999,0.446201 -1.487999,0.790901c-0.362999,0.6003 -1.412003,0.6152 -2.125,0.6152c-0.832001,0 -1.809998,-0.0879 -2.656998,-0.0879c-0.784004,0 -1.487999,-0.1362 -1.806999,-1.406z" stroke-width="0.710481pt" stroke-linejoin="round" stroke="#000000" fill-rule="evenodd" fill="#ffffff" id="path858"/>
   <path d="m118.282997,13.7598c1.488007,1.6696 9.672005,12.829901 1.488007,13.445c-11.054001,1.318201 -0.532005,-9.578499 -1.488007,-13.445z" stroke-width="0.710481pt" stroke="#000000" fill-rule="evenodd" fill="#ffffff" id="path860"/>
   <path d="m119.334999,18.3183c0.777,1.041901 4.521004,8.181499 0.246002,8.5653c-5.775002,0.822599 0.252998,-6.152599 -0.246002,-8.5653z" stroke-width="1pt" fill-rule="evenodd" fill="#ffffff" id="path861"/>
   <path d="m120.940002,30.2805c-1.615005,-0.9722 -2.272003,-2.666901 -1.734001,-3.582401c0.417,-0.998199 0.595001,-3.252399 0.595001,-4.657299" stroke-width="0.710481pt" stroke="#000000" fill-rule="evenodd" fill-opacity="0.75" fill="#ffffff" id="path859"/>
  </g>
  <g transform="matrix(1.37724 0 0 1.2554 -50.281 -0.059237)" id="g868">
   <path d="m116.374001,29.6569c1.051003,1.837999 2.829002,0.862799 4.758003,1.007c1.956993,0.1654 2.813995,-1.1094 4.006996,-1.503401c3.476006,2.100901 0.397003,4.957199 1.079002,8.575001c0.047997,2.639 0.475998,6.873798 0.879997,9.674301c0.164001,2.295097 -5.928001,2.471699 -7.086998,1.4501c-0.957001,-0.584 -1.701004,-2.451103 -1.102005,-4.614201c0.162003,-2.6647 -0.678993,-4.053101 -1.169998,-6.677902c0.136002,-3.223999 -3.386002,-4.167698 -1.364998,-7.910898z" stroke-width="0.710481pt" stroke-linejoin="round" stroke="#000000" fill-rule="evenodd" fill="#ffffff" id="path869"/>
   <path d="m116.370003,29.3139c0.776001,0.214001 2.404999,0.4114 3.187996,0.087799c0.875999,0 2.124001,0.265701 2.764,-0.263599c0.5,0 1.913002,-0.175699 2.550003,-0.175699c0.804001,0 -0.425003,-0.274 -0.425003,0.439299c-0.588997,0 -1.070999,0.446201 -1.487999,0.790901c-0.362999,0.6003 -1.412003,0.6152 -2.125,0.6152c-0.832001,0 -1.809998,-0.0879 -2.656998,-0.0879c-0.784004,0 -1.487999,-0.1362 -1.806999,-1.406z" stroke-width="0.710481pt" stroke-linejoin="round" stroke="#000000" fill-rule="evenodd" fill="#ffffff" id="path870"/>
   <path d="m118.282997,13.7598c1.488007,1.6696 9.672005,12.829901 1.488007,13.445c-11.054001,1.318201 -0.532005,-9.578499 -1.488007,-13.445z" stroke-width="0.710481pt" stroke="#000000" fill-rule="evenodd" fill="#ffffff" id="path871"/>
   <path d="m119.334999,18.3183c0.777,1.041901 4.521004,8.181499 0.246002,8.5653c-5.775002,0.822599 0.252998,-6.152599 -0.246002,-8.5653z" stroke-width="1pt" fill-rule="evenodd" fill="#ffffff" id="path872"/>
   <path d="m120.940002,30.2805c-1.615005,-0.9722 -2.272003,-2.666901 -1.734001,-3.582401c0.417,-0.998199 0.595001,-3.252399 0.595001,-4.657299" stroke-width="0.710481pt" stroke="#000000" fill-rule="evenodd" fill-opacity="0.75" fill="#ffffff" id="path873"/>
  </g>
  <g transform="matrix(-1.34294 0.278415 0.305435 1.22414 182.876 -32.7283)" id="g874">
   <path d="m116.374001,29.6569c1.051003,1.837999 2.829002,0.862799 4.758003,1.007c1.956993,0.1654 2.813995,-1.1094 4.006996,-1.503401c3.476006,2.100901 0.397003,4.957199 1.079002,8.575001c0.047997,2.639 0.475998,6.873798 0.879997,9.674301c0.164001,2.295097 -5.928001,2.471699 -7.086998,1.4501c-0.957001,-0.584 -1.701004,-2.451103 -1.102005,-4.614201c0.162003,-2.6647 -0.678993,-4.053101 -1.169998,-6.677902c0.136002,-3.223999 -3.386002,-4.167698 -1.364998,-7.910898z" stroke-width="0.710481pt" stroke-linejoin="round" stroke="#000000" fill-rule="evenodd" fill="#ffffff" id="path875"/>
   <path d="m116.370003,29.3139c0.776001,0.214001 2.404999,0.4114 3.187996,0.087799c0.875999,0 2.124001,0.265701 2.764,-0.263599c0.5,0 1.913002,-0.175699 2.550003,-0.175699c0.804001,0 -0.425003,-0.274 -0.425003,0.439299c-0.588997,0 -1.070999,0.446201 -1.487999,0.790901c-0.362999,0.6003 -1.412003,0.6152 -2.125,0.6152c-0.832001,0 -1.809998,-0.0879 -2.656998,-0.0879c-0.784004,0 -1.487999,-0.1362 -1.806999,-1.406z" stroke-width="0.710481pt" stroke-linejoin="round" stroke="#000000" fill-rule="evenodd" fill="#ffffff" id="path876"/>
   <path d="m118.282997,13.7598c1.488007,1.6696 9.672005,12.829901 1.488007,13.445c-11.054001,1.318201 -0.532005,-9.578499 -1.488007,-13.445z" stroke-width="0.710481pt" stroke="#000000" fill-rule="evenodd" fill="#ffffff" id="path877"/>
   <path d="m119.334999,18.3183c0.777,1.041901 4.521004,8.181499 0.246002,8.5653c-5.775002,0.822599 0.252998,-6.152599 -0.246002,-8.5653z" stroke-width="1pt" fill-rule="evenodd" fill="#ffffff" id="path878"/>
   <path d="m120.940002,30.2805c-1.615005,-0.9722 -2.272003,-2.666901 -1.734001,-3.582401c0.417,-0.998199 0.595001,-3.252399 0.595001,-4.657299" stroke-width="0.710481pt" stroke="#000000" fill-rule="evenodd" fill-opacity="0.75" fill="#ffffff" id="path879"/>
  </g>
  <path d="m68.469597,25.3249c-1.794594,2.5793 1.960304,4.207701 2.4132,6.5527c1.002602,2.946501 1.401001,7.127302 1.587906,10.1952c-0.936806,2.097702 1.559395,7.1133 2.533501,3.469501c0.234497,-4.4627 -0.964005,-10.879002 -1.748604,-15.2446c-0.685402,-2.335001 -2.1119,-4.580502 -4.786003,-4.972801z" stroke-width="1pt" fill-rule="evenodd" fill-opacity="0.3" fill="#ffffff" id="path901"/>
  <path d="m110.172997,38.7481c-1.794998,2.5793 1.960007,4.207699 2.413002,6.552799c1.001999,2.9464 1.401001,7.127201 1.588005,10.195099c-0.937004,2.097801 1.558998,7.113403 2.532997,3.469501c0.235001,-4.462601 -0.964005,-10.878899 -1.748001,-15.244499c-0.685997,-2.334999 -2.112,-4.580502 -4.786003,-4.9729z" stroke-width="1pt" fill-rule="evenodd" fill-opacity="0.3" fill="#ffffff" id="path902"/>
  <path d="m88.031197,49.890598c-1.794495,2.5793 1.960304,4.207703 2.413307,6.552803c1.002495,2.9464 1.400894,7.127197 1.587799,10.195095c-0.936806,2.097801 1.559395,7.113403 2.5336,3.469505c0.234398,-4.462601 -0.964104,-10.878902 -1.748703,-15.244602c-0.685402,-2.3349 -2.1119,-4.580399 -4.786003,-4.972801z" stroke-width="1pt" fill-rule="evenodd" fill-opacity="0.3" fill="#ffffff" id="path903"/>
  <path d="m22.990999,39.168598c-1.794498,2.5793 1.9603,4.207703 2.413301,6.552803c1.002499,2.9464 1.4009,7.127197 1.587799,10.195099c-0.9368,2.097801 1.559401,7.1133 2.5336,3.469501c0.2344,-4.4627 -0.9641,-10.879002 -1.748699,-15.244602c-0.6854,-2.3349 -2.1119,-4.580498 -4.786001,-4.972801z" stroke-width="1pt" fill-rule="evenodd" fill-opacity="0.3" fill="#ffffff" id="path904"/>
  <path d="m50.8983,50.941799c-1.794498,2.5793 1.9604,4.207703 2.4133,6.5527c1.002499,2.946503 1.400902,7.127304 1.587902,10.195198c-0.936901,2.097801 1.559299,7.113304 2.533497,3.469505c0.234402,-4.4627 -0.9641,-10.878902 -1.748699,-15.244602c-0.685398,-2.3349 -2.1119,-4.580502 -4.785999,-4.972801z" stroke-width="1pt" fill-rule="evenodd" fill-opacity="0.3" fill="#ffffff" id="path905"/>
  <path d="m73.7742,95.543602c2.050102,1.670197 7.611099,-2.606804 7.611099,-3.574005c0,-1.383598 0.9226,-1.976097 0.9226,-3.3638c-1.523399,-1.388596 -3.325699,2.733101 -5.074097,2.733101c-1.070503,0.9758 -4.0177,1.660706 -3.459602,4.204704z" stroke-width="1pt" fill-rule="evenodd" fill-opacity="0.8" fill="#ffffff" id="path906"/>
  <path d="m98.452599,91.549103c2.253403,-1.164505 3.493401,-4.055305 4.612404,-6.096802c1.417,-1.291199 -0.209,-1.051201 -1.614006,-1.051201c-1.500694,1.367897 -2.987297,1.251396 -4.382195,2.522903c0,1.734993 -0.4804,3.945396 1.383797,4.625099z" stroke-width="1pt" fill-rule="evenodd" fill-opacity="0.8" fill="#ffffff" id="path907"/>
  <path d="m119.209999,85.031799c1.320999,-0.401398 4.152,-0.643196 4.152,-2.312599c1.07,-0.975502 1.153,-2.439598 1.153,-3.784203c-1.179001,-2.149101 -3.440002,-0.438797 -4.844002,0.840904c-0.854996,1.558998 -1.369995,4.841499 -0.460999,5.255898z" stroke-width="1pt" fill-rule="evenodd" fill-opacity="0.8" fill="#ffffff" id="path909"/>
  <path d="m130.742004,74.309799c1.860001,-0.759598 2.450989,-1.961098 2.875992,-3.975403c0.524002,-1.660698 0.789001,-2.245293 -0.856003,-1.138199c-1.646988,0.939102 -3.571991,2.032501 -3.452988,3.947403c0.04599,0.838799 0.366989,1.527397 1.432999,1.166199z" stroke-width="1pt" fill-rule="evenodd" fill-opacity="0.8" fill="#ffffff" id="path929"/>
  <path d="m45.174999,91.338898c1.482903,0.397903 3.882301,-0.876099 3.229,-3.784195c-2.523399,0 -3.229,1.6735 -3.229,3.784195z" stroke-width="1pt" fill-rule="evenodd" fill-opacity="0.8" fill="#ffffff" id="path911"/>
  <path d="m29.0303,84.611397c1.615799,1.577301 3.0825,2.025604 4.612801,-0.840996c0,-1.568901 0.2831,-2.522804 -1.614502,-2.522804c-1.5446,0 -2.882198,0.8396 -3.459599,1.892105c0,0.654297 0.073999,0.588997 0.4613,1.471695z" stroke-width="1pt" fill-rule="evenodd" fill-opacity="0.8" fill="#ffffff" id="path912"/>
  <path d="m18.4209,69.474403c1.678801,1.892097 2.7677,3.756897 2.7677,-0.210205c-0.159401,-2.037399 -2.7677,-1.9608 -2.7677,0.210205z" stroke-width="1pt" fill-rule="evenodd" fill-opacity="0.8" fill="#ffffff" id="path913"/>
  <path d="m20.4967,87.344398c7.1695,-0.318398 8.955,4.833702 15.558701,6.7855c6.993599,0.8451 14.444,3.724098 20.756599,5.002602c6.853001,1.302498 15.421101,2.136497 22.9855,1.764503c9.009903,-1.056 24.543503,-3.389999 30.640503,-5.698303c7.017998,-2.320702 18.016998,-7.787399 22.932999,-11.552696c3.994995,-0.087105 1.656998,5.904297 0.235992,8.757095c0.16301,3.749397 -1.445999,6.902603 -6.347992,5.641403c-5.641006,-1.380302 -4.145004,8.518501 -10.223999,5.051498c-5.337006,-3.159904 -7.692001,2.290001 -7.770004,6.197998c-5.263,2.140999 -12.2994,6.457001 -17.734398,2.408005c-2.820305,-4.748001 -12.892899,-7.357002 -14.119102,-0.275002c-3.622299,5.094002 -11.443298,3.638 -13.565498,-1.540001c-4.5527,-2.355003 -10.0872,-1.278 -14.8759,-2.947998c-2.654202,2.755997 -9.789101,5.190994 -9.908302,-0.491005c-1.778198,-5.671997 -13.430798,-11.219498 -15.818897,-4.466995c-6.934401,0.740997 -5.5776,-5.261299 -4.936602,-10.984901c-0.282,-1.752403 0.077301,-3.211899 2.190401,-3.651703z" stroke-width="1.31491pt" stroke="#000000" fill-rule="evenodd" fill="#000000" id="path937"/>
  <path d="m19.037201,98.9804c1.269098,2.910599 2.746698,2.941597 6.345699,0c0,-2.420601 -4.4807,1.973602 -6.345699,0z" stroke-width="1pt" fill-rule="evenodd" fill-opacity="0.8" fill="#ffffff" id="path938"/>
  <path d="m39.851101,106.341003c1.991501,5.798996 6.6124,1.269997 7.868698,0.253998c0.507702,-4.116005 -5.362598,2.037003 -7.868698,-0.253998z" stroke-width="1pt" fill-rule="evenodd" fill-opacity="0.8" fill="#ffffff" id="path939"/>
  <path d="m66.757004,111.417999c3.553596,4.438004 9.391693,0.971001 9.391693,-0.761002c0,-1.899994 0.342506,-2.284996 -2.030701,-2.284996c-0.504196,4.822998 -6.749893,2.739998 -7.360992,3.045998z" stroke-width="1pt" fill-rule="evenodd" fill-opacity="0.8" fill="#ffffff" id="path940"/>
  <path d="m94.170502,111.671997c3.050499,1.777 12.400497,-0.507996 9.391495,-1.522995c-1,-0.508003 -9.4664,0.275002 -9.391495,1.522995z" stroke-width="1pt" fill-rule="evenodd" fill-opacity="0.8" fill="#ffffff" id="path941"/>
  <path d="m107.370003,107.863998c1.764999,1.535004 3.920998,-5.584 2.537994,-5.584c-2.948997,0.411003 -4.896996,5.112999 -2.537994,5.584z" stroke-width="1pt" fill-rule="evenodd" fill-opacity="0.8" fill="#ffffff" id="path942"/>
  <path d="m119.806999,102.533997c1.945999,-0.337997 3.862999,-4.822693 2.539001,-4.822693c-1.530998,0 -2.840004,4.069695 -2.539001,4.822693z" stroke-width="1pt" fill-rule="evenodd" fill-opacity="0.8" fill="#ffffff" id="path943"/>
  <path d="m130.975998,96.442101c2.516006,0.021896 1.184006,-3.299797 2.283997,-3.299797c0,-1.201004 0.508011,-3.174301 0.508011,-5.0765c-1.128006,-1.127502 -3.300003,1.153793 -3.300003,2.284393c0,1.729805 -1.882004,6.083702 0.507996,6.091904z" stroke-width="1pt" fill-rule="evenodd" fill-opacity="0.8" fill="#ffffff" id="path944"/>
 </g>
</svg>