<?xml version="1.0" encoding="utf-8"?>
<!-- Generator: Adobe Illustrator 16.0.0, SVG Export Plug-In . SVG Version: 6.00 Build 0)  -->
<!DOCTYPE svg PUBLIC "-//W3C//DTD SVG 1.1 Tiny//EN" "http://www.w3.org/Graphics/SVG/1.1/DTD/svg11-tiny.dtd">
<svg version="1.1" baseProfile="tiny" id="Layer_1" xmlns="http://www.w3.org/2000/svg" xmlns:xlink="http://www.w3.org/1999/xlink"
	 x="0px" y="0px" width="166.979px" height="61.792px" viewBox="0 0 166.979 61.792" xml:space="preserve">
<g>
	<path fill="#FFFFFF" d="M0,62.992C0,41.994,0,20.997,0,0c55.659,0,111.319,0,166.979,0c0,20.997,0,41.994,0,62.992
		C111.319,62.992,55.659,62.992,0,62.992z M81.151,40.952c-1.333,0.575-2.664,1.149-4.19,1.809c0.618,1.713,1.151,3.191,1.931,5.356
		c-2.098,0-3.72,0-5.342,0c-3.794,0-7.587,0-11.973,0c1.194-5.17,2.104-9.715,3.304-14.182c3.182-11.841,2.03-11.672-9.063-11.654
		c-3.207,0.005-4.739,0.889-5.499,4.12c-2.285,9.71-4.79,19.372-7.385,29.005c-1.152,4.277,0.326,5.685,4.582,5.664
		c22.135-0.102,44.272-0.118,66.407,0.027c3.307,0.022,4.594-1.069,5.408-4.217c3.087-11.921,6.428-23.776,9.833-35.611
		c0.44-1.53,1.67-3.836,2.78-3.99c3.683-0.505,7.477-0.19,11.915-0.19c-0.66,2.974-1.06,5.048-1.584,7.092
		c-2.729,10.637-5.471,21.272-8.253,31.896c-0.975,3.724,0,5.77,4.222,5.613c3.326-0.123,6.686-0.278,9.983,0.048
		c3.558,0.351,4.865-1.054,5.689-4.437c3.702-15.183,7.792-30.27,11.481-45.456c0.434-1.787-0.268-4.261-1.278-5.904
		c-2.334-3.794-5.983-5.472-10.564-5.422c-10.828,0.117-21.662,0.19-32.485-0.052c-3.698-0.082-5.221,1.207-6.122,4.716
		c-3.104,12.083-6.578,24.071-9.784,36.131c-0.746,2.809-1.654,4.609-4.979,2.942c1.391-3.187,2.96-6.13,3.96-9.255
		c1.058-3.305,1.849-6.748,2.278-10.191c1.754-14.082-7.297-24.21-21.577-24.248c-16.49-0.044-32.981-0.06-49.472,0.004
		C19.446,0.632,7.311,9.472,2.227,24.566c-4.67,13.866-0.562,27.772,11.459,33.694c5.321,2.621,12.197,2.071,18.36,3
		c3.824,0.576,5.514-0.845,6.331-4.839c2.043-9.996,2.283-9.938-7.792-10.946c-3.543-0.354-7-0.848-8.628-4.765
		c-2.54-6.112-1.05-12.894,3.999-17.338c4.69-4.128,10.252-6.12,16.464-6.191c6.663-0.076,13.338-0.237,19.989,0.063
		c4.289,0.193,7.851-0.01,8.232-6.097c1.371,2.101,2.226,3.413,2.949,4.52c1.931-0.385,3.465-0.69,5.083-1.013
		c-1.583,5.152-3.04,9.89-4.496,14.629c0.49,0.178,0.98,0.355,1.471,0.533c2.556-1.808,5.111-3.614,6.745-4.77
		c3.309,1.071,5.705,1.847,8.035,2.6c-0.717,2.831-1.53,6.044-2.344,9.258C85.772,38.254,83.462,39.604,81.151,40.952z"/>
	<path fill-rule="evenodd" d="M88.083,36.905c0.813-3.214,1.627-6.428,2.344-9.258c-2.33-0.753-4.727-1.528-8.035-2.6
		c-1.634,1.156-4.189,2.962-6.745,4.77c-0.491-0.178-0.981-0.355-1.471-0.533c1.456-4.739,2.912-9.477,4.496-14.629
		c-1.618,0.322-3.152,0.628-5.083,1.013c-0.723-1.107-1.578-2.419-2.949-4.52c-0.381,6.087-3.943,6.29-8.232,6.097
		c-6.651-0.301-13.326-0.14-19.989-0.063c-6.212,0.071-11.773,2.062-16.464,6.191c-5.049,4.444-6.538,11.226-3.999,17.338
		c1.628,3.917,5.085,4.41,8.628,4.765c10.075,1.009,9.835,0.95,7.792,10.946c-0.817,3.994-2.506,5.415-6.331,4.839
		c-6.164-0.929-13.04-0.379-18.36-3C1.664,52.338-2.444,38.432,2.227,24.566C7.311,9.472,19.446,0.632,35.377,0.569
		c16.49-0.063,32.981-0.048,49.472-0.004c14.28,0.037,23.331,10.166,21.577,24.248c-0.43,3.443-1.221,6.886-2.278,10.191
		c-1,3.125-2.569,6.068-3.96,9.255c3.324,1.667,4.232-0.134,4.979-2.942c3.206-12.06,6.681-24.047,9.784-36.131
		c0.901-3.509,2.424-4.798,6.122-4.716c10.823,0.242,21.657,0.169,32.485,0.052c4.581-0.05,8.23,1.627,10.564,5.422
		c1.011,1.643,1.712,4.117,1.278,5.904c-3.689,15.186-7.779,30.273-11.481,45.456c-0.824,3.383-2.132,4.787-5.689,4.437
		c-3.298-0.326-6.657-0.171-9.983-0.048c-4.222,0.156-5.196-1.89-4.222-5.613c2.782-10.624,5.523-21.26,8.253-31.896
		c0.524-2.044,0.924-4.119,1.584-7.092c-4.438,0-8.232-0.314-11.915,0.19c-1.11,0.153-2.34,2.46-2.78,3.99
		c-3.405,11.835-6.746,23.69-9.833,35.611c-0.814,3.147-2.102,4.239-5.408,4.217c-22.135-0.146-44.272-0.129-66.407-0.027
		c-4.256,0.021-5.734-1.387-4.582-5.664c2.595-9.634,5.1-19.295,7.385-29.005c0.76-3.231,2.292-4.115,5.499-4.12
		c11.093-0.018,12.245-0.187,9.063,11.654c-1.201,4.467-2.11,9.012-3.304,14.182c4.385,0,8.179,0,11.973,0c1.622,0,3.244,0,5.342,0
		c-0.78-2.165-1.313-3.644-1.931-5.356c1.526-0.659,2.857-1.233,4.187-1.807c-5.257,2.612,0.249,5.04,0.416,7.961
		c-5.059,0-9.841,0.109-14.616-0.036c-3.68-0.111-4.607,1.624-3.98,5.47c1.928,0,3.717,0,5.506,0
		c11.664,0.003,23.347-0.381,34.985,0.17c5.915,0.279,8.014-1.871,9.308-7.311c2.811-11.817,6.413-23.443,9.514-35.195
		c0.797-3.019,2.034-4.431,5.413-4.303c6.988,0.266,13.994,0.048,20.992,0.114c5.905,0.057,7.139,1.677,5.649,7.383
		c-3.573,13.693-7.203,27.372-10.776,41.066c-0.279,1.07-0.292,2.212-0.429,3.321c1.181-0.421,1.595-0.933,1.749-1.514
		c3.865-14.471,7.746-28.937,11.521-43.431c1.424-5.465-1.078-8.645-6.882-8.738c-7.496-0.121-15.004,0.167-22.491-0.121
		c-3.694-0.143-5.281,1.118-6.21,4.674c-3.319,12.723-7.074,25.333-10.386,38.059c-0.84,3.227-2.278,4.282-5.497,4.166
		c-5.991-0.217-11.995-0.065-17.994-0.066c-7.147-0.001-14.295,0-21.443,0c-0.001-0.617-0.002-1.233-0.004-1.851
		c6.46,0,12.92,0,20.106,0c-1.895-2.96-3.197-4.996-4.65-7.269c6.458-3.538,12.591-6.899,19.361-10.608
		c-2.864-1.214-4.642-1.967-6.693-2.836c1.981-3.56,3.787-6.803,5.977-10.734c-4.159,0.654-7.447,1.171-11.088,1.745
		c0.777-3.048,1.369-5.368,2.182-8.556c-3.289,1.917-5.737,3.345-9.022,5.258c1.42-4.594,2.512-8.123,3.825-12.37
		c-3.931,1.454-6.969,2.578-10.133,3.749c-0.316-1.001-0.553-1.618-0.703-2.254c-1.518-6.415-2.609-6.727-7.63-2.637
		c-0.996,0.811-2.735,0.964-4.137,0.981c-7.663,0.091-15.33-0.046-22.994,0.064c-14.778,0.213-27.615,9.479-31.33,22.7
		c-2.213,7.877-0.446,14.929,5.562,20.562c5.028,4.713,17.15,6.837,23.582,3.761c-3.959-0.186-6.867-0.303-9.773-0.462
		c-14.52-0.795-22.405-13.12-16.537-26.466C16.593,13.584,26.215,7.742,38.968,7.195c6.653-0.284,13.328-0.018,19.992-0.074
		c4.41-0.037,9.279,1.396,12.448-5.114c1.098,4.035,1.806,6.637,2.625,9.651c2.743-0.947,5.148-1.778,8.299-2.866
		c-1.399,4.558-2.596,8.454-4.194,13.662c3.867-2.459,6.398-4.071,9.686-6.162c-0.823,3.004-1.335,4.869-2.049,7.476
		c3.576-0.636,6.584-1.171,10.248-1.822c-1.835,3.23-3.357,5.909-5.031,8.855c1.571,0.856,2.937,1.6,5.028,2.739
		C92.889,34.868,90.486,35.887,88.083,36.905z"/>
	<path fill-rule="evenodd" fill="#FFFFFF" d="M88.083,36.905c2.403-1.019,4.806-2.037,7.938-3.364
		c-2.092-1.14-3.457-1.883-5.028-2.739c1.674-2.947,3.196-5.625,5.031-8.855c-3.664,0.651-6.672,1.187-10.248,1.822
		c0.714-2.606,1.226-4.471,2.049-7.476c-3.287,2.091-5.818,3.703-9.686,6.162c1.599-5.208,2.795-9.104,4.194-13.662
		c-3.151,1.087-5.557,1.918-8.299,2.866c-0.82-3.014-1.528-5.617-2.625-9.651C68.239,8.517,63.37,7.084,58.96,7.121
		c-6.665,0.057-13.339-0.21-19.992,0.074c-12.753,0.547-22.375,6.389-27.569,18.206c-5.868,13.346,2.018,25.671,16.537,26.466
		c2.906,0.159,5.814,0.276,9.773,0.462c-6.431,3.076-18.554,0.952-23.582-3.761c-6.009-5.633-7.776-12.685-5.562-20.562
		c3.715-13.221,16.552-22.487,31.33-22.7c7.664-0.11,15.331,0.026,22.994-0.064c1.402-0.017,3.141-0.17,4.137-0.981
		c5.021-4.089,6.112-3.778,7.63,2.637c0.15,0.637,0.387,1.253,0.703,2.254c3.164-1.17,6.202-2.294,10.133-3.749
		c-1.312,4.247-2.404,7.775-3.825,12.37c3.285-1.914,5.733-3.341,9.022-5.258c-0.812,3.188-1.404,5.507-2.182,8.556
		c3.641-0.573,6.929-1.09,11.088-1.745c-2.189,3.931-3.995,7.174-5.977,10.734c2.052,0.869,3.829,1.622,6.693,2.836
		c-6.771,3.709-12.903,7.07-19.361,10.608c1.453,2.272,2.756,4.309,4.65,7.269c-7.186,0-13.646,0-20.106,0
		c0.001,0.617,0.002,1.233,0.004,1.851c7.147,0,14.295-0.001,21.443,0c5.999,0.001,12.003-0.15,17.994,0.066
		c3.219,0.116,4.657-0.939,5.497-4.166c3.312-12.726,7.066-25.336,10.386-38.059c0.929-3.556,2.516-4.817,6.21-4.674
		c7.487,0.288,14.995,0,22.491,0.121c5.804,0.094,8.306,3.273,6.882,8.738c-3.775,14.494-7.656,28.96-11.521,43.431
		c-0.154,0.581-0.568,1.093-1.749,1.514c0.137-1.109,0.149-2.251,0.429-3.321c3.573-13.694,7.203-27.373,10.776-41.066
		c1.489-5.706,0.256-7.326-5.649-7.383c-6.998-0.066-14.004,0.151-20.992-0.114c-3.379-0.128-4.616,1.285-5.413,4.303
		c-3.101,11.751-6.703,23.377-9.514,35.195c-1.294,5.439-3.393,7.59-9.308,7.311c-11.639-0.551-23.321-0.167-34.985-0.17
		c-1.789,0-3.578,0-5.506,0c-0.626-3.846,0.301-5.581,3.98-5.47c4.774,0.146,9.557,0.036,14.616,0.036
		c-0.167-2.921-5.673-5.349-0.416-7.961C83.462,39.604,85.772,38.254,88.083,36.905z"/>
</g>
</svg>
