<?xml version="1.0" encoding="utf-8"?>
<!-- Generator: Adobe Illustrator 16.0.0, SVG Export Plug-In . SVG Version: 6.00 Build 0)  -->
<svg version="1.2" baseProfile="tiny" id="Layer_1" xmlns="http://www.w3.org/2000/svg" xmlns:xlink="http://www.w3.org/1999/xlink"
	 x="0px" y="0px" width="71.501px" height="48px" viewBox="0 0 71.501 48" xml:space="preserve">
<g>
	<path d="M43.92,48c-5.44,0-10.88,0-16.32,0c-2.488-0.836-4.343-2.324-5.049-4.963c-0.566-2.114-0.299-4.107,0.914-5.962
		c0.884-1.35,1.5-2.705,1.257-4.465c-0.782-5.654-1.401-11.331-2.097-16.997c-0.148-1.207-0.357-2.405-0.556-3.722
		c-4.014,0.923-7.898,1.101-11.766,0.165C6.389,11.108,2.908,9.365,0.24,6.24c0-0.4,0-0.8,0-1.2
		c3.52-2.618,7.578-3.375,11.831-3.303c3.443,0.058,6.68,1.027,9.728,2.622c0.62,0.324,1.161,0.589,1.843,0.005
		c2.188-1.873,4.715-3.087,7.542-3.672c0.572-0.118,1.13-0.299,1.695-0.451c1.84,0,3.68,0,5.52,0
		c0.258,0.08,0.511,0.192,0.774,0.236c3.074,0.511,6.019,1.375,8.401,3.496c0.81,0.721,1.443,0.686,2.341,0.217
		c3.729-1.949,7.711-2.853,11.92-2.493c3.086,0.264,6.098,0.864,8.691,2.73c0.971,0.698,1.044,1.264,0.292,2.196
		c-0.3,0.372-0.627,0.73-0.987,1.041c-3.42,2.945-7.428,4.563-11.895,4.769c-2.796,0.128-5.613-0.206-8.525-0.338
		c-0.021,0.106-0.119,0.49-0.167,0.88c-0.817,6.661-1.597,13.327-2.469,19.981c-0.17,1.301,0.101,2.25,0.933,3.271
		c2.891,3.55,1.913,8.801-1.967,10.976C45.167,47.523,44.529,47.736,43.92,48z M47.06,6.848c-2.315,0.305-4.306,0.697-6.312,0.801
		c-2.852,0.148-5.074-0.866-6.022-3.852c-0.121-0.38-0.705-0.876-1.069-0.873c-2.419,0.024-4.665,0.71-6.913,2.094
		c0.64,0.225,1.085,0.367,1.52,0.537c4.468,1.748,7.08,4.911,7.422,9.786c0.15,2.141-0.477,3.889-2.621,4.749
		c-0.881,0.353-1.797,0.74-2.724,0.828c-1.449,0.139-2.921,0.037-4.558,0.037c0.415,3.337,0.814,6.553,1.209,9.737
		c2.407,0.167,2.851,0.461,4.22,2.282c0.282,0.375,0.871,0.59,1.36,0.722s1.031,0.084,1.549,0.086
		c2.207,0.007,4.414,0.003,6.735,0.003c-0.61-1.361-1.185-2.5-1.64-3.686c-0.919-2.394-0.108-3.588,2.472-3.688
		c1.108-0.042,2.219-0.007,3.374-0.007c0.076-0.417,0.158-0.762,0.2-1.11c0.602-5.037,1.224-10.071,1.776-15.113
		C47.17,8.997,47.06,7.787,47.06,6.848z M67.99,5.911c-0.188-0.155-0.293-0.28-0.427-0.345c-0.251-0.121-0.515-0.216-0.778-0.307
		c-5.378-1.862-10.603-1.439-15.679,1.076c-0.707,0.35-1.548,0.66-1.411,1.692c0.131,0.978,0.881,1.344,1.732,1.585
		c2.877,0.815,5.76,0.709,8.652,0.096C63.008,9.087,65.696,7.979,67.99,5.911z M3.77,5.604C3.765,5.787,3.76,5.97,3.754,6.153
		c0.132,0.091,0.27,0.175,0.397,0.273c3.641,2.804,7.834,3.859,12.342,3.774c1.26-0.024,2.554-0.267,3.753-0.656
		c0.617-0.2,1.335-0.873,1.482-1.462c0.094-0.379-0.667-1.182-1.217-1.478c-3.31-1.78-6.872-2.643-10.621-2.239
		C7.83,4.587,5.809,5.179,3.77,5.604z M33.878,15.453c0.016-1.473-1.08-2.594-2.543-2.604c-1.469-0.01-2.579,1.095-2.575,2.564
		c0.004,1.467,1.112,2.616,2.532,2.625C32.705,18.048,33.863,16.89,33.878,15.453z M43.234,40.007
		c-0.007-1.221-1.086-2.292-2.293-2.276c-1.121,0.014-2.216,1.101-2.248,2.23c-0.034,1.181,1.06,2.298,2.263,2.31
		C42.186,42.283,43.24,41.235,43.234,40.007z M32.838,39.994c-0.017-1.26-1.095-2.315-2.312-2.263
		c-1.17,0.051-2.169,1.118-2.162,2.311c0.008,1.271,1.047,2.267,2.325,2.228C31.912,42.233,32.854,41.234,32.838,39.994z"/>
	<path fill-rule="evenodd" fill="#FFFFFF" d="M47.06,6.848c0,0.939,0.11,2.149-0.02,3.333c-0.553,5.042-1.175,10.076-1.776,15.113
		c-0.042,0.349-0.124,0.693-0.2,1.11c-1.155,0-2.266-0.035-3.374,0.007c-2.58,0.1-3.391,1.294-2.472,3.688
		c0.455,1.186,1.029,2.324,1.64,3.686c-2.321,0-4.528,0.004-6.735-0.003c-0.519-0.002-1.06,0.046-1.549-0.086
		s-1.078-0.347-1.36-0.722c-1.369-1.821-1.813-2.115-4.22-2.282c-0.395-3.185-0.794-6.4-1.209-9.737
		c1.637,0,3.109,0.102,4.558-0.037c0.927-0.088,1.843-0.475,2.724-0.828c2.144-0.86,2.771-2.608,2.621-4.749
		c-0.342-4.875-2.954-8.038-7.422-9.786c-0.434-0.17-0.879-0.312-1.52-0.537c2.249-1.384,4.494-2.07,6.913-2.094
		c0.364-0.003,0.948,0.493,1.069,0.873c0.948,2.986,3.17,4,6.022,3.852C42.754,7.544,44.744,7.153,47.06,6.848z M40.209,13.162
		c-1.221,0.022-2.262,1.129-2.209,2.35c0.051,1.171,1.106,2.195,2.275,2.207c1.243,0.013,2.24-1.029,2.221-2.32
		C42.477,14.099,41.494,13.138,40.209,13.162z"/>
	<path fill-rule="evenodd" fill="#FFFFFF" d="M67.99,5.911c-2.294,2.069-4.982,3.176-7.91,3.797
		c-2.893,0.613-5.775,0.719-8.652-0.096c-0.852-0.242-1.602-0.607-1.732-1.585c-0.137-1.032,0.704-1.342,1.411-1.692
		c5.076-2.515,10.301-2.938,15.679-1.076c0.264,0.091,0.527,0.186,0.778,0.307C67.697,5.63,67.803,5.755,67.99,5.911z"/>
	<path fill-rule="evenodd" fill="#FFFFFF" d="M3.77,5.604c2.039-0.425,4.06-1.017,6.121-1.239c3.75-0.404,7.312,0.459,10.621,2.239
		c0.549,0.295,1.311,1.098,1.217,1.478c-0.147,0.59-0.865,1.262-1.482,1.462c-1.199,0.389-2.494,0.632-3.753,0.656
		c-4.507,0.085-8.701-0.97-12.342-3.774C4.024,6.328,3.887,6.244,3.754,6.153C3.76,5.97,3.765,5.787,3.77,5.604z"/>
	<path fill-rule="evenodd" fill="#FFFFFF" d="M33.878,15.453c-0.015,1.437-1.174,2.595-2.585,2.585
		c-1.42-0.01-2.528-1.159-2.532-2.625c-0.004-1.469,1.105-2.574,2.575-2.564C32.799,12.858,33.894,13.979,33.878,15.453z"/>
	<path fill-rule="evenodd" fill="#FFFFFF" d="M43.234,40.007c0.006,1.229-1.049,2.276-2.278,2.264
		c-1.203-0.012-2.297-1.129-2.263-2.31c0.032-1.13,1.127-2.217,2.248-2.23C42.148,37.715,43.228,38.786,43.234,40.007z"/>
	<path fill-rule="evenodd" fill="#FFFFFF" d="M32.838,39.994c0.017,1.24-0.926,2.239-2.148,2.275
		c-1.278,0.039-2.317-0.957-2.325-2.228c-0.007-1.192,0.992-2.26,2.162-2.311C31.743,37.679,32.821,38.734,32.838,39.994z"/>
	<path fill-rule="evenodd" d="M40.209,13.162c1.285-0.024,2.268,0.937,2.287,2.236c0.02,1.291-0.978,2.333-2.221,2.32
		c-1.169-0.012-2.225-1.036-2.275-2.207C37.947,14.291,38.988,13.184,40.209,13.162z"/>
</g>
</svg>
