<?xml version="1.0" encoding="utf-8"?>
<!-- Generator: Adobe Illustrator 16.0.0, SVG Export Plug-In . SVG Version: 6.00 Build 0)  -->
<svg version="1.2" baseProfile="tiny" id="Layer_1" xmlns="http://www.w3.org/2000/svg" xmlns:xlink="http://www.w3.org/1999/xlink"
	 x="0px" y="0px" width="32px" height="32px" viewBox="0 0 850 850" xml:space="preserve">
<path fill-rule="evenodd" d="M33.8,393.45c55.16,2.6,84-18.06,134.06-27.9c20.16-3.96,42.56,0.41,50.52,21.13
	c9.89,25.73-52.93,27.81-61.64,28.77c23.86,22.13,72.51-7.92,68.99-35.67c-2.63-20.74-52.13-36.17-64.22-19.49
	c-17.73,24.36-116.35,30.33-136.83,21.02c9.81-9.51,49.36-13.8,64.81-19.78c18.42-7.12,37.02-16.76,54.71-25.67
	c57.19-29.09,132.01-11.01,118.13,60.09c14.7,15.44,58.89-4.43,69.09-19.49c1.78-2.62,8.28,25.78,8.3,27.9
	c0.29,25.5,20.62,14.19,39.94,12.05c2.69,36.15,36.94,42.36,65.38,48.62c7.17-15.45-16.79-40.84,9.56-57
	c10.85-6.64,44.01,14.53,59.99,11.28c-15.33-14.48,7.14-42.15,7.36-41.79c6.88,11.1,24.82,23.08,38.03,24.08
	c39.98,3,8.01-66.02,56.26-72.29c20.6-2.67,95.38-6.37,113.61,12.59c19.49,20.28,77.37,10.57,101.72,21.06
	c-63.86,23.47-119.23-26.94-178.83-12.92c-98.3,23.12,53.78,91.75,49.22,54.04c-1.52-12.28-64.61,14.12-63.96-29.66
	c0.41-27.2,48.65-12.3,63.99-9.03c17.56,3.74,34.18,10.38,52.21,11.76c15.62,1.19,64.2-11.82,77.56-6.06
	c-62.5,49.83-120.63,76.48-204.72,66.73c-14.63-1.7-21-18.15-42.78-16.56c-15.17,1.11-25.56,10.22-39.09,14.86
	c-35.12,12-31.87,52.67-52.09,72.61c-21.96,21.64-6.2,121.3-2.85,150.05c4.12,35.4,8.13,40.06,44.83,38.54
	c43.58-1.71,49.06,87.13,8.4,97.44c-19.51,4.94-72.16,20.68-89.17-1.25c-18.59-23.95-100.09,33.72-112.78,4.95
	c-3.7-8.33-32.81-9.97-32.39-25.02c0.43-15.56-9.8-27.28-2.55-45.53c13.75-34.6,41.34-22.33,64.2-38.29
	c18.01-12.58,15.5-148.5,4.64-160.32c-15.08-16.39-17.66-48.26-35.57-67.38c-30.27-32.33-94.83-49.26-133.08-22.94
	c-23.7,16.32-80.09,8.21-105.3-2.2C88.39,431.4,31.69,409.02,33.8,393.45C36.33,393.57,33.72,393.99,33.8,393.45z M329.55,765.75
	c52.14,32.22,24.24-56.99,1.79-24.21C357.65,757.38,353.21,754.56,329.55,765.75C330.33,766.24,331.49,764.83,329.55,765.75z
	 M535.62,739.14c-42.17-11.47-35.35,45.64-0.17,30.05C498.76,746.53,532.9,756.04,535.62,739.14
	C534.44,738.82,535.4,740.54,535.62,739.14z"/>
<path fill-rule="evenodd" d="M495.28,409.79c-15.8,0-28.01-22.79-44.1-12.27c-18.22,11.9-22.45,35.13-22.45,55.21
	c-28.55-5.67-26.25-57.43-40.75-60.83c-7.66-1.81-21.51,28.87-35.67,24.45c-11.18-3.49-2.55-45.92-14.67-55.45
	c-14.73,16.47-59.46,52.83-63.92,13.79c-2.55-22.35-4.96-32.91-21.93-49.35c3.11-14.8,32.62-7.69,34.83-28.67
	c2.79-26.25,28.34-26.47,48.6-25.08c8.91,0.62,35.52,17.27,42.99,10.64c16.24-14.38,41.94-13.92,62.14-13.67
	c18.5,0.23,37.22,17.36,55.92,9.46c15.08-6.37,15.61-22.38,33.78-12.16c22.16,12.45,43.52,54.41,69.16,57.37
	c-4.2,11.86-17.17,16.77-23.37,27.22c-6.13,10.36,0.88,40.66-15.44,43.73c-17.35,3.26-26.5-21.62-36.42-30.59
	C509.71,350.7,497.86,403.9,495.28,409.79C476.77,409.79,495.67,408.91,495.28,409.79z"/>
<path fill-rule="evenodd" d="M712.14,194.67c0,36.66-25.15,99.59-67.43,106.65c-21.24,3.57-31.73,18.66-55.06,6.88
	c-19.91-10.05-17.67-66.73,4.64-67.94c23.21-1.33,34-80.22,44.18-93.09c24.39-30.87-53.15-143.78-55.65-141.29
	c12.41-12.44,89.69,63.05,95.02,73.99C683.27,91.01,727.26,194.67,712.14,194.67C712.14,196.03,712.13,194.67,712.14,194.67z"/>
<path fill-rule="evenodd" d="M279.6,7.07c0.2-0.68-59.42,70.48-60.17,70.67c-16.07,4.09-20.38,78.56-18.6,87.82
	c5.51,28.65,7.76,62.34,36.42,79.42c13.89,8.28,24.6,23.79,37.27,31.44c25.66,15.55-25.91,38.27-28.26,41.06
	c-19.47,23.14-86.22-45.5-89.85-63.79c-8.48-42.83-15.16-71.91-11.93-119.69c3.17-46.57,68.35-109.34,110.77-120.25
	C263.64,11.6,270.7,7.47,279.6,7.07C279.36,7.88,277.46,7.17,279.6,7.07z"/>
<path fill-rule="evenodd" d="M613.07,431.57c3.25,4.73,2.32,10.23,2.18,15.98c-0.08,3.36-6.64,13.61-10.29,13.69
	c-13.28,0.29-27.71-2.41-38.81,6.16c-4.41,3.4-8.79,6.26-12.5,10.29c-4.3,4.65-7.19,10.39-10.94,15.13
	c-5.47,6.95-8.75,16.19-11.93,24.22c-0.85,2.16-1,4.74-2.13,6.78c-1.2,2.18-2.98,6.25-3.1,8.61c-0.12,2.59-1.72,4.12-1.92,6.61
	c-0.17,2.19-1.25,6.22-2.04,8.37c-4.07,10.97-6.54,23.82-8.25,35.56c-3.58,24.44-9.3,48.28-12.6,72.92
	c-2.38-1.36-1.45-6.96-1.55-9.21c-0.16-3.58-1.19-7.05-1.26-10.64c-0.18-8.88-0.23-17.75-0.44-26.63c-0.19-7.99-1.09-15.93-1.1-24
	c-0.01-9.04,0.79-17.81,1.29-26.82c0.68-12.4,1.25-25.67,4.88-37.43c0.76-2.47-0.33-5.78,1.65-7.8c1.57-1.61-0.61-4.82,1.68-6.46
	c0.49-0.35,2.12-6.79,2.2-7.75c0.12-1.45,1.93-6.73,3.23-7.52c-0.01,0.01,1.21-3.65,1.27-3.77c0.93-1.93,1.7-3.85,2.48-5.72
	c1.8-4.31,5.08-10.2,8.36-13.55c8.68-8.86,15.57-18.58,26.95-24.22c4.04-2,8.38-5.6,12.74-6.41c1.89-0.35,3.28-1.46,5.03-1.65
	c2.35-0.25,6.33-1.28,8.59-2.11C587,430.42,604.22,430.15,613.07,431.57C613.88,432.75,612.31,431.45,613.07,431.57z"/>
<path fill-rule="evenodd" d="M250.27,465.81c-24.12-60.97,70.3-12.35,87.52,9.94c12.78,16.52,20.79,29.99,27.69,49.54
	c9.64,27.29,17.42,103.2,1.37,127.54C336.27,579.09,365.53,468.94,250.27,465.81C249.5,463.86,253.54,465.9,250.27,465.81z"/>
<path fill-rule="evenodd" d="M293.1,571.12c45.42,3.96,56.12,7.9,59.3,54.17c1.37,19.9,21.48,76.54-16.72,55.62
	C320.55,672.58,296.04,589.73,293.1,571.12C295.47,571.32,293.37,572.83,293.1,571.12z"/>
<path fill-rule="evenodd" d="M561.8,567.52c-0.98,17.61-25.86,123.47-38.74,117.62c-20.9-9.47-17.51-6.53-14.77-31.53
	c1.08-9.84,4.38-19.55,5.22-29.53C516.69,585.86,522.65,569.69,561.8,567.52C561.68,569.71,558.69,567.7,561.8,567.52z"/>
<path fill-rule="evenodd" d="M257.13,474.39c36.53,0,73.2,29.94,78.01,67.01C294.32,544.7,252.42,519.93,257.13,474.39
	C259.9,474.39,256.97,475.96,257.13,474.39z"/>
<path fill-rule="evenodd" d="M536.56,534.72c-1.63-4.25,7.8-39.03,14.46-39.57c2.59-0.21,16.66-17.19,20.52-19.96
	c8.36-6,18.27-6.21,28.19-6.11c20,0.19-14.09,40.83-13.9,42.4C568.19,520.78,555.58,533.52,536.56,534.72
	C535.74,532.59,538.5,534.6,536.56,534.72z"/>
<path fill-rule="evenodd" d="M374.89,811.55c9.41-1.24,59.49,27.62,65.94,14.98c4.79-9.37,36.45-17.09,44.71-15.24
	C494.11,857.42,391.12,840.5,374.89,811.55C376.19,811.38,375.57,812.76,374.89,811.55z"/>
<path fill-rule="evenodd" d="M526.88,562.5c4.17-20.83,40.41-30.53,62.17-39.11C594.94,550.77,545.92,567.14,526.88,562.5
	C527.34,560.18,527.5,562.65,526.88,562.5z"/>
<path fill-rule="evenodd" d="M340.23,563.97c-1.7,2.31-3.93,2.01-6.05,2c-5.92-0.03-11.83-0.06-17.75-0.18
	c-0.98-0.02-1.96-0.49-2.94-0.73c-0.69-0.17-1.38-0.38-2.09-0.43c-1.67-0.11-3.36-0.1-5.03-0.2c-1-0.06-1.96,0.03-2.78-0.99
	c-0.42-0.52-1.64-0.38-2.48-0.58c-1.03-0.25-2.31,0.14-2.93-1.18c-0.08-0.17-0.39-0.3-0.61-0.32c-1.84-0.18-3.57-0.41-5.23-1.54
	c-0.92-0.62-2.45-0.25-3.2-1.57c-0.14-0.25-0.72-0.31-1.11-0.36c-0.78-0.12-1.61-0.05-1.88-1.1c-0.05-0.19-0.51-0.34-0.8-0.38
	c-1.94-0.28-3.3-1.48-4.61-2.79c-0.17-0.17-0.35-0.38-0.56-0.42c-1.95-0.42-3.13-1.74-4.31-3.25c-0.46-0.59-1.35-0.98-2.02-1.63
	c-1.92-1.88-4.05-3.52-4.8-6.28c-0.06-0.2-0.25-0.5-0.41-0.51c-1.24-0.13-1.2-1.11-1.28-1.95c-0.08-0.82-0.61-1.36-0.94-2.02
	c-1.11-2.27-1.12-4.69-0.19-7.17c1.74,1.11,3.13,2.35,4.91,3.07c1.22,0.5,2.23,1.53,3.33,2.34c0.18,0.13,0.31,0.5,0.45,0.5
	c1.67-0.1,2.73,1.17,4.05,1.83c1.56,0.77,3,1.77,4.5,2.67c0.2,0.12,0.37,0.31,0.58,0.38c1.14,0.39,2.19,0.77,3.28,1.45
	c1.86,1.17,4.22,1.52,6.38,2.21c0.23,0.07,0.6-0.02,0.69,0.11c1.17,1.69,3.37,0.83,4.63,1.75c1.99,1.45,4.14,1.3,6.3,1.55
	c0.08,0.01,0.17,0.01,0.23,0.05c2.75,2.06,5.99,1.05,9,1.43c1.17,0.15,2.33,0.02,3.4,0.86c0.55,0.43,1.52,0.43,2.3,0.43
	c4.4,0.01,8.79-0.03,13.19-0.06c0.8-0.01,1.61-0.1,2.4-0.01c1.76,0.21,2.32,0.84,2.48,2.6c0.08,0.88,0.1,1.76,0.17,2.63
	c0.03,0.4-0.03,0.94,0.2,1.16C340.78,559.26,340.04,561.76,340.23,563.97C338.53,566.28,340.04,561.76,340.23,563.97
	C338.53,566.28,340.04,561.76,340.23,563.97C338.53,566.28,340.04,561.76,340.23,563.97z"/>
<path fill-rule="evenodd" d="M400.98,808.58c0-21.83,49.77-1.66,58.18-2.1C465.13,820.02,410.62,819.61,400.98,808.58
	C400.98,808.15,402.51,810.33,400.98,808.58z"/>
<path fill-rule="evenodd" fill="#FFFFFF" d="M329.55,765.75c1.95-0.92,3.72-0.94,5.07-0.13c1.14,0.69,2.19,0.79,3.36,0.84
	c1.12,0.04,2.25,0.11,3.35-0.03c0.73-0.09,1.43-0.5,2.13-0.78c0.35-0.14,0.69-0.42,1.05-0.44c2.16-0.14,3.74-1.1,4.62-3.12
	c1.55-0.25,1.28-1.54,1.48-2.56c0.06-0.3,0.13-0.74,0.34-0.86c1.81-1.05,1.23-2.83,1.23-4.32c0-1.5,0.61-3.23-1.03-4.42
	c-0.27-0.2-0.4-0.69-0.47-1.07c-0.3-1.79-1.91-2.5-2.87-3.72c-1.45-1.85-3.27-1.41-5.03-1.72c-0.92-0.16-1.81-0.48-2.73-0.69
	c-0.77-0.17-1.54-0.36-2.32-0.4c-1.76-0.09-3.52-0.04-5.27-0.14c-0.38-0.02-0.75-0.42-1.12-0.64c0.24-0.35,0.4-0.81,0.73-1.03
	c0.95-0.63,1.92-1.48,2.97-1.63c1.2-0.17,2-0.71,2.88-1.38c0.4-0.3,1.06-0.37,1.6-0.37c3.99-0.02,7.98-0.03,11.97,0.02
	c0.94,0.01,1.77,0.21,2.46,1.15c0.48,0.66,1.52,1.02,2.39,1.25c2.19,0.6,2.67,2.92,4.29,4.09c0.45,0.32,0.28,1.38,0.63,1.98
	c2.68,4.65,1.25,9.62,1.11,14.46c-0.03,0.96-1.05,1.87-1.28,2.87c-0.26,1.11-1.23,1.6-1.64,2.34c-1,1.82-2.95,2.6-3.98,4.3
	c-0.1,0.16-0.41,0.19-0.64,0.26c-0.15,0.04-0.35-0.01-0.47,0.07c-2.06,1.34-4.52,1.57-6.69,2.45c-1.5,0.61-2.85,0.66-4.31,0.72
	c-0.16,0.01-0.38,0.05-0.47-0.04c-1.48-1.51-3.87-0.75-5.23-1.76c-2.07-1.56-5.08-1.79-6.4-4.44
	C331.04,766.42,330.33,766.24,329.55,765.75z"/>
<path fill-rule="evenodd" fill="#FFFFFF" d="M535.62,739.14c-0.23,1.4-1.26,1.13-1.92,1.21c-1.5,0.18-3.03,0.12-4.55,0.23
	c-0.84,0.06-1.75-0.07-2.32,0.91c-0.18,0.31-0.86,0.53-1.26,0.46c-1.99-0.35-3.36,0.99-4.85,1.82c-0.79,0.44-1.34,1.34-2.14,1.95
	c-1.14,0.87-2,2.15-2.85,3.35c-0.39,0.54-0.61,1.3-0.64,1.98c-0.11,1.91,0.01,3.84-0.14,5.75c-0.19,2.35,1.21,3.7,2.57,5.35
	c1.41,1.71,3.38,2.54,4.89,4.04c0.42,0.42,1.34,0.4,2.04,0.48c1.11,0.12,2.08,0.4,3.09,1.02c0.94,0.58,2.28,0.53,3.45,0.7
	c1.38,0.21,2.86-0.18,4.45,0.8c-0.73,0.33-1.19,0.56-1.67,0.73c-0.37,0.13-0.98,0.04-1.12,0.28c-1.02,1.69-2.73,1.45-4.24,1.48
	c-3.67,0.08-7.34,0.04-11-0.05c-0.96-0.02-2.16,0.11-2.58-1.24c-0.05-0.15-0.42-0.34-0.59-0.3c-1.71,0.35-2.78-0.98-3.7-1.85
	c-0.89-0.85-1.94-1.67-2.61-2.92c-0.86-1.61-1.78-3.09-1.76-4.97c0-0.15-0.07-0.33-0.17-0.44c-2.03-2.05-1.27-4.63-1.3-7.04
	c-0.01-1,0.01-2.08,1.08-2.76c0.26-0.17,0.46-0.7,0.43-1.04c-0.22-2.04,0.92-3.6,2-5.03c1.08-1.44,2.69-2.47,3.9-3.84
	c1.28-1.45,3.42-1.3,4.67-2.76c0.24-0.28,0.9-0.26,1.37-0.27c3.99-0.02,7.98-0.05,11.97,0.01c0.82,0.01,1.56,0.3,2.29,0.99
	C533.12,738.82,534.44,738.82,535.62,739.14z"/>
<g>
	<line fill="#FF0000" stroke="#FF0000" stroke-width="25" stroke-miterlimit="10" x1="69.5" y1="242.5" x2="269.94" y2="42.06"/>
	<line fill="#FF0000" stroke="#FF0000" stroke-width="25" stroke-miterlimit="10" x1="274.67" y1="238.44" x2="74.23" y2="38"/>
</g>
<g>
	<line fill="#FF0000" stroke="#FF0000" stroke-width="25" stroke-miterlimit="10" x1="569.64" y1="244.53" x2="770.08" y2="44.09"/>
	<line fill="#FF0000" stroke="#FF0000" stroke-width="25" stroke-miterlimit="10" x1="774.8" y1="240.47" x2="574.37" y2="40.03"/>
</g>
</svg>
