<?xml version="1.0" encoding="utf-8"?>
<!-- Generator: Adobe Illustrator 16.0.0, SVG Export Plug-In . SVG Version: 6.00 Build 0)  -->
<!DOCTYPE svg PUBLIC "-//W3C//DTD SVG 1.1 Tiny//EN" "http://www.w3.org/Graphics/SVG/1.1/DTD/svg11-tiny.dtd">
<svg version="1.1" baseProfile="tiny" id="Layer_1" xmlns="http://www.w3.org/2000/svg" xmlns:xlink="http://www.w3.org/1999/xlink"
	 x="0px" y="0px" width="577.4px" height="413px" viewBox="0 0 577.4 413" xml:space="preserve">
<g>
	<g>
		<path fill="#FFFFFF" fill-opacity="0" d="M0.5,417.8c0-141.4,0-282.8,0-424.3c192.4,0,384.8,0,577.3,0c0,141.4,0,282.8,0,424.3
			C385.4,417.8,193,417.8,0.5,417.8z M294.4,309c2.2,0.6,3.9,1,5.6,1.4c1.8,0.5,3.6,0.9,5.5,1.4c1.3,0.3,2.6,0.6,3.8,1.2
			c2.3,1.1,4.7,1.9,7.4,1.7c0.5,0,1,0,1.4,0.1c3.3,0.3,6.6,0.7,10,0.8c2.5,0.1,5,0.1,7.4,0.1c2.8,0,5.2,1,7.2,3.1
			c1.4,1.5,3,3,4.4,4.5c1.5,1.7,3.3,2.5,5.6,2.5c1.2,0,2.5,0,3.5,0.4c1.8,0.6,3.6,0.7,5.4,0.6c1.9-0.1,3.7-0.5,5.6-0.7
			c1.5-0.1,3-0.3,4.5-0.2c2.3,0,4.7-0.1,6.9,0.3c3.4,0.6,6.7,1.6,10.2,1.7c1.4,0,2.9-0.2,4.3,0c7,0.7,14-0.3,20.9-1
			c0.3,0,0.6-0.2,0.9-0.3c1.2-0.2,2.5-0.6,3.7-0.7c2.5-0.1,5-0.1,7.4,0c4,0.1,8,0.1,12,0.4c1.9,0.1,3.7,1,5.6,0
			c0.5-0.3,1.3,0,1.9,0.1c1.4,0.2,2.8,0.4,4.2,0.5c2.8,0.2,5.7-0.3,8.5,0.9c0.9,0.4,2.1,0,3.4,0c-0.8-1.2-1.7-1.9-1.8-2.8
			c-0.6-3.4-2.5-6.4-2.4-10c0-1.8-0.6-3.6-1.1-5.3c-0.9-3-1.6-5.9,0.3-8.8c0.2-0.2,0.2-0.6,0.2-0.9c-0.1-1.4,0.7-2.3,1.4-3.4
			c1.1-1.7,2-3.6,2.9-5.4c0.7-0.5,1.4-1.1,2.4-1.8c0.4,0.1,1.1,0.2,1.8,0.3c0.1,0,0.1-0.1,0.3-0.2c-0.2-0.5-0.4-1.1-0.5-1.3
			c0.5-0.8,0.9-1.4,1.2-2c0.2-0.3,0.3-0.8,0.5-1.1c1.2-1.8,1.7-3.1,1.7-4.9c0-1.9,1.7-4.6,3.1-4.8c1.6-0.3,3.5,0.6,4.8-1.1
			c0,0,0.2,0,0.2,0c1.9,0,3.8,0,5.3,0c1.5-1.4,2.8-2.9,4.4-3.8c1-0.6,0.6-1.5,1-2.1c0.5,0,0.9,0,1.3-0.1c2.1-0.2,4.2-1.9,4.3-3.9
			c0.1-1.6,0.8-2.6,2-3.5c0.9-0.7,1.6-1.7,2.4-2.5c1.1-1.2,1.2-2,0.5-3.3c-0.3-0.5-0.7-1-0.6-1.5c0.2-1.4-0.5-2.4-1.1-3.5
			c-0.6-1-0.9-2.2-1.5-3.1c-0.7-1.1-1.6-2.1-2.4-3.2c-1.4-1.7-2.6-3.5-4.2-4.9c-2.6-2.1-4.9-4.5-7.2-7c-0.9-1-1.7-1.9-1.9-3.4
			c-0.2-1.1-0.9-2.1-1.5-3.1c-0.8-1.2-1.8-2.3-2.5-3.6c-1.6-2.9-3.1-5.9-5.6-8.2c-2.3-2.2-4.4-4.4-6.3-6.9c-0.8-1-1.6-2.1-2.6-3
			c-1.2-1.1-2.5-1.9-3.7-3c-1.1-1-1.8-2.3-3.1-3.1c-1.6-1.1-2.4-2.9-3.2-4.7c-1-2.3-2.6-4.2-4.4-6.1c-2.8-2.8-5.3-5.8-7.5-9.1
			c-2.4-3.6-4.3-7.4-6.3-11.2c-0.8-1.6-1.4-3.3-2.1-4.9c-0.3-0.6-0.9-1.3-0.9-1.8c0.1-1.2-0.7-1.9-1.3-2.6c-1.6-1.9-3.1-3.8-4.2-6.1
			c-0.7-1.5-2-2.8-3-4.2c-1.4-2.1-2.8-4.2-3.9-6.5c-1.1-2.2-2.6-4-3.2-6.6c-0.7-3.1-2.3-6-3.9-8.8c-1.5-2.8-2.6-5.7-4.6-8.3
			c-0.7-0.9-1.7-1.8-2.2-2.9c-1.1-2.4-2.8-4.3-4.4-6.3c-1.3-1.6-3.2-2.7-4-4.8c-0.1-0.2-0.3-0.4-0.5-0.5c-2.4-1.4-4.4-3.1-6.1-5.3
			c-1-1.3-2.4-1.6-3.6-2.4c-3.3-2-6.4-4.2-9.5-6.2c0.2-0.4,0.4-0.8,0.5-1c-0.9-0.5-1.6-0.9-2.3-1.4c-1-0.6-1.9-1.4-2.9-2
			c-1.7-1-3.3-2-5-2.9c-0.9-0.5-1.6-0.9-2-1.9c-0.3-0.6-1.1-1.2-1.8-1.3c-2.5-0.6-3.7-2.8-4.9-4.6c-1.3-1.8-2.5-3.6-4.2-5
			c-1.7-1.5-2.6-3.8-4.8-4.9c-0.2-0.1-0.2-0.6-0.3-0.8c-0.9-1.5-1.3-3.2-2.9-4.3c-1.4-1-3-2.3-3.7-3.9c-0.6-1.3-1.4-2.3-2-2.7
			c-0.8-2-1.1-3.7-2.1-4.9c-1.9-2.3-4.2-4.4-6.3-6.6c2.2-2.2-0.4-3.1-1-4.6c0.8-1.4,0.6-2.8-0.3-4.3c-0.7-1.1-1.3-2.3-1.8-3.5
			c-0.2-0.4,0.1-1,0.1-1.5c0.5,0.1,1.3-0.1,1.5,0.2c0.9,1.2,1.9,0.8,3,0.3c-0.1-1.9-1.6-3.6-0.4-5.5c0.8-0.1,1.6-0.3,2.3-0.4
			c0.1-0.2,0.2-0.4,0.2-0.5c0.3-2.6,0.3-2.6,2.9-2.5c0.3,0,0.8,0,0.9-0.2c0.7-1,1.7-0.6,2.6-0.8c3-0.5,5.1,2,7.8,2.6
			c0.7,0.1,1.3,0.5,1.9,0.7c1.3,0.6,1.9,1.8,2.7,2.8c2.3,2.7,5.4,4.7,7,8.1c3,1.7,3.6,5.3,5.4,7.9c1,1.4,1.9,2.6,3.3,3.5
			c1.6,1.1,3.1,2.3,4.1,4.2c0.9,1.7,1.9,3.4,3,5c0.5,0.7,1.1,1.7,1.7,1.7c2.2,0.1,2.7,1.8,3.3,3.2c0.4,1,1.1,1.5,1.9,2.1
			c1.7,1.2,3.6,2,4.6,4.1c1.1,2.4,3.2,4.3,5.3,5.7c1.3,0.8,2.1,1.8,2.7,3.2c2-0.2,3.1,1,4.1,2.5c0.3,0.5,0.6,1.4,1.1,1.5
			c1.8,0.4,2.7,2,4.1,3.1c1.8,1.4,3.7,2.8,5.4,4.4c1.6,1.4,3.1,3,4.9,4.2c2.6,1.7,4.7,4.3,7,6.5c0.8,0.8,1.5,1.5,2.2,2.3
			c2.6,3.1,6.1,5.3,7.9,9.1c1.1,2.3,2.6,4.3,3.8,6.5c0.9,1.7,1.2,3.7,2.1,5.3c1.8,3.2,2.4,6.8,3.7,10.1c0.3,0.8,0.7,1.7,1.1,2.5
			c1.1,2.3,2.1,4.6,3.4,6.7c1.1,1.8,2.6,3.3,3.7,5.1c1,1.7,2.3,3,3.3,4.8c0.8,1.4,1.4,2.9,2.1,4.4c1,2.3,2.5,4.5,3.8,6.6
			c0.9,1.4,1.9,2.8,2.9,4.2c1.3,1.9,2.7,3.7,4.1,5.6c1.5,2.1,2.9,4.2,4.6,6.1c2,2.3,4.1,4.4,6,6.8c3,3.7,6.6,6.9,9.9,10.3
			c2.2,2.2,4.6,4.3,6.6,6.7c2.5,2.9,4.9,5.9,7.2,8.9c1.1,1.5,2.1,3.1,3.3,4.5c2.5,3,5.2,5.8,7.8,8.7c2.4,2.7,4.8,5.4,7.2,8.1
			c1.2,1.4,2,3,3.2,4.3c3.1,3.4,6.8,6.2,9.3,10.1c0.1,0.1,0.2,0.2,0.4,0.3c2.8,2.1,4.6,5.3,7.7,7.1c0.2,0.1,0.4,0.2,0.6,0.4
			c2.8,3.5,5.9,6.7,9.4,9.5c2.5,2,4.8,4.2,7.7,5.7c0.8,0.4,1.8,1.3,1,2.6c-1.1,0.1-2.3,0.2-3.4,0.3c-0.2,1-0.3,1.8-0.5,2.7
			c-3.3,0.1-6.4,0.2-9.5,1c-1.2,0.3-2.5-0.1-3.8-0.2c-0.9-0.1-1.8-0.7-2.7-0.6c-3.2,0.4-6.1-1.3-9.3-1.1c-0.2,0-0.4,0-0.5-0.1
			c-1.1-1.4-2.6-0.8-3.9-0.9c-1.6-0.1-3.2,0-4.8,0c-0.6,0-1.3,0-1.9-0.3c-2.3-1.3-4.6-0.5-6.5-0.7c-2.6,2.4-0.8,4.3,0.2,6.3
			c-0.8,0.5-1.3,0.8-1.7,1.1c0.3,0.7,0.9,1.3,0.8,1.9c-0.1,1.5,0.4,2.3,1.6,2.5c1.2,2.2-0.3,4-0.6,5.9c0,0.2-0.4,0.5-0.6,0.5
			c-1.2,0.2-1.1,1.1-1.2,2c-0.3,2.9,0.8,5.5,2.3,7.6c1.5,2.2,1.6,5.1,3.7,6.9c0.6,0.6,1,1.4,1.5,2.1c0.5,0.8,1.4,1.5,1.6,2.3
			c0.5,2.7,2.2,5,2.6,7.8c-0.8,0.5-1.6,1.4-1,2.3c1.1,1.4,1,3.5,2.8,4.5c0.2,0.1,0.4,0.4,0.8,1c-1.8,0.1-3.3,0.3-5.1,0.4
			c0.7,1,1.2,1.7,1.6,2.2c-0.6,1-1.2,1.8-1.5,2.8c-0.7,2.3-1.3,4.6-4.1,5.4c0.6,0.9,2.2,0.8,1.8,2.1c-1.1,0.5-2.1,0.9-3,1.3
			c-0.4,0.1-0.8,0.1-1.2,0.1c-2.2,0-4.3,0.1-6.5,0c-1.1,0-2.1,0-3.2,0.6c-0.8,0.4-2.1,0.5-2.7,0.1c-1.1-0.7-2.3-0.6-3.4-0.7
			c-0.6-0.1-1.3,0-1.9-0.2c-2.6-1.1-5.3-1.7-8.1-1.8c-0.8,0-1.6-0.3-2.3-0.5c-0.9-0.2-1.9-0.4-2.8-0.4c-1.9-0.1-3.8,0-5.8-0.1
			c-0.5,0-1.3,0-1.6-0.3c-1-0.9-2.1-0.7-3.2-0.7c-1.4,0-3,0.4-4-0.2c-1.3-0.7-2.2-0.3-3.3-0.1c-0.5,0.1-0.9,0.3-1.4,0.3
			c-4.2-0.1-8.5-0.1-12.7-0.2c-1.3,0-2.7-0.2-4-0.2c-1.6,0-3.2,0.3-4.7,0.4c-4.4,0.1-8.8,0.1-13.2,0.1c-0.7,0-1.6-0.1-2.1,0.2
			c-1.3,0.8-2.6,0.6-3.9,0.7c-6.8,0.5-13.7-0.5-20.5,0.8c-3.9,0.8-8.1,0.7-12.1,1.2c-2.6,0.3-5.1,0.8-7.7,1.2
			c-0.2,0-0.3,0.1-0.5,0.2c-1.1,0.2-2.1,0.5-3.2,0.6c-1.3,0.1-2.7,0-4.1,0.2c-6.4,0.7-12.7,1.8-19.2,1.1c-2.8-0.3-5.6-0.2-8.4-0.3
			c-0.6,0-1.1-0.1-1.6-0.2c-2.9-0.5-5.9-1.5-8.8-1.5c-5,0-9.8-1.4-14.7-1.3c-2.2-1.3-4.6-0.9-7-1c-0.2,0-0.5-0.1-0.7-0.2
			c-1.1-0.3-2.1-0.5-3.2-0.8c-0.6-0.2-1.2-0.3-1.8-0.5c-1.4-0.5-2.9-1.1-4.3-1.4c-3.4-0.6-6.9-0.9-10.4-1.3c-0.2,0-0.3,0-0.5-0.1
			c-1.9-1-3.7-0.5-5.7,0.1c-3.7,1.2-6.5,3.4-8.7,6.4c-1.6,2.1-3.2,4.3-4.9,6.4c-2.7,3.6-5.5,7.2-8.3,10.8c-2,2.6-4.3,5.1-6.3,7.8
			c-1.8,2.4-4.3,4.3-6.4,6.5c-1.5,1.5-2.9,3-4.3,4.6c-0.4,0.5-0.8,1.3-0.6,1.9c0.3,1.1,0.6,2.2,1.8,3.4c6.2-7.4,12.5-14.6,18.3-22.1
			c5.2-6.7,11-12.9,17.3-18.5c2.8-2.5,5.9-3.3,9.5-2.7c2.3,0.4,4.5,0.9,6.8,1.4c4.4,0.9,8.7,2.2,13.1,2.8c6.3,0.9,12.7,1.4,19.1,2
			c6.1,0.6,12.2,1.3,18.4,1.6c4.2,0.2,8.5-0.1,12.7-0.3c4.1-0.2,8.2-0.2,12.2-0.9c14.8-2.5,29.7-4.4,44.7-5.3
			c4.9-0.3,9.7-0.4,14.6-0.5c10.6-0.3,21.3-0.5,31.8,0.9c3.5,0.5,6.9,1.1,9.8,3.5c3,2.5,6.5,3.6,10.2,4.5c7.1,1.7,14.3,2.6,21.6,1.5
			c2.1-0.3,4.3-0.6,6.3-1.5c3-1.3,6.2-1.5,9.4-1.6c1,0,1.9,0,2.9,0c4.4-0.1,8.4-1.4,11.8-4.1c4.5-3.6,9.4-6.3,14.2-9.3
			c4.7-2.9,9-6.4,11.7-11.4c1-1.9,2.3-3.7,3.2-5.6c1.2-2.6,2.6-5.2,3-8c0.6-3.7,0.4-7.5,0.6-11.2c0.1-0.9,0.3-1.9,0.6-2.7
			c0.7-2.1,1.6-4,2-6.1c0.3-1.8,0.4-3.9-0.3-5.6c-0.8-1.8-2.3-3.5-3.8-4.8c-3.5-3.1-7.1-5.9-10.7-8.8c-1.9-1.6-3.8-3.3-5.8-4.6
			c-5.3-3.4-9.7-7.8-14.3-12.1c-9.9-9.5-18.9-19.8-27.4-30.5c-11-13.8-22.5-27.2-34.8-39.9c-4.4-4.5-8.4-9.2-12-14.3
			c-4.3-6-7.7-12.6-10.7-19.3c-1.1-2.5-2.3-5.2-2.7-7.9c-1-8.8-2.6-17.5-4.9-26.1c-1.4-5.2-3.9-9.7-8.3-13.1
			c-3.9-3-7.6-6.1-11.5-9.1c-2.2-1.7-2.3-2.1-1.4-4.6c1.8-5.1,3.7-10.2,5.5-15.3c0.3-0.8,0.6-1.7,0.5-2.6c-0.2-2.5,0.8-4.7,1.7-6.9
			c1.6-3.8,3.1-7.7,4.6-11.6c0.1-0.4,0.2-0.8,0.2-1.2c0.1-3.8-0.9-7.2-4.1-9.5c-2.3-1.6-4.7-3-7.1-4.5c-2.3-1.5-4.7-2.3-7.4-2.6
			c-6-0.7-12-1.2-18.1-0.9c-4.1,0.2-8.2,0.3-12.1,1.1c-4.8,0.9-9.4,2.5-14.1,3.9c-1.6,0.5-3.2,1-4.8,1.5c-1.3,0.5-2.2,0.1-3.2-0.9
			c-1.6-1.7-2.4-3.7-3.1-5.9c-0.4-1.2-0.7-2.5-1.3-3.6C361.1,19,352.7,10.4,348.2,8c-1.8-0.9-3.7-1.6-5.4-2.6
			c-4.6-2.6-9.5-3.1-14.6-2.8c-1.5,0.1-3,0.5-4.3,1.2c-1.3,0.7-2.6,1.1-4.1,1.1C317,5,314.2,5.6,312,7.5c-5.1,4.3-9.2,9.3-10.6,16.1
			c-0.2,1.1-0.7,2.3-1.3,3.3c-1.4,2.3-3,4.5-4.5,6.8c-1.3,2-2.9,3.8-4.9,5.3c-3.1,2.3-6,4.7-9.1,7.1c-4.5,3.5-9.3,6.8-13.6,10.6
			c-6.4,5.7-13.4,10.6-20.5,15.5c-5.7,3.9-11.9,6.9-18,10c-8.6,4.3-17,8.9-25.7,13c-11.9,5.6-24.1,10.7-36.1,16.1
			c-0.4,0.2-0.7,0.4-1.2,0.6c8.6,16.5,17.2,32.9,25.9,49.5c13.8-7.4,27.4-14.7,41-22c0.1,0.1,0.3,0.2,0.4,0.3
			c-7.6,31.5-15.1,63-22.7,94.4c0.1,0.1,0.3,0.1,0.4,0.2c11.7-16.3,23.4-32.7,35.4-49.5c4.3,13.8,8.4,27.1,12.5,40.7
			c9.4-2,18.6-4,27.7-6c9.2-2,18.5-4,28.1-6c-6.6,18.6-13,36.7-19.5,55c10.8,4.9,21.4,9.7,32.4,14.7
			C317,291.8,305.9,300.3,294.4,309z M244.1,204c-0.8,1-1.2,1.5-1.6,2.1c-10.4,14.5-20.8,29-31.2,43.5c-0.5,0.6-0.9,1.3-1.5,1.8
			c-1.9,1.7-4.1,2.2-6.4,1.2c-2.3-1-3.5-2.8-3.6-5.2c-0.1-1.1,0.1-2.2,0.3-3.3c3.4-14.4,6.9-28.7,10.3-43.1
			c3.4-14.2,6.9-28.4,10.3-42.6c0.2-0.7,0.3-1.4,0.5-2.6c-2.9,1.5-5.3,2.8-7.7,4.1c-6.3,3.4-12.5,6.8-18.8,10.1
			c-3.5,1.9-6,1.3-8.3-1.9c-0.4-0.6-0.8-1.2-1.1-1.8c-2.7-5.1-5.4-10.2-8-15.3c-6.1-11.7-12.3-23.4-18.4-35
			c-0.4-0.7-0.9-1.4-1.4-2.4c-0.4,0.7-0.7,1-0.9,1.4c-5.5,10.5-11,21-16.5,31.5c-3.5,6.7-7,13.3-10.5,20c-2.4,4.4-5.3,6-10.4,3.1
			c-7.8-4.4-15.7-8.5-23.6-12.8c-0.5-0.2-1-0.4-1.8-0.7c0.2,0.9,0.2,1.5,0.4,2.1c1.2,4.8,2.3,9.6,3.5,14.4
			c5.8,23.8,11.5,47.7,17.2,71.5c0.3,1.2,0.4,2.6,0.3,3.8c-0.4,2.6-1.8,4.4-4.4,5.1c-2.5,0.7-4.5-0.3-6.2-2.1
			c-0.4-0.4-0.7-0.9-1-1.3c-10.3-14.4-20.7-28.8-31-43.3c-0.4-0.6-0.9-1.2-1.6-2c-0.3,0.9-0.6,1.5-0.8,2.1c-0.9,2.8-1.7,5.7-2.6,8.5
			c-1.5,5-3,9.9-4.6,14.9c-1.3,3.9-4.1,5.5-7.7,4.7c-13.5-2.9-27-5.8-40.5-8.8c-0.5-0.1-1.1-0.1-1.9-0.2c0.4,1.1,0.7,2,1,2.9
			c4.4,12.5,8.8,25,13.2,37.6c0.5,1.3,0.8,2.8,0.9,4.2c0.1,3.5-1.2,4.5-3.3,5.4c-6.3,2.8-12.5,5.6-18.8,8.5
			c-0.7,0.3-1.5,0.7-2.4,1.2c0.7,0.6,1.2,1,1.7,1.4c10.4,7.9,20.7,15.8,31.1,23.6C51.6,321.8,67,333.4,82.4,345
			c3.3,2.5,4.3,6.7,2.7,10.2c-3.6,7.6-6.9,15.3-10.2,23c-0.2,0.5-0.3,1-0.5,1.6c26.5-4,52.7-7.9,79.3-11.9c0,15.2,0,30,0,44.9
			c2.6,0,5,0,7.6,0c0-15,0-29.8,0-44.9c26.7,4,53,7.9,79.6,11.9c-0.5-1.1-0.8-1.9-1.1-2.7c-3.3-7.4-6.5-14.8-9.8-22.1
			c-1.6-3.7-0.7-7.4,2.5-9.8c0.8-0.6,1.6-1.1,2.3-1.7c25-18.9,49.9-37.9,74.9-56.8c0.6-0.5,1.2-1,2-1.6c-0.8-0.4-1.3-0.7-1.9-1
			c-6.5-2.9-12.9-5.9-19.5-8.7c-2.2-1-3.3-2.6-3.1-4.9c0.1-1.8,0.5-3.6,1.1-5.4c4.3-12.5,8.8-24.9,13.2-37.3
			c0.3-0.7,0.5-1.5,0.8-2.5c-0.8,0.1-1.3,0.1-1.8,0.2c-13.5,2.9-27,5.8-40.5,8.8c-2.7,0.6-4.9,0-6.5-2.4c-0.7-1-1.2-2.1-1.6-3.2
			c-1.1-3.3-2-6.6-3-9.8C247.2,214.1,245.7,209.3,244.1,204z"/>
		<path fill-rule="evenodd" d="M294.4,309c11.5-8.7,22.6-17.2,34-25.9c-11-5-21.6-9.8-32.4-14.7c6.5-18.2,12.9-36.4,19.5-55
			c-9.6,2.1-18.9,4.1-28.1,6c-9.2,2-18.4,3.9-27.7,6c-4.2-13.6-8.3-26.9-12.5-40.7c-12,16.8-23.7,33.1-35.4,49.5
			c-0.1-0.1-0.3-0.1-0.4-0.2c7.6-31.5,15.1-63,22.7-94.4c-0.1-0.1-0.3-0.2-0.4-0.3c-13.6,7.3-27.2,14.6-41,22
			c-8.7-16.6-17.3-33-25.9-49.5c0.5-0.3,0.9-0.5,1.2-0.6c12.1-5.3,24.2-10.5,36.1-16.1c8.7-4.1,17.1-8.7,25.7-13
			c6.1-3.1,12.3-6.1,18-10c7-4.9,14.1-9.7,20.5-15.5c4.3-3.8,9-7.1,13.6-10.6c3-2.4,6-4.8,9.1-7.1c1.9-1.5,3.5-3.2,4.9-5.3
			c1.5-2.3,3.1-4.5,4.5-6.8c0.6-1,1.1-2.2,1.3-3.3c1.4-6.8,5.6-11.8,10.6-16.1c2.2-1.9,5-2.5,7.8-2.5c1.5,0,2.7-0.4,4.1-1.1
			c1.3-0.7,2.9-1.1,4.3-1.2c5.1-0.3,10,0.1,14.6,2.8c1.7,1,3.6,1.7,5.4,2.6c4.5,2.4,13,11,15.3,15.6c0.6,1.1,0.9,2.4,1.3,3.6
			c0.7,2.1,1.5,4.2,3.1,5.9c0.9,1,1.9,1.4,3.2,0.9c1.6-0.6,3.2-1,4.8-1.5c4.7-1.3,9.3-2.9,14.1-3.9c4-0.8,8.1-0.9,12.1-1.1
			c6-0.3,12.1,0.2,18.1,0.9c2.6,0.3,5.1,1.2,7.4,2.6c2.3,1.5,4.8,2.9,7.1,4.5c3.2,2.3,4.2,5.7,4.1,9.5c0,0.4,0,0.8-0.2,1.2
			c-1.5,3.9-3,7.7-4.6,11.6c-0.9,2.2-1.9,4.4-1.7,6.9c0.1,0.8-0.2,1.7-0.5,2.6c-1.8,5.1-3.6,10.2-5.5,15.3c-0.9,2.5-0.8,2.9,1.4,4.6
			c3.8,3,7.6,6.1,11.5,9.1c4.4,3.4,6.9,7.9,8.3,13.1c2.3,8.6,3.9,17.3,4.9,26.1c0.3,2.7,1.5,5.4,2.7,7.9c3,6.7,6.4,13.3,10.7,19.3
			c3.6,5.1,7.7,9.8,12,14.3c12.3,12.7,23.8,26.1,34.8,39.9c8.5,10.7,17.5,21,27.4,30.5c4.5,4.3,9,8.6,14.3,12.1
			c2.1,1.3,3.9,3,5.8,4.6c3.6,2.9,7.3,5.8,10.7,8.8c1.5,1.3,3.1,3,3.8,4.8c0.7,1.6,0.6,3.8,0.3,5.6c-0.4,2.1-1.3,4.1-2,6.1
			c-0.3,0.9-0.6,1.8-0.6,2.7c-0.2,3.7,0,7.6-0.6,11.2c-0.5,2.8-1.9,5.4-3,8c-0.9,2-2.1,3.7-3.2,5.6c-2.7,5-7,8.5-11.7,11.4
			c-4.8,3-9.8,5.7-14.2,9.3c-3.4,2.7-7.4,4-11.8,4.1c-1,0-1.9,0-2.9,0c-3.2,0.1-6.4,0.3-9.4,1.6c-2,0.9-4.1,1.2-6.3,1.5
			c-7.3,1.1-14.5,0.2-21.6-1.5c-3.7-0.9-7.3-2-10.2-4.5c-2.8-2.4-6.3-3-9.8-3.5c-10.6-1.4-21.2-1.2-31.8-0.9
			c-4.9,0.1-9.8,0.2-14.6,0.5c-15,0.9-29.9,2.8-44.7,5.3c-4,0.7-8.1,0.7-12.2,0.9c-4.2,0.2-8.5,0.5-12.7,0.3
			c-6.1-0.3-12.2-1-18.4-1.6c-6.4-0.6-12.7-1.1-19.1-2c-4.4-0.6-8.7-1.8-13.1-2.8c-2.3-0.5-4.5-1-6.8-1.4c-3.6-0.7-6.8,0.2-9.5,2.7
			c-6.3,5.7-12.1,11.8-17.3,18.5c-5.9,7.5-12.1,14.6-18.3,22.1c-1.2-1.1-1.5-2.3-1.8-3.4c-0.1-0.6,0.2-1.4,0.6-1.9
			c1.4-1.6,2.8-3.1,4.3-4.6c2.1-2.2,4.6-4.1,6.4-6.5c2-2.7,4.3-5.1,6.3-7.8c2.8-3.6,5.5-7.2,8.3-10.8c1.6-2.1,3.2-4.3,4.9-6.4
			c2.3-3,5-5.2,8.7-6.4c2-0.6,3.8-1.1,5.7-0.1c0.1,0.1,0.3,0,0.5,0.1c3.5,0.4,6.9,0.8,10.4,1.3c1.5,0.2,2.9,0.9,4.3,1.4
			c0.6,0.2,1.2,0.4,1.8,0.5c1.1,0.3,2.1,0.5,3.2,0.8c0.2,0.1,0.5,0.1,0.7,0.2c2.4,0.1,4.8-0.3,7,1c4.9,0,9.7,1.4,14.7,1.3
			c2.9,0,5.9,1,8.8,1.5c0.5,0.1,1.1,0.2,1.6,0.2c2.8,0.1,5.6,0,8.4,0.3c6.5,0.7,12.8-0.4,19.2-1.1c1.3-0.1,2.7,0,4.1-0.2
			c1.1-0.1,2.1-0.4,3.2-0.6c0.2,0,0.3-0.1,0.5-0.2c2.6-0.4,5.1-0.9,7.7-1.2c4-0.4,8.1-0.4,12.1-1.2c6.8-1.4,13.7-0.3,20.5-0.8
			c1.3-0.1,2.7,0.1,3.9-0.7c0.5-0.3,1.4-0.2,2.1-0.2c4.4,0,8.8,0,13.2-0.1c1.6,0,3.2-0.3,4.7-0.4c1.3,0,2.7,0.1,4,0.2
			c4.2,0.1,8.5,0.2,12.7,0.2c0.5,0,0.9-0.2,1.4-0.3c1.1-0.2,2-0.6,3.3,0.1c1,0.6,2.6,0.2,4,0.2c1.1,0,2.2-0.2,3.2,0.7
			c0.3,0.3,1.1,0.3,1.6,0.3c1.9,0,3.8,0,5.8,0.1c0.9,0,1.9,0.3,2.8,0.4c0.8,0.1,1.6,0.4,2.3,0.5c2.8,0.1,5.5,0.7,8.1,1.8
			c0.6,0.2,1.3,0.1,1.9,0.2c1.2,0.1,2.3,0,3.4,0.7c0.7,0.4,2,0.3,2.7-0.1c1.1-0.5,2.1-0.6,3.2-0.6c2.2,0,4.3,0,6.5,0
			c0.4,0,0.8,0,1.2-0.1c1-0.4,2-0.9,3-1.3c0.4-1.3-1.2-1.2-1.8-2.1c2.8-0.8,3.4-3.1,4.1-5.4c0.3-0.9,0.9-1.7,1.5-2.8
			c-0.4-0.5-0.9-1.3-1.6-2.2c1.7-0.1,3.2-0.2,5.1-0.4c-0.4-0.5-0.6-0.8-0.8-1c-1.7-1-1.7-3.1-2.8-4.5c-0.7-0.9,0.1-1.8,1-2.3
			c-0.4-2.8-2.1-5.1-2.6-7.8c-0.2-0.8-1-1.5-1.6-2.3c-0.5-0.7-0.9-1.5-1.5-2.1c-2.1-1.8-2.2-4.7-3.7-6.9c-1.4-2.1-2.6-4.8-2.3-7.6
			c0.1-0.9,0-1.8,1.2-2c0.2,0,0.6-0.3,0.6-0.5c0.4-1.9,1.8-3.6,0.6-5.9c-1.2-0.2-1.7-1-1.6-2.5c0-0.6-0.5-1.2-0.8-1.9
			c0.4-0.2,1-0.6,1.7-1.1c-1-2-2.8-3.9-0.2-6.3c1.9,0.2,4.3-0.6,6.5,0.7c0.5,0.3,1.2,0.3,1.9,0.3c1.6,0,3.2,0,4.8,0
			c1.4,0.1,2.9-0.5,3.9,0.9c0.1,0.1,0.3,0.1,0.5,0.1c3.1-0.2,6.1,1.5,9.3,1.1c0.9-0.1,1.8,0.5,2.7,0.6c1.2,0.2,2.6,0.5,3.8,0.2
			c3.1-0.8,6.2-0.9,9.5-1c0.2-0.9,0.3-1.7,0.5-2.7c1.2-0.1,2.3-0.2,3.4-0.3c0.8-1.4-0.3-2.2-1-2.6c-2.9-1.5-5.3-3.7-7.7-5.7
			c-3.5-2.8-6.6-6-9.4-9.5c-0.1-0.2-0.4-0.3-0.6-0.4c-3.1-1.8-4.9-5-7.7-7.1c-0.1-0.1-0.3-0.2-0.4-0.3c-2.5-3.9-6.2-6.8-9.3-10.1
			c-1.2-1.3-2-3-3.2-4.3c-2.3-2.8-4.8-5.4-7.2-8.1c-2.6-2.9-5.2-5.7-7.8-8.7c-1.2-1.4-2.1-3.1-3.3-4.5c-2.4-3-4.7-6.1-7.2-8.9
			c-2.1-2.3-4.4-4.4-6.6-6.7c-3.4-3.4-7-6.6-9.9-10.3c-1.9-2.4-4.1-4.5-6-6.8c-1.7-1.9-3.1-4.1-4.6-6.1c-1.4-1.9-2.7-3.7-4.1-5.6
			c-1-1.4-2-2.7-2.9-4.2c-1.3-2.2-2.8-4.3-3.8-6.6c-0.7-1.5-1.3-2.9-2.1-4.4c-0.9-1.7-2.3-3.1-3.3-4.8c-1.1-1.8-2.6-3.3-3.7-5.1
			c-1.3-2.2-2.3-4.5-3.4-6.7c-0.4-0.8-0.8-1.6-1.1-2.5c-1.3-3.3-1.9-6.9-3.7-10.1c-0.9-1.6-1.2-3.6-2.1-5.3
			c-1.2-2.2-2.8-4.2-3.8-6.5c-1.8-3.8-5.3-6-7.9-9.1c-0.7-0.8-1.5-1.6-2.2-2.3c-2.3-2.2-4.4-4.8-7-6.5c-1.9-1.2-3.3-2.8-4.9-4.2
			c-1.7-1.5-3.6-3-5.4-4.4c-1.3-1-2.2-2.6-4.1-3.1c-0.5-0.1-0.7-1-1.1-1.5c-0.9-1.5-2.1-2.6-4.1-2.5c-0.6-1.4-1.4-2.3-2.7-3.2
			c-2.2-1.4-4.2-3.3-5.3-5.7c-1-2.1-2.9-2.9-4.6-4.1c-0.8-0.6-1.5-1.1-1.9-2.1c-0.6-1.4-1.2-3.1-3.3-3.2c-0.6,0-1.3-1.1-1.7-1.7
			c-1.1-1.6-2.1-3.3-3-5c-0.9-1.9-2.4-3.1-4.1-4.2c-1.4-0.9-2.3-2.1-3.3-3.5c-1.8-2.6-2.4-6.1-5.4-7.9c-1.6-3.4-4.7-5.4-7-8.1
			c-0.9-1-1.4-2.2-2.7-2.8c-0.6-0.3-1.2-0.6-1.9-0.7c-2.7-0.6-4.7-3.1-7.8-2.6c-0.9,0.1-1.9-0.2-2.6,0.8c-0.1,0.2-0.6,0.2-0.9,0.2
			c-2.6-0.1-2.6-0.1-2.9,2.5c0,0.1-0.1,0.3-0.2,0.5c-0.7,0.1-1.5,0.2-2.3,0.4c-1.2,1.9,0.3,3.6,0.4,5.5c-1.2,0.5-2.1,0.9-3-0.3
			c-0.2-0.3-1-0.2-1.5-0.2c-0.1,0.5-0.3,1.1-0.1,1.5c0.5,1.2,1,2.4,1.8,3.5c1,1.4,1.2,2.9,0.3,4.3c0.5,1.6,3.1,2.5,1,4.6
			c2.2,2.2,4.4,4.2,6.3,6.6c0.9,1.2,1.2,2.9,2.1,4.9c0.6,0.4,1.3,1.4,2,2.7c0.7,1.5,2.2,2.8,3.7,3.9c1.6,1.1,2,2.9,2.9,4.3
			c0.2,0.3,0.1,0.7,0.3,0.8c2.2,1.1,3.1,3.4,4.8,4.9c1.6,1.5,2.9,3.2,4.2,5c1.2,1.7,2.4,4,4.9,4.6c0.7,0.2,1.5,0.7,1.8,1.3
			c0.4,1,1.2,1.4,2,1.9c1.7,0.9,3.4,1.9,5,2.9c1,0.6,1.9,1.3,2.9,2c0.7,0.5,1.4,0.9,2.3,1.4c-0.1,0.2-0.3,0.6-0.5,1
			c3.1,2.1,6.3,4.2,9.5,6.2c1.2,0.8,2.7,1.1,3.6,2.4c1.7,2.2,3.7,3.9,6.1,5.3c0.2,0.1,0.4,0.3,0.5,0.5c0.8,2.1,2.7,3.2,4,4.8
			c1.6,2,3.3,3.9,4.4,6.3c0.5,1.1,1.5,2,2.2,2.9c2,2.5,3.1,5.5,4.6,8.3c1.5,2.8,3.2,5.7,3.9,8.8c0.6,2.6,2.1,4.4,3.2,6.6
			c1.1,2.3,2.5,4.4,3.9,6.5c1,1.4,2.2,2.6,3,4.2c1.1,2.3,2.7,4.2,4.2,6.1c0.6,0.7,1.4,1.4,1.3,2.6c0,0.6,0.6,1.2,0.9,1.8
			c0.7,1.6,1.2,3.4,2.1,4.9c2,3.8,3.9,7.7,6.3,11.2c2.2,3.2,4.7,6.3,7.5,9.1c1.8,1.8,3.4,3.8,4.4,6.1c0.8,1.8,1.5,3.6,3.2,4.7
			c1.3,0.9,2,2.2,3.1,3.1c1.2,1.1,2.5,1.9,3.7,3c1,0.9,1.8,1.9,2.6,3c1.9,2.5,4,4.8,6.3,6.9c2.4,2.4,3.9,5.3,5.6,8.2
			c0.7,1.3,1.7,2.4,2.5,3.6c0.6,1,1.3,2,1.5,3.1c0.2,1.4,1.1,2.4,1.9,3.4c2.2,2.5,4.5,4.9,7.2,7c1.6,1.3,2.9,3.2,4.2,4.9
			c0.8,1,1.7,2,2.4,3.2c0.6,1,1,2.1,1.5,3.1c0.6,1.1,1.3,2.1,1.1,3.5c-0.1,0.5,0.4,1,0.6,1.5c0.7,1.3,0.6,2.1-0.5,3.3
			c-0.8,0.9-1.5,1.8-2.4,2.5c-1.2,0.9-1.9,1.9-2,3.5c-0.1,2-2.2,3.7-4.3,3.9c-0.4,0-0.8,0-1.3,0.1c-0.4,0.7,0,1.5-1,2.1
			c-1.6,0.9-2.8,2.4-4.4,3.8c-1.5,0-3.4,0-5.3,0c-0.1,0-0.2,0-0.2,0c-1.3,1.7-3.2,0.8-4.8,1.1c-1.4,0.2-3.1,2.9-3.1,4.8
			c0,1.8-0.5,3.1-1.7,4.9c-0.2,0.3-0.3,0.7-0.5,1.1c-0.3,0.6-0.7,1.2-1.2,2c0.1,0.2,0.3,0.8,0.5,1.3c-0.2,0.1-0.2,0.2-0.3,0.2
			c-0.7-0.1-1.4-0.2-1.8-0.3c-0.9,0.7-1.7,1.3-2.4,1.8c-1,1.8-1.9,3.6-2.9,5.4c-0.7,1.1-1.5,2-1.4,3.4c0,0.3-0.1,0.7-0.2,0.9
			c-1.9,2.9-1.2,5.8-0.3,8.8c0.5,1.7,1.2,3.5,1.1,5.3c0,3.6,1.8,6.6,2.4,10c0.2,0.9,1.1,1.7,1.8,2.8c-1.3,0-2.5,0.4-3.4,0
			c-2.8-1.2-5.6-0.7-8.5-0.9c-1.4-0.1-2.8-0.4-4.2-0.5c-0.6-0.1-1.4-0.3-1.9-0.1c-1.9,1-3.7,0.1-5.6,0c-4-0.2-8-0.3-12-0.4
			c-2.5-0.1-5-0.1-7.4,0c-1.2,0.1-2.5,0.4-3.7,0.7c-0.3,0.1-0.6,0.2-0.9,0.3c-7,0.7-13.9,1.8-20.9,1c-1.4-0.1-2.9,0.1-4.3,0
			c-3.5-0.1-6.8-1-10.2-1.7c-2.3-0.4-4.6-0.3-6.9-0.3c-1.5,0-3,0.1-4.5,0.2c-1.9,0.2-3.7,0.5-5.6,0.7c-1.8,0.1-3.6,0.1-5.4-0.6
			c-1.1-0.4-2.4-0.4-3.5-0.4c-2.3,0-4.1-0.8-5.6-2.5c-1.4-1.6-3-3-4.4-4.5c-1.9-2.1-4.3-3.1-7.2-3.1c-2.5,0-5,0.1-7.4-0.1
			c-3.3-0.2-6.6-0.6-10-0.8c-0.5,0-1-0.1-1.4-0.1c-2.6,0.2-5-0.6-7.4-1.7c-1.2-0.6-2.5-0.8-3.8-1.2c-1.8-0.5-3.6-0.9-5.5-1.4
			C298.3,310,296.7,309.6,294.4,309z M442.8,107.4c-0.6,1.4,0,2.4,1.5,3C444.6,109,442.9,108.6,442.8,107.4c-0.1-1.1-1.3-1.8-1-3.2
			c0.1-0.7-1.3-1.6-2-2.5c-0.4-0.5-1.3-1.4-1.2-1.6c0.8-1.1-0.4-1.4-0.6-2.2c-0.5,0.4-1,0.7-1.5,1.1c0.3,0.6,0.5,1.2,0.8,1.7
			c1.4,2.2,2.8,4.4,4.3,6.6C441.8,107.6,442.4,107.4,442.8,107.4z M355.5,127.9c1.3-0.5,2.5-1,3.7-1.5c0.8-0.4,1.5-0.8,2.6-0.3
			c1,0.5,2.3,0.3,3.4-0.6c1.3-1.1,2.9-1.3,4.5-1c1.2,0.2,2.3,0.5,3.5,0.5c3.5,0.1,6.3,1.9,8.2,4.3c2.3,3.1,5.7,4.6,8.4,7
			c0.2,0.2,0.8,0,1.3,0c0-0.4,0-0.7-0.1-0.9c-0.9-1.4-1.4-2.8-1.1-4.5c0.1-0.4-0.3-0.8-0.6-1.2c-0.8-1.2-1.5-2.5-2.3-3.7
			c-1.1-1.6-2.3-3.2-3.5-4.7c-0.3-0.3-0.8-0.7-1.2-0.7c-2.3-0.3-3.6-2.1-5.3-3.4c-0.9-0.7-1.7-1.7-2.7-2.1c-0.8-0.3-1.9-0.7-2.8,0.5
			c-0.3,0.4-1.2,0.5-1.9,0.7c-0.7,0.2-1.7-0.1-2.1,0.3c-1.3,1.3-3,1.1-4.5,1.1c-1.2,0-1.9,0.7-2.7,1.3c-1.1,0.8-2.1,1.8-3.1,2.7
			c-0.7,0.6-1.3,1.2-2.2,2c1,0.2,1.5,0.4,2.2,0.5C356.3,125.5,354.7,126.2,355.5,127.9z M324.7,114.6c0.5-3-0.9-5.8-1.3-8.7
			c-0.1-1-0.4-2-0.8-2.9c-1.3-2.4-2.4-4.9-2.4-7.7c0-0.4-0.2-0.8-0.2-1.2c-0.2-1.3-0.5-2.6-0.6-4c-0.1-1.4,0-2.7-0.1-4.1
			c-0.2-4.7-1.1-9.4-0.4-14.2c0.1-0.5-0.2-0.9-0.2-1.4c0-0.9,0-1.9-0.1-2.8c0-1.5,0-3-0.1-4.5c-0.2-1.8-0.6-3.7-0.6-5.5
			c-0.1-2,0.6-4.1,0.2-5.9c-0.5-2.4,0.5-4.5,0.2-6.8c-0.2-2,1-4.2,1.5-6.3c0.1-0.5,0.2-1.1,0.1-1.6c-0.1-0.4-0.4-1-0.8-1
			c-0.4-0.1-1.2,0-1.4,0.4c-1.4,2.1-2.7,4.3-1.8,6.8c0.7,2.1,0.7,4.2,0.2,6.1c-0.6,2.4-0.2,4.8-0.8,7.2c-0.4,1.5-0.4,3.2-0.5,4.7
			c-0.1,1.6-0.6,3.5,0.1,4.7c0.6,1.2,0.3,2.2,0.2,3.2c-0.2,1.6-0.5,3.1-0.8,4.7c-0.1,0.8-0.5,1.5-0.5,2.2c-0.1,3.5-0.1,7,0,10.5
			c0,1.5-0.2,3.2,1,4.5c0.4,0.4,0.2,1.2,0.4,1.8c0.2,0.8,0.5,1.5,0.8,2.2c0.3,0.7,0.7,1.2,0.9,1.9c1.4,4.2,2.8,8.4,4.2,12.5
			c0.5,1.6,1.3,3.1,1.8,4.7C323.4,115.1,323.9,114.9,324.7,114.6z M379.8,133.6c0,2,0.1,4,0,6.1c-0.1,1.2-0.1,2.6-0.6,3.7
			c-1.5,3-4,4.9-7.6,5c-0.9,0-1.8,0-2.6,0c-3.6,0.1-7.1-0.2-10.4-1.9c-0.9-0.5-1.6-0.9-2.2-1.7c-0.7-1-1.6-2-3.3-1.3
			c0.3,0.6,0.4,1.3,0.8,1.6c1.3,1.2,2.9,2.2,4.2,3.4c1.7,1.7,4.2,1.7,6,3c0.2,0.1,0.5,0.1,0.7,0c1.3-0.3,2.6,0.3,3.9-0.7
			c0.5-0.4,1.9-0.2,2.6,0.3c0.7,0.4,1.2,0.5,2,0.2c0.8-0.3,1.6-0.5,2.4-0.7c0.6-0.1,1.5,0,1.8-0.4c1.1-1.3,2.7-1.5,4-2.2
			c0.9-0.5,1.6-0.5,2.4,0c1.1,0.7,2.2,1.1,4,1.1c-0.6-0.9-0.9-1.4-1.3-1.9c-0.5-0.6-1.3-1.1-1.5-1.7c-0.5-1.7-0.9-3.4-1.1-5.1
			C383.9,137.4,381.9,135.6,379.8,133.6z M393.9,51.3c-1.3-1.8-3.5-2.5-4.9-1.7c-0.5,0.3-1,1.1-1.1,1.7c0,0.4,0.7,1.1,1.2,1.2
			c2.1,0.4,4.2,0.9,6.3,1c3.5,0.1,7-0.2,10.5-0.3c0.8,0,1.6,0.3,2.4,0.6c1.6,0.6,3.4,2.7,5.2,0.3c1.6,1.7,3.5,1.1,5.6,1
			c-0.1-2.4-1.2-4.1-2.3-5.9c-0.5,0.5-0.9,0.9-1.1,0.9c-0.9-0.1-1.7-0.7-2.6-0.7c-0.9,0-1.8,0.7-2.6,0.6c-0.9-0.1-1.6-0.8-2.5-1.2
			c-0.5-0.2-1.3-0.5-1.5-0.3c-1.3,1.3-2.5,0.7-3.8,0.1c-0.4-0.2-1.1-0.1-1.5,0.2c-0.9,0.7-1.7,0.7-2.6,0c-0.3-0.2-1-0.5-1.2-0.3
			C396.2,49.3,394.4,49.2,393.9,51.3z M374.9,129.9c-0.8-0.7-1.4-1.8-2-1.7c-2.3,0.2-4.7-1-6.8,0.8c-0.2,0.2-0.8,0.2-1.1,0
			c-2.2-1.2-3.9,0-5.4,1.3c-1,0.8-1.7,2.1-3.3,2.1c-0.3,0-0.6,0.5-0.8,0.8c-0.5,0.7-1,1.5-1.4,2.1c-1,0-1.8-0.2-2.3,0
			c-2,1.1-4.1,1.9-5.5,3.8c-1.2,1.6-2.5,3-3.7,4.5c-0.2,0.3-0.2,0.7-0.2,1c0.7,0.1,1.5,0,1.8,0.3c0.9,1,1.5,0.8,2.3-0.1
			c1.4-1.7,2.9-3.5,4.4-5.1c0.8-0.8,1.8-1.5,2.8-2.1c1.5-0.9,2.9-1.8,4-3.2c1.3-1.6,2.8-3,5.1-3c0.5,0,1.2-0.2,1.5-0.5
			c1.4-1.4,3.5,0.3,4.8-1.3c1,1.4,1.9,0.2,2.9-0.3C372.6,130.1,373.4,130.6,374.9,129.9z M519.9,279.6c1.1,1.5,2,2.9,3,4.2
			c1.4,1.9,4.3,4.3,6.3,5.2c0.2,0.1,0.5,0.2,0.7,0.2c2.5,0,4.6,1.3,6.6,2.6c0.7-1.8-0.8-2.3-1.8-2.9c-0.1-0.9-0.2-1.6-0.3-2
			c-2.4-1.5-4.5-2.9-7.1-4.6c1-0.2,1.6-0.3,2.1-0.5c0.5-1.8-1-2.4-1.9-2.5c-1.2-0.2-1.9-0.9-2.8-1.4c-0.9-0.5-1.8-1-2.7-1.4
			c-0.4-0.2-0.8-0.2-1.6-0.3c0.2,1.1,0.4,1.9,0.5,2.7C520.6,279.1,520.3,279.3,519.9,279.6z M539.5,332.8c-2.1,0-4,0-5.8,0
			c-0.9,0-1.6,0.1-2.4,0.7c-1.1,0.8-2.6,1-3.9,1.4c-1.6,0.5-3.2,1.2-4.9,1.6c-1.7,0.4-3.2,1.7-5.1,1.4c-1.3-0.2-2.8-0.3-3.2,1.7
			c0,0.2-0.6,0.4-1,0.6c-0.6,0.4-1.3,0.8-2.1,1.2c1.8,0.4,1.7,0.3,2.8-0.2c1.1-0.6,2.4-1.3,3.5-1.2c1.1,0.1,2.1-0.2,3.1-0.1
			c3.1,0.4,5.6-1.4,8.2-2.5c1.6-0.7,2.9-0.7,4.3-0.1c1.1,0.4,1.8,0.2,2.9-0.1c1.6-0.5,2.1-2.1,3.4-2.8
			C539.6,334.4,539.5,333.6,539.5,332.8z M403.9,30.1c-1,0-2-0.1-3.1,0c-0.9,0.1-1.8,0.6-2.7,0.7c-0.9,0.2-1.8,0.3-2.7,0.7
			c-1.4,0.5-3.3,0.8-4.6,0.2c-2.2-0.9-3.9-0.6-5.5,1.1c-1.8-0.6-3.3,0.3-4.9,1.1c-1.3,0.7-2.6,1.6-3.9,2.3c-2.1,1.1-2.1,1.1-1.6,3.8
			c0.6-0.1,1.2-0.1,1.8-0.4c2.1-0.9,4.2-1.8,6.2-2.8c0.5-0.3,1.1-1,1.6-0.9c2.4,0.5,4.1-0.9,6-1.7c1.5-0.6,2.8-1.3,4.5-1.5
			c1.8-0.2,3.5-1.1,5.4-1c0.2,0,0.4-0.2,0.6-0.3C402,30.9,402.9,30.5,403.9,30.1z M339,14.9c0.6-0.5,1.1-0.7,1.5-1.2
			c0.4-0.5,0.6-1.1,0.9-1.6c1.1-1.6,1.1-2.2-0.3-3.4c-2.1-1.7-4.3-3.4-6.6-5c-0.4-0.3-1.5-0.2-1.9,0.1c-0.7,0.5-0.6,1.4-0.1,2.1
			c0.6,0.9,1.6,1.8,1.8,2.8c0.4,2,1.9,3.3,2.8,4.9C337.4,14.2,338.2,14.4,339,14.9z M307,19.7c0.2,0.7,0.2,1.7,0.6,2.1
			c1.2,1,3-0.4,4.3,0.9c0.1,0.1,0.8-0.1,1-0.4c0.5-0.7,1.1-0.6,1.9-0.6c1.2,0,2-1,1.4-1.9c-0.9-1.2-1.3-2.9-3-3.4
			c-0.6-0.2-1.1-0.4-1.8,0c-0.4,0.3-1.1,0.2-1.6,0.3C307.5,17,307.3,17.2,307,19.7z M325,116.9c-0.4,1.9,0.4,3.4,0.9,4.9
			c0.6,1.7,0.8,3.5,1.4,5.2c0.9,2.6,1.8,5.1,3,7.5c0.6,1.2,0.4,3.1,2.4,3.6c0-0.4,0.3-0.9,0.1-1.1c-1-1.6-1-3.3-1-5
			c0-0.4,0-0.9-0.3-1.1c-1.5-1.4-1.8-3.4-2.5-5.1c-0.8-1.7-1.4-3.5-1.3-5.5C328,117.8,327.8,117.8,325,116.9z M516.5,299.1
			c1.2,0.5,2.5,0.9,3.6,1.5c0.5,0.3,0.8,1.1,1.2,1.6c0.3,0.5,0.6,1,1,1.4c0.9,0.9,1.7,1.8,3.1,1.9c0.4,0,0.8,0.9,1.1,1.4
			c0.3,0.4,0.4,0.9,0.6,1.4c0.2,0,0.3-0.1,0.5-0.1c-0.1-1.1,0-2.4-0.5-3.4c-1.1-2.7-3.5-4-5.9-5.2c-1.5-0.7-3.1-1.3-4.8-1.9
			C516.5,298.1,516.5,298.5,516.5,299.1z M370.4,131.6c0.1,0.3,0,0.5,0.1,0.6c1.5,1.3,3.3,2.3,4.3,4.1c0.1,0.2,0.8,0.4,1,0.2
			c0.3-0.2,0.6-0.8,0.5-1.1c-0.2-1-0.6-1.9-0.9-3C373.7,132.3,372.4,130.4,370.4,131.6z M541.1,299.6c-0.2-1.6-0.7-2.8-0.5-3.8
			c0.2-1.1,1-2.1,1.6-3.2c-1.6-0.5-1.8,1.5-3.2,1.7c-0.2-0.5-0.4-1-0.8-2c-0.2,0.9-0.5,1.5-0.4,2c0.3,1.3,0.7,2.7,1.3,3.9
			C539.4,298.7,540.3,299,541.1,299.6z M541.1,301.6c-1.4-0.2-1.9,0.8-2.5,1.9c-1,1.9-0.8,4.3-2.7,5.8c0.6,0,1.3,0.1,1.6-0.2
			c0.8-0.8,1.5-1.8,2-2.8C540.1,304.8,540.6,303.3,541.1,301.6z M384.9,100.1c-0.1,0.1-0.2,0.1-0.2,0.2c0.7,1.2,1.2,2.4,2,3.5
			c0.9,1.2,2.2,1.5,3.8,1.4C388.6,103.5,386.8,101.8,384.9,100.1z M392.5,113.7c-0.2-2.8-2.2-5.2-4.6-5.3
			C389.4,110.2,390.9,111.9,392.5,113.7z M379.5,152.2c-0.7-1.1-1.4-1-2.5,0C378.1,152.2,378.8,152.2,379.5,152.2z M380.8,98.1
			c-0.1,0.8,0,1.5,1.1,1.2C381.6,98.9,381.2,98.5,380.8,98.1z M416.2,32c0,0.1,0,0.2,0,0.3c0.4,0.1,0.8,0.1,1.2,0.2
			c0-0.1,0-0.3,0.1-0.4C417.1,32.1,416.6,32.1,416.2,32z M410,31.2c1.3,0.5,1.3,0.5,1.9-0.2C411.3,31,410.8,31.1,410,31.2z"/>
		<path fill-rule="evenodd" d="M244.1,204c1.6,5.3,3.1,10.1,4.6,14.9c1,3.3,2,6.6,3,9.8c0.4,1.1,0.9,2.2,1.6,3.2
			c1.6,2.3,3.8,2.9,6.5,2.4c13.5-3,27-5.9,40.5-8.8c0.5-0.1,1.1-0.1,1.8-0.2c-0.3,1-0.5,1.7-0.8,2.5c-4.4,12.4-8.8,24.9-13.2,37.3
			c-0.6,1.7-0.9,3.5-1.1,5.4c-0.2,2.3,0.9,3.9,3.1,4.9c6.5,2.8,13,5.8,19.5,8.7c0.6,0.3,1.1,0.6,1.9,1c-0.8,0.6-1.3,1.1-2,1.6
			c-25,19-49.9,37.9-74.9,56.8c-0.8,0.6-1.6,1.1-2.3,1.7c-3.2,2.4-4.1,6.1-2.5,9.8c3.3,7.4,6.5,14.8,9.8,22.1
			c0.3,0.8,0.7,1.6,1.1,2.7c-26.7-4-53-7.9-79.6-11.9c0,15.1,0,29.9,0,44.9c-2.7,0-5,0-7.6,0c0-14.9,0-29.8,0-44.9
			c-26.5,4-52.8,7.9-79.3,11.9c0.2-0.7,0.3-1.2,0.5-1.6c3.4-7.7,6.6-15.4,10.2-23c1.7-3.5,0.6-7.7-2.7-10.2
			c-15.4-11.6-30.7-23.2-46.1-34.9c-10.4-7.9-20.8-15.8-31.1-23.6c-0.5-0.4-1-0.8-1.7-1.4c0.9-0.5,1.6-0.9,2.4-1.2
			c6.3-2.8,12.5-5.7,18.8-8.5c2.1-0.9,3.4-1.9,3.3-5.4c0-1.4-0.4-2.8-0.9-4.2c-4.4-12.5-8.8-25-13.2-37.6c-0.3-0.9-0.6-1.8-1-2.9
			c0.9,0.1,1.4,0.1,1.9,0.2c13.5,2.9,27,5.8,40.5,8.8c3.6,0.8,6.4-0.8,7.7-4.7c1.6-4.9,3.1-9.9,4.6-14.9c0.9-2.8,1.7-5.7,2.6-8.5
			c0.2-0.6,0.4-1.2,0.8-2.1c0.7,0.8,1.2,1.4,1.6,2c10.4,14.4,20.7,28.8,31,43.3c0.3,0.5,0.6,0.9,1,1.3c1.7,1.8,3.7,2.8,6.2,2.1
			c2.6-0.7,4.1-2.5,4.4-5.1c0.2-1.2,0-2.6-0.3-3.8c-5.7-23.8-11.5-47.7-17.2-71.5c-1.2-4.8-2.3-9.6-3.5-14.4
			c-0.1-0.6-0.2-1.2-0.4-2.1c0.8,0.3,1.3,0.5,1.8,0.7c7.9,4.2,15.8,8.4,23.6,12.8c5.1,2.9,8,1.3,10.4-3.1c3.5-6.6,7-13.3,10.5-20
			c5.5-10.5,11-21,16.5-31.5c0.2-0.4,0.5-0.8,0.9-1.4c0.6,0.9,1,1.6,1.4,2.4c6.1,11.7,12.3,23.4,18.4,35c2.7,5.1,5.3,10.2,8,15.3
			c0.3,0.6,0.7,1.2,1.1,1.8c2.3,3.2,4.8,3.8,8.3,1.9c6.3-3.4,12.5-6.8,18.8-10.1c2.4-1.3,4.8-2.5,7.7-4.1c-0.2,1.2-0.4,1.9-0.5,2.6
			c-3.4,14.2-6.9,28.4-10.3,42.6c-3.5,14.4-6.9,28.7-10.3,43.1c-0.3,1.1-0.4,2.2-0.3,3.3c0.1,2.4,1.3,4.3,3.6,5.2
			c2.4,1,4.5,0.5,6.4-1.2c0.6-0.5,1.1-1.2,1.5-1.8c10.4-14.5,20.8-29,31.2-43.5C242.9,205.5,243.3,205,244.1,204z"/>
		<path fill-rule="evenodd" fill="#FFFFFF" d="M355.5,127.9c-0.8-1.7,0.8-2.4,1.7-3.6c-0.7-0.2-1.3-0.3-2.2-0.5
			c0.9-0.8,1.6-1.4,2.2-2c1-0.9,2-1.9,3.1-2.7c0.8-0.5,1.4-1.2,2.7-1.3c1.5,0,3.2,0.1,4.5-1.1c0.4-0.4,1.4-0.2,2.1-0.3
			c0.7-0.2,1.6-0.2,1.9-0.7c0.8-1.2,2-0.8,2.8-0.5c1,0.4,1.8,1.4,2.7,2.1c1.6,1.3,2.9,3.2,5.3,3.4c0.4,0,0.9,0.4,1.2,0.7
			c1.2,1.5,2.4,3.1,3.5,4.7c0.8,1.2,1.6,2.5,2.3,3.7c0.2,0.4,0.6,0.8,0.6,1.2c-0.3,1.7,0.2,3.1,1.1,4.5c0.1,0.2,0,0.4,0.1,0.9
			c-0.5,0-1.1,0.2-1.3,0c-2.7-2.4-6.1-3.9-8.4-7c-1.8-2.4-4.7-4.2-8.2-4.3c-1.2,0-2.3-0.4-3.5-0.5c-1.6-0.3-3.2-0.1-4.5,1
			c-1,0.9-2.3,1.1-3.4,0.6c-1.1-0.5-1.7-0.1-2.6,0.3C358,126.9,356.8,127.4,355.5,127.9z"/>
		<path fill-rule="evenodd" fill="#FFFFFF" d="M324.7,114.6c-0.8,0.3-1.3,0.5-1.7-0.4c-0.6-1.6-1.3-3.1-1.8-4.7
			c-1.4-4.2-2.8-8.4-4.2-12.5c-0.2-0.7-0.7-1.3-0.9-1.9c-0.3-0.7-0.6-1.5-0.8-2.2c-0.2-0.6,0-1.4-0.4-1.8c-1.2-1.4-1-3-1-4.5
			c-0.1-3.5-0.1-7,0-10.5c0-0.8,0.4-1.5,0.5-2.2c0.3-1.5,0.6-3.1,0.8-4.7c0.1-1,0.4-2-0.2-3.2c-0.6-1.3-0.2-3.1-0.1-4.7
			c0.1-1.6,0.1-3.2,0.5-4.7c0.6-2.4,0.2-4.8,0.8-7.2c0.5-1.9,0.5-4-0.2-6.1c-0.9-2.6,0.4-4.8,1.8-6.8c0.2-0.3,1-0.5,1.4-0.4
			c0.3,0.1,0.7,0.6,0.8,1c0.1,0.5,0,1.1-0.1,1.6c-0.5,2.1-1.7,4.3-1.5,6.3c0.3,2.3-0.7,4.5-0.2,6.8c0.4,1.9-0.3,3.9-0.2,5.9
			c0.1,1.8,0.5,3.7,0.6,5.5c0.1,1.5,0.1,3,0.1,4.5c0,0.9,0,1.9,0.1,2.8c0,0.5,0.3,1,0.2,1.4c-0.7,4.8,0.2,9.5,0.4,14.2
			c0,1.4-0.1,2.7,0.1,4.1c0.1,1.3,0.4,2.6,0.6,4c0.1,0.4,0.2,0.8,0.2,1.2c0,2.8,1.1,5.3,2.4,7.7c0.5,0.9,0.7,1.9,0.8,2.9
			C323.8,108.8,325.2,111.6,324.7,114.6z"/>
		<path fill-rule="evenodd" fill="#FFFFFF" d="M379.8,133.6c2.1,1.9,4.1,3.7,4.4,6.7c0.2,1.7,0.6,3.4,1.1,5.1c0.2,0.7,1,1.1,1.5,1.7
			c0.4,0.5,0.7,1,1.3,1.9c-1.8,0-3-0.4-4-1.1c-0.8-0.5-1.5-0.5-2.4,0c-1.3,0.8-2.9,1-4,2.2c-0.3,0.4-1.2,0.2-1.8,0.4
			c-0.8,0.2-1.6,0.4-2.4,0.7c-0.7,0.2-1.2,0.2-2-0.2c-0.7-0.4-2.1-0.7-2.6-0.3c-1.3,1-2.6,0.4-3.9,0.7c-0.2,0.1-0.5,0.1-0.7,0
			c-1.9-1.3-4.3-1.3-6-3c-1.3-1.2-2.8-2.2-4.2-3.4c-0.4-0.4-0.5-1-0.8-1.6c1.8-0.7,2.6,0.3,3.3,1.3c0.6,0.8,1.3,1.3,2.2,1.7
			c3.3,1.7,6.8,2,10.4,1.9c0.9,0,1.8,0,2.6,0c3.6-0.1,6-2,7.6-5c0.5-1.1,0.5-2.4,0.6-3.7C379.8,137.7,379.8,135.7,379.8,133.6z"/>
		<path fill-rule="evenodd" fill="#FFFFFF" d="M393.9,51.3c0.5-2.1,2.3-2,3.4-2.8c0.2-0.2,0.9,0.1,1.2,0.3c0.9,0.6,1.7,0.7,2.6,0
			c0.3-0.3,1.1-0.4,1.5-0.2c1.3,0.6,2.5,1.2,3.8-0.1c0.2-0.2,1,0.1,1.5,0.3c0.9,0.4,1.6,1.1,2.5,1.2c0.8,0.1,1.7-0.6,2.6-0.6
			c0.9,0,1.7,0.5,2.6,0.7c0.2,0,0.6-0.4,1.1-0.9c1.2,1.8,2.2,3.5,2.3,5.9c-2.1,0-3.9,0.7-5.6-1c-1.9,2.4-3.6,0.4-5.2-0.3
			c-0.8-0.3-1.6-0.6-2.4-0.6c-3.5,0.1-7,0.4-10.5,0.3c-2.1,0-4.2-0.5-6.3-1c-0.5-0.1-1.2-0.8-1.2-1.2c0.1-0.6,0.5-1.4,1.1-1.7
			C390.4,48.7,392.6,49.4,393.9,51.3z"/>
		<path fill-rule="evenodd" fill="#FFFFFF" d="M374.9,129.9c-1.5,0.8-2.3,0.2-2.9-0.7c-1,0.5-1.9,1.7-2.9,0.3
			c-1.3,1.6-3.4-0.2-4.8,1.3c-0.3,0.4-1,0.5-1.5,0.5c-2.3,0-3.8,1.4-5.1,3c-1.1,1.4-2.5,2.3-4,3.2c-1,0.6-2,1.3-2.8,2.1
			c-1.5,1.6-3,3.4-4.4,5.1c-0.7,0.9-1.4,1.2-2.3,0.1c-0.3-0.3-1.1-0.2-1.8-0.3c0-0.2,0-0.7,0.2-1c1.2-1.5,2.5-3,3.7-4.5
			c1.4-1.9,3.6-2.7,5.5-3.8c0.5-0.3,1.4,0,2.3,0c0.4-0.6,0.9-1.3,1.4-2.1c0.2-0.3,0.6-0.8,0.8-0.8c1.6,0,2.3-1.3,3.3-2.1
			c1.6-1.3,3.2-2.5,5.4-1.3c0.3,0.2,0.9,0.2,1.1,0c2.1-1.8,4.5-0.6,6.8-0.8C373.5,128.1,374.1,129.2,374.9,129.9z"/>
		<path fill-rule="evenodd" fill="#FFFFFF" d="M519.9,279.6c0.4-0.3,0.7-0.5,1-0.7c-0.2-0.8-0.3-1.6-0.5-2.7
			c0.7,0.2,1.2,0.2,1.6,0.3c0.9,0.4,1.8,0.9,2.7,1.4c0.9,0.6,1.7,1.2,2.8,1.4c0.9,0.2,2.4,0.7,1.9,2.5c-0.5,0.1-1.1,0.2-2.1,0.5
			c2.6,1.7,4.7,3.1,7.1,4.6c0.1,0.4,0.2,1.2,0.3,2c1,0.6,2.5,1.1,1.8,2.9c-2-1.3-4.1-2.6-6.6-2.6c-0.2,0-0.5-0.1-0.7-0.2
			c-2-1-4.9-3.4-6.3-5.2C521.9,282.5,521,281.1,519.9,279.6z"/>
		<path fill-rule="evenodd" fill="#FFFFFF" d="M539.5,332.8c-0.1,0.8,0.1,1.5-0.1,1.7c-1.3,0.7-1.8,2.3-3.4,2.8
			c-1,0.3-1.8,0.6-2.9,0.1c-1.4-0.6-2.7-0.6-4.3,0.1c-2.6,1.1-5.1,2.9-8.2,2.5c-1-0.1-2,0.2-3.1,0.1c-1.1-0.1-2.4,0.6-3.5,1.2
			c-1,0.5-1,0.6-2.8,0.2c0.8-0.5,1.4-0.9,2.1-1.2c0.3-0.2,0.9-0.3,1-0.6c0.3-2,1.9-1.8,3.2-1.7c2,0.2,3.4-1.1,5.1-1.4
			c1.7-0.3,3.3-1,4.9-1.6c1.3-0.4,2.8-0.7,3.9-1.4c0.8-0.6,1.5-0.7,2.4-0.7C535.6,332.8,537.4,332.8,539.5,332.8z"/>
		<path fill-rule="evenodd" fill="#FFFFFF" d="M403.9,30.1c-1,0.5-1.9,0.9-2.7,1.3c-0.2,0.1-0.4,0.4-0.6,0.3c-1.9-0.1-3.6,0.8-5.4,1
			c-1.7,0.2-3.1,0.9-4.5,1.5c-2,0.8-3.7,2.2-6,1.7c-0.4-0.1-1,0.6-1.6,0.9c-2.1,1-4.1,1.9-6.2,2.8c-0.5,0.2-1.2,0.2-1.8,0.4
			c-0.5-2.8-0.4-2.7,1.6-3.8c1.3-0.7,2.6-1.6,3.9-2.3c1.5-0.8,3.1-1.8,4.9-1.1c1.7-1.7,3.3-2,5.5-1.1c1.3,0.5,3.2,0.3,4.6-0.2
			c0.9-0.3,1.7-0.5,2.7-0.7c0.9-0.2,1.8-0.6,2.7-0.7C401.8,30,402.9,30.1,403.9,30.1z"/>
		<path fill-rule="evenodd" fill="#FFFFFF" d="M339,14.9c-0.8-0.5-1.6-0.7-1.9-1.2c-0.9-1.7-2.4-2.9-2.8-4.9c-0.2-1-1.1-1.9-1.8-2.8
			c-0.5-0.8-0.7-1.6,0.1-2.1c0.5-0.3,1.5-0.4,1.9-0.1c2.3,1.6,4.4,3.2,6.6,5c1.4,1.2,1.4,1.8,0.3,3.4c-0.4,0.5-0.5,1.1-0.9,1.6
			C340.1,14.2,339.6,14.5,339,14.9z"/>
		<path fill-rule="evenodd" fill="#FFFFFF" d="M307,19.7c0.3-2.5,0.5-2.7,2.9-2.9c0.5,0,1.2,0,1.6-0.3c0.6-0.4,1.1-0.2,1.8,0
			c1.7,0.6,2.1,2.2,3,3.4c0.6,0.8-0.3,1.9-1.4,1.9c-0.8,0-1.3-0.1-1.9,0.6c-0.2,0.3-0.9,0.5-1,0.4c-1.2-1.3-3.1,0-4.3-0.9
			C307.2,21.4,307.2,20.4,307,19.7z"/>
		<path fill-rule="evenodd" fill="#FFFFFF" d="M325,116.9c2.8,0.9,3,0.9,2.8,3.4c-0.1,2,0.5,3.8,1.3,5.5c0.8,1.7,1.1,3.7,2.5,5.1
			c0.2,0.2,0.3,0.8,0.3,1.1c0,1.7,0,3.5,1,5c0.2,0.3-0.1,0.7-0.1,1.1c-2-0.5-1.8-2.4-2.4-3.6c-1.2-2.4-2.1-5-3-7.5
			c-0.6-1.7-0.8-3.5-1.4-5.2C325.4,120.2,324.6,118.7,325,116.9z"/>
		<path fill-rule="evenodd" fill="#FFFFFF" d="M516.5,299.1c0-0.5-0.1-1-0.1-1.5c1.7,0.7,3.3,1.2,4.8,1.9c2.4,1.2,4.8,2.6,5.9,5.2
			c0.4,1,0.3,2.3,0.5,3.4c-0.2,0-0.3,0.1-0.5,0.1c-0.2-0.5-0.4-0.9-0.6-1.4c-0.3-0.5-0.7-1.4-1.1-1.4c-1.4-0.1-2.2-1-3.1-1.9
			c-0.4-0.4-0.7-1-1-1.4c-0.4-0.6-0.7-1.3-1.2-1.6C519,300,517.8,299.6,516.5,299.1z"/>
		<path fill-rule="evenodd" fill="#FFFFFF" d="M442.8,107.4c-0.4,0-1,0.1-1.2-0.1c-1.5-2.2-2.9-4.4-4.3-6.6
			c-0.3-0.5-0.5-1.1-0.8-1.7c0.5-0.3,0.9-0.7,1.5-1.1c0.2,0.8,1.4,1.1,0.6,2.2c-0.1,0.2,0.8,1.1,1.2,1.6c0.7,0.8,2.1,1.8,2,2.5
			C441.5,105.7,442.7,106.3,442.8,107.4L442.8,107.4z"/>
		<path fill-rule="evenodd" fill="#FFFFFF" d="M370.4,131.6c2-1.2,3.3,0.8,5.1,0.8c0.3,1,0.7,2,0.9,3c0.1,0.3-0.2,0.9-0.5,1.1
			c-0.2,0.1-0.9,0-1-0.2c-1-1.8-2.8-2.8-4.3-4.1C370.4,132.1,370.4,131.9,370.4,131.6z"/>
		<path fill-rule="evenodd" fill="#FFFFFF" d="M541.1,299.6c-0.8-0.6-1.7-0.9-2.1-1.5c-0.6-1.2-1-2.6-1.3-3.9c-0.1-0.5,0.2-1,0.4-2
			c0.4,1,0.6,1.5,0.8,2c1.4-0.2,1.6-2.2,3.2-1.7c-0.6,1.1-1.4,2.1-1.6,3.2C540.4,296.8,540.8,298,541.1,299.6z"/>
		<path fill-rule="evenodd" fill="#FFFFFF" d="M541.1,301.6c-0.6,1.7-1,3.2-1.7,4.7c-0.5,1-1.2,1.9-2,2.8c-0.3,0.3-1,0.3-1.6,0.2
			c2-1.5,1.7-3.9,2.7-5.8C539.2,302.5,539.7,301.5,541.1,301.6z"/>
		<path fill-rule="evenodd" fill="#FFFFFF" d="M384.9,100.1c1.8,1.7,3.7,3.4,5.5,5.1c-1.6,0.2-2.9-0.2-3.8-1.4
			c-0.8-1.1-1.3-2.3-2-3.5C384.8,100.3,384.8,100.2,384.9,100.1z"/>
		<path fill-rule="evenodd" fill="#FFFFFF" d="M392.5,113.7c-1.6-1.8-3-3.4-4.6-5.3C390.2,108.5,392.3,110.9,392.5,113.7z"/>
		<path fill-rule="evenodd" fill="#FFFFFF" d="M442.8,107.4c0.1,1.1,1.8,1.6,1.5,3C442.8,109.8,442.2,108.9,442.8,107.4
			C442.8,107.4,442.8,107.4,442.8,107.4z"/>
		<path fill-rule="evenodd" fill="#FFFFFF" d="M379.5,152.2c-0.7,0-1.4,0-2.5,0C378.1,151.2,378.8,151.1,379.5,152.2z"/>
		<path fill-rule="evenodd" fill="#FFFFFF" d="M380.8,98.1c0.4,0.4,0.7,0.8,1.1,1.2C380.8,99.7,380.8,99,380.8,98.1z"/>
		<path fill-rule="evenodd" fill="#FFFFFF" d="M416.2,32c0.4,0,0.8,0.1,1.3,0.1c0,0.1,0,0.3-0.1,0.4c-0.4-0.1-0.8-0.1-1.2-0.2
			C416.2,32.2,416.2,32.1,416.2,32z"/>
		<path fill-rule="evenodd" fill="#FFFFFF" d="M410,31.2c0.8-0.1,1.3-0.1,1.9-0.2C411.2,31.7,411.2,31.7,410,31.2z"/>
	</g>
</g>
</svg>
