<?xml version="1.0" encoding="utf-8"?>
<!-- Generator: Adobe Illustrator 16.0.0, SVG Export Plug-In . SVG Version: 6.00 Build 0)  -->
<svg version="1.2" baseProfile="tiny" id="Layer_1" xmlns="http://www.w3.org/2000/svg" xmlns:xlink="http://www.w3.org/1999/xlink"
	 x="0px" y="0px" width="15px" height="30.015px" viewBox="48.966 97.481 15 30.015" xml:space="preserve">
<g>
	<path fill="#FFFFFF" d="M57.382,127.438c0-0.894-0.016-1.772,0.014-2.656c0-0.186,0.162-0.469,0.309-0.522
		c1.226-0.425,2.035-1.289,2.65-2.388c0.904-1.582,1.289-3.311,1.546-5.098c0.3-2.065,0.563-4.149,0.96-6.207
		c0.234-1.15,0.678-2.263,1.025-3.391c-0.045-0.037-0.088-0.073-0.133-0.11c-0.293,0.322-0.688,0.601-0.876,0.981
		c-0.427,0.894-0.837,1.809-1.087,2.761c-0.674,2.596-1.201,5.248-1.904,7.84c-0.343,1.272-0.85,2.509-1.465,3.677
		c-0.557,1.056-1.391,1.245-2.479,0.806c-1.547-0.63-2.227-1.963-2.659-3.442c-0.63-2.124-0.674-4.307-0.593-6.504
		c0.081-2.516,0.381-5.035-0.096-7.547c-0.358-1.912-0.959-3.721-2.35-5.164c-0.302-0.315-0.668-0.571-1.012-0.85
		c1.011,1.626,1.252,3.406,1.362,5.186c0.197,3.179,0.285,6.359,0.432,9.547c0.103,2.157,0.264,4.321,1.055,6.372
		c0.545,1.421,1.355,2.637,2.82,3.267c0.417,0.19,0.864,0.294,1.413,0.483c0,0.97,0,1.963,0,2.959 M56.433,117.305v0.011
		c0.308,0,0.622,0,0.934,0c0.572-0.015,0.66-0.381,0.66-0.85c0-0.472,0-0.923-0.645-0.938c-0.616-0.015-1.24-0.059-1.843,0.015
		c-0.241,0.044-0.571,0.366-0.622,0.601c-0.19,0.864,0.103,1.157,0.988,1.161C56.081,117.307,56.257,117.305,56.433,117.305z
		 M56.391,111.504c-0.266,0-0.53,0.007-0.793,0c-0.63-0.022-0.703,0.397-0.71,0.879c-0.008,0.491,0.059,0.904,0.684,0.904
		c0.576,0,1.151-0.015,1.723,0c0.498,0.015,0.717-0.205,0.732-0.707c0.043-0.923-0.095-1.077-1.041-1.077
		C56.796,111.504,56.59,111.504,56.391,111.504z M56.487,119.352c0.294,0,0.573,0,0.866,0.004c0.645,0.025,0.682-0.399,0.674-0.883
		c0-0.469,0-0.923-0.66-0.908c-0.57,0.015-1.153,0.015-1.725,0c-0.556-0.029-0.739,0.249-0.754,0.762
		c-0.022,0.894,0.103,1.025,1.003,1.025C56.089,119.352,56.286,119.352,56.487,119.352z M56.491,113.492c-0.308,0-0.622,0-0.93,0
		c-0.63,0.002-0.667,0.439-0.674,0.923c-0.008,0.454,0.073,0.85,0.654,0.85c0.62,0,1.239,0.029,1.854-0.029
		c0.206-0.015,0.514-0.205,0.586-0.384c0.33-0.861-0.043-1.359-0.967-1.359C56.84,113.492,56.663,113.492,56.491,113.492z
		 M56.529,111.226c0.282,0,0.574-0.008,0.854,0c0.57,0.022,0.702-0.3,0.703-0.798c0-0.513-0.176-0.791-0.719-0.776
		c-0.512,0.015-1.021,0.022-1.526,0c-0.55-0.022-0.865,0.133-0.873,0.769c-0.007,0.667,0.308,0.857,0.901,0.806
		C56.086,111.211,56.309,111.226,56.529,111.226z M56.462,121.227c0.334,0,0.663,0,0.992,0.004c0.572,0.017,0.615-0.355,0.631-0.795
		c0-0.432-0.104-0.732-0.621-0.732c-0.552,0.015-1.104,0.029-1.659,0c-0.588-0.044-0.837,0.19-0.837,0.791
		c0,0.615,0.308,0.776,0.835,0.733C56.023,121.222,56.242,121.227,56.462,121.227z M56.663,107.915c-0.237,0-0.479,0.007-0.721,0
		c-0.564-0.022-0.703,0.293-0.711,0.794c0,0.517,0.169,0.796,0.726,0.781c0.439-0.015,0.883-0.029,1.321,0
		c0.615,0.037,0.807-0.249,0.807-0.828c0-0.593-0.279-0.791-0.82-0.747C57.06,107.93,56.868,107.915,56.663,107.915z
		 M56.638,107.637c0.246,0,0.484-0.015,0.729,0c0.557,0.029,0.719-0.271,0.719-0.78c0-0.501-0.146-0.809-0.719-0.794
		c-0.438,0.015-0.875,0.022-1.314,0c-0.607-0.037-0.82,0.227-0.812,0.82c0,0.593,0.256,0.798,0.806,0.754
		C56.242,107.622,56.441,107.637,56.638,107.637z M60.435,112.672c0.008-0.993-0.197-1.183-1.223-1.176
		c-0.424,0.007-0.881-0.015-0.879,0.608c0.016,1.036,0.309,1.3,1.348,1.314C60.282,113.434,60.531,113.17,60.435,112.672z
		 M56.777,105.681c1.162,0,1.293-0.103,1.264-0.894c-0.014-0.549-0.336-0.725-0.775-0.623c-0.586,0.139-1.482-0.499-1.703,0.571
		C55.407,105.498,55.673,105.675,56.777,105.681z M56.854,103.667c1.01,0,1.055-0.037,1.069-0.74c0-0.732-0.105-0.813-1.083-0.82
		c-0.883,0-1.052,0.131-1.052,0.798C55.796,103.572,55.928,103.667,56.854,103.667z M55.21,121.534
		c0.103,0.776,0.615,1.202,1.468,1.377c0.629,0.132,0.952-0.22,1.215-0.688c0.234-0.425,0.127-0.688-0.381-0.688
		C56.766,121.52,56.016,121.534,55.21,121.534z M59.081,107.908c-0.602-0.007-0.762,0.117-0.777,0.623
		c-0.014,0.784,0.338,1.062,1.363,1.069c0.352,0,0.645-0.044,0.645-0.527C60.315,108.289,59.945,107.915,59.081,107.908z
		 M53.02,114.649c0,0.703,0.044,0.752,0.652,0.747c0.762,0,1.067-0.278,1.047-1.024c-0.015-0.44,0-0.909-0.674-0.88
		C53.337,113.536,53.013,113.873,53.02,114.649z M59.3,117.315c0.645,0.019,0.865-0.234,0.857-1.143
		c-0.008-0.645-0.578-0.483-0.945-0.527c-0.439-0.059-0.908-0.029-0.893,0.645C58.333,117.101,58.48,117.286,59.3,117.315z
		 M59.081,113.609c-0.293,0.044-0.748-0.044-0.748,0.535c0,0.871,0.283,1.105,1.23,1.135c0.557,0.015,0.732-0.249,0.703-0.762
		C60.238,113.814,60.003,113.609,59.081,113.609z M59.183,109.775c-0.688,0.007-0.879,0.234-0.762,0.901
		c0.088,0.483,0.769,0.754,1.539,0.637c0.365-0.059,0.482-0.249,0.453-0.593C60.37,110.046,60.017,109.768,59.183,109.775z
		 M53.503,105.617c0.088,0.071,0.286,0.379,0.498,0.393c0.755,0.039,1.297-0.505,1.312-1.201c0.007-0.417-0.132-0.645-0.615-0.63
		C53.936,104.202,53.511,104.597,53.503,105.617z M53.927,103.374c-0.013,0.352-0.004,0.681,0.493,0.669
		c0.701-0.01,1.172-0.464,1.157-1.167c-0.008-0.344,0.007-0.718-0.55-0.696C54.346,102.202,53.943,102.598,53.927,103.374z
		 M53.115,116.598c0.036,0.908,0.065,0.952,0.63,0.923c0.63-0.039,0.988-0.425,0.935-1.099c-0.034-0.367-0.034-0.82-0.642-0.776
		C53.335,115.704,53.091,115.938,53.115,116.598z M59.3,107.776c0.645,0,0.85-0.134,0.85-0.557c-0.014-0.593-0.512-1.025-1.201-1.04
		c-0.439-0.007-0.645,0.176-0.645,0.63C58.304,107.534,58.537,107.769,59.3,107.776z M53.928,107.776
		c0.813,0,1.092-0.264,1.106-0.959c0.007-0.457-0.14-0.696-0.652-0.667c-0.752,0.037-1.099,0.33-1.143,0.989
		C53.203,107.721,53.527,107.812,53.928,107.776z M53.76,111.365c0.732,0,1.084-0.322,1.084-0.967c0-0.432-0.146-0.688-0.652-0.667
		c-0.812,0.022-1.011,0.256-1.047,1.15C53.122,111.431,53.474,111.343,53.76,111.365z M53.049,113.214
		c0.586,0,1.194,0.278,1.529-0.322c0.156-0.297,0.156-0.832-0.02-1.095c-0.109-0.168-0.688-0.154-1.011-0.051
		C52.813,111.98,53.166,112.643,53.049,113.214z M59.521,105.952c0.059-0.073,0.365-0.256,0.395-0.469
		c0.074-0.608-0.57-1.296-1.172-1.246c-0.176,0.009-0.472,0.323-0.482,0.513C58.202,105.608,58.495,105.923,59.521,105.952z
		 M53.254,109.504c0.564-0.007,1.18,0.264,1.494-0.359c0.153-0.293,0.14-0.835-0.044-1.084c-0.124-0.176-0.703-0.139-1.023-0.029
		C52.94,108.289,53.306,108.933,53.254,109.504z M59.755,103.784c-0.029-0.886-0.645-1.582-1.215-1.531
		c-0.412,0.037-0.441,0.337-0.426,0.674c0.029,0.814,0.395,1.194,1.172,1.135C59.476,104.046,59.652,103.843,59.755,103.784z
		 M53.445,119.527c0.088,0.059,0.169,0.103,0.257,0.161c0.329-0.19,0.85-0.308,0.938-0.571c0.124-0.383,0.015-0.908-0.161-1.304
		c-0.052-0.117-0.967-0.026-0.981,0.059C53.401,118.414,53.445,118.971,53.445,119.527z M56.957,101.865
		c0.513,0.044,0.849-0.081,0.849-0.696c-0.014-0.601-0.381-0.652-0.834-0.663c-0.517-0.011-0.876,0.113-0.861,0.714
		C56.125,101.785,56.47,101.916,56.957,101.865z M59.784,117.872c-1.172-0.527-1.465-0.337-1.377,0.847
		c0,0.105-0.029,0.267,0.029,0.312c0.176,0.159,0.365,0.35,0.586,0.384c0.131,0.024,0.395-0.151,0.453-0.298
		C59.622,118.722,59.697,118.282,59.784,117.872z M59.124,102.1c0.059-0.059,0.309-0.198,0.338-0.366
		c0.072-0.498-0.381-0.945-0.911-1.018c-0.349-0.051-0.481,0.088-0.511,0.425C57.997,101.785,58.216,102.034,59.124,102.1z
		 M53.767,119.674c-0.044,0.088-0.088,0.161-0.132,0.249c0.249,0.542,0.491,1.084,0.755,1.655c0.49-0.439,0.666-1.187,0.314-1.597
		C54.522,119.776,54.089,119.776,53.767,119.674z M55.818,100.789c-0.088-0.051-0.256-0.212-0.431-0.22
		c-0.457-0.029-0.975,0.535-0.901,1.011c0.028,0.154,0.277,0.374,0.438,0.381C55.461,101.982,55.825,101.543,55.818,100.789z
		 M56.824,98.95c-0.172,0.249-0.436,0.483-0.479,0.747c-0.073,0.461,0.304,0.593,0.686,0.586c0.381,0,0.629-0.183,0.629-0.601
		C57.659,99.229,57.408,99.06,56.824,98.95z M56.177,99.404c-0.073-0.073-0.198-0.293-0.374-0.344
		c-0.329-0.103-0.85,0.425-0.827,0.842c0.007,0.154,0.183,0.396,0.322,0.432C55.752,100.437,56.118,100.081,56.177,99.404z
		 M59.286,119.894c-0.059-0.073-0.117-0.161-0.162-0.234c-0.264,0.117-0.674,0.19-0.746,0.381c-0.133,0.352-0.074,0.776-0.059,1.162
		c0,0.083,0.131,0.229,0.189,0.215c0.104-0.015,0.234-0.103,0.279-0.19C58.964,120.787,59.124,120.333,59.286,119.894z
		 M59.169,98.76c-0.426-0.388-0.719-0.645-0.996-0.906c-0.133,0.144-0.352,0.284-0.352,0.423c0,0.439,0.146,0.85,0.688,0.86
		C58.656,99.141,58.807,98.972,59.169,98.76z M59.169,100.261c0.014-0.095,0.029-0.19,0.043-0.278
		c-0.277-0.212-0.57-0.439-0.879-0.615c-0.043-0.029-0.336,0.212-0.335,0.322c0.028,0.374,0.101,0.784,0.599,0.776
		C58.788,100.466,58.978,100.334,59.169,100.261z M56.455,97.668c-0.564,0.029-0.916,0.208-0.916,0.725
		c0.005,0.122,0.286,0.359,0.41,0.344C56.582,98.65,56.455,98.159,56.455,97.668z"/>
	<path fill="#FFFFFF" d="M57.396,127.438h-0.029c0-0.234,0-0.469-0.005-0.703c-0.009-0.645-0.009-1.304,0.021-1.957
		c0-0.182,0.16-0.475,0.322-0.533c1.084-0.381,1.947-1.157,2.637-2.373c0.951-1.678,1.318-3.516,1.537-5.098
		c0.059-0.407,0.117-0.806,0.176-1.203c0.234-1.653,0.47-3.349,0.791-5.004c0.162-0.798,0.426-1.588,0.689-2.351
		c0.109-0.337,0.234-0.688,0.336-1.04l-0.117-0.088c-0.088,0.095-0.189,0.19-0.285,0.283c-0.226,0.208-0.447,0.423-0.573,0.684
		c-0.431,0.916-0.854,1.824-1.089,2.754c-0.309,1.194-0.595,2.419-0.865,3.592c-0.322,1.406-0.658,2.842-1.039,4.259
		c-0.338,1.22-0.82,2.45-1.465,3.666c-0.543,1.025-1.334,1.289-2.502,0.82c-1.67-0.674-2.3-2.197-2.672-3.446
		c-0.643-2.193-0.666-4.435-0.594-6.515c0.022-0.542,0.052-1.087,0.08-1.615c0.096-1.948,0.207-3.955-0.167-5.925
		c-0.563-2.996-1.546-4.334-2.344-5.164c-0.205-0.212-0.446-0.403-0.681-0.586c-0.088-0.066-0.169-0.132-0.257-0.198
		c0.975,1.619,1.209,3.413,1.312,5.112c0.132,2.036,0.212,4.109,0.293,6.116c0.044,1.121,0.088,2.289,0.139,3.427
		c0.103,2.183,0.264,4.311,1.055,6.376c0.638,1.67,1.531,2.695,2.812,3.252c0.278,0.132,0.564,0.22,0.901,0.322
		c0.161,0.044,0.329,0.103,0.513,0.161h0.007v2.974h-0.029v-2.944c-0.176-0.059-0.344-0.117-0.498-0.161
		c-0.337-0.103-0.63-0.19-0.908-0.322c-1.289-0.557-2.183-1.597-2.828-3.274c-0.797-2.072-0.951-4.196-1.054-6.379
		c-0.058-1.143-0.103-2.311-0.146-3.431c-0.08-2.007-0.161-4.08-0.285-6.116c-0.184-2.915-0.762-4.211-1.361-5.178l-0.053-0.088
		l0.081,0.066c0.103,0.088,0.22,0.176,0.323,0.264c0.238,0.183,0.482,0.374,0.688,0.586c1.523,1.583,2.058,3.601,2.358,5.178
		c0.366,1.978,0.264,3.984,0.161,5.933c-0.029,0.527-0.059,1.073-0.073,1.615c-0.073,2.08-0.052,4.321,0.593,6.504
		c0.696,2.358,1.78,3.076,2.651,3.428c1.149,0.454,1.931,0.205,2.458-0.806c0.645-1.216,1.127-2.446,1.465-3.662
		c0.381-1.406,0.717-2.856,1.039-4.248c0.264-1.187,0.556-2.406,0.865-3.6c0.234-0.938,0.649-1.838,1.084-2.761
		c0.131-0.264,0.365-0.483,0.586-0.696c0.102-0.095,0.205-0.19,0.293-0.293l0.014-0.013l0.162,0.13l-0.016,0.007
		c-0.102,0.352-0.219,0.71-0.336,1.055c-0.264,0.762-0.527,1.545-0.685,2.344c-0.312,1.655-0.562,3.358-0.796,4.999
		c-0.053,0.396-0.102,0.806-0.16,1.201c-0.234,1.582-0.602,3.428-1.553,5.112c-0.689,1.216-1.553,2.007-2.664,2.388
		c-0.135,0.045-0.295,0.337-0.295,0.512c-0.029,0.646-0.016,1.305-0.016,1.949C57.396,126.969,57.396,127.203,57.396,127.438z
		 M56.928,122.955c-0.074,0-0.162-0.007-0.25-0.029c-0.897-0.176-1.388-0.63-1.483-1.392l-0.008-0.019h0.022
		c0.241,0,0.483-0.006,0.718-0.011c0.549,0,1.058,0,1.585,0.015c0.25,0,0.41,0.059,0.475,0.176c0.068,0.132,0.039,0.308-0.078,0.527
		C57.689,122.611,57.425,122.955,56.928,122.955z M55.225,121.549c0.109,0.732,0.586,1.172,1.465,1.348
		c0.634,0.132,0.94-0.249,1.19-0.688c0.117-0.22,0.146-0.381,0.083-0.494c-0.069-0.106-0.216-0.165-0.45-0.165
		c-0.527-0.01-1.036,0-1.585,0C55.7,121.549,55.466,121.549,55.225,121.549z M54.382,121.607l-0.762-1.685v-0.015
		c0.044-0.073,0.088-0.146,0.125-0.234c-0.008,0.015-0.022,0.015-0.037,0.029h-0.007l-0.271-0.161v-0.015
		c0-0.132-0.005-0.278-0.007-0.41c-0.008-0.41-0.015-0.835,0.055-1.245c0.01-0.044,0.194-0.088,0.347-0.103
		c0.008,0,0.615-0.073,0.667,0.044c0.161,0.366,0.293,0.894,0.161,1.307c-0.062,0.188-0.337,0.305-0.608,0.422
		c-0.088,0.044-0.183,0.075-0.271,0.117c0.099,0.029,0.212,0.059,0.314,0.073c0.242,0.044,0.498,0.088,0.63,0.234
		c0.345,0.396,0.19,1.172-0.321,1.626L54.382,121.607z M53.657,119.923l0.739,1.626c0.483-0.439,0.623-1.172,0.293-1.553
		c-0.124-0.146-0.366-0.19-0.607-0.234c-0.103-0.015-0.213-0.029-0.308-0.059C53.738,119.776,53.694,119.85,53.657,119.923z
		 M53.459,119.514l0.242,0.149c0.103-0.048,0.22-0.106,0.337-0.15c0.256-0.117,0.527-0.22,0.582-0.396
		c0.128-0.41,0.004-0.938-0.157-1.289c-0.01-0.029-0.088-0.044-0.282-0.044c-0.326,0-0.655,0.059-0.67,0.103
		c-0.073,0.396-0.066,0.82-0.052,1.23C53.459,119.249,53.459,119.381,53.459,119.514z M58.495,121.432
		c-0.016,0-0.045-0.015-0.074-0.029c-0.059-0.059-0.117-0.144-0.117-0.197c0-0.081-0.014-0.169-0.014-0.257
		c-0.016-0.308-0.029-0.645,0.072-0.913c0.051-0.142,0.264-0.215,0.484-0.288c0.088-0.029,0.189-0.059,0.264-0.103h0.014
		l0.176,0.249l0,0c-0.043,0.117-0.088,0.234-0.131,0.352c-0.117,0.322-0.234,0.659-0.367,0.992c-0.043,0.092-0.189,0.18-0.293,0.194
		H58.495z M59.111,119.68c-0.074,0.038-0.162,0.067-0.256,0.097c-0.199,0.073-0.418,0.146-0.463,0.264
		c-0.102,0.278-0.088,0.601-0.072,0.908c0.014,0.088,0.014,0.176,0.014,0.251c0,0.057,0.059,0.13,0.117,0.174
		c0.029,0.029,0.045,0.029,0.048,0.029c0.099-0.015,0.236-0.094,0.274-0.176c0.133-0.325,0.25-0.659,0.367-0.996
		c0.043-0.103,0.084-0.22,0.117-0.337L59.111,119.68z M55.679,121.256c-0.249,0-0.418-0.059-0.535-0.161
		c-0.132-0.117-0.19-0.322-0.19-0.601c0-0.308,0.066-0.513,0.205-0.645c0.132-0.132,0.345-0.19,0.652-0.17
		c0.454,0.023,0.926,0.023,1.38,0.009c0.088,0,0.176,0,0.271,0c0.213,0,0.359,0.044,0.461,0.146
		c0.121,0.117,0.176,0.308,0.176,0.601c0,0.264-0.014,0.527-0.176,0.674c-0.102,0.103-0.253,0.146-0.469,0.146
		c-0.232-0.015-0.453-0.015-0.688-0.015c-0.103,0.001-0.202,0.006-0.304,0.006l0,0c-0.065-0.002-0.131-0.006-0.19-0.006
		c-0.153,0-0.314,0-0.469,0.015C55.759,121.256,55.715,121.256,55.679,121.256z M55.7,119.716c-0.241,0-0.41,0.046-0.52,0.148
		c-0.132,0.132-0.19,0.331-0.194,0.63c-0.004,0.278,0.054,0.454,0.179,0.571c0.124,0.117,0.329,0.176,0.631,0.146
		c0.16,0,0.321,0,0.474,0c0.062,0,0.125,0,0.19,0c0.103,0,0.201,0,0.304,0c0.235,0,0.46,0,0.688,0
		c0.205,0.015,0.352-0.029,0.439-0.123c0.146-0.141,0.162-0.404,0.174-0.653c0.002-0.281-0.057-0.469-0.158-0.571
		c-0.104-0.103-0.234-0.146-0.426-0.146h-0.018c-0.1,0-0.188,0-0.275,0.01c-0.454,0.005-0.926,0.01-1.388-0.01
		C55.767,119.718,55.736,119.716,55.7,119.716z M59.043,119.439h-0.036c-0.205-0.044-0.396-0.22-0.57-0.381l-0.016-0.015
		c-0.043-0.044-0.043-0.132-0.042-0.22c0.01-0.043,0.013-0.073,0.003-0.103c-0.038-0.615,0.025-0.938,0.215-1.069
		c0.205-0.146,0.557-0.088,1.201,0.205h0.016l-0.015,0.015c-0.016,0.117-0.044,0.234-0.073,0.352
		c-0.059,0.297-0.133,0.615-0.234,0.908C59.433,119.266,59.185,119.439,59.043,119.439z M58.876,117.608
		c-0.117,0-0.191,0.029-0.264,0.073c-0.176,0.132-0.234,0.439-0.191,1.028c0,0.041,0,0.074,0,0.114
		c-0.007,0.088-0.014,0.161,0.029,0.205l0,0c0.176,0.161,0.367,0.337,0.572,0.366c0.117,0.029,0.381-0.146,0.439-0.278
		c0.102-0.293,0.171-0.601,0.234-0.906c0.025-0.104,0.043-0.222,0.072-0.339C59.359,117.696,59.081,117.608,58.876,117.608z
		 M57.396,119.381c-0.014,0-0.029,0-0.043,0c-0.205-0.015-0.396-0.015-0.602-0.015c-0.088,0.002-0.175,0.007-0.265,0.007h0
		c-0.2-0.005-0.397-0.005-0.595-0.005c-0.427-0.002-0.703-0.031-0.856-0.178c-0.146-0.161-0.169-0.425-0.161-0.864
		c0.007-0.308,0.073-0.498,0.205-0.63c0.124-0.117,0.308-0.161,0.563-0.154c0.571,0.022,1.154,0.01,1.714,0.008h0.011h0.016
		c0.219,0,0.381,0.044,0.482,0.146c0.176,0.176,0.176,0.469,0.176,0.776c0.012,0.293,0,0.586-0.176,0.747
		C57.763,119.322,57.601,119.381,57.396,119.381z M57.024,119.337c0.108,0,0.215,0,0.329,0c0.219,0.015,0.381-0.029,0.482-0.132
		c0.168-0.161,0.176-0.439,0.176-0.732c0-0.308,0-0.586-0.176-0.747c-0.102-0.103-0.248-0.146-0.469-0.146h-0.008
		c-0.562,0.015-1.146,0.015-1.717,0c-0.248-0.015-0.422,0.029-0.54,0.146c-0.126,0.117-0.185,0.308-0.193,0.601
		c-0.015,0.425,0.008,0.688,0.146,0.835c0.146,0.146,0.418,0.176,0.835,0.176c0.198,0,0.396,0,0.596,0c0.089,0,0.176,0,0.264,0
		C56.84,119.337,56.928,119.337,57.024,119.337z M53.555,117.535c-0.134,0-0.234-0.015-0.301-0.073
		c-0.117-0.103-0.139-0.337-0.153-0.864c-0.029-0.674,0.212-0.908,0.938-0.967c0.029,0,0.059,0,0.088,0
		c0.505,0,0.538,0.381,0.563,0.732l0.008,0.059c0.023,0.337-0.052,0.604-0.214,0.802c-0.167,0.18-0.424,0.297-0.738,0.312
		C53.678,117.535,53.614,117.535,53.555,117.535z M53.13,116.598c0.021,0.524,0.038,0.747,0.146,0.835
		c0.088,0.088,0.234,0.082,0.469,0.073c0.308-0.019,0.556-0.132,0.71-0.308c0.161-0.188,0.234-0.454,0.205-0.774v-0.061
		c-0.029-0.366-0.059-0.747-0.622-0.703C53.335,115.719,53.108,115.953,53.13,116.598z M59.374,117.33c-0.029,0-0.059,0-0.074,0
		c-0.805-0.029-0.986-0.209-0.996-1.04c0-0.249,0.059-0.425,0.176-0.542c0.191-0.161,0.484-0.152,0.744-0.117
		c0.062,0,0.148,0,0.223,0c0.338,0.01,0.719,0.015,0.732,0.542c0,0.527-0.072,0.82-0.234,0.981
		C59.814,117.271,59.638,117.33,59.374,117.33z M59.3,117.301c0.293,0.015,0.484-0.044,0.615-0.169
		c0.162-0.153,0.234-0.447,0.221-0.959c0-0.498-0.352-0.498-0.689-0.501c-0.083-0.006-0.16-0.012-0.234-0.012
		c-0.248-0.029-0.537-0.044-0.703,0.117c-0.117,0.103-0.176,0.264-0.176,0.513C58.349,117.096,58.509,117.271,59.3,117.301z
		 M57.015,117.33c-0.099,0-0.19,0-0.292,0c-0.091,0-0.193,0-0.29,0h-0.015l0,0h-0.161c-0.117,0-0.234,0-0.352,0
		c-0.483-0.005-0.769-0.088-0.923-0.29c-0.153-0.179-0.176-0.472-0.08-0.896c0.051-0.249,0.388-0.571,0.63-0.615
		c0.49-0.059,0.988-0.044,1.482-0.029c0.117,0,0.25,0.006,0.367,0.015c0.658,0.015,0.658,0.483,0.661,0.952
		c0.008,0.439-0.075,0.85-0.677,0.864C57.249,117.33,57.132,117.33,57.015,117.33z M56.448,117.301c0.096,0,0.188,0,0.275,0
		c0.21,0,0.425,0,0.644,0c0.543-0.015,0.645-0.342,0.645-0.835c0-0.469,0-0.908-0.629-0.923c-0.117,0-0.25-0.012-0.367-0.015
		c-0.494-0.015-0.992-0.029-1.476,0.039c-0.227,0.034-0.557,0.342-0.607,0.576c-0.088,0.425-0.066,0.703,0.073,0.879
		c0.146,0.177,0.432,0.264,0.9,0.264c0.117,0,0.234,0,0.352,0h0.19V117.301z M53.635,115.411c-0.285,0-0.432-0.015-0.52-0.103
		c-0.096-0.088-0.11-0.278-0.112-0.659c-0.005-0.776,0.317-1.128,1.036-1.172c0.233-0.015,0.394,0.029,0.503,0.132
		c0.176,0.165,0.184,0.454,0.19,0.718v0.044c0.009,0.381-0.059,0.63-0.22,0.791c-0.168,0.176-0.432,0.249-0.842,0.249
		C53.657,115.411,53.645,115.411,53.635,115.411z M54.112,113.507c-0.022,0-0.044,0-0.066,0c-0.703,0.044-1.011,0.396-1.011,1.143
		c0,0.381,0.015,0.557,0.11,0.645c0.08,0.073,0.227,0.088,0.527,0.088c0.396,0,0.659-0.073,0.82-0.249
		c0.153-0.148,0.22-0.396,0.212-0.758l-0.007-0.048c-0.003-0.264-0.008-0.537-0.176-0.688
		C54.426,113.551,54.294,113.507,54.112,113.507z M59.609,115.294c-0.016,0-0.029,0-0.045,0c-0.967-0.029-1.244-0.293-1.244-1.149
		c0-0.506,0.322-0.521,0.613-0.535c0.045,0,0.104,0,0.148-0.015l0,0h0.029c0.893,0,1.143,0.205,1.172,0.923
		c0.014,0.293-0.029,0.483-0.16,0.609C60.019,115.235,59.843,115.294,59.609,115.294z M59.081,113.632
		c-0.045,0.007-0.104,0.007-0.146,0.007c-0.293,0.015-0.575,0.029-0.577,0.506c-0.003,0.842,0.255,1.091,1.206,1.114
		c0.25,0.006,0.426-0.042,0.543-0.155c0.117-0.117,0.16-0.308,0.146-0.586C60.224,113.814,59.974,113.624,59.081,113.632z
		 M56.499,115.294c-0.176,0-0.345-0.007-0.513-0.015c-0.146,0-0.293,0-0.445,0c-0.222,0-0.383-0.059-0.493-0.161
		c-0.165-0.176-0.184-0.454-0.182-0.705c0.011-0.511,0.064-0.936,0.694-0.936c0.212,0,0.425,0,0.637,0h0.293
		c0.172,0,0.349,0,0.523,0c0.469,0,0.807,0.132,0.982,0.381c0.16,0.234,0.16,0.586,0,0.996c-0.074,0.19-0.396,0.381-0.602,0.396
		C57.103,115.279,56.796,115.294,56.499,115.294z M55.913,113.507c-0.117,0-0.234,0-0.352,0c-0.601,0.015-0.652,0.396-0.659,0.908
		c-0.004,0.234,0.015,0.513,0.176,0.674c0.103,0.103,0.255,0.161,0.464,0.161c0.151,0,0.297,0,0.444,0
		c0.461,0.005,0.941,0.015,1.409-0.029c0.197-0.015,0.498-0.19,0.572-0.381c0.16-0.404,0.157-0.732,0-0.967
		c-0.162-0.234-0.498-0.366-0.953-0.366c-0.175,0-0.352,0-0.523,0h-0.293C56.104,113.507,56.008,113.507,55.913,113.507z
		 M59.726,113.434c-0.016,0-0.029,0-0.045,0c-1.055-0.015-1.348-0.308-1.361-1.329c0-0.205,0.043-0.352,0.146-0.454
		c0.16-0.168,0.439-0.168,0.703-0.168h0.043c0.484-0.006,0.82,0.029,1.012,0.22c0.189,0.19,0.234,0.524,0.234,0.971
		c0.042,0.236,0,0.424-0.104,0.556C60.238,113.364,60.019,113.434,59.726,113.434z M59.271,111.511c-0.019,0-0.043,0-0.059,0
		l-0.043,0.001c-0.264,0.006-0.527,0.006-0.689,0.16c-0.088,0.095-0.131,0.234-0.131,0.432c0.022,1.007,0.293,1.274,1.332,1.3
		c0.309,0,0.527-0.059,0.645-0.199c0.104-0.123,0.133-0.299,0.088-0.533l0,0c0-0.524-0.059-0.788-0.205-0.941
		C60.048,111.572,59.79,111.511,59.271,111.511z M57.337,113.302c-0.014,0-0.029,0-0.043,0c-0.426,0-0.854,0-1.271,0
		c-0.146,0-0.3,0-0.451,0c-0.231,0-0.405-0.059-0.516-0.176c-0.176-0.176-0.19-0.458-0.183-0.743c0-0.271,0.021-0.571,0.205-0.746
		c0.117-0.111,0.285-0.155,0.52-0.148c0.184,0,0.366,0,0.548,0c0.082,0,0.163,0,0.246,0h0.594c0.455,0,0.748,0.03,0.908,0.198
		c0.146,0.161,0.176,0.447,0.155,0.894C58.027,113.082,57.806,113.302,57.337,113.302z M56.506,113.268
		c0.26,0,0.524,0.005,0.788,0.005c0.014,0,0.029,0,0.043,0c0.455,0,0.66-0.205,0.674-0.692c0.016-0.439,0-0.718-0.146-0.872
		s-0.439-0.186-0.879-0.19h-0.594c-0.083,0-0.164,0.001-0.244,0.007c-0.184,0-0.366,0-0.55-0.007
		c-0.223-0.007-0.388,0.043-0.498,0.146c-0.153,0.146-0.19,0.396-0.197,0.718c-0.008,0.275,0.015,0.553,0.176,0.729
		c0.109,0.103,0.271,0.161,0.493,0.161c0.151,0,0.305,0,0.451,0C56.184,113.272,56.345,113.268,56.506,113.268z M53.877,113.298
		c-0.131,0-0.264-0.02-0.398-0.04c-0.142-0.015-0.284-0.029-0.426-0.029h-0.004h-0.021l0.007-0.015
		c0.034-0.176,0.024-0.352,0.016-0.527c-0.016-0.406-0.031-0.787,0.497-0.956c0.322-0.103,0.908-0.125,1.025,0.059
		c0.176,0.264,0.184,0.806,0.02,1.103C54.416,113.214,54.162,113.298,53.877,113.298z M53.071,113.199
		c0.133,0,0.277,0.015,0.411,0.029c0.432,0.055,0.835,0.103,1.082-0.351c0.155-0.29,0.148-0.81-0.021-1.073
		c-0.103-0.162-0.681-0.14-0.988-0.044c-0.498,0.161-0.483,0.513-0.469,0.924C53.093,112.848,53.101,113.023,53.071,113.199z
		 M53.76,111.379L53.76,111.379c-0.037,0-0.081,0-0.12-0.004c-0.152-0.003-0.313-0.003-0.416-0.105
		c-0.073-0.081-0.103-0.205-0.095-0.388c0.036-0.916,0.241-1.143,1.062-1.172c0.228-0.007,0.389,0.044,0.498,0.146
		c0.117,0.11,0.169,0.286,0.169,0.542c0,0.308-0.081,0.544-0.24,0.709C54.441,111.284,54.148,111.379,53.76,111.379z
		 M54.236,109.746c-0.015,0-0.029,0-0.044,0c-0.792,0.024-0.996,0.249-1.032,1.135c-0.008,0.176,0.024,0.293,0.095,0.363
		c0.088,0.091,0.234,0.098,0.389,0.098c0.036,0,0.08,0,0.117,0c0.381,0,0.659-0.088,0.835-0.264
		c0.153-0.154,0.234-0.381,0.234-0.681c-0.003-0.249-0.052-0.417-0.161-0.52C54.573,109.79,54.434,109.746,54.236,109.746z
		 M59.609,111.357c-0.631,0-1.129-0.271-1.201-0.675c-0.059-0.35-0.036-0.57,0.081-0.716c0.123-0.139,0.329-0.205,0.694-0.212
		l0.029,0c0.807,0,1.172,0.293,1.217,0.964c0.029,0.369-0.117,0.552-0.469,0.61C59.843,111.343,59.726,111.357,59.609,111.357z
		 M59.183,109.775v0.015c-0.352,0.001-0.557,0.066-0.674,0.198c-0.102,0.136-0.131,0.344-0.068,0.688
		c0.084,0.461,0.758,0.739,1.52,0.615c0.336-0.051,0.469-0.22,0.439-0.571c-0.045-0.659-0.385-0.93-1.188-0.93c0,0-0.014,0-0.029,0
		V109.775z M55.696,111.254c-0.244,0-0.412-0.058-0.537-0.168c-0.139-0.132-0.205-0.352-0.205-0.667
		c0.007-0.286,0.073-0.491,0.205-0.615c0.14-0.132,0.352-0.183,0.687-0.168c0.434,0.015,0.906,0.015,1.519,0
		c0.252-0.007,0.428,0.044,0.545,0.161c0.131,0.125,0.189,0.33,0.189,0.63c0,0.337-0.059,0.542-0.189,0.667
		c-0.117,0.11-0.293,0.161-0.527,0.146c-0.191-0.007-0.396,0-0.586,0c-0.088,0-0.178,0-0.268,0c-0.073,0-0.14,0-0.205,0
		c-0.154-0.007-0.308-0.007-0.454,0.003C55.811,111.248,55.752,111.254,55.696,111.254z M55.744,109.666
		c-0.271,0-0.446,0.051-0.563,0.167c-0.125,0.119-0.19,0.31-0.19,0.588c-0.008,0.308,0.059,0.515,0.19,0.645
		c0.141,0.125,0.358,0.176,0.684,0.146c0.151-0.015,0.304-0.007,0.458-0.007c0.153,0.007,0.312,0.007,0.473,0
		c0.189,0,0.395,0,0.586,0.007c0.234,0.007,0.395-0.037,0.498-0.139c0.131-0.117,0.185-0.315,0.189-0.645
		c0-0.293-0.059-0.483-0.176-0.608c-0.117-0.103-0.264-0.154-0.482-0.154c-0.016,0-0.029,0-0.045,0
		c-0.615,0.022-1.087,0.022-1.526,0C55.811,109.666,55.774,109.666,55.744,109.666z M59.697,109.614h-0.029
		c-0.586,0-0.938-0.095-1.143-0.308c-0.164-0.168-0.234-0.417-0.234-0.776c0.014-0.505,0.16-0.645,0.735-0.645
		c0.026,0,0.04,0,0.056,0c0.863,0.015,1.26,0.381,1.259,1.187c-0.001,0.183-0.044,0.315-0.132,0.403
		C60.077,109.6,59.886,109.614,59.697,109.614z M59.023,107.922c-0.547,0-0.689,0.125-0.703,0.608c0,0.352,0.072,0.593,0.219,0.754
		c0.205,0.203,0.557,0.293,1.129,0.293h0.014c0.234,0,0.396-0.022,0.498-0.125c0.088-0.081,0.117-0.205,0.117-0.381
		c0-0.784-0.365-1.142-1.215-1.15C59.066,107.922,59.046,107.922,59.023,107.922z M54.038,109.578c-0.124,0-0.249-0.015-0.381-0.029
		s-0.271-0.029-0.403-0.029h-0.021v-0.015c0.021-0.161,0-0.33-0.015-0.491c-0.044-0.415-0.088-0.806,0.461-0.996
		c0.322-0.11,0.908-0.146,1.04,0.037c0.176,0.245,0.199,0.791,0.044,1.099C54.595,109.497,54.331,109.578,54.038,109.578z
		 M53.269,109.49c0.132,0,0.264,0.015,0.396,0.027c0.433,0.046,0.835,0.09,1.069-0.379c0.154-0.3,0.132-0.828-0.044-1.069
		c-0.124-0.162-0.688-0.125-1.003-0.022c-0.521,0.183-0.483,0.543-0.439,0.967C53.269,109.167,53.283,109.329,53.269,109.49z
		 M57.382,109.512c-0.035,0-0.074,0-0.104-0.007c-0.424-0.022-0.853-0.015-1.321,0c-0.249,0.007-0.433-0.044-0.55-0.159
		c-0.132-0.127-0.19-0.325-0.19-0.637c0-0.325,0.059-0.53,0.198-0.654c0.111-0.117,0.285-0.167,0.527-0.154
		c0.161,0.007,0.332,0,0.498,0c0.073,0,0.149,0,0.223,0c0.059,0,0.118,0,0.181,0c0.142,0.007,0.274,0.007,0.421,0
		c0.293-0.022,0.498,0.022,0.629,0.146c0.141,0.125,0.205,0.323,0.205,0.615c0,0.33-0.059,0.549-0.205,0.688
		C57.777,109.458,57.616,109.512,57.382,109.512z M56.704,109.46c0.194,0,0.385,0,0.574,0.015c0.279,0.015,0.469-0.034,0.596-0.154
		c0.137-0.125,0.195-0.337,0.195-0.659c0-0.278-0.067-0.469-0.189-0.586c-0.133-0.117-0.338-0.168-0.615-0.146
		c-0.146,0.015-0.279,0.007-0.423,0.007c-0.061,0-0.12-0.002-0.179-0.003c-0.073,0-0.149,0.003-0.223,0.003
		c-0.167,0-0.337,0-0.498-0.007c-0.234-0.007-0.396,0.044-0.506,0.146c-0.126,0.12-0.183,0.315-0.183,0.633
		c-0.005,0.297,0.051,0.495,0.176,0.612c0.109,0.11,0.285,0.161,0.524,0.154C56.213,109.468,56.462,109.46,56.704,109.46z
		 M53.781,107.798c-0.19,0-0.322-0.044-0.414-0.132c-0.113-0.11-0.157-0.278-0.143-0.527c0.044-0.667,0.389-0.973,1.157-1.011
		c0.235-0.007,0.403,0.037,0.513,0.139c0.11,0.11,0.161,0.286,0.154,0.549c-0.015,0.71-0.311,0.974-1.099,0.974h-0.02
		C53.877,107.798,53.833,107.798,53.781,107.798z M54.455,106.165c-0.021,0-0.051,0-0.073,0c-0.747,0.037-1.084,0.33-1.121,0.976
		c-0.017,0.24,0.023,0.401,0.133,0.504c0.103,0.103,0.278,0.139,0.534,0.117v0l0.022,0c0.776,0,1.055-0.249,1.069-0.945
		c0-0.256-0.044-0.425-0.146-0.527C54.785,106.207,54.646,106.165,54.455,106.165z M59.329,107.791H59.3
		c-0.775-0.007-1.01-0.234-1.01-0.981c0-0.227,0.043-0.388,0.146-0.491c0.102-0.103,0.264-0.154,0.482-0.154h0.029
		c0.703,0.015,1.201,0.447,1.217,1.055c0,0.183-0.045,0.308-0.133,0.396C59.915,107.739,59.71,107.791,59.329,107.791z
		 M58.919,106.201c-0.205,0-0.352,0.044-0.453,0.139c-0.104,0.095-0.146,0.249-0.146,0.469c0,0.718,0.234,0.945,0.98,0.945
		c0.381,0.007,0.602-0.044,0.719-0.161c0.072-0.081,0.117-0.198,0.105-0.374c-0.004-0.586-0.488-1.01-1.176-1.018H58.919z
		 M55.92,107.659c-0.227,0-0.388-0.051-0.498-0.154c-0.136-0.125-0.199-0.322-0.205-0.623c0-0.33,0.066-0.542,0.205-0.681
		c0.132-0.125,0.339-0.176,0.63-0.16c0.447,0.028,0.905,0.021,1.314,0.006c0.25-0.007,0.426,0.044,0.543,0.154
		c0.131,0.132,0.189,0.33,0.189,0.655c0,0.319-0.059,0.524-0.189,0.649c-0.117,0.112-0.293,0.161-0.543,0.146
		c-0.16-0.007-0.336-0.002-0.498,0c-0.072,0-0.151,0-0.23,0c-0.062,0-0.132,0-0.197,0c-0.131-0.002-0.264-0.007-0.396,0.007
		C56.001,107.659,55.957,107.659,55.92,107.659z M55.949,106.076c-0.227,0-0.396,0.049-0.505,0.154
		c-0.132,0.125-0.19,0.331-0.19,0.652c0,0.286,0.064,0.483,0.19,0.601c0.124,0.117,0.322,0.161,0.601,0.139
		c0.132-0.007,0.264-0.007,0.396-0.007c0.065,0.001,0.136,0.007,0.196,0.007h0.001c0.078,0,0.158-0.007,0.23-0.007
		c0.162,0,0.338,0,0.498,0.007c0.234,0.015,0.41-0.037,0.514-0.139c0.131-0.125,0.189-0.322,0.189-0.626
		c0-0.316-0.059-0.509-0.189-0.634c-0.104-0.103-0.279-0.154-0.514-0.146c-0.41,0.015-0.867,0.029-1.314,0
		C56.016,106.077,55.979,106.076,55.949,106.076z M54.089,106.025c-0.029,0-0.059,0-0.088,0c-0.168-0.011-0.322-0.19-0.425-0.308
		c-0.036-0.037-0.065-0.068-0.083-0.088l-0.005-0.002v-0.012c0.008-0.968,0.389-1.429,1.209-1.452
		c0.22-0.006,0.381,0.038,0.483,0.14c0.109,0.103,0.153,0.264,0.146,0.505c-0.008,0.352-0.146,0.668-0.389,0.894
		C54.712,105.916,54.411,106.025,54.089,106.025z M53.518,105.608c0.022,0.022,0.052,0.051,0.081,0.088
		c0.103,0.117,0.249,0.286,0.41,0.293c0.344,0.022,0.667-0.088,0.909-0.308c0.234-0.22,0.373-0.527,0.381-0.872
		c0-0.234-0.041-0.388-0.14-0.483c-0.095-0.095-0.249-0.139-0.461-0.132C53.906,104.22,53.532,104.67,53.518,105.608z
		 M59.521,105.967L59.521,105.967c-0.557-0.015-0.895-0.117-1.084-0.322c-0.162-0.183-0.221-0.461-0.193-0.901
		c0.004-0.198,0.311-0.513,0.5-0.527c0.288-0.022,0.602,0.124,0.85,0.38c0.25,0.262,0.373,0.594,0.338,0.887
		c-0.016,0.168-0.205,0.315-0.322,0.41c-0.029,0.029-0.059,0.051-0.074,0.068L59.521,105.967z M58.802,104.251
		c-0.014,0-0.033,0.001-0.059,0.001c-0.176,0.015-0.453,0.315-0.469,0.498c-0.029,0.425,0.029,0.694,0.191,0.872
		c0.176,0.198,0.498,0.293,1.039,0.315c0.026-0.022,0.048-0.044,0.088-0.073c0.117-0.088,0.279-0.227,0.309-0.388
		c0.029-0.278-0.088-0.601-0.338-0.857C59.345,104.385,59.066,104.251,58.802,104.251z M56.796,105.696h-0.02
		c-0.688,0-1.01-0.073-1.164-0.264c-0.117-0.139-0.139-0.352-0.065-0.696c0.153-0.756,0.645-0.681,1.116-0.608
		c0.205,0.029,0.41,0.066,0.593,0.022c0.243-0.058,0.438-0.029,0.579,0.081c0.146,0.11,0.221,0.299,0.221,0.557
		c0.014,0.358,0,0.571-0.133,0.71C57.763,105.667,57.425,105.696,56.796,105.696z M56.242,104.114c-0.308,0-0.557,0.117-0.665,0.63
		c-0.068,0.33-0.048,0.535,0.057,0.667c0.146,0.183,0.469,0.249,1.142,0.249h0.02c0.615,0,0.946-0.029,1.098-0.185
		c0.13-0.13,0.146-0.342,0.133-0.687c0-0.249-0.074-0.426-0.207-0.535c-0.131-0.095-0.32-0.125-0.555-0.073
		c-0.191,0.044-0.396,0.015-0.612-0.022C56.514,104.136,56.373,104.114,56.242,104.114z M59.124,104.084
		c-0.293,0-0.512-0.073-0.688-0.22c-0.205-0.19-0.322-0.498-0.338-0.938c-0.014-0.33,0-0.652,0.439-0.694
		c0.223-0.017,0.462,0.071,0.674,0.262c0.338,0.295,0.543,0.776,0.557,1.286v0.01l-0.014,0.004c-0.016,0.018-0.054,0.04-0.088,0.077
		c-0.104,0.081-0.234,0.19-0.377,0.205C59.241,104.083,59.183,104.084,59.124,104.084z M58.597,102.268c-0.014,0-0.029,0-0.046,0
		c-0.423,0.037-0.437,0.33-0.423,0.659c0.016,0.432,0.133,0.726,0.338,0.908c0.189,0.168,0.453,0.238,0.82,0.205
		c0.131-0.007,0.264-0.117,0.359-0.198c0.035-0.029,0.064-0.051,0.094-0.073c-0.021-0.491-0.225-0.959-0.557-1.252
		C59.007,102.356,58.802,102.268,58.597,102.268z M54.397,104.062c-0.168,0-0.285-0.044-0.366-0.125
		c-0.124-0.125-0.132-0.337-0.124-0.564c0.021-0.769,0.41-1.187,1.12-1.216c0.19-0.005,0.33,0.037,0.418,0.117
		c0.139,0.132,0.142,0.344,0.146,0.557v0.044c0.007,0.337-0.096,0.624-0.301,0.835c-0.209,0.222-0.513,0.344-0.871,0.352H54.397z
		 M55.071,102.195c-0.015,0-0.029,0-0.043,0c-0.69,0.022-1.07,0.432-1.085,1.179l0,0c-0.007,0.22-0.007,0.425,0.11,0.542
		c0.074,0.081,0.197,0.117,0.366,0.11c0.352-0.007,0.645-0.124,0.85-0.337c0.197-0.205,0.3-0.483,0.293-0.813l-0.003-0.044
		c-0.005-0.205-0.012-0.41-0.137-0.527C55.349,102.231,55.232,102.195,55.071,102.195z M56.854,103.682
		c-0.934,0-1.081-0.103-1.081-0.776c0-0.278,0.022-0.492,0.156-0.629c0.16-0.154,0.453-0.184,0.911-0.184
		c0.529,0,0.81,0.029,0.952,0.176c0.12,0.117,0.146,0.322,0.146,0.659C57.923,103.638,57.865,103.682,56.854,103.682z
		 M56.81,102.129c-0.421,0-0.713,0.029-0.853,0.176c-0.11,0.103-0.154,0.278-0.151,0.601c0.005,0.652,0.129,0.74,1.048,0.74
		c0.997,0,1.04-0.022,1.042-0.718c0.014-0.329-0.016-0.525-0.119-0.637c-0.146-0.139-0.41-0.161-0.937-0.161
		C56.824,102.129,56.814,102.129,56.81,102.129z M59.124,102.118v-0.003c-0.88-0.065-1.143-0.293-1.098-0.974
		c0.014-0.19,0.059-0.308,0.146-0.381c0.088-0.066,0.205-0.088,0.381-0.061c0.264,0.039,0.512,0.164,0.688,0.354
		c0.191,0.199,0.264,0.441,0.234,0.681c-0.014,0.139-0.176,0.249-0.269,0.322c-0.036,0.022-0.054,0.044-0.067,0.059L59.124,102.118z
		 M58.421,100.723c-0.097,0-0.176,0.022-0.219,0.066c-0.088,0.066-0.133,0.176-0.139,0.352c-0.044,0.659,0.197,0.879,1.058,0.945
		c0.019-0.015,0.032-0.036,0.062-0.054c0.104-0.071,0.24-0.181,0.264-0.299c0.029-0.233-0.058-0.464-0.234-0.658
		c-0.16-0.183-0.41-0.308-0.674-0.344C58.495,100.723,58.466,100.723,58.421,100.723z M54.962,101.98
		c-0.009,0-0.023-0.001-0.038-0.005c-0.168-0.007-0.425-0.234-0.454-0.396c-0.036-0.227,0.066-0.491,0.257-0.71
		c0.197-0.212,0.439-0.33,0.666-0.315c0.128,0.007,0.257,0.095,0.345,0.161c0.036,0.022,0.065,0.044,0.088,0.059h0.007v0.015
		c0.008,0.429-0.103,0.769-0.322,0.974C55.364,101.905,55.179,101.98,54.962,101.98z M55.357,100.583
		c-0.204,0-0.425,0.116-0.601,0.308c-0.19,0.212-0.286,0.469-0.249,0.683c0.021,0.145,0.265,0.364,0.417,0.372
		c0.22,0.007,0.418-0.059,0.564-0.205c0.205-0.201,0.314-0.527,0.314-0.945c-0.024-0.015-0.051-0.031-0.082-0.054
		c-0.092-0.063-0.211-0.151-0.335-0.158H55.357z M56.781,101.887c-0.22,0-0.38-0.044-0.495-0.146c-0.124-0.11-0.19-0.278-0.193-0.52
		c-0.004-0.242,0.046-0.425,0.171-0.542c0.124-0.132,0.325-0.19,0.633-0.19c0.021,0,0.044,0,0.074,0
		c0.453,0.015,0.834,0.073,0.85,0.681c0,0.264-0.059,0.447-0.191,0.564c-0.131,0.132-0.352,0.176-0.673,0.146
		C56.898,101.887,56.84,101.887,56.781,101.887z M56.898,100.525c-0.293,0-0.489,0.055-0.612,0.176
		c-0.117,0.117-0.168,0.286-0.161,0.52c0.008,0.229,0.066,0.396,0.184,0.498c0.137,0.117,0.352,0.161,0.648,0.125v-0.001
		l0.002,0.001c0.32,0.028,0.525-0.008,0.658-0.133c0.117-0.11,0.176-0.288,0.176-0.542c-0.016-0.579-0.367-0.634-0.824-0.645
		C56.942,100.525,56.916,100.525,56.898,100.525z M58.583,100.488c-0.484,0-0.572-0.387-0.602-0.798
		c0-0.095,0.176-0.256,0.279-0.315c0.059-0.037,0.072-0.029,0.088-0.022c0.234,0.132,0.453,0.3,0.674,0.461
		c0.072,0.051,0.131,0.103,0.205,0.154l0.014,0.007l-0.014,0.04c-0.016,0.084-0.029,0.165-0.045,0.246v0.007l-0.014,0.007
		c-0.059,0.022-0.117,0.051-0.176,0.081c-0.124,0.059-0.258,0.125-0.396,0.132H58.583z M58.333,99.382
		c-0.017,0-0.088,0.029-0.16,0.103c-0.1,0.081-0.162,0.161-0.146,0.205c0.014,0.396,0.102,0.762,0.557,0.762h0.014
		c0.133,0,0.264-0.066,0.381-0.125c0.059-0.029,0.117-0.059,0.176-0.081c0.016-0.081,0.029-0.161,0.045-0.234V99.99
		c-0.059-0.051-0.133-0.103-0.191-0.147C58.788,99.683,58.568,99.514,58.333,99.382L58.333,99.382z M55.447,100.364
		c-0.049,0-0.105-0.007-0.157-0.015c-0.153-0.037-0.327-0.293-0.337-0.447c-0.009-0.278,0.198-0.568,0.396-0.725
		c0.161-0.125,0.33-0.176,0.454-0.132c0.14,0.039,0.242,0.171,0.315,0.271c0.029,0.029,0.051,0.059,0.065,0.073l0.008,0.007v0.007
		c-0.029,0.388-0.169,0.688-0.381,0.842C55.705,100.327,55.583,100.364,55.447,100.364z M55.715,99.062
		c-0.103,0-0.227,0.05-0.344,0.145c-0.234,0.183-0.396,0.469-0.381,0.693c0.007,0.149,0.183,0.391,0.308,0.413
		c0.183,0.044,0.352,0.008,0.493-0.095c0.202-0.146,0.334-0.432,0.363-0.806c-0.015-0.022-0.036-0.044-0.059-0.081
		c-0.073-0.088-0.176-0.22-0.3-0.256C55.774,99.067,55.744,99.062,55.715,99.062z M57.015,100.305c-0.205,0-0.456-0.037-0.597-0.205
		c-0.088-0.1-0.117-0.234-0.088-0.403c0.029-0.19,0.169-0.36,0.305-0.527c0.058-0.073,0.116-0.154,0.175-0.227v-0.007h0.014
		c0.718,0.132,0.851,0.374,0.851,0.747c0,0.403-0.221,0.615-0.645,0.623H57.015z M56.824,98.972
		c-0.043,0.073-0.102,0.146-0.161,0.22c-0.135,0.161-0.274,0.33-0.304,0.513c-0.021,0.154,0,0.286,0.081,0.374
		c0.139,0.161,0.399,0.194,0.59,0.19c0.395-0.002,0.61-0.205,0.615-0.586C57.646,99.265,57.441,99.082,56.824,98.972z
		 M58.509,99.155L58.509,99.155c-0.469-0.01-0.703-0.315-0.709-0.879c-0.002-0.103,0.109-0.205,0.227-0.3
		c0.043-0.044,0.094-0.088,0.131-0.132l0.016-0.015l1.018,0.93l-0.021,0.015c-0.133,0.077-0.234,0.146-0.312,0.205
		C58.708,99.082,58.613,99.155,58.509,99.155z M58.173,97.881c-0.042,0.037-0.088,0.081-0.133,0.117
		c-0.102,0.095-0.205,0.19-0.205,0.278c0,0.549,0.221,0.835,0.674,0.842l0,0c0.088,0,0.19-0.066,0.322-0.161
		c0.088-0.059,0.176-0.125,0.309-0.198L58.173,97.881z M55.935,98.752c-0.073,0-0.183-0.066-0.256-0.132s-0.154-0.158-0.154-0.227
		c-0.001-0.476,0.293-0.71,0.931-0.74h0.015v0.015c0,0.073,0,0.146,0.007,0.22c0.015,0.405,0.029,0.791-0.527,0.864H55.935z
		 M56.44,97.689c-0.614,0.031-0.886,0.25-0.878,0.705c0,0.048,0.051,0.125,0.139,0.205c0.096,0.081,0.19,0.129,0.249,0.117
		c0.521-0.066,0.506-0.417,0.491-0.828C56.441,97.822,56.441,97.756,56.44,97.689z"/>
	<path fill="#FFFFFF" d="M56.316,127.438c0-0.996,0-1.987,0-2.959c-0.549-0.188-0.996-0.293-1.413-0.483
		c-1.465-0.63-2.276-1.845-2.82-3.267c-0.791-2.051-0.952-4.215-1.055-6.372c-0.146-3.187-0.234-6.368-0.432-9.547
		c-0.11-1.78-0.354-3.56-1.362-5.186c0.344,0.278,0.71,0.535,1.011,0.85c1.392,1.443,1.992,3.252,2.351,5.164
		c0.477,2.512,0.176,5.032,0.094,7.547c-0.079,2.197-0.035,4.38,0.595,6.504c0.433,1.479,1.11,2.812,2.659,3.442
		c1.088,0.439,1.922,0.251,2.479-0.806c0.615-1.166,1.12-2.404,1.465-3.677c0.703-2.593,1.23-5.244,1.904-7.84
		c0.249-0.952,0.66-1.868,1.085-2.761c0.19-0.381,0.585-0.659,0.878-0.981c0.045,0.037,0.088,0.073,0.133,0.11
		c-0.35,1.128-0.793,2.241-1.025,3.391c-0.396,2.058-0.66,4.142-0.962,6.207c-0.255,1.787-0.643,3.516-1.544,5.098
		c-0.615,1.099-1.427,1.963-2.65,2.388c-0.146,0.054-0.309,0.337-0.309,0.522c-0.029,0.884-0.014,1.763-0.014,2.656
		C57.031,127.438,56.667,127.438,56.316,127.438z"/>
	<path fill="#FFFFFF" d="M57.441,127.496h-1.19v-2.974c-0.161-0.057-0.315-0.103-0.463-0.146c-0.336-0.103-0.629-0.19-0.914-0.312
		c-1.297-0.567-2.205-1.622-2.856-3.307c-0.799-2.08-0.96-4.307-1.055-6.401c-0.052-1.143-0.103-2.308-0.146-3.431
		c-0.075-2.007-0.161-4.08-0.286-6.108c-0.109-1.721-0.344-3.53-1.348-5.156l-0.216-0.345l0.312,0.257
		c0.109,0.088,0.218,0.176,0.322,0.256c0.241,0.183,0.483,0.378,0.695,0.596c1.531,1.594,2.071,3.615,2.366,5.205
		c0.373,1.978,0.271,3.992,0.168,5.94c-0.029,0.528-0.059,1.077-0.073,1.615c-0.073,2.08-0.051,4.307,0.586,6.489
		c0.688,2.344,1.766,3.047,2.622,3.387c1.125,0.458,1.887,0.217,2.398-0.768c0.645-1.213,1.129-2.443,1.453-3.659
		c0.379-1.406,0.715-2.856,1.037-4.248c0.279-1.187,0.557-2.406,0.865-3.6c0.248-0.938,0.658-1.846,1.098-2.769
		c0.133-0.271,0.367-0.493,0.602-0.71c0.088-0.095,0.191-0.19,0.293-0.292l0.043-0.045l0.213,0.179l-0.008,0.041
		c-0.117,0.354-0.234,0.71-0.352,1.055c-0.264,0.762-0.527,1.545-0.674,2.336c-0.322,1.655-0.557,3.351-0.791,4.991
		c-0.059,0.41-0.117,0.806-0.176,1.216c-0.234,1.582-0.596,3.432-1.553,5.127c-0.688,1.23-1.574,2.021-2.681,2.402
		c-0.116,0.044-0.263,0.293-0.278,0.469c-0.014,0.645-0.014,1.307-0.014,1.948c0,0.234,0,0.469,0,0.703V127.496z M56.382,127.364
		h0.926c0-0.205,0-0.41,0-0.63c0-0.645,0-1.304,0.016-1.963c0.014-0.205,0.176-0.513,0.365-0.571
		c1.084-0.396,1.92-1.142,2.607-2.358c0.953-1.67,1.306-3.501,1.539-5.083c0.059-0.396,0.117-0.791,0.176-1.201
		c0.234-1.641,0.469-3.343,0.791-4.999c0.146-0.806,0.424-1.589,0.674-2.358c0.117-0.33,0.234-0.667,0.336-1.003l-0.058-0.044
		c-0.073,0.088-0.161,0.168-0.249,0.251c-0.221,0.209-0.439,0.422-0.562,0.671c-0.435,0.916-0.845,1.816-1.095,2.747
		c-0.307,1.194-0.586,2.406-0.863,3.592c-0.322,1.394-0.66,2.842-1.041,4.249c-0.322,1.229-0.82,2.475-1.465,3.69
		c-0.381,0.718-0.879,1.065-1.538,1.065c-0.307,0-0.642-0.084-1.027-0.23c-1.686-0.688-2.329-2.217-2.697-3.479
		c-0.645-2.202-0.667-4.431-0.598-6.525c0.019-0.542,0.048-1.087,0.078-1.622c0.103-1.941,0.205-3.947-0.168-5.911
		c-0.293-1.567-0.82-3.567-2.329-5.134c-0.205-0.212-0.447-0.403-0.682-0.582c-0.015-0.011-0.029-0.026-0.044-0.037
		c0.869,1.571,1.084,3.283,1.187,4.904c0.128,2.04,0.213,4.116,0.286,6.115c0.046,1.128,0.095,2.281,0.146,3.424
		c0.103,2.183,0.256,4.307,1.047,6.361c0.638,1.664,1.523,2.691,2.783,3.233c0.278,0.122,0.564,0.212,0.901,0.312
		c0.161,0.055,0.329,0.099,0.513,0.163l0.044,0.017V127.364z"/>
	<path fill="#FFFFFF" d="M57.382,97.551c0.322,0.344,0.424,0.747,0.072,1.099c-0.109,0.103-0.542,0.066-0.63-0.059
		c-0.289-0.359-0.193-0.74,0.161-1.04C57.118,97.551,57.249,97.551,57.382,97.551z"/>
	<path fill="#FFFFFF" d="M57.22,98.774c-0.176,0-0.366-0.044-0.454-0.139c-0.29-0.366-0.223-0.791,0.176-1.135l0.015-0.019h0.455
		l0.014,0.019c0.396,0.432,0.426,0.857,0.074,1.194C57.425,98.76,57.308,98.774,57.22,98.774z M57.001,97.617
		c-0.191,0.176-0.455,0.522-0.133,0.936c0.044,0.04,0.191,0.089,0.352,0.089c0.1,0,0.162-0.022,0.176-0.044
		c0.367-0.352,0.183-0.725-0.043-0.981H57.001z"/>
	<path fill="#FFFFFF" d="M56.433,117.305c-0.176,0-0.352,0.004-0.527,0c-0.886-0.004-1.179-0.297-0.988-1.161
		c0.051-0.234,0.381-0.557,0.622-0.601c0.604-0.073,1.227-0.029,1.843-0.015c0.645,0.015,0.645,0.466,0.645,0.938
		c0,0.469-0.088,0.835-0.66,0.85c-0.311,0-0.626,0-0.934,0V117.305z"/>
	<path fill="#FFFFFF" d="M57.015,117.374h-0.641h-0.293h-0.176c-0.5,0-0.798-0.088-0.967-0.293
		c-0.153-0.205-0.183-0.498-0.088-0.952c0.059-0.271,0.41-0.615,0.678-0.645c0.245-0.029,0.505-0.05,0.824-0.05
		c0.224,0,0.443,0.006,0.662,0.014c0.117,0.007,0.25,0.007,0.374,0.007c0.71,0.015,0.71,0.542,0.71,1.011
		c0,0.439-0.088,0.908-0.732,0.908C57.249,117.374,57.132,117.374,57.015,117.374z M56.499,117.242h0.516c0.117,0,0.234,0,0.352,0
		c0.498,0,0.602-0.308,0.602-0.776c0-0.542-0.045-0.864-0.586-0.879c-0.117,0-0.25,0-0.37,0c-0.216-0.015-0.439-0.015-0.659-0.015
		c-0.315,0-0.571,0.015-0.806,0.044c-0.205,0.029-0.521,0.322-0.564,0.542c-0.088,0.41-0.066,0.674,0.064,0.835
		c0.134,0.163,0.404,0.249,0.858,0.249h0.176H56.499L56.499,117.242z"/>
	<path fill="#FFFFFF" d="M56.391,111.504c0.199,0,0.405,0,0.594,0c0.946,0,1.084,0.154,1.041,1.077
		c-0.016,0.501-0.234,0.721-0.732,0.707c-0.572-0.015-1.146,0-1.723,0c-0.625,0-0.691-0.414-0.684-0.904
		c0.007-0.482,0.08-0.901,0.71-0.879C55.862,111.511,56.125,111.504,56.391,111.504z"/>
	<path fill="#FFFFFF" d="M57.337,113.36h-0.043c-0.23-0.015-0.483-0.015-0.788-0.015c-0.161,0-0.322,0-0.481,0
		c-0.148,0-0.302,0-0.453,0c-0.244,0-0.428-0.059-0.552-0.18c-0.184-0.186-0.205-0.494-0.198-0.783
		c0.008-0.469,0.073-0.974,0.776-0.945c0.184,0.007,0.359,0,0.542,0c0.081,0,0.161,0,0.247,0h0.142h0.238h0.219
		c0.469,0,0.762,0.037,0.938,0.212c0.168,0.176,0.191,0.476,0.176,0.93C58.082,113.111,57.835,113.36,57.337,113.36z
		 M56.506,113.214c0.31,0,0.567,0,0.788,0.015h0.043c0.426,0,0.615-0.19,0.631-0.652c0.014-0.42,0-0.691-0.142-0.831
		c-0.138-0.146-0.415-0.176-0.841-0.176h-0.336h-0.121h-0.138h-0.002c-0.088,0-0.168,0-0.249,0c-0.183,0.007-0.366,0.007-0.542,0
		c-0.527-0.015-0.635,0.271-0.645,0.813c-0.007,0.269,0.008,0.539,0.161,0.685c0.096,0.103,0.249,0.146,0.457,0.146
		c0.151,0,0.305,0,0.451,0C56.184,113.214,56.345,113.214,56.506,113.214z"/>
	<path fill="#FFFFFF" d="M56.487,119.352c-0.2,0-0.397,0-0.596,0c-0.9,0-1.025-0.132-1.003-1.025
		c0.015-0.513,0.198-0.791,0.754-0.762c0.571,0.015,1.154,0.015,1.725,0c0.66-0.015,0.66,0.439,0.66,0.908
		c0.008,0.483-0.029,0.908-0.674,0.883C57.06,119.352,56.781,119.352,56.487,119.352z"/>
	<path fill="#FFFFFF" d="M57.396,119.425h-0.043c-0.2,0-0.396,0-0.586,0c-0.088,0-0.172,0-0.252,0h-0.623
		c-0.439,0-0.731-0.029-0.894-0.205c-0.161-0.161-0.183-0.439-0.176-0.894c0.016-0.601,0.266-0.85,0.82-0.835
		c0.249,0.015,0.513,0.015,0.82,0.015c0.301,0,0.598,0,0.891-0.01l0.029-0.002c0.703,0,0.712,0.524,0.717,0.979
		c0,0.293-0.014,0.601-0.189,0.776C57.792,119.366,57.616,119.425,57.396,119.425z M57.015,119.293c0.117,0,0.222,0,0.338,0h0.043
		c0.191,0,0.322-0.044,0.41-0.132c0.146-0.146,0.162-0.41,0.162-0.688c-0.016-0.527-0.045-0.839-0.586-0.839l-0.016,0.001
		c-0.307,0.003-0.604,0.003-0.904,0.003c-0.308,0-0.578,0-0.821-0.015c-0.475-0.015-0.673,0.176-0.685,0.703
		c-0.009,0.41,0.012,0.674,0.137,0.806c0.132,0.132,0.394,0.161,0.798,0.161h0.623c0.08,0,0.165,0,0.252,0
		S56.939,119.293,57.015,119.293z"/>
	<path fill="#FFFFFF" d="M56.491,113.492c0.172,0,0.349,0,0.523,0c0.924,0,1.296,0.498,0.967,1.359
		c-0.072,0.179-0.381,0.369-0.586,0.384c-0.615,0.059-1.233,0.029-1.854,0.029c-0.58,0-0.661-0.396-0.653-0.85
		c0.007-0.483,0.044-0.921,0.674-0.923C55.869,113.492,56.184,113.492,56.491,113.492z"/>
	<path fill="#FFFFFF" d="M56.499,115.338c-0.173,0-0.345,0-0.515,0c-0.149,0-0.297-0.01-0.445-0.014
		c-0.234-0.001-0.402-0.06-0.524-0.177c-0.179-0.186-0.2-0.481-0.193-0.74c0.004-0.417,0.015-0.974,0.74-0.974
		c0.109,0,0.22,0,0.329,0h0.601c0.172,0,0.349,0,0.523,0c0.484,0,0.836,0.132,1.012,0.396c0.176,0.249,0.189,0.615,0.014,1.04
		c-0.072,0.22-0.41,0.41-0.645,0.439C57.132,115.323,56.854,115.338,56.499,115.338z M55.891,113.565c-0.109,0-0.22,0-0.329,0
		c-0.557,0-0.601,0.352-0.608,0.85c-0.007,0.234,0.012,0.492,0.154,0.645c0.095,0.088,0.237,0.132,0.436,0.132
		c0.15,0,0.297,0.012,0.443,0.015c0.168,0,0.344,0,0.513,0c0.355,0,0.633-0.015,0.893-0.029c0.195-0.02,0.473-0.205,0.531-0.352
		c0.146-0.396,0.146-0.703,0-0.923s-0.469-0.337-0.908-0.337c-0.175,0-0.352,0-0.523,0H55.891z"/>
	<path fill="#FFFFFF" d="M56.529,111.226c-0.22,0-0.443-0.015-0.659,0c-0.594,0.051-0.908-0.139-0.901-0.806
		c0.008-0.635,0.322-0.791,0.873-0.769c0.504,0.022,1.013,0.015,1.525,0c0.543-0.015,0.719,0.264,0.719,0.776
		c0,0.498-0.133,0.82-0.703,0.798C57.103,111.217,56.81,111.226,56.529,111.226z"/>
	<path fill="#FFFFFF" d="M55.7,111.299c-0.271,0-0.461-0.059-0.593-0.19c-0.14-0.146-0.205-0.371-0.205-0.688
		c0.007-0.623,0.293-0.864,0.944-0.835c0.22,0.007,0.454,0.015,0.703,0.015c0.246,0,0.499-0.007,0.805-0.015h0.057
		c0.234,0,0.424,0.059,0.541,0.183c0.133,0.139,0.2,0.344,0.191,0.659c0,0.442-0.088,0.894-0.762,0.864
		c-0.191-0.007-0.396-0.007-0.586,0c-0.161,0-0.326,0-0.48-0.005c-0.066-0.002-0.132-0.002-0.206-0.002
		c-0.088,0-0.168,0-0.239,0.007C55.811,111.299,55.752,111.299,55.7,111.299z M55.744,109.717c-0.417,0-0.703,0.117-0.708,0.703
		c-0.001,0.286,0.053,0.476,0.167,0.593c0.132,0.128,0.352,0.176,0.659,0.146c0.073-0.007,0.154-0.007,0.249-0.007
		c0.073,0,0.14,0,0.213,0c0.065,0.007,0.133,0.007,0.205,0.007l0,0c0.091,0,0.179,0,0.268-0.002c0.19-0.005,0.395-0.005,0.586,0.002
		c0.457,0.017,0.629-0.176,0.629-0.732c0-0.278-0.043-0.454-0.151-0.564c-0.097-0.1-0.243-0.146-0.448-0.146h-0.045
		c-0.307,0.007-0.57,0.015-0.816,0.015c-0.249,0-0.483-0.007-0.71-0.015C55.811,109.717,55.774,109.717,55.744,109.717z"/>
	<path fill="#FFFFFF" d="M56.462,121.227c-0.22,0-0.439-0.005-0.659,0.001c-0.527,0.043-0.835-0.118-0.835-0.733
		c0-0.601,0.249-0.835,0.838-0.791c0.554,0.029,1.106,0.015,1.659,0c0.517,0,0.62,0.301,0.62,0.732
		c-0.016,0.439-0.059,0.812-0.631,0.795C57.126,121.227,56.796,121.227,56.462,121.227z"/>
	<path fill="#FFFFFF" d="M55.678,121.3c-0.271,0-0.453-0.059-0.578-0.176c-0.132-0.132-0.197-0.337-0.197-0.63
		c0-0.63,0.278-0.894,0.908-0.864c0.22,0.015,0.448,0.015,0.732,0.015c0.208,0,0.429,0,0.634,0h0.307
		c0.211,0,0.367,0.044,0.484,0.161c0.131,0.132,0.176,0.322,0.176,0.63c0,0.352,0,0.864-0.66,0.864h-0.029c-0.219,0-0.444,0-0.673,0
		c-0.088,0-0.187,0-0.282,0h-0.037c-0.065,0-0.132,0-0.197,0c-0.154-0.007-0.308-0.015-0.462,0
		C55.759,121.3,55.715,121.3,55.678,121.3z M55.7,119.762c-0.476,0-0.666,0.205-0.666,0.732c0,0.249,0.051,0.425,0.156,0.527
		c0.115,0.117,0.32,0.161,0.606,0.146c0.153-0.015,0.314-0.015,0.469,0c0.065,0,0.132,0,0.197,0h0.037c0.093,0,0.194,0,0.282,0
		c0.234,0,0.455-0.002,0.673,0h0.029c0.439,0,0.527-0.234,0.527-0.732c0-0.264-0.043-0.439-0.142-0.542
		c-0.077-0.084-0.21-0.117-0.386-0.117h-0.307c-0.205,0-0.426,0-0.634,0c-0.286,0-0.521,0-0.74-0.015
		C55.767,119.762,55.738,119.762,55.7,119.762z"/>
	<path fill="#FFFFFF" d="M56.663,107.915c0.205,0,0.396,0.015,0.602,0c0.541-0.044,0.82,0.154,0.82,0.747
		c0,0.579-0.191,0.864-0.807,0.828c-0.438-0.028-0.882-0.015-1.321,0c-0.557,0.016-0.726-0.264-0.726-0.78
		c0.008-0.502,0.146-0.817,0.711-0.795C56.184,107.922,56.426,107.915,56.663,107.915z"/>
	<path fill="#FFFFFF" d="M57.382,109.563c-0.039,0-0.074-0.001-0.11-0.007c-0.173-0.007-0.359-0.015-0.575-0.015
		c-0.249,0-0.49,0.007-0.739,0.015c-0.271,0.007-0.462-0.051-0.594-0.176c-0.132-0.139-0.197-0.352-0.197-0.671
		c0.003-0.435,0.095-0.889,0.776-0.859c0.161,0.007,0.322,0.007,0.483,0c0.073,0,0.15,0,0.223,0h0.014c0.062,0,0.133,0,0.191,0.007
		c0.131,0,0.264,0,0.4-0.007c0.61-0.044,0.89,0.205,0.899,0.813c0.004,0.337-0.068,0.564-0.215,0.71
		C57.822,109.497,57.63,109.563,57.382,109.563z M56.697,109.409c0.216,0,0.406,0.007,0.582,0.015
		c0.264,0.015,0.455-0.029,0.572-0.146s0.176-0.315,0.163-0.615c-0.003-0.527-0.222-0.723-0.749-0.681
		c-0.133,0.012-0.279,0.007-0.411,0.007c-0.066-0.001-0.132-0.007-0.191-0.007h-0.014c-0.073,0-0.146,0.001-0.216,0.006
		c-0.168,0.001-0.329,0.001-0.498-0.006c-0.454-0.015-0.63,0.183-0.637,0.731c0,0.28,0.051,0.463,0.161,0.573
		c0.103,0.103,0.264,0.146,0.49,0.139C56.206,109.417,56.448,109.409,56.697,109.409z"/>
	<path fill="#FFFFFF" d="M56.638,107.637c-0.197,0-0.396-0.015-0.593,0c-0.55,0.044-0.806-0.161-0.806-0.754
		c-0.008-0.593,0.205-0.857,0.812-0.82c0.439,0.022,0.876,0.015,1.314,0c0.572-0.015,0.719,0.293,0.719,0.794
		c0,0.509-0.162,0.81-0.719,0.78C57.122,107.622,56.884,107.637,56.638,107.637z"/>
	<path fill="#FFFFFF" d="M55.913,107.71c-0.506,0-0.74-0.264-0.74-0.828c-0.007-0.337,0.059-0.557,0.205-0.703
		s0.359-0.205,0.674-0.183c0.188,0.007,0.381,0.015,0.601,0.015c0.246,0,0.495-0.007,0.714-0.015
		c0.689-0.022,0.777,0.425,0.777,0.857c0.003,0.329-0.059,0.542-0.191,0.681c-0.131,0.125-0.322,0.183-0.586,0.168
		c-0.176-0.007-0.336-0.007-0.511,0c-0.074,0-0.146,0-0.217,0c-0.065,0-0.132,0-0.19,0c-0.132-0.007-0.264-0.007-0.396,0
		C56.001,107.71,55.957,107.71,55.913,107.71z M55.949,106.121c-0.22,0-0.374,0.051-0.476,0.154
		c-0.117,0.117-0.17,0.308-0.169,0.608c0,0.542,0.22,0.732,0.732,0.688c0.14-0.007,0.273-0.007,0.41-0.001
		c0.143,0.001,0.29,0.001,0.407-0.001c0.176-0.005,0.352-0.005,0.512,0.002c0.234,0.015,0.392-0.029,0.485-0.132
		c0.116-0.11,0.159-0.293,0.159-0.58c0-0.543-0.176-0.746-0.635-0.731c-0.229,0.007-0.478,0.015-0.724,0.015
		c-0.22,0-0.417-0.007-0.607-0.015C56.011,106.124,55.979,106.121,55.949,106.121z"/>
	<path fill="#FFFFFF" d="M60.435,112.672c0.096,0.498-0.152,0.761-0.754,0.747c-1.039-0.015-1.332-0.278-1.348-1.314
		c-0.002-0.623,0.455-0.601,0.879-0.608C60.238,111.489,60.443,111.68,60.435,112.672z"/>
	<path fill="#FFFFFF" d="M59.726,113.492h-0.047c-1.09-0.029-1.389-0.322-1.404-1.388c-0.011-0.22,0.045-0.381,0.146-0.491
		c0.176-0.178,0.469-0.183,0.748-0.183h0.102c0.455,0,0.791,0.044,0.996,0.242c0.191,0.198,0.234,0.542,0.234,1
		c0.045,0.249,0.016,0.439-0.102,0.585C60.267,113.404,60.032,113.492,59.726,113.492z M59.271,111.562h-0.102
		c-0.25,0-0.514,0.007-0.645,0.146c-0.088,0.081-0.117,0.212-0.117,0.396c0.014,0.978,0.264,1.227,1.273,1.256h0.045
		c0.277,0,0.469-0.073,0.57-0.19c0.088-0.103,0.117-0.272,0.074-0.483c0-0.523-0.059-0.78-0.205-0.919
		C60.019,111.621,59.769,111.562,59.271,111.562z"/>
	<path fill="#FFFFFF" d="M56.777,105.681c-1.104-0.006-1.369-0.183-1.215-0.945c0.221-1.07,1.117-0.432,1.703-0.571
		c0.439-0.103,0.762,0.073,0.775,0.623C58.07,105.579,57.939,105.681,56.777,105.681z"/>
	<path fill="#FFFFFF" d="M56.796,105.747h-0.02c-0.607,0-1.018-0.051-1.206-0.283c-0.126-0.157-0.148-0.376-0.075-0.743
		c0.103-0.469,0.337-0.688,0.747-0.688c0.14,0,0.286,0.022,0.421,0.044c0.205,0.029,0.426,0.059,0.586,0.022
		c0.08-0.015,0.162-0.029,0.234-0.029c0.381,0,0.615,0.264,0.631,0.718c0.006,0.366-0.016,0.593-0.162,0.74
		C57.777,105.71,57.441,105.747,56.796,105.747z M56.242,104.165c-0.241,0-0.505,0.073-0.615,0.586
		c-0.065,0.315-0.051,0.513,0.049,0.63c0.134,0.168,0.442,0.228,1.1,0.232h0.02c0.589,0,0.922-0.027,1.068-0.173
		c0.104-0.117,0.117-0.322,0.117-0.645c-0.014-0.271-0.102-0.589-0.498-0.589c-0.059,0-0.131,0.011-0.205,0.025
		c-0.176,0.041-0.41,0.015-0.629-0.022C56.514,104.187,56.371,104.165,56.242,104.165z"/>
	<path fill="#FFFFFF" d="M56.854,103.667c-0.926,0-1.058-0.095-1.066-0.762c0-0.668,0.169-0.798,1.052-0.798
		c0.978,0.007,1.083,0.088,1.083,0.82C57.909,103.63,57.865,103.667,56.854,103.667z"/>
	<path fill="#FFFFFF" d="M56.854,103.733c-0.956,0-1.125-0.125-1.131-0.828c0-0.293,0.029-0.517,0.175-0.659
		c0.162-0.168,0.469-0.205,0.912-0.205h0.03c0.556,0.006,0.835,0.029,0.995,0.19c0.133,0.132,0.146,0.347,0.146,0.696
		C57.982,103.704,57.851,103.733,56.854,103.733z M56.81,102.173c-0.48,0-0.705,0.044-0.824,0.165
		c-0.096,0.099-0.132,0.26-0.132,0.567c0.007,0.6,0.073,0.696,1,0.696c0.997,0,0.997-0.029,0.997-0.674
		c0-0.315-0.016-0.5-0.117-0.601c-0.117-0.125-0.396-0.146-0.894-0.154H56.81z"/>
	<path fill="#FFFFFF" d="M55.21,121.534c0.806,0,1.556-0.015,2.303,0c0.508,0,0.615,0.264,0.381,0.688
		c-0.264,0.469-0.586,0.82-1.215,0.688C55.825,122.736,55.313,122.311,55.21,121.534z"/>
	<path fill="#FFFFFF" d="M56.928,123.004c-0.085,0-0.165-0.005-0.261-0.02c-0.923-0.19-1.421-0.659-1.523-1.45l-0.011-0.073h0.077
		c0.241,0,0.483,0,0.718,0c0.542,0,1.062,0,1.585,0c0.264,0.015,0.439,0.073,0.514,0.22c0.088,0.132,0.059,0.322-0.074,0.571
		C57.734,122.619,57.454,123.004,56.928,123.004z M55.283,121.593c0.117,0.688,0.571,1.084,1.41,1.26
		c0.088,0.015,0.161,0.015,0.235,0.015c0.454,0,0.702-0.322,0.907-0.676c0.104-0.203,0.133-0.35,0.088-0.452
		c-0.072-0.117-0.264-0.134-0.41-0.146c-0.527,0-1.043,0-1.585,0C55.719,121.593,55.503,121.593,55.283,121.593z"/>
	<path fill="#FFFFFF" d="M59.081,107.908c0.863,0.007,1.232,0.381,1.23,1.165c0,0.483-0.293,0.527-0.645,0.527
		c-1.025-0.007-1.377-0.286-1.363-1.069C58.32,108.025,58.48,107.9,59.081,107.908z"/>
	<path fill="#FFFFFF" d="M59.686,109.666h-0.019c-0.602-0.007-0.967-0.103-1.188-0.322c-0.176-0.181-0.248-0.439-0.234-0.813
		c0-0.527,0.191-0.688,0.784-0.688h0.052c0.893,0.007,1.303,0.403,1.303,1.23C60.384,109.616,60.019,109.666,59.686,109.666z
		 M59.03,107.974c-0.521,0-0.651,0.103-0.651,0.557c-0.016,0.337,0.059,0.568,0.205,0.718c0.189,0.19,0.527,0.278,1.084,0.285
		l0.019,0c0.383,0,0.567-0.073,0.567-0.461c0-0.762-0.352-1.091-1.172-1.099H59.03z"/>
	<path fill="#FFFFFF" d="M53.02,114.649c-0.007-0.776,0.318-1.113,1.025-1.157c0.674-0.029,0.659,0.439,0.674,0.881
		c0.019,0.745-0.285,1.023-1.047,1.023C53.064,115.401,53.02,115.353,53.02,114.649z"/>
	<path fill="#FFFFFF" d="M53.628,115.47c-0.623,0-0.674-0.132-0.674-0.82c-0.008-0.791,0.34-1.187,1.084-1.216
		c0.723-0.044,0.732,0.483,0.747,0.894v0.044c0.007,0.393-0.066,0.645-0.234,0.82c-0.176,0.19-0.454,0.278-0.879,0.278H53.628z
		 M54.112,113.565c-0.022,0-0.044,0-0.066,0c-0.674,0.029-0.962,0.352-0.959,1.084c0,0.659,0.021,0.688,0.542,0.688h0.044
		c0.381,0,0.63-0.073,0.783-0.234c0.141-0.146,0.205-0.381,0.198-0.718v-0.055C54.639,113.917,54.631,113.565,54.112,113.565z"/>
	<path fill="#FFFFFF" d="M59.3,117.315c-0.82-0.029-0.967-0.217-0.98-1.025c-0.016-0.674,0.453-0.703,0.893-0.645
		c0.367,0.044,0.938-0.117,0.945,0.527C60.165,117.081,59.945,117.334,59.3,117.315z"/>
	<path fill="#FFFFFF" d="M59.374,117.389c-0.029,0-0.059-0.002-0.074-0.008c-0.848-0.022-1.039-0.227-1.053-1.091
		c-0.002-0.249,0.057-0.439,0.174-0.557s0.293-0.176,0.543-0.176c0.072,0,0.16,0,0.264,0.015c0.066,0.015,0.146,0.015,0.219,0.015
		c0.322,0,0.77,0,0.777,0.586c0.011,0.527-0.059,0.835-0.237,1.011C59.845,117.315,59.652,117.389,59.374,117.389z M58.964,115.689
		c-0.205,0-0.352,0.044-0.439,0.132c-0.098,0.103-0.146,0.249-0.138,0.465c0.005,0.795,0.143,0.941,0.913,0.956
		c0.279,0.015,0.469-0.029,0.586-0.146c0.146-0.151,0.205-0.439,0.205-0.923c-0.001-0.454-0.307-0.454-0.645-0.454
		c-0.088,0-0.16,0-0.234-0.015C59.111,115.691,59.036,115.689,58.964,115.689z"/>
	<path fill="#FFFFFF" d="M59.081,113.609c0.922,0,1.156,0.205,1.186,0.908c0.029,0.513-0.146,0.776-0.703,0.762
		c-0.946-0.029-1.23-0.264-1.23-1.134C58.333,113.565,58.788,113.653,59.081,113.609z"/>
	<path fill="#FFFFFF" d="M59.609,115.338h-0.045c-0.996-0.029-1.289-0.308-1.289-1.192c0-0.551,0.381-0.565,0.645-0.58
		c0.059-0.012,0.105-0.015,0.162-0.015h0.029c0.908,0,1.201,0.22,1.23,0.967c0.014,0.308-0.045,0.501-0.176,0.645
		C60.048,115.279,59.862,115.338,59.609,115.338z M59.111,113.683h-0.029c-0.045,0-0.088,0.007-0.146,0.015
		c-0.279,0.015-0.527,0.029-0.527,0.448c0,0.815,0.234,1.031,1.156,1.061h0.045c0.219,0,0.365-0.044,0.469-0.146
		c0.102-0.103,0.136-0.278,0.131-0.542C60.179,113.902,60.005,113.683,59.111,113.683z"/>
	<path fill="#FFFFFF" d="M59.183,109.775c0.834-0.007,1.188,0.271,1.23,0.945c0.029,0.344-0.088,0.535-0.453,0.593
		c-0.771,0.117-1.451-0.154-1.539-0.637C58.304,110.01,58.495,109.783,59.183,109.775z"/>
	<path fill="#FFFFFF" d="M59.601,111.404c-0.666,0-1.164-0.289-1.238-0.713c-0.072-0.366-0.043-0.601,0.088-0.754
		c0.133-0.154,0.352-0.227,0.732-0.227h0.029c0.85,0,1.217,0.3,1.275,1.003c0.016,0.401-0.133,0.602-0.514,0.665
		C59.843,111.394,59.726,111.404,59.601,111.404z M59.212,109.841h-0.029c-0.336,0-0.527,0.059-0.629,0.183
		c-0.104,0.117-0.117,0.322-0.059,0.64c0.059,0.363,0.512,0.605,1.105,0.605c0.109,0,0.227-0.007,0.344-0.022
		c0.309-0.051,0.426-0.198,0.41-0.527C60.312,110.098,59.974,109.841,59.212,109.841z"/>
	<path fill="#FFFFFF" d="M53.503,105.617c0.008-1.02,0.433-1.416,1.194-1.438c0.483-0.015,0.622,0.212,0.615,0.63
		c-0.015,0.696-0.557,1.239-1.312,1.201C53.789,105.996,53.591,105.688,53.503,105.617z"/>
	<path fill="#FFFFFF" d="M54.089,106.077c-0.029,0-0.059,0-0.088,0c-0.19-0.015-0.352-0.198-0.461-0.322
		c-0.031-0.037-0.059-0.073-0.081-0.086l-0.021-0.016v-0.037c0.007-0.996,0.409-1.479,1.255-1.501
		c0.246-0.007,0.415,0.044,0.532,0.156c0.109,0.115,0.161,0.291,0.153,0.545C55.364,105.535,54.807,106.077,54.089,106.077z
		 M53.57,105.593c0.021,0.015,0.044,0.044,0.065,0.074c0.096,0.103,0.242,0.265,0.374,0.275c0.695,0.04,1.223-0.451,1.237-1.132
		c0.008-0.218-0.036-0.359-0.117-0.447c-0.088-0.088-0.227-0.125-0.432-0.117C53.936,104.268,53.584,104.685,53.57,105.593z"/>
	<path fill="#FFFFFF" d="M53.922,103.374c0.021-0.776,0.424-1.172,1.105-1.194c0.557-0.022,0.542,0.352,0.55,0.696
		c0.015,0.703-0.454,1.157-1.157,1.167C53.923,104.055,53.913,103.726,53.922,103.374z"/>
	<path fill="#FFFFFF" d="M54.397,104.114c-0.183,0-0.314-0.051-0.402-0.139c-0.14-0.146-0.146-0.366-0.14-0.601
		c0.022-0.791,0.439-1.238,1.172-1.26c0.601-0.022,0.608,0.388,0.615,0.718v0.042c0.008,0.349-0.103,0.653-0.314,0.873
		c-0.22,0.232-0.535,0.359-0.908,0.365L54.397,104.114z M55.071,102.246c-0.015,0-0.026,0-0.036,0
		c-0.667,0.022-1.025,0.41-1.043,1.128c-0.005,0.217-0.005,0.403,0.098,0.505c0.059,0.066,0.161,0.096,0.308,0.096l0.022,0
		c0.337,0,0.617-0.117,0.812-0.317c0.19-0.195,0.286-0.466,0.278-0.781v-0.044C55.503,102.466,55.474,102.246,55.071,102.246z"/>
	<path fill="#FFFFFF" d="M53.115,116.598c-0.024-0.659,0.22-0.894,0.923-0.952c0.607-0.044,0.607,0.409,0.641,0.776
		c0.055,0.674-0.304,1.06-0.934,1.099C53.181,117.55,53.152,117.506,53.115,116.598z"/>
	<path fill="#FFFFFF" d="M53.561,117.594c-0.453,0-0.482-0.205-0.512-0.996c-0.029-0.688,0.233-0.962,0.986-1.011
		c0.648-0.059,0.677,0.41,0.707,0.776l0.006,0.059c0.023,0.337-0.05,0.63-0.226,0.835c-0.176,0.19-0.439,0.308-0.773,0.322
		C53.679,117.594,53.614,117.594,53.561,117.594z M54.126,115.705c-0.029,0-0.052,0.006-0.081,0.014
		c-0.679,0.044-0.886,0.264-0.864,0.879c0.029,0.83,0.073,0.864,0.38,0.864c0.053,0,0.111-0.006,0.182-0.015
		c0.295-0.015,0.53-0.114,0.676-0.278c0.153-0.176,0.22-0.425,0.191-0.732l-0.001-0.069
		C54.576,115.955,54.529,115.705,54.126,115.705z"/>
	<path fill="#FFFFFF" d="M59.3,107.776c-0.762-0.007-0.996-0.242-0.996-0.967c0-0.454,0.205-0.637,0.645-0.63
		c0.689,0.015,1.188,0.447,1.201,1.04C60.15,107.642,59.945,107.776,59.3,107.776z"/>
	<path fill="#FFFFFF" d="M59.329,107.842H59.3c-0.805-0.007-1.055-0.256-1.068-1.033c0-0.242,0.059-0.41,0.176-0.527
		c0.108-0.11,0.277-0.168,0.512-0.168h0.029c0.719,0.015,1.246,0.483,1.26,1.106c0,0.198-0.043,0.337-0.131,0.432
		C59.945,107.783,59.726,107.842,59.329,107.842z M58.919,106.245c-0.202,0-0.336,0.044-0.424,0.132s-0.133,0.227-0.128,0.432
		c0.011,0.7,0.2,0.894,0.933,0.901h0.029c0.352,0,0.551-0.051,0.646-0.154c0.072-0.066,0.102-0.176,0.102-0.332
		c-0.015-0.562-0.47-0.965-1.13-0.979H58.919z"/>
	<path fill="#FFFFFF" d="M53.928,107.776c-0.401,0.037-0.725-0.055-0.688-0.637c0.044-0.659,0.39-0.952,1.143-0.989
		c0.513-0.029,0.659,0.21,0.652,0.667C55.02,107.512,54.741,107.776,53.928,107.776z"/>
	<path fill="#FFFFFF" d="M53.781,107.849c-0.211,0-0.358-0.051-0.461-0.161c-0.116-0.117-0.161-0.3-0.146-0.549
		c0.044-0.696,0.417-1.018,1.208-1.055c0.257-0.015,0.439,0.037,0.557,0.154c0.117,0.119,0.169,0.306,0.161,0.579
		c-0.015,0.74-0.337,1.025-1.149,1.025h-0.022C53.884,107.848,53.833,107.849,53.781,107.849z M54.455,106.213
		c-0.021,0-0.044,0.002-0.07,0.002c-0.728,0.033-1.035,0.3-1.079,0.93c-0.009,0.208,0.023,0.359,0.109,0.449
		c0.073,0.08,0.198,0.122,0.366,0.122c0.045,0,0.096-0.007,0.143-0.007h0.026c0.747,0,1.003-0.227,1.018-0.894
		c0.004-0.242-0.036-0.394-0.124-0.483C54.763,106.252,54.639,106.213,54.455,106.213z"/>
	<path fill="#FFFFFF" d="M53.76,111.365c-0.286-0.022-0.638,0.066-0.615-0.483c0.036-0.894,0.234-1.128,1.047-1.15
		c0.506-0.022,0.652,0.234,0.652,0.667C54.844,111.042,54.492,111.365,53.76,111.365z"/>
	<path fill="#FFFFFF" d="M53.76,111.431L53.76,111.431c-0.044-0.007-0.081-0.007-0.125-0.007c-0.162,0-0.33,0-0.443-0.125
		c-0.084-0.088-0.121-0.227-0.114-0.417c0.037-0.938,0.264-1.194,1.106-1.217c0.645-0.021,0.725,0.382,0.725,0.734
		c0,0.322-0.082,0.571-0.256,0.74C54.463,111.332,54.162,111.431,53.76,111.431z M54.236,109.797c-0.015,0-0.029,0-0.044,0
		c-0.776,0.022-0.944,0.22-0.981,1.085c-0.007,0.16,0.022,0.266,0.081,0.328c0.073,0.081,0.205,0.081,0.352,0.081
		c0.036,0,0.08,0,0.122,0.007c0.362,0,0.632-0.088,0.793-0.25c0.147-0.153,0.22-0.358,0.22-0.651
		C54.778,109.966,54.624,109.797,54.236,109.797z"/>
	<path fill="#FFFFFF" d="M53.049,113.214c0.117-0.571-0.237-1.234,0.498-1.468c0.322-0.103,0.901-0.117,1.011,0.051
		c0.176,0.264,0.176,0.798,0.018,1.095C54.243,113.492,53.635,113.214,53.049,113.214z"/>
	<path fill="#FFFFFF" d="M53.877,113.346c-0.132,0-0.271-0.015-0.403-0.029c-0.139-0.015-0.285-0.029-0.42-0.029h-0.084l0.015-0.088
		c0.036-0.161,0.029-0.337,0.021-0.513c-0.021-0.406-0.036-0.824,0.527-1.007c0.154-0.044,0.366-0.076,0.559-0.076
		c0.195,0,0.437,0.025,0.525,0.157c0.184,0.278,0.19,0.842,0.017,1.161C54.427,113.302,54.118,113.346,53.877,113.346z
		 M53.128,113.155c0.119,0,0.243,0.015,0.36,0.029c0.132,0.015,0.264,0.029,0.389,0.029c0.314,0,0.505-0.103,0.642-0.362
		c0.149-0.271,0.141-0.776-0.012-1.018c-0.03-0.044-0.161-0.095-0.416-0.095c-0.178,0-0.383,0.025-0.522,0.073
		c-0.462,0.146-0.454,0.464-0.433,0.87C53.145,112.833,53.152,112.995,53.128,113.155z"/>
	<path fill="#FFFFFF" d="M59.521,105.952c-1.025-0.029-1.318-0.344-1.26-1.201c0.011-0.19,0.307-0.503,0.482-0.513
		c0.602-0.051,1.246,0.637,1.172,1.245C59.886,105.696,59.579,105.879,59.521,105.952z"/>
	<path fill="#FFFFFF" d="M59.55,106.018h-0.029c-0.572-0.015-0.924-0.125-1.113-0.341c-0.176-0.194-0.25-0.487-0.221-0.934
		c0.016-0.227,0.338-0.557,0.557-0.573c0.309-0.028,0.66,0.141,0.924,0.427c0.234,0.271,0.352,0.6,0.307,0.893
		c-0.014,0.19-0.205,0.337-0.336,0.439c-0.029,0.029-0.059,0.051-0.074,0.066L59.55,106.018z M58.802,104.297
		c-0.014,0-0.029,0-0.045,0.007c-0.16,0.007-0.424,0.293-0.438,0.447c-0.029,0.41,0.029,0.667,0.188,0.835
		c0.163,0.19,0.47,0.278,0.983,0.3c0.014-0.02,0.043-0.037,0.072-0.059c0.104-0.081,0.264-0.22,0.279-0.352
		c0.038-0.256-0.074-0.549-0.279-0.79C59.345,104.443,59.066,104.297,58.802,104.297z"/>
	<path fill="#FFFFFF" d="M53.254,109.504c0.052-0.571-0.314-1.216,0.427-1.472c0.32-0.11,0.899-0.146,1.023,0.029
		c0.184,0.249,0.198,0.791,0.044,1.084C54.434,109.768,53.819,109.497,53.254,109.504z"/>
	<path fill="#FFFFFF" d="M54.038,109.626c-0.125,0-0.257-0.012-0.381-0.026c-0.132-0.015-0.264-0.029-0.396-0.029h-0.073v-0.073
		c0.015-0.154-0.008-0.315-0.022-0.476c-0.044-0.417-0.088-0.85,0.496-1.047c0.171-0.059,0.405-0.095,0.61-0.095
		c0.176,0,0.396,0.022,0.483,0.146c0.193,0.264,0.22,0.825,0.051,1.153C54.61,109.578,54.292,109.626,54.038,109.626z
		 M53.321,109.438c0.124,0.005,0.234,0.015,0.346,0.029c0.129,0.015,0.254,0.022,0.372,0.022c0.227,0,0.483-0.044,0.651-0.374
		c0.14-0.278,0.125-0.791-0.036-1.018c-0.037-0.044-0.154-0.088-0.381-0.088c-0.19,0-0.41,0.034-0.571,0.088
		c-0.479,0.165-0.447,0.491-0.403,0.908C53.313,109.148,53.327,109.292,53.321,109.438z"/>
	<path fill="#FFFFFF" d="M59.755,103.784c-0.104,0.059-0.279,0.262-0.469,0.278c-0.777,0.059-1.143-0.32-1.172-1.135
		c-0.016-0.337,0.014-0.637,0.425-0.674C59.111,102.202,59.726,102.898,59.755,103.784z"/>
	<path fill="#FFFFFF" d="M59.124,104.136c-0.688,0-1.039-0.396-1.084-1.208c-0.008-0.242-0.029-0.696,0.498-0.74
		c0.019-0.006,0.045-0.007,0.059-0.007c0.631,0,1.201,0.747,1.217,1.597v0.038l-0.029,0.021c-0.016,0.015-0.05,0.044-0.088,0.073
		c-0.104,0.088-0.236,0.205-0.396,0.22C59.241,104.128,59.183,104.136,59.124,104.136z M58.597,102.314
		c-0.014,0-0.029,0.005-0.043,0.005c-0.338,0.029-0.396,0.234-0.381,0.608c0.043,0.791,0.395,1.128,1.113,1.069
		c0.117-0.015,0.234-0.117,0.322-0.19c0.029-0.022,0.059-0.044,0.072-0.059C59.644,102.927,59.081,102.314,58.597,102.314z"/>
	<path fill="#FFFFFF" d="M53.445,119.527c0-0.557-0.044-1.113,0.052-1.655c0.015-0.085,0.93-0.176,0.981-0.059
		c0.176,0.396,0.285,0.921,0.161,1.304c-0.088,0.264-0.608,0.381-0.938,0.571C53.614,119.63,53.532,119.586,53.445,119.527z"/>
	<path fill="#FFFFFF" d="M53.701,119.762l-0.322-0.19v-0.044c0-0.132,0-0.278-0.008-0.41c-0.007-0.41-0.015-0.844,0.059-1.246
		c0.029-0.175,0.762-0.175,0.77-0.175c0.261,0,0.314,0.044,0.337,0.088c0.168,0.381,0.3,0.926,0.161,1.354
		c-0.066,0.213-0.337,0.33-0.63,0.447c-0.117,0.051-0.234,0.103-0.336,0.161L53.701,119.762z M53.511,119.494l0.19,0.118
		c0.096-0.056,0.205-0.1,0.314-0.144c0.249-0.103,0.506-0.22,0.557-0.366c0.125-0.396,0.005-0.894-0.153-1.245
		c-0.015-0.015-0.066-0.029-0.22-0.029c-0.271,0-0.571,0.044-0.645,0.086c-0.066,0.383-0.059,0.793-0.052,1.203
		C53.511,119.234,53.511,119.366,53.511,119.494z"/>
	<path fill="#FFFFFF" d="M56.957,101.865c-0.487,0.051-0.832-0.081-0.846-0.645c-0.015-0.601,0.345-0.725,0.861-0.714
		c0.453,0.011,0.82,0.062,0.834,0.663C57.806,101.785,57.47,101.909,56.957,101.865z"/>
	<path fill="#FFFFFF" d="M56.781,101.938c-0.487,0-0.729-0.234-0.736-0.718c-0.008-0.256,0.051-0.44,0.176-0.571
		c0.151-0.154,0.396-0.22,0.751-0.212c0.469,0.014,0.893,0.08,0.893,0.729c0.008,0.267-0.059,0.462-0.176,0.589
		c-0.15,0.154-0.395,0.205-0.732,0.176C56.898,101.938,56.84,101.938,56.781,101.938z M56.898,100.569
		c-0.282,0-0.47,0.058-0.583,0.169c-0.103,0.107-0.146,0.262-0.139,0.482c0.007,0.461,0.241,0.63,0.78,0.579
		c0.074,0.001,0.132,0.007,0.175,0.007c0.221,0,0.367-0.048,0.455-0.146c0.102-0.102,0.146-0.264,0.146-0.491
		c0-0.535-0.309-0.586-0.775-0.593C56.942,100.572,56.912,100.569,56.898,100.569z"/>
	<path fill="#FFFFFF" d="M59.784,117.872c-0.088,0.41-0.162,0.85-0.309,1.245c-0.059,0.146-0.322,0.322-0.453,0.298
		c-0.221-0.034-0.41-0.225-0.586-0.384c-0.059-0.046-0.029-0.207-0.029-0.312C58.32,117.535,58.613,117.345,59.784,117.872z"/>
	<path fill="#FFFFFF" d="M59.052,119.483c-0.016,0-0.029,0-0.045,0c-0.234-0.044-0.424-0.234-0.6-0.396
		c-0.079-0.059-0.074-0.161-0.074-0.264c0-0.044,0-0.073,0-0.103c-0.043-0.571,0.016-0.879,0.171-1.055
		c0.093-0.088,0.21-0.14,0.372-0.14c0.219,0,0.505,0.081,0.938,0.275l0.059,0.025l-0.016,0.059
		c-0.029,0.115-0.059,0.232-0.086,0.352c-0.061,0.293-0.13,0.615-0.236,0.908C59.476,119.308,59.212,119.483,59.052,119.483z
		 M58.876,117.666c-0.128,0-0.221,0.03-0.279,0.089c-0.131,0.146-0.16,0.439-0.131,0.952c0,0.044,0,0.073,0,0.117
		c0,0.059,0,0.146,0.014,0.161L58.495,119c0.16,0.146,0.346,0.316,0.534,0.352h0.022c0.102,0,0.322-0.146,0.36-0.249
		c0.108-0.293,0.167-0.601,0.239-0.894c0.016-0.103,0.037-0.205,0.059-0.308C59.329,117.74,59.066,117.666,58.876,117.666z"/>
	<path fill="#FFFFFF" d="M59.124,102.1c-0.908-0.066-1.127-0.315-1.084-0.959c0.029-0.337,0.162-0.476,0.511-0.425
		c0.53,0.073,0.983,0.52,0.911,1.018C59.433,101.902,59.183,102.041,59.124,102.1z"/>
	<path fill="#FFFFFF" d="M59.154,102.17l-0.029-0.004c-0.915-0.066-1.186-0.315-1.143-1.025c0.016-0.22,0.074-0.505,0.439-0.505
		c0.045,0,0.088,0.007,0.133,0.015c0.277,0.037,0.541,0.176,0.718,0.374c0.204,0.205,0.292,0.461,0.249,0.718
		c-0.016,0.156-0.176,0.278-0.28,0.359c-0.028,0.015-0.058,0.037-0.071,0.046L59.154,102.17z M58.421,100.771
		c-0.176,0-0.293,0.062-0.307,0.376c-0.045,0.549,0.102,0.813,0.98,0.886c0.016-0.015,0.045-0.029,0.059-0.044
		c0.088-0.059,0.221-0.168,0.234-0.264c0.029-0.219-0.043-0.432-0.205-0.615c-0.16-0.176-0.395-0.299-0.645-0.33
		C58.495,100.774,58.461,100.771,58.421,100.771z"/>
	<path fill="#FFFFFF" d="M53.767,119.674c0.322,0.103,0.755,0.103,0.938,0.308c0.352,0.41,0.176,1.157-0.314,1.597
		c-0.264-0.571-0.506-1.113-0.755-1.655C53.679,119.835,53.723,119.762,53.767,119.674z"/>
	<path fill="#FFFFFF" d="M54.367,121.681l-0.806-1.769l0.171-0.312l0.051,0.015c0.1,0.029,0.21,0.044,0.313,0.073
		c0.256,0.044,0.513,0.088,0.659,0.249c0.366,0.425,0.212,1.216-0.322,1.685L54.367,121.681z M53.708,119.923l0.703,1.538
		c0.425-0.425,0.542-1.084,0.242-1.436c-0.11-0.132-0.35-0.176-0.579-0.205c-0.089-0.028-0.183-0.044-0.278-0.059L53.708,119.923z"
		/>
	<path fill="#FFFFFF" d="M55.818,100.789c0.008,0.754-0.357,1.194-0.894,1.172c-0.161-0.007-0.41-0.227-0.438-0.381
		c-0.073-0.476,0.444-1.04,0.901-1.011C55.562,100.576,55.73,100.737,55.818,100.789z"/>
	<path fill="#FFFFFF" d="M54.966,102.026c-0.016,0-0.031,0-0.048,0c-0.188-0.007-0.469-0.256-0.496-0.439
		c-0.032-0.23,0.056-0.503,0.246-0.725c0.205-0.234,0.476-0.374,0.725-0.359c0.146,0.007,0.278,0.103,0.374,0.168
		c0.029,0.022,0.059,0.044,0.08,0.059l0.037,0.015v0.044c0.007,0.432-0.11,0.776-0.322,0.996
		C55.401,101.946,55.196,102.026,54.966,102.026z M55.357,100.635c-0.198,0-0.418,0.117-0.586,0.315
		c-0.169,0.19-0.249,0.425-0.22,0.615c0.021,0.125,0.249,0.322,0.373,0.33c0.22,0.01,0.4-0.059,0.542-0.198
		c0.184-0.19,0.286-0.491,0.286-0.872c-0.022-0.015-0.037-0.029-0.059-0.044c-0.089-0.064-0.198-0.139-0.308-0.146H55.357z"/>
	<path fill="#FFFFFF" d="M56.824,98.95c0.585,0.11,0.835,0.278,0.835,0.732c0,0.417-0.248,0.601-0.629,0.601
		c-0.381,0.007-0.759-0.125-0.686-0.586C56.389,99.434,56.653,99.199,56.824,98.95z"/>
	<path fill="#FFFFFF" d="M57.015,100.351c-0.205,0-0.479-0.039-0.635-0.218c-0.1-0.114-0.129-0.26-0.1-0.443
		c0.034-0.205,0.176-0.381,0.314-0.549c0.059-0.073,0.125-0.154,0.172-0.227l0.03-0.037l0.044,0.007
		c0.542,0.103,0.887,0.271,0.878,0.798c0,0.425-0.248,0.667-0.688,0.668L57.015,100.351z M56.854,99.023
		c-0.046,0.066-0.103,0.132-0.158,0.198c-0.132,0.168-0.256,0.322-0.285,0.491c-0.022,0.139,0,0.256,0.065,0.337
		c0.1,0.11,0.29,0.168,0.538,0.168h0.016c0.365,0,0.557-0.183,0.557-0.535C57.587,99.294,57.411,99.133,56.854,99.023z"/>
	<path fill="#FFFFFF" d="M56.177,99.404c-0.059,0.676-0.425,1.033-0.879,0.93c-0.14-0.037-0.315-0.278-0.322-0.432
		c-0.022-0.417,0.498-0.945,0.827-0.842C55.979,99.111,56.104,99.331,56.177,99.404z"/>
	<path fill="#FFFFFF" d="M55.448,100.415c-0.055,0-0.114-0.007-0.165-0.022c-0.176-0.037-0.366-0.315-0.374-0.491
		c-0.015-0.205,0.096-0.447,0.286-0.645c0.197-0.212,0.446-0.315,0.622-0.264c0.154,0.051,0.264,0.19,0.345,0.286
		c0.021,0.036,0.044,0.058,0.059,0.073l0.021,0.022v0.037C56.192,100.02,55.876,100.415,55.448,100.415z M55.715,99.111
		c-0.124,0-0.285,0.091-0.425,0.234c-0.161,0.171-0.256,0.381-0.249,0.549c0.008,0.132,0.161,0.351,0.271,0.374
		c0.417,0.093,0.732-0.249,0.791-0.842c-0.015-0.015-0.029-0.037-0.047-0.059c-0.07-0.088-0.166-0.212-0.275-0.242
		C55.759,99.119,55.738,99.111,55.715,99.111z"/>
	<path fill="#FFFFFF" d="M59.286,119.894c-0.162,0.439-0.322,0.894-0.498,1.333c-0.045,0.088-0.176,0.176-0.279,0.19
		c-0.059,0.015-0.189-0.132-0.189-0.213c-0.016-0.388-0.074-0.812,0.059-1.164c0.072-0.19,0.482-0.264,0.746-0.381
		C59.169,119.732,59.228,119.82,59.286,119.894z"/>
	<path fill="#FFFFFF" d="M58.495,121.49c-0.104,0-0.244-0.184-0.25-0.278c0-0.088,0-0.176,0-0.264
		c-0.014-0.322-0.04-0.645,0.074-0.938c0.059-0.161,0.277-0.234,0.512-0.308c0.088-0.029,0.178-0.072,0.264-0.103l0.045-0.029
		l0.219,0.308l-0.014,0.032c-0.045,0.125-0.088,0.246-0.133,0.363c-0.117,0.322-0.234,0.659-0.365,0.981
		c-0.045,0.117-0.205,0.205-0.338,0.232L58.495,121.49z M59.095,119.747c-0.072,0.029-0.146,0.059-0.219,0.073
		c-0.191,0.073-0.396,0.139-0.439,0.243c-0.088,0.255-0.074,0.577-0.059,0.885c0,0.088,0,0.176,0,0.249
		c0.002,0.044,0.088,0.132,0.119,0.155c0.1-0.023,0.203-0.093,0.232-0.155c0.131-0.317,0.248-0.645,0.365-0.967
		c0.029-0.117,0.074-0.22,0.115-0.322L59.095,119.747z"/>
	<path fill="#FFFFFF" d="M59.169,98.76c-0.361,0.212-0.514,0.381-0.66,0.376c-0.541-0.01-0.688-0.42-0.688-0.86
		c0-0.139,0.219-0.28,0.352-0.423C58.45,98.115,58.743,98.372,59.169,98.76z"/>
	<path fill="#FFFFFF" d="M58.509,99.206L58.509,99.206c-0.498-0.014-0.762-0.336-0.762-0.93c0-0.126,0.117-0.234,0.243-0.337
		c0.05-0.044,0.095-0.088,0.138-0.132l0.045-0.044l1.098,1.01l-0.072,0.044c-0.133,0.073-0.234,0.146-0.314,0.205
		C58.73,99.133,58.626,99.206,58.509,99.206z M58.173,97.947c-0.029,0.029-0.059,0.059-0.097,0.088
		c-0.095,0.081-0.196,0.176-0.196,0.242c0,0.52,0.219,0.784,0.629,0.791v0.069v-0.069c0.074,0,0.162-0.059,0.293-0.154
		c0.074-0.044,0.15-0.103,0.25-0.161L58.173,97.947z"/>
	<path fill="#FFFFFF" d="M59.169,100.261c-0.191,0.073-0.381,0.205-0.572,0.205c-0.498,0.007-0.57-0.403-0.599-0.776
		c-0.001-0.11,0.292-0.352,0.335-0.322c0.309,0.176,0.602,0.403,0.879,0.615C59.198,100.071,59.183,100.166,59.169,100.261z"/>
	<path fill="#FFFFFF" d="M58.583,100.532c-0.602,0-0.631-0.564-0.645-0.842c0-0.054,0.029-0.125,0.111-0.205
		c0.049-0.051,0.195-0.19,0.283-0.19h0.016l0.018,0.015c0.246,0.132,0.465,0.3,0.686,0.464c0.072,0.052,0.131,0.104,0.205,0.151
		l0.029,0.029l-0.059,0.352l-0.045,0.015c-0.053,0.022-0.102,0.051-0.16,0.081c-0.133,0.066-0.279,0.132-0.422,0.132H58.583z
		 M58.32,99.434c-0.059,0.029-0.25,0.198-0.25,0.25c0.02,0.432,0.117,0.717,0.514,0.717h0.014c0.117,0,0.234-0.059,0.367-0.117
		c0.043-0.029,0.088-0.051,0.146-0.073l0.029-0.198c-0.057-0.044-0.11-0.088-0.163-0.132C58.759,99.727,58.554,99.565,58.32,99.434z
		"/>
	<path fill="#FFFFFF" d="M56.455,97.668c0,0.491,0.127,0.981-0.506,1.069c-0.124,0.015-0.406-0.222-0.41-0.344
		C55.539,97.877,55.891,97.698,56.455,97.668z"/>
	<path fill="#FFFFFF" d="M55.935,98.804c-0.153,0-0.459-0.249-0.461-0.41c-0.003-0.667,0.557-0.769,0.974-0.791h0.073v0.066
		c0,0.073,0,0.146,0.008,0.22c0.015,0.41,0.029,0.835-0.571,0.916H55.935z M56.389,97.742c-0.549,0.037-0.783,0.234-0.783,0.652
		c0.004,0.073,0.227,0.278,0.329,0.278h0.008c0.476-0.066,0.469-0.366,0.448-0.78C56.389,97.844,56.389,97.793,56.389,97.742z"/>
</g>
</svg>
