<?xml version="1.0" encoding="utf-8"?>
<!-- Generator: Adobe Illustrator 16.0.0, SVG Export Plug-In . SVG Version: 6.00 Build 0)  -->
<!DOCTYPE svg PUBLIC "-//W3C//DTD SVG 1.0//EN" "http://www.w3.org/TR/2001/REC-SVG-20010904/DTD/svg10.dtd">
<svg version="1.0"
	 id="svg2" xmlns:inkscape="http://www.inkscape.org/namespaces/inkscape" xmlns:sodipodi="http://sodipodi.sourceforge.net/DTD/sodipodi-0.dtd" xmlns:svg="http://www.w3.org/2000/svg" xmlns:rdf="http://www.w3.org/1999/02/22-rdf-syntax-ns#" xmlns:cc="http://creativecommons.org/ns#" xmlns:dc="http://purl.org/dc/elements/1.1/" sodipodi:modified="TRUE" inkscape:output_extension="org.inkscape.output.svg.inkscape" inkscape:export-ydpi="204.75" inkscape:version="0.47 r22583" inkscape:export-filename="D:\Cliparts\icon_letter_mail.png" sodipodi:docname="icon_letter_mail.svg" inkscape:export-xdpi="204.75" sodipodi:version="0.32"
	 xmlns="http://www.w3.org/2000/svg" xmlns:xlink="http://www.w3.org/1999/xlink" x="0px" y="0px" width="33px" height="23.57227px"
	 viewBox="11.5 8.21582 33 23.57227" enable-background="new 11.5 8.21582 33 23.57227" xml:space="preserve">
<title  id="title2888">Icon Letter Mail</title>
<sodipodi:namedview  width="60px" height="49px" id="base" pagecolor="#ffffff" bordercolor="#666666" borderopacity="1.0" inkscape:zoom="8.3747959" inkscape:cx="19.642801" inkscape:cy="14.935765" showgrid="true" gridtolerance="10000" inkscape:snap-global="false" inkscape:window-maximized="1" inkscape:window-y="-4" inkscape:window-x="-4" inkscape:window-height="977" inkscape:window-width="1280" inkscape:grid-points="true" inkscape:grid-bbox="true" inkscape:current-layer="layer1" inkscape:document-units="px" inkscape:pageshadow="2" inkscape:pageopacity="0.0">
	
		<inkscape:grid  color="#0000ff" type="xygrid" id="GridFromPre046Settings" originx="0px" originy="0px" spacingx="1px" spacingy="1px" empcolor="#0000ff" opacity="0.2" empopacity="0.4" empspacing="4" visible="true" enabled="true" snapvisiblegridlinesonly="true">
		</inkscape:grid>
</sodipodi:namedview>
<g id="layer1" transform="translate(-17,42)" inkscape:label="Calque 1" inkscape:groupmode="layer">
	<path id="rect3174" sodipodi:nodetypes="ccscccccccccccccccccccccccccccc" fill="#336600" d="M32.03418-33.78418
		c-1.95215,0-3.53418,1.58057-3.53418,3.53418c0.04492,5.3623,0,11.03223,0,16.5c0,1.87891,1.46436,3.40723,3.31592,3.5166
		l26.29639,0.02148C59.99414-10.29297,61.5-11.84473,61.5-13.75v-17.10889c-0.28711-1.66504-1.73535-2.92529-3.48047-2.92529
		C49.36035-33.78076,40.69629-33.78418,32.03418-33.78418z M31.98047-31.92578h26.14648l-12.64697,12.6543
		c-0.2334,0.22949-0.59766,0.22949-0.83105,0L31.98047-31.92578z M59.73145-31.02344v17.14453
		c0,1.02344-0.36523,1.60156-1.10352,1.80469l-8.91602-8.93066L59.73145-31.02344z M30.46924-30.94824l9.85449,9.85059
		l-9.00586,9.00195c-0.61523-0.20508-0.83252-0.69824-0.84863-1.375V-30.94824z M41.57324-19.86621l3.07568,3.09375
		c0.2334,0.22949,0.59766,0.22949,0.83105,0l2.979-2.97852l7.77734,7.76953H33.69189L41.57324-19.86621z"/>
</g>
</svg>
