<?xml version="1.0" encoding="utf-8"?>
<!-- Generator: Adobe Illustrator 16.0.0, SVG Export Plug-In . SVG Version: 6.00 Build 0)  -->
<svg version="1.2" baseProfile="tiny" id="Layer_1" xmlns="http://www.w3.org/2000/svg" xmlns:xlink="http://www.w3.org/1999/xlink"
	 x="0px" y="0px" width="42px" height="44px" viewBox="0 0 166 177" xml:space="preserve">
<g>
	<path fill="none" stroke="#2E6B00" stroke-miterlimit="10" d="M166,177 M72,0c0,19.3,0,38.5,0,57.8c2.6,0,4.5,0,7,0
		c0-17.2,0-34.3,0-51.5c27.2,0,53.9,0,81.1,0c0,51.7,0,103,0,154.7c2.301,0,4.101,0,5.9,0 M0,0 M-0.1,104.1
		c19.2,5.4,38.3,10.801,58,16.301c0-4.601,0.3-8.4-0.1-12.2c-0.5-4.7,1.6-6.2,5.8-7.2c15.3-3.8,30.6-7.9,45.8-12
		c1-0.3,2.3-1.7,2.3-2.5c0.2-10.4,0.1-20.8,0.1-32C92.4,60,73.8,65.5,54.7,71c-0.7-5.5-1.4-10.6-2.2-16.7C34.4,70.5,17.2,85.7,0,101
		 M25,177c3.7-1.3,7.5-2.8,11.2-4c11.2-3.6,22.5-7.1,33.5-10.5c0-19,0-37.6,0-56.3c-8.8,1.1-8.8,1.1-8.8,9.3c0,3.1,0,6.2,0,9.7
		c-15.2-3.2-28.7-10.2-44-12.4c0,22.101,0,43.2,0,64.3 M68.8,1.7c-2,0.4-3.7,0.7-5.4,1.2C49.7,7,36.1,11.2,22.3,15.3
		c-3.1,0.9-4.5,2.2-4.5,5.8C18.1,37.2,18,53.3,18,69.5c0,2.4,0,4.8,0,7.3c0.4,0.3,0.9,0.6,1.3,0.9c11.9-10.5,23.9-21,36.7-32.3
		c0.5,6.3,1,11.4,1.5,17.1c4-1,7.7-1.9,11.3-2.7C68.8,40.2,68.8,21.3,68.8,1.7z M77.8,104.2c-4.9,0.3-6.1,2.5-6,6.8
		c0.3,10.8,0.1,21.6,0.1,32.4c0,5.399,0,10.899,0,16.6c2.4-0.1,4.1-0.2,5.9-0.3C77.8,141,77.8,122.7,77.8,104.2z"/>
	<path fill="#2E6B00" d="M0,101c17.2-15.3,34.4-30.5,52.6-46.6c0.8,6.1,1.5,11.2,2.2,16.7c19.1-5.6,37.7-11,57.2-16.7
		c0,11.2,0.1,21.6-0.1,32c0,0.9-1.4,2.3-2.301,2.5c-15.199,4.1-30.5,8.2-45.8,12c-4.2,1-6.3,2.5-5.8,7.199
		c0.4,3.801,0.1,7.601,0.1,12.2c-19.7-5.5-38.8-10.899-58-16.3C0,103,0,102,0,101z"/>
	<path fill="#2E6B00" d="M17,177c0-21.1,0-42.2,0-64.3c15.3,2.2,28.8,9.3,44,12.399c0-3.5,0-6.6,0-9.699c0-8.101,0-8.101,8.8-9.301
		c0,18.601,0,37.2,0,56.301c-11,3.5-22.3,6.899-33.5,10.5c-3.8,1.199-7.5,2.6-11.2,4C22.3,177,19.7,177,17,177z"/>
	<path fill="#2E6B00" d="M166,161c-1.8,0-3.6,0-5.9,0c0-51.6,0-103,0-154.7c-27.199,0-53.899,0-81.1,0c0,17.2,0,34.2,0,51.5
		c-2.5,0-4.4,0-7,0c0-19.3,0-38.5,0-57.8c31.3,0,62.7,0,94,0C166,53.7,166,107.3,166,161z"/>
	<path fill="#2E6B00" d="M68.8,1.7c0,19.6,0,38.5,0,58c-3.6,0.9-7.3,1.7-11.3,2.7C57,56.7,56.6,51.6,56,45.3
		C43.2,56.6,31.3,67.1,19.3,77.6c-0.4-0.3-0.9-0.6-1.3-0.9c0-2.4,0-4.8,0-7.3c0-16.1,0.1-32.3-0.1-48.4c-0.1-3.6,1.4-4.9,4.5-5.8
		c13.7-4,27.4-8.2,41.1-12.4C65.1,2.4,66.8,2.2,68.8,1.7z"/>
	<path fill="#2E6B00" d="M77.8,104.2c0,18.5,0,36.8,0,55.5c-1.8,0.1-3.5,0.2-5.9,0.3c0-5.7,0-11.2,0-16.6
		c0-10.801,0.2-21.601-0.1-32.4C71.8,106.7,73,104.5,77.8,104.2z"/>
</g>
</svg>
