<?xml version="1.0" encoding="utf-8"?>
<!-- Generator: Adobe Illustrator 16.0.0, SVG Export Plug-In . SVG Version: 6.00 Build 0)  -->
<svg version="1.2" baseProfile="tiny" id="Layer_1" xmlns="http://www.w3.org/2000/svg" xmlns:xlink="http://www.w3.org/1999/xlink"
	 x="0px" y="0px" width="30px" height="30.817px" viewBox="41.53 44.167 30 30.817" xml:space="preserve">
<g>
	<path fill="#FFFFFF" d="M56.407,63.136c-1.042-1.963-1.189-3.934,0.022-5.897c0.254-0.417,0.466-0.85,0.671-1.289
		c1.729-3.633,1.359-5.128-1.838-7.604c-0.205-0.161-0.405-0.338-0.615-0.488c-0.718-0.508-0.908-1.156-0.597-1.963
		c0.143-0.259-0.019-0.363-0.216-0.464c-1.18,0.395-1.708,1.585-2.733,2.197c-1.333,0.806-1.421,0.865-2.579-0.234
		c-1.359-1.275-2.946-1.664-4.75-1.393c-1.365,0.194-2.166,1.349-2.227,2.682c-0.013,0.206-0.029,0.455,0,0.66
		c0.075,0.542,0.515,0.982,0.786,1.434c0.315,0.53,0.555,1.101,0.991,1.546c1.229,1.254,2.152,1.606,3.634,0.727
		c1.141-0.674,2.006-0.484,3.002,0.117c0.498,0.293,0.938,0.542,0.776,1.202c-0.161,0.63-0.41,1.153-1.23,1.055
		c-1.026-0.116-1.744,0.418-2.345,1.201c-1.362,1.758-2.491,3.641-3.208,5.75c-0.733,2.168-0.987,4.395-0.369,6.651
		c0.646,2.371,1.642,2.96,3.958,2.285c0.894-0.264,1.626-0.146,2.374,0.329c0.453,0.287,0.922,0.521,1.392,0.756
		c0.358,0.167,0.762,0.173,0.85-0.293c0.246-1.29,0.722-2.608-0.381-3.754c-1.348-1.428-1.231-3.174-1.231-4.952
		c1.421,1.497,3.062,2.552,4.85,3.329c1.011,0.425,1.882-0.455,1.765-1.627C57.101,64.396,56.747,63.78,56.407,63.136z
		 M48.464,51.071c-0.132-0.015-0.249-0.081-0.315-0.198c-0.051-0.104-0.095-0.257-0.081-0.363c0-0.047,0-0.099,0-0.143
		c0.029-0.112,0.073-0.22,0.104-0.322c0.043-0.114,0.082-0.23,0.117-0.34c0.024-0.056,0.043-0.101,0.058-0.158
		c0.015-0.057,0.029-0.103,0.044-0.16c0-0.016,0.029-0.045,0.035-0.07c0.024-0.077,0.039-0.195,0.098-0.253
		c0.043,0.029,0.029,0.081,0.046,0.118c0.018,0.043,0.042,0.074,0.056,0.117c0.02,0.073,0.059,0.132,0.088,0.205
		c0.029,0.059,0.059,0.131,0.088,0.191c0.118,0.264,0.299,0.499,0.329,0.806C49.168,50.883,48.831,51.127,48.464,51.071z
		 M54.105,51.864c-0.117,0.116-0.308-0.07-0.18-0.181c0.136-0.128,0.268-0.333,0.151-0.522c-0.092-0.134-0.239-0.206-0.396-0.236
		c-0.004,0.029-0.015,0.047-0.044,0.073c-0.103,0.088-0.236,0.132-0.337,0.231c-0.102,0.092-0.088,0.238-0.132,0.37
		c-0.003,0.01-0.015,0.015-0.02,0.029c0.005,0.073-0.037,0.146-0.127,0.146c-0.103,0-0.132-0.088-0.117-0.161
		c-0.059-0.073-0.059-0.161-0.044-0.249c-0.015-0.03-0.004-0.074,0.015-0.104c0-0.014,0-0.033,0.002-0.052
		c0.011-0.021,0.013-0.036,0.027-0.05c-0.018-0.044-0.015-0.102,0.029-0.146c0.234-0.234,0.469-0.425,0.821-0.435
		c0.087-0.005,0.123,0.067,0.127,0.126c0.209,0.073,0.4,0.217,0.473,0.427C54.442,51.418,54.323,51.673,54.105,51.864z"/>
	<path fill="#FFFFFF" d="M71.53,61.73c-0.617,0.879-1.066,1.816-1.066,2.93c0,0.787-0.411,1.318-1.173,1.318
		c-1.406-0.009-2.783,0.333-4.19,0.381c-0.469,0.025-1.142,0.176-1.289-0.557c-0.146-0.615,0.088-1.113,0.615-1.494
		c0.645-0.498,1.406-0.703,2.162-0.967c0.592-0.205,0.904-0.498,0.563-1.16c-0.382-0.773-0.629-0.064-0.968,0.047
		c-0.674,0.205-1.465,0.732-2.021,0.029c-0.557-0.74,0.088-1.436,0.585-1.969c0.646-0.728,1.525-0.938,2.382-0.486
		c1.048,0.562,1.866,0.258,2.63-0.468c0.059-0.132,0.146-0.146,0.234-0.029c0.522,0.546,1.026,1.077,1.534,1.634
		C71.53,61.203,71.53,61.466,71.53,61.73z"/>
	<path fill="#FFFFFF" d="M68.499,46.25c-1.699-0.38-2.896,0.424-3.985,1.539c-0.234,0.22-0.322,0.777-0.762,0.616
		c-1.482-0.583-1.201,0.307-1.055,1.184c0.062,0.472,0.069,0.97,0,1.439c-0.352,2.314,0.848,3.926,2.256,5.45
		c0.088-0.073,0.179-0.146,0.285-0.22c-0.227-0.41-0.481-0.806-0.666-1.237c-0.352-0.775-0.205-1.591,0.029-2.338
		c0.218-0.645,0.938-0.279,1.406-0.337c1.533-0.19,2.755-0.981,3.752-2.043C71.279,48.727,70.58,46.716,68.499,46.25z
		 M64.455,51.615l-0.029-0.001c-0.028,0.021-0.039,0.038-0.076,0.044l-0.012,0.044c0,0.058,0,0.117-0.042,0.146
		c0.013,0.029,0.013,0.058,0.013,0.087c0.029,0.044,0.029,0.117,0,0.161l0.029,0.03v-0.001c0.176,0,0.176,0.264,0,0.264
		c-0.059,0-0.097-0.039-0.117-0.088l0,0c-0.13,0-0.175-0.131-0.117-0.205c-0.016-0.029-0.029-0.059-0.029-0.097
		c-0.029-0.049-0.025-0.131,0.029-0.169c-0.029-0.056-0.029-0.115,0-0.163c-0.011-0.069,0.024-0.156,0.088-0.171
		c0.029-0.058,0.059-0.102,0.123-0.102l0.037,0.014c0.016-0.029,0.045-0.059,0.104-0.059C64.631,51.35,64.631,51.615,64.455,51.615z
		"/>
	<path fill="#FFFFFF" d="M51.966,73.496c1.96-0.603,2.198-2.303,2.415-4.042c0.046-0.38,0.222-0.751,0.398-1.103
		c0.352-0.703,1.04-0.938,1.68-0.762c0.759,0.201,0.466,0.938,0.379,1.465c-0.088,0.499-0.228,1.056-0.506,1.467
		c-0.557,0.849-0.776,1.744-0.776,2.754c0,0.643-0.029,1.406-0.806,1.641c-0.674,0.188-1.392,0-1.685-0.681
		C52.83,73.672,52.171,74.212,51.966,73.496z"/>
	<path fill="#FFFFFF" d="M59.972,52.609c0.4,0.147,0.469,0.469,0.48,0.762c0.018,1.084,0.476,1.92,1.249,2.659
		c0.293,0.271,0.703,0.661,0.352,1.136c-0.527,0.708-1.144,1.407-2.052,1.524c-0.469,0.073-0.732-0.497-0.97-0.938
		c-0.989-1.773-0.144-3.296,0.589-4.84C59.679,52.771,59.855,52.698,59.972,52.609z"/>
	<path fill="#FFFFFF" d="M57.423,67.501c0.586-0.791,1.172-1.406,1.201-2.373c0-0.627,0.527-0.586,0.967-0.322
		c0.746,0.469,1.481,0.967,2.238,1.406c1.015,0.597,2.04,1.209,3.3,1.26C62.58,68.03,60.031,67.034,57.423,67.501z"/>
	<path fill="#FFFFFF" d="M47.445,73.802c1.65-0.675,2.543-0.44,2.705,0.586c0.073,0.496-0.015,0.703-0.537,0.461
		c-0.152-0.08-0.326-0.139-0.474-0.205C48.626,74.388,48.127,74.153,47.445,73.802z"/>
	<path fill="#FFFFFF" d="M69.993,59.305l-0.116,0.058l-0.118-0.028c-1.026-0.732-2.432-0.908-3.165-2.11
		C67.738,57.899,69.27,57.914,69.993,59.305z"/>
	<path fill="#FFFFFF" d="M53.783,45.547c0.688-0.821,1.509-1.393,2.637-1.379c-0.739,0.645-1.729,0.939-2.367,1.727
		C53.959,45.78,53.871,45.664,53.783,45.547z"/>
	<path fill="#FFFFFF" d="M43.995,58.675c-0.167-0.673,0.06-1.142,0.599-1.466c0.148-0.1,0.41-0.028,0.376,0.177
		C44.889,57.958,44.523,58.368,43.995,58.675z"/>
	<path fill="#FFFFFF" d="M61.408,46.382c-0.792-0.147-1.437-0.469-1.671-1.276C60.294,45.531,60.851,45.957,61.408,46.382z"/>
	<path fill="#FFFFFF" d="M66.976,67.003c0.452-0.263,0.879-0.623,1.476-0.413C68.001,67.034,67.525,67.151,66.976,67.003z"/>
	<g>
		<path fill="#FFFFFF" d="M48.508,50.631c0.044,0.06,0.11,0.07,0.161,0.01"/>
		<path fill="#FFFFFF" d="M48.585,51.084c-0.004,0-0.015,0-0.019-0.002c-0.161-0.011-0.307-0.098-0.396-0.231l0.415-0.271
			l0.391,0.301C48.877,51.013,48.742,51.084,48.585,51.084z"/>
	</g>
</g>
</svg>
