<?xml version="1.0" encoding="utf-8"?>
<!-- Generator: Adobe Illustrator 16.0.0, SVG Export Plug-In . SVG Version: 6.00 Build 0)  -->
<!DOCTYPE svg PUBLIC "-//W3C//DTD SVG 1.0//EN" "http://www.w3.org/TR/2001/REC-SVG-20010904/DTD/svg10.dtd">
<svg version="1.0"
	 id="svg2" xmlns:inkscape="http://www.inkscape.org/namespaces/inkscape" xmlns:sodipodi="http://sodipodi.sourceforge.net/DTD/sodipodi-0.dtd" xmlns:svg="http://www.w3.org/2000/svg" xmlns:rdf="http://www.w3.org/1999/02/22-rdf-syntax-ns#" xmlns:cc="http://creativecommons.org/ns#" xmlns:dc="http://purl.org/dc/elements/1.1/" sodipodi:modified="TRUE" inkscape:output_extension="org.inkscape.output.svg.inkscape" inkscape:export-ydpi="204.75" inkscape:version="0.47 r22583" inkscape:export-filename="D:\Cliparts\icon_letter_mail.png" sodipodi:docname="icon_letter_mail.svg" inkscape:export-xdpi="204.75" sodipodi:version="0.32"
	 xmlns="http://www.w3.org/2000/svg" xmlns:xlink="http://www.w3.org/1999/xlink" x="0px" y="0px" width="33px" height="23.57227px"
	 viewBox="11.5 8.21387 33 23.57227" enable-background="new 11.5 8.21387 33 23.57227" xml:space="preserve">
<title  id="title2888">Icon Letter Mail</title>
<sodipodi:namedview  width="60px" height="49px" id="base" pagecolor="#ffffff" bordercolor="#666666" borderopacity="1.0" inkscape:zoom="8.3747959" inkscape:cx="19.642801" inkscape:cy="14.935765" showgrid="true" gridtolerance="10000" inkscape:snap-global="false" inkscape:window-maximized="1" inkscape:window-y="-4" inkscape:window-x="-4" inkscape:window-height="977" inkscape:window-width="1280" inkscape:grid-points="true" inkscape:grid-bbox="true" inkscape:current-layer="layer1" inkscape:document-units="px" inkscape:pageshadow="2" inkscape:pageopacity="0.0">
	
		<inkscape:grid  color="#0000ff" type="xygrid" id="GridFromPre046Settings" originx="0px" originy="0px" spacingx="1px" spacingy="1px" empcolor="#0000ff" opacity="0.2" empopacity="0.4" empspacing="4" visible="true" enabled="true" snapvisiblegridlinesonly="true">
		</inkscape:grid>
</sodipodi:namedview>
<g id="layer1" transform="translate(-17,42)" inkscape:label="Calque 1" inkscape:groupmode="layer">
	<path id="rect3174" sodipodi:nodetypes="ccscccccccccccccccccccccccccccc" fill="#F7F7F7" d="M32.03613-33.78613
		c-1.95312,0-3.53613,1.58105-3.53613,3.53613c0.04395,5.36133,0,11.03613,0,16.5c0,1.88184,1.46387,3.4043,3.31494,3.51758
		l26.29639,0.01855C59.99707-10.29004,61.5-11.84375,61.5-13.75v-17.10791c-0.28613-1.6665-1.7334-2.92822-3.48047-2.92822
		C49.36328-33.78125,40.6958-33.78613,32.03613-33.78613z M31.98047-31.92578h26.15039L45.479-19.27539
		c-0.23096,0.23145-0.59814,0.23145-0.8291,0L31.98047-31.92578z M59.73242-31.02344v17.14453
		c0,1.02051-0.36816,1.59863-1.10547,1.80469l-8.91309-8.93164L59.73242-31.02344z M30.47021-30.9502l9.85254,9.85254
		l-9.00537,9.00586c-0.61621-0.20898-0.83105-0.70605-0.84717-1.38281V-30.9502z M41.5752-19.86426l3.07471,3.09375
		c0.23096,0.23145,0.59814,0.23145,0.8291,0l2.98389-2.98242l7.76953,7.77051H33.69287L41.5752-19.86426z"/>
</g>
</svg>
