<?xml version="1.0" encoding="utf-8"?>
<!-- Generator: Adobe Illustrator 16.0.0, SVG Export Plug-In . SVG Version: 6.00 Build 0)  -->
<svg version="1.2" baseProfile="tiny" id="Layer_1" xmlns="http://www.w3.org/2000/svg" xmlns:xlink="http://www.w3.org/1999/xlink"
	 x="0px" y="0px" width="40px" height="30.02px" viewBox="59.756 44.822 40 30.02" xml:space="preserve">
<g>
	<path fill="#FFFFFF" d="M81.885,69.522c-0.039-0.802-0.078-1.388-0.1-2.014c-0.916-0.234-1.541-0.227-2.234,0.665
		c-0.391,0.508-1.641,0.352-2.638,0.508c0.449-2.813,0.425-5.278-0.84-7.658c-3.048-5.773-10.49-6.477-14.441-1.318
		c-0.546,0.731-1.023,0.85-1.876,0.379c1.354-1.629,2.698-3.212,4.001-4.814c0.182-0.215,0.272-0.566,0.28-0.859
		c0.021-2.501,0.047-5.021-0.017-7.523c-0.02-0.664-0.372-1.312-0.605-2.066c5.783,0,11.604,0,17.533,0
		c-1.201,1.851,0.039,3.591,0.234,5.388c0.156,1.485,0.625,2.931,0.898,4.416c0.156,0.743,0.42,1.114,1.29,1.145
		c4.665,0.204,9.338,0.477,14.021,0.731c0.278,0.02,0.552,0.078,0.942,0.117c-0.158,2.126-0.332,4.171-0.508,6.358
		c-0.288-0.078-0.547-0.156-0.781-0.273c-3.556-1.797-7.541-0.352-8.948,3.399c-0.391,1.09-0.936,1.407-1.992,1.289
		c-0.659-0.078-1.328-0.039-1.992-0.01c-0.273,0.01-0.547,0.128-0.793,0.206c0.012,0.15,0.012,0.273,0.051,0.411
		c1.445,0,2.93,0.033,4.376-0.06c0.194,0,0.391-0.627,0.487-1.017c1.092-3.988,5.607-5.836,8.93-3.634
		c2.548,1.72,3.359,5.57,1.796,8.439c-1.532,2.774-4.541,3.86-7.385,2.579c-1.914-0.892-3.087-2.423-3.36-4.493
		c-0.155-1.007-0.508-1.289-1.445-1.206c-0.664,0.073-1.328-0.005-1.992,0.034c-0.607,0.039-1.367-0.289-1.676,0.664
		C83.058,69.463,82.394,69.44,81.885,69.522z M64.665,55.166c2.989,0,5.822,0,8.732,0c0-2.827,0-5.601,0-8.433
		c-2.93,0-5.82,0-8.732,0C64.665,49.583,64.665,52.319,64.665,55.166z M74.101,55.289c2.188,0,4.317,0,6.651,0
		c-0.585-0.742-1.045-1.297-1.553-1.915c-0.332,0.312-0.586,0.547-0.84,0.781c-0.059-0.059-0.137-0.128-0.215-0.195
		c0.625-0.84,1.25-1.681,1.867-2.521c0.086,0.059,0.186,0.119,0.272,0.193c-0.811,1.292-0.537,2.015,1.289,3.402
		c-0.586-2.795-1.172-5.562-1.748-8.324c-1.973,0-3.829,0-5.724,0C74.101,49.61,74.101,52.435,74.101,55.289z M82.394,59.086
		c-0.039-0.218-0.079-0.434-0.118-0.651c1.876-0.035,3.751,0,5.627-0.006c1.914-0.014,3.828-0.01,5.743-0.01
		c-0.195-0.199-0.391-0.233-0.612-0.234c-3.178-0.004-6.343-0.023-9.507,0.016c-0.859,0-1.407-0.098-1.596-1.114
		c-0.046-0.43-0.632-1.074-0.983-1.094c-2.139-0.101-4.308-0.059-6.69-0.059c1.27,2.015,2.422,3.849,3.594,5.645
		c0.117,0.187,0.391,0.343,0.603,0.343c1.273,0.039,2.572,0.039,3.94,0.039c0-0.977,0-1.787,0-2.716c1.445,0,2.773,0,4.102,0
		c0-0.048,0-0.106,0-0.159c-0.664,0-1.328,0-1.999,0C83.8,59.086,83.097,59.086,82.394,59.086z M97.146,68.525
		c0.016-1.837-1.483-3.438-3.227-3.478c-1.758,0-3.204,1.529-3.204,3.469c0,1.884,1.446,3.485,3.204,3.485
		C95.638,72.002,97.125,70.399,97.146,68.525z"/>
	<path fill="#FFFFFF" d="M76.659,65.673c-0.078,4.376-2.051,7.462-5.509,8.674c-4.493,1.602-9.34-0.86-10.806-5.42
		c-0.746-2.316-0.867-4.661,0.178-6.829c1.434-2.979,4.963-5.87,8.928-5.289c3.633,0.532,6.759,3.797,7.13,7.535
		C76.632,64.852,76.64,65.336,76.659,65.673z M73.417,65.673c0-3.126-2.188-5.471-5.099-5.471c-2.865,0.01-5.091,2.437-5.063,5.548
		c0.021,2.971,2.309,5.433,5.063,5.435C71.151,71.19,73.417,68.76,73.417,65.673z"/>
	<path fill="none" d="M64.665,55.166c0-2.847,0-5.583,0-8.433c2.912,0,5.802,0,8.732,0c0,2.832,0,5.606,0,8.433
		C70.487,55.166,67.654,55.166,64.665,55.166z"/>
	<path fill="none" d="M74.101,55.289c0-2.854,0-5.679,0-8.578c1.895,0,3.75,0,5.724,0c0.576,2.762,1.162,5.528,1.748,8.324
		c-1.826-1.387-2.1-2.11-1.289-3.403c-0.086-0.074-0.186-0.134-0.272-0.192c-0.617,0.84-1.242,1.681-1.867,2.521
		c0.078,0.066,0.156,0.136,0.215,0.195c0.254-0.234,0.508-0.469,0.84-0.781c0.508,0.617,0.967,1.173,1.553,1.915
		C78.418,55.289,76.288,55.289,74.101,55.289z"/>
	<path fill="none" d="M82.394,59.086c0.703,0,1.406,0,2.102,0c0.672,0,1.336,0,2,0c0,0.053,0,0.111,0,0.159
		c-1.328,0-2.656,0-4.102,0c0,0.929,0,1.74,0,2.716c-1.368,0-2.667,0-3.941-0.039c-0.211,0-0.484-0.156-0.602-0.343
		c-1.172-1.796-2.325-3.628-3.594-5.645c2.383,0,4.552-0.042,6.69,0.059c0.352,0.02,0.938,0.664,0.982,1.094
		c0.189,1.016,0.737,1.114,1.597,1.114c3.164-0.039,6.329-0.02,9.506-0.016c0.223,0.001,0.418,0.035,0.613,0.234
		c-1.915,0-3.829-0.004-5.743,0.01c-1.876,0.006-3.751-0.029-5.627,0.006C82.315,58.652,82.355,58.868,82.394,59.086z"/>
	<path fill="none" d="M93.919,72.119L93.919,72.119c-0.826,0-1.642-0.352-2.266-0.977c-0.665-0.688-1.056-1.641-1.056-2.629
		c0-1.981,1.485-3.583,3.296-3.583h0.025c1.797,0.012,3.36,1.714,3.36,3.595C97.269,70.439,95.683,72.119,93.919,72.119z
		 M93.894,65.165c-1.657,0-3.037,1.521-3.062,3.354c0,0.904,0.365,1.803,1.016,2.467c0.579,0.565,1.291,0.898,2.071,0.898v0.117
		v-0.117c1.641,0,3.086-1.562,3.088-3.359c0.012-1.759-1.428-3.321-3.088-3.359L93.894,65.165z M93.802,70.83
		c-1.094,0-2.11-1.055-2.148-2.227c-0.001-0.703,0.233-1.368,0.702-1.837c0.393-0.424,0.938-0.648,1.485-0.649l0,0
		c1.172,0,2.185,1.079,2.188,2.369c0.001,1.211-1.016,2.305-2.188,2.344H93.802z M93.841,66.259v0.117
		c-0.469,0-0.938,0.195-1.3,0.586c-0.42,0.42-0.654,1.017-0.614,1.624c0.029,1.033,0.906,1.998,1.875,1.999l0.021-0.002
		c1.045-0.026,1.971-1.003,1.958-2.097c-0.026-1.136-0.89-2.11-1.94-2.11V66.259z"/>
	<path fill="none" d="M68.318,71.336L68.318,71.336c-2.847-0.006-5.176-2.526-5.196-5.585c-0.005-1.624,0.566-3.087,1.624-4.176
		c0.955-0.942,2.224-1.491,3.572-1.491c1.387,0,2.657,0.521,3.614,1.486c1.036,1.022,1.605,2.5,1.603,4.103
		C73.534,68.838,71.248,71.336,68.318,71.336z M68.337,60.338c-1.29,0.008-2.5,0.507-3.41,1.428
		c-1.007,1.016-1.563,2.422-1.551,3.982c0.02,2.934,2.234,5.316,4.942,5.316l0,0.121v-0.121c2.781,0,4.962-2.354,4.971-5.392
		c0.006-1.532-0.539-2.931-1.533-3.946C70.857,60.828,69.632,60.338,68.337,60.338z M68.396,70.374
		c-2.462,0-4.415-2.044-4.435-4.626c-0.002-1.286,0.447-2.476,1.269-3.396c0.822-0.898,1.916-1.406,3.088-1.406h0.029
		c1.162,0,2.26,0.5,3.096,1.406c0.84,0.898,1.302,2.071,1.301,3.321c-0.003,2.579-1.926,4.688-4.292,4.7L68.396,70.374z
		 M68.347,61.179h-0.029c-1.094,0.011-2.13,0.508-2.911,1.362c-0.781,0.864-1.198,1.998-1.192,3.198
		c0.019,2.472,1.855,4.387,4.181,4.387h0.047c2.238-0.028,4.054-2.031,4.055-4.454c0-1.172-0.447-2.306-1.23-3.165
		C70.473,61.648,69.436,61.179,68.347,61.179z"/>
	<path fill="#FFFFFF" d="M95.911,68.486c0,1.136-0.977,2.188-2.075,2.227c-1.049,0.001-2.019-1.006-2.044-2.112
		c-0.043-1.287,0.91-2.342,2.049-2.342C94.935,66.259,95.882,67.274,95.911,68.486z"/>
	<path fill="#FFFFFF" d="M72.616,65.673c0,2.501-1.875,4.57-4.167,4.571c-2.419,0.039-4.337-1.953-4.355-4.501
		c-0.018-2.571,1.88-4.672,4.224-4.681C70.662,61.062,72.616,63.133,72.616,65.673z M70.869,65.946
		c0.106-1.551-1.007-2.853-2.473-2.892c-1.298-0.039-2.531,1.151-2.588,2.54c-0.061,1.406,1.025,2.646,2.374,2.734
		C69.587,68.408,70.78,67.352,70.869,65.946z"/>
	<path fill="none" d="M70.869,65.946c-0.089,1.406-1.282,2.462-2.688,2.383c-1.348-0.088-2.434-1.328-2.374-2.734
		c0.057-1.389,1.29-2.579,2.588-2.54C69.862,63.094,70.975,64.395,70.869,65.946z M70.056,65.712c0.02-0.977-0.82-1.921-1.719-1.914
		c-0.915,0.028-1.662,0.82-1.685,1.804c-0.03,1.009,0.668,1.843,1.57,1.908C69.217,67.549,70.02,66.766,70.056,65.712z"/>
	<path fill="#FFFFFF" d="M70.056,65.712c-0.036,1.055-0.839,1.837-1.833,1.798c-0.902-0.065-1.6-0.899-1.57-1.908
		c0.022-0.983,0.77-1.775,1.684-1.804C69.236,63.79,70.076,64.735,70.056,65.712z"/>
</g>
</svg>
