<?xml version="1.0" encoding="utf-8"?>
<!-- Generator: Adobe Illustrator 16.0.0, SVG Export Plug-In . SVG Version: 6.00 Build 0)  -->
<svg version="1.2" baseProfile="tiny" id="Capa_1" xmlns="http://www.w3.org/2000/svg" xmlns:xlink="http://www.w3.org/1999/xlink"
	 x="0px" y="0px" width="221.7px" height="240px" viewBox="0 0 221.7 240" xml:space="preserve">
<g>
	<path d="M221.7,25c0-2.4-1.8-4.5-4-4.8c0,0,0,0-0.1,0l0,0c-20.3-2-42.9-3.9-66.6-4.8c-9.7-0.3-14.6-1.1-18.2-2.5
		c-3.7-1.4-7.4-4.1-13.4-8.4l0,0l-0.1-0.1l0,0c-1.9-1.2-3.8-2.4-5.6-3.6l0,0c-0.8-0.5-2-0.8-3.3-0.8c-1.4,0-2.7,0.4-3.5,1l0,0
		c-1.5,1.1-3.1,2.3-4.6,3.5c-6,4.3-9.6,7-13.3,8.4c-3.6,1.4-8.6,2.1-18.2,2.5C47,16.3,24.3,18.2,4.1,20.2l0,0c0,0,0,0-0.1,0
		c-2.2,0.2-4,2.4-4,4.8c0,1.4,0.6,2.5,1.4,3.1l0,0c11.2,8.1,14.5,28.6,14.2,53.3c-0.3,24.6-3.4,51.2-5.6,66.7l0,0
		c-1.7,12.5-2.7,24.3,0.3,35.5c2.9,11.2,10.6,21.4,25.4,27.5h0.1c0,0,0.1,0,0.1,0.1c12.3,5.1,25.2,7.1,36.8,10.7
		c13.7,4.1,23.4,10.7,34.6,17.1c0.8,0.6,2.1,1,3.5,1c0,0,0,0,0.1,0c1.4,0,2.6-0.4,3.5-1c11.2-6.3,20.8-13,34.6-17.1
		c11.7-3.6,24.6-5.6,36.8-10.7c0,0,0.1,0,0.1-0.1h0.1c14.8-6.2,22.5-16.3,25.4-27.5c2.9-11.2,2-23,0.3-35.5l0,0
		c-2.2-15.5-5.3-42.1-5.6-66.7c-0.3-24.7,2.9-45.3,14.2-53.3l0,0C221.1,27.5,221.7,26.3,221.7,25z"/>
</g>
<g>
	<path fill="#FFFFFF" d="M110.5,4.2c1.8,1.1,3.7,2.3,5.5,3.5c11.9,8.6,15.4,11.5,35.1,12c23.6,0.9,46.2,3,66.1,5.1
		c-25.5,17.2-13.4,92-10,124.1c3,24,4.2,45.7-23.1,57.9c-11.5,4.9-24.3,7-36.7,10.7c-15.6,4.7-25.7,12-36.6,18c0,0,0,0,0.1,0
		c-10.9-6-20.9-13.2-36.6-17.9c-12.4-3.8-25.2-5.8-36.7-10.7c-27.3-12.2-26-33.9-23.1-57.9c3.3-32.1,15.4-106.9-10-124.1
		c19.9-2.2,42.5-4.2,66.1-5.1c19.7-0.6,23.2-3.4,35.1-12C107.5,6.5,109,5.4,110.5,4.2z"/>
</g>
<g>
	<path fill="#49A942" d="M97.9,167l-4.3-0.3l-0.3,1l-2.1-0.1l-0.3,3.9c0,0-0.6,1.2-1,1.5c0,0-0.6,0.5-1,0.8c0,0-1.4,0.8-2.9,1
		c0,0-0.6,0.1-1,0c0,0-0.4,0.9,1.2,1.8c0,0,1.6-0.5,2-0.6c0,0,0.9-0.2,1.2-0.4c0,0,1-0.2,1.3-0.1c0,0,0.3,0.1,0.5-0.3
		c0,0,0.5-0.8,1.5-0.1c0,0,0.9,0.7,1.2,1c0,0,0.4,0.6,0.5,1.2c0,0,0.2,0.5,0.8,0.9c0,0,0.8,0.8,1,0.9c0,0-0.9,12.6-0.6,14.3
		c0,0,0.1,0.3,0,0.5c0,0-0.4,0.1-0.1,0.6c0,0,0.2,0.2,0,0.6c0,0-0.4,0.8-0.1,1.2c0,0,0,0.2,0.4,0.2c0,0,0.4-0.1,0.5,0.2
		c0,0,0,0.7,0.6,0.9c0,0,0,0,0.1,0c0.7,0.2,0.5,0.1,1.1,0.1c0,0,0.6,0,0.6,0.5c0,0,0,0.5-0.3,0.7c0,0-0.6,0.5-0.2,1
		c0,0,0.2,0.2,0.2,0.9c0,0-0.2,0.5-0.3,0.8c0,0-0.3,0.4,0.2,0.7c0,0,0.2,0.4,0.4,0.7c0,0,0.6,1.1,1,0.7c0,0,0.2-0.3,0.2-0.5
		c0,0,0.2-0.4,0.5,0c0,0,0.2,0.2,0.4,0.1c0,0,0.1-0.1,0-0.4c0,0,0-0.5,0.3,0.2c0,0,0.3,1.2,0.8,1c0,0,0.2-0.1,0.3-0.4
		c0,0,0.4-0.4,0.8,0c0,0,0.3,0.3,0.6,0.3c0,0-0.5,0.3-0.6,0.5c0,0,0.3,0.6,0.7,0.4c0,0,0.3-0.3,0.4-0.2c0,0-0.1,0.7,0.4,0.2
		c0,0,0.5,0,0.9-0.3c0,0,0.2-0.2,0.8-0.3c0,0,0.2-0.1,0.5-0.4c0,0,0.4-0.2,0.4,0.2c0,0,0,0.8,0.5,0.4c0,0,1-0.6,1.3-0.9
		c0,0,0.3-0.6,0.6-0.2c0,0,0.2,0.2,0.4,0c0,0,0.2-0.5,0.4-0.6c0,0,0.2-0.1,0.3-0.2c0,0,0.1,0,0.2-0.4c0,0,0.2-0.3,0.5-0.2
		c0,0,0.2,0,0.2,0.4c0,0-0.1,0.3,0.3,0.4c0,0,0.6,0.3,0.9-0.1c0,0,0.4-0.5,1.1-0.4c0,0,0.4,0.1,1.6-0.7c0,0,0.2-0.2,0.4-0.5
		c0,0,0.2-0.4,0.9-0.8c0,0,0.7-0.3,1-0.6c0,0,0.2-0.2,0.5-0.3c0,0,0.5-0.1,0.7-0.4c0,0,0.3-0.2,0.8-0.4c0,0,0.7,0,1.4-0.6
		c0,0,0.4-0.5,1.2-0.4c0,0,0.4,0.1,0.6-0.2c0,0,0.4-0.7,0.6-1c0,0,0.3-0.3,0-0.3c0,0-0.2-0.1,0.1-0.4c0,0,0.8-0.6,0.6-1
		c0,0-0.2-0.5-0.4-0.9c0,0-0.4-0.5-0.2-0.6c0,0,0.1-0.1,0.4,0.4c0,0,0.7,1.2,0.8,1.4c0,0,0.3,0.4,0,0.7c0,0-0.3,0.5,0,0.5
		c0,0,0.2,0,0.6-0.6c0,0,0.2-0.4,0.6-0.6c0,0,0.2-0.4,0.3-0.7c0,0,0.1-0.4,0.4,0.1c0,0,0.1,0.2,0.3,0.4l0.8-1.5c0,0,0.2-0.5,0.7-0.5
		c0,0,1,0,1.2-0.1c0,0,0.2-0.2-0.4-0.2c0,0-0.8,0.1-0.6-0.3c0,0,0-0.3,0.9-0.4c0,0,0.4,0.1,0.7,0.1c0,0,0.3-0.1,0.6-0.4
		c0,0,0.7-0.3,0.6-0.5c0,0-0.2-0.4-1.8-0.5c0,0-0.7-0.1-1,0c0,0-0.2,0.1-0.5,0c0,0-0.2,0-0.3-0.4c-0.2-0.4-0.1-0.3-0.1-0.3
		s-0.3-0.3-0.6-0.2c0,0-1,0.1-1.6,0c0,0-0.5-0.1-0.8,0c0,0-0.6,0.2-0.5-0.4c0,0,0.1-0.3,0.4-0.4c0,0,0.2-0.2-0.2-0.6
		c0,0-0.3-0.2-0.3,0.2c0,0,0,0.3-0.8,0.3c0,0-0.6,0,0.3-0.4c0,0,0.4-0.2,0.1-1c0,0-0.1-0.3-0.6-0.3c0,0-0.6-0.3,0.5-0.3
		c0,0-0.3-0.5-0.6-0.9c0,0-0.2-0.2,0-1.2c0,0,0-0.7-0.4-0.8c0,0-0.2,0.1-0.2,0.4c0,0-0.2,0.2-0.4,0.1c0,0-0.2-0.2-0.3,0.1
		c0,0-0.5,0.2,0.1-0.6c0,0,0.2-0.2-0.3-0.5c0,0-0.4-0.2-0.2-0.7c0,0,0-0.2-0.4-0.3c0,0-0.4,0,0.4-0.5c0,0,0.1,0,0.1-0.4
		c0,0,0.1-0.4,0.5-0.8c0,0,0.2-0.4,0-0.8c0,0-0.1-0.2,0.1-0.4c0,0,0.2-0.4-0.6-0.3c0,0-0.3,0-0.5,0.1c0,0-0.2,0.3-0.5,0
		c0,0-0.4-0.2-0.8,0.1c0,0-0.5,0.4-0.7,0.3c0,0-0.2,0-0.3-0.3c0,0-0.2-0.4-0.6,0c0,0-0.2,0.3-0.8,0c0,0-0.7,0,0.1-0.3
		c0,0,0.5-0.4,0.8-0.6c0,0,0.2-0.1,0.6-0.5c0,0,0.8-0.8,1.3-1.2c0,0,0.4-0.2,0.5-0.7c0,0,0-0.3,0.4-0.3c0,0,0.2-0.1,0.2-0.6
		c0,0,0-0.4,0.2-0.6c0,0,0.2-0.4-0.3-0.4c0,0-0.5-0.4,0.1-1.1c0,0,0.3,0,0.5-0.2c0,0,0.4-0.7,0.2-0.9c0,0-0.1-0.2-0.5-0.2
		c0,0-0.4-0.4,0.2-0.4c0,0,0.8,0.4,1.1-0.2c0,0,0.1-0.4-0.2-0.6c0,0-0.3-0.3-0.3,0.3c0,0-0.2,0.4-0.6-0.3c0,0-0.1-0.2,0.3-0.2
		c0,0,0.4-0.2-0.3-0.4c0,0-0.6-0.2-1,0.2c0,0-0.6,0.3-0.8,0c0,0-0.2-0.2,0.2-0.2c0,0,0.4,0,0.4-0.3c0,0-0.1-0.2-0.5-0.1
		c0,0-0.5,0.2-0.7,0.2c0,0-1,0-1.4,0.4c0,0-0.7,0.4-0.9,0.6c0,0-0.6,0.5-0.8,0.6c0,0-0.3,0.2-0.8,0.4c0,0-0.3-0.1-0.4,0.2
		c0,0-0.1,0.5-0.4,0.4c0,0-0.3-0.1,0-0.6c0,0,0.1-0.2-0.4-0.5c0,0-0.4-0.4-0.3-1c0,0,0.1-0.8-0.8-1.3c-0.2-0.1-0.3-0.1-0.3-0.1
		s-0.6-0.2-0.9-0.2c0,0-0.7,0.1-1.4-0.5c0,0-0.2-0.3-0.8-0.4c0,0-0.4-0.1-0.7-0.1c0,0-0.5-0.1-0.4-0.6c0,0,0.1-0.7-0.8-0.2
		c0,0-1.2,0.8-2.6,0.9c0,0-1,0.2-1.2-0.3c0,0-0.8,0.2-0.6,1c0,0,0.3,0.8-0.4,0.1c0,0-0.3-0.4-0.6-0.2c0,0-0.9,0.3-1,0.3
		c0,0-1.1,0.2-1.2,0.3c0,0-0.2,0.4-0.4,0.2c0,0-0.9-0.5-1.2-0.7C98.5,168.1,97.6,167.7,97.9,167z"/>
	<path fill="#49A942" d="M124.3,168.6c0,0-0.2,0.2-0.6,0.2c0,0-0.3,0-0.6,0.2c0,0-0.4,0.3-0.4,0.5c0,0,0.1,0.3,0.4,0.2
		c0,0,0.4,0.1,0.2,0.3c0,0-0.5,0.2-0.2,0.6c0,0,0.4,0,0.7-0.4c0,0,0.4-0.9,0.6-1.2C124.4,169,124.7,168.6,124.3,168.6z"/>
	<path fill="#49A942" d="M124.2,167c0,0-0.2,0.6-0.4,0.9c0,0-0.4,0.7,0.4,0.4c0,0,0.3,0,0.5-0.3c0,0,0-0.3,0.1-0.6
		C124.7,167.3,124.4,166.9,124.2,167z"/>
	<path fill="#49A942" d="M104.2,208.1c0,0-0.2,0.2-0.3,0.4c0,0-0.3,0.5-0.4,0.9c0,0-0.4,0.6-0.5,0.8c0,0-0.4,0.7,0.3,0.2
		c0,0,0.5-0.4,0.6-0.4c0,0,0.1,0,0.2-0.4c0,0,0.1-0.2,0.3-0.2c0,0,0.3-0.1-0.1-0.4c0,0,0,0,0.1-0.3
		C104.6,208.6,104.8,207.9,104.2,208.1z"/>
	<path fill="#49A942" d="M102.5,205.6c-0.2,0.1-0.4,0.1-0.4,0.4c0,0.1,0.1,0.5,0.3,0.5C102.7,206.4,103.1,205.3,102.5,205.6"/>
	<path fill="#49A942" d="M102.9,206.5c0,0,0,0.3-0.1,0.5c0,0-0.2,0.2-0.1,0.7c0,0,0.1,0.1,0.3-0.1c0,0,0-0.2,0.1-0.4
		c0,0,0.2-0.3,0.2-0.7C103.1,206.5,102.9,206.2,102.9,206.5z"/>
</g>
<g>
	<path fill="#231F20" stroke="#231F20" stroke-width="0.2862" d="M54.7,84.6c0.1,1.9,0.4,2.2,1.9,2.1v0.6l-6,0.3v-0.5
		c1.6-0.1,1.8-0.4,1.7-2.3L52,78.9c-0.1-1.9-0.3-2.2-1.9-2.1v-0.5l6-0.3v0.6c-1.6,0.1-1.8,0.4-1.7,2.3l0.1,2.1l5.8-0.3l-0.1-2.1
		c-0.1-1.9-0.3-2.2-1.9-2.1V76l6-0.3v0.5c-1.6,0.1-1.8,0.4-1.7,2.3l0.3,5.8c0.1,1.9,0.4,2.2,1.9,2.1v0.5l-6,0.3v-0.5
		c1.6-0.1,1.8-0.4,1.7-2.3l-0.2-2.8l-5.8,0.3L54.7,84.6z"/>
	<path fill="#231F20" stroke="#231F20" stroke-width="0.2862" d="M74.5,86.8C71,87,68.1,84.3,68,81s2.6-6.1,6.1-6.2
		c3.5-0.1,6.4,2.5,6.5,5.8C80.7,83.9,78,86.7,74.5,86.8z M74.1,75.7c-2.7,0.1-3.7,2.9-3.6,5.2c0.1,2.3,1.3,5.1,3.9,5
		c2.7-0.1,3.7-2.9,3.6-5.2C78,78.4,76.8,75.6,74.1,75.7z"/>
	<path fill="#231F20" stroke="#231F20" stroke-width="0.2862" d="M83.7,75.4v-0.6l6-0.1v0.5c-1.6,0-1.8,0.4-1.8,2.2l0.1,5.5
		c0,1.9,0.3,2.2,1.9,2.2h2.2c1.7,0,1.9-0.5,2.2-1.5l0.1-0.4H95L94.8,86l-10.9,0.2v-0.5c1.6,0,1.8-0.4,1.8-2.2l-0.1-5.8
		C85.5,75.7,85.3,75.4,83.7,75.4z"/>
	<path fill="#231F20" stroke="#231F20" stroke-width="0.2862" d="M98.9,86.3h-0.5v-4.2H99c0.4,2,2,3.3,3.5,3.3
		c1.1,0,1.9-0.6,1.9-1.9c0-0.7-0.5-1.5-1.4-1.9l-1.8-0.9c-1.6-0.8-2.6-1.7-2.6-3.6c0-1.6,1.4-2.9,3.3-2.9c1.1,0,1.7,0.4,2.3,0.8
		c0.2-0.2,0.5-0.5,0.5-0.9h0.5v4.2h-0.6c-0.1-1.5-0.8-3.2-2.7-3.2c-0.8,0-1.5,0.6-1.5,1.5c0,0.6,0.5,1.4,1.5,1.9l1.8,0.9
		c1.4,0.7,2.5,1.8,2.5,3.3c0,2.1-1.8,3.5-3.8,3.5c-1.4,0-2.4-0.7-3-0.9C99.2,85.6,99,85.9,98.9,86.3z"/>
	<path fill="#231F20" stroke="#231F20" stroke-width="0.2862" d="M120.4,77.4h-0.5l-0.1-0.4c-0.2-1-0.4-1.4-2.2-1.5h-1.9l-0.1,7.8
		c0,1.9,0.2,2.2,1.8,2.2V86h-6v-0.5c1.6,0,1.8-0.3,1.8-2.2l0.1-7.8h-1.9c-1.7,0-1.9,0.4-2.2,1.4l-0.1,0.4h-0.6l0.2-2.7l11.5,0.1
		L120.4,77.4z"/>
	<path fill="#231F20" stroke="#231F20" stroke-width="0.2862" d="M122.8,85.6c1.6,0,1.8-0.3,1.9-2.2l0.1-5.8c0-1.9-0.2-2.2-1.8-2.3
		v-0.6l9.8,0.2l0.1,2.7h-0.5l-0.1-0.4c-0.2-1-0.4-1.5-2.2-1.5l-2.9-0.1l-0.1,4.1h1c1.9,0,2.2-0.2,2.2-1.8h0.6l-0.1,4.5h-0.5
		c0-1.6-0.3-1.8-2.2-1.9h-1L127,83c0,1.9,0.2,2.2,1.8,2.3h1.7c1.7,0,2-0.4,2.2-1.4l0.1-0.4h0.5l-0.2,2.7L122.7,86L122.8,85.6z"/>
	<path fill="#231F20" stroke="#231F20" stroke-width="0.2862" d="M136.4,86.4v-0.5c1.6,0,1.8-0.3,1.9-2.2l0.2-5.8
		c0.1-1.9-0.2-2.2-1.7-2.3v-0.5l6,0.2v0.5c-1.6-0.1-1.8,0.3-1.9,2.2l-0.2,5.8c-0.1,1.9,0.2,2.2,1.7,2.3v0.5L136.4,86.4z"/>
	<path fill="#231F20" stroke="#231F20" stroke-width="0.2862" d="M155.9,78.6c0.1-1.9-0.1-2.2-1.7-2.3v-0.5l4.5,0.2v0.5
		c-1.6-0.1-1.8,0.2-1.9,2.1l-0.4,8.9h-0.5l-7.4-9.7l-0.3,6.3c-0.1,1.9,0.1,2.2,1.7,2.3v0.5l-4.5-0.2v-0.5c1.6,0.1,1.8-0.2,1.9-2.1
		l0.3-5.8c0.1-1.9-0.1-2.2-1.7-2.3v-0.6l3.8,0.2l6,7.8L155.9,78.6z"/>
	<path fill="#231F20" stroke="#231F20" stroke-width="0.2862" d="M161.8,87.8h-0.5l0.2-4.2h0.5c0.3,2,1.8,3.4,3.3,3.5
		c1.1,0.1,1.9-0.5,2-1.8c0-0.7-0.4-1.5-1.3-2l-1.8-1c-1.5-0.9-2.5-1.8-2.4-3.7c0.1-1.5,1.6-2.8,3.5-2.7c1.1,0.1,1.7,0.5,2.3,0.9
		c0.2-0.2,0.5-0.4,0.6-0.8h0.5l-0.2,4.2H168c0-1.5-0.6-3.3-2.5-3.4c-0.8,0-1.6,0.5-1.6,1.4c0,0.6,0.4,1.4,1.4,2l1.8,1
		c1.3,0.8,2.3,2,2.3,3.5c-0.1,2.1-2,3.3-4,3.2c-1.4-0.1-2.3-0.9-2.9-1.1C162.2,87.1,161.9,87.4,161.8,87.8z"/>
</g>
<g>
	<path fill="#231F20" stroke="#231F20" stroke-width="0.7531" d="M29.8,65c3-0.2,3.5-0.8,3.5-4.6c0-4.1,0-8.1,0-12.2
		c0-3.7-0.4-4.3-3.5-4.1c0-0.3,0-0.5,0-0.8c3.3-0.2,6.6-0.4,9.9-0.6c0,0.3,0,0.5,0,0.8c-3,0.2-3.5,0.8-3.5,4.5c0,3.9,0,7.7,0,11.6
		c0,3.7,0.4,4.3,3.5,4.1c1.5-0.1,2.9-0.2,4.4-0.2c3.3-0.2,3.7-1,4.2-3.1c0.1-0.3,0.1-0.5,0.2-0.8c0.3,0,0.5,0,0.8,0
		c-0.1,1.7-0.2,3.3-0.3,5c-6.4,0.3-12.8,0.7-19.2,1.1C29.8,65.5,29.8,65.2,29.8,65z"/>
	<path fill="#231F20" stroke="#231F20" stroke-width="0.7531" d="M50.9,64.6c0-0.3,0-0.5,0-0.8c2.4-0.1,2.9-0.8,2.9-4.5
		c0-0.6,0-1.2,0-1.9c0-3.7-0.5-4.3-2.9-4.2c0-0.3,0-0.5,0-0.8c1.8-0.4,3.7-0.8,5.5-1.2c0,2.6,0,5.3,0,7.9c0,3.7,0.4,4.4,2.9,4.3
		c0,0.3,0,0.5,0,0.8C56.5,64.3,53.7,64.5,50.9,64.6z M55.1,47.6c-0.9,0-1.6-0.7-1.6-1.6s0.7-1.7,1.6-1.7s1.6,0.7,1.6,1.6
		S55.9,47.6,55.1,47.6z"/>
	<path fill="#231F20" stroke="#231F20" stroke-width="0.7531" d="M61,53c0-0.3,0-0.6,0-0.9c2.2-0.6,3-2.2,3.3-4.6c0.4,0,0.8,0,1.2,0
		c0,1.4,0,2.7,0,4.1c1.1,0,2.1-0.1,3.2-0.1c0,0.4,0,0.9,0,1.3c-1.1,0-2.1,0.1-3.2,0.1c0,2.5,0,5,0,7.6c0,1.8,0.5,2.7,1.6,2.7
		c0.7,0,1.5-0.5,2.4-1.4c0.2,0.2,0.4,0.4,0.6,0.6c-1,1.3-2.6,2.3-3.8,2.3c-2,0.1-3.4-1.2-3.4-4.1c0-2.5,0-5,0-7.6
		C62.3,53,61.6,53,61,53z"/>
	<path fill="#231F20" stroke="#231F20" stroke-width="0.7531" d="M71.8,52.6c0-0.3,0-0.6,0-0.9c2.2-0.6,3-2.2,3.3-4.6
		c0.4,0,0.8,0,1.2,0c0,1.4,0,2.7,0,4.1c1.1,0,2.1-0.1,3.2-0.1c0,0.4,0,0.9,0,1.3c-1.1,0-2.1,0.1-3.2,0.1c0,2.5,0,5,0,7.6
		c0,1.8,0.5,2.7,1.6,2.7c0.7,0,1.5-0.5,2.4-1.4c0.2,0.2,0.4,0.4,0.6,0.6c-1,1.3-2.6,2.2-3.9,2.3c-2,0.1-3.4-1.2-3.4-4.1
		c0-2.5,0-5,0-7.6C73.1,52.6,72.5,52.6,71.8,52.6z"/>
	<path fill="#231F20" stroke="#231F20" stroke-width="0.7531" d="M82.7,63.5c0-0.3,0-0.5,0-0.8c2.5-0.1,2.9-0.7,2.9-4.4
		c0-3.9,0-7.9,0-11.8c0-3.7-0.4-4.4-2.9-4.3c0-0.3,0-0.5,0-0.8c1.8-0.4,3.7-0.7,5.5-1c0,6,0,11.9,0,17.9c0,3.7,0.5,4.4,2.9,4.3
		c0,0.3,0,0.5,0,0.8C88.3,63.4,85.5,63.5,82.7,63.5z"/>
	<path fill="#231F20" stroke="#231F20" stroke-width="0.7531" d="M100.6,62.3c1.2,0,3-0.7,4-1.7c0.2,0.3,0.4,0.5,0.7,0.8
		c-1.3,1.4-3.5,2.5-5.6,2.5c-4,0-6.8-3-6.8-6.8c0-4,3.4-6.9,6.8-6.9c3.3,0,5.9,2.7,5,5.9c-2.9,0-5.9,0-8.8,0.1
		C95.4,59.6,96.8,62.3,100.6,62.3z M102.1,54.7c0.4-1.2-0.2-3-2.6-3c-1.6,0-2.9,1.2-3.4,3.1C98.1,54.7,100.1,54.7,102.1,54.7z"/>
	<path fill="#231F20" stroke="#231F20" stroke-width="0.7531" d="M131.5,57.9c2.2,2.7,4.6,4.6,6.8,4.9c0,0.3,0,0.5,0,0.8
		c-2,0-4-0.1-6.1-0.1c-2.4-3.3-4.8-6.6-7.3-9.9c-0.6,0-1.2,0-1.7,0c0,1.6,0,3.1,0,4.7c0,3.7,0.4,4.4,3.5,4.4c0,0.3,0,0.5,0,0.8
		c-3.3,0-6.6-0.1-9.9-0.1c0-0.3,0-0.5,0-0.8c3,0,3.5-0.6,3.5-4.4c0-4.1,0-8.1,0-12.2c0-3.7-0.4-4.3-3.5-4.4c0-0.3,0-0.5,0-0.8
		c3.2,0,6.5,0,9.7,0.1c5.1,0.1,7.9,3,7.9,6.4c0,3.3-2.4,5.8-6.5,6.2C129.1,54.9,130.3,56.4,131.5,57.9z M131.2,47.3
		c0-2.7-1.5-5-4.7-5c-1.1,0-2.2,0-3.2,0c0,3.3,0,6.6,0,9.9c1.1,0,2.2,0,3.2,0C129.7,52.2,131.2,50,131.2,47.3z"/>
	<path fill="#231F20" stroke="#231F20" stroke-width="0.7531" d="M139.6,63.5c0-0.3,0-0.5,0-0.8c2.4,0.1,2.9-0.6,2.9-4.3
		c0-0.6,0-1.2,0-1.9c0-3.7-0.5-4.4-2.9-4.4c0-0.3,0-0.5,0-0.8c1.8-0.3,3.7-0.5,5.5-0.8c0,2.6,0,5.3,0,7.9c0,3.7,0.4,4.4,2.9,4.5
		c0,0.3,0,0.5,0,0.8C145.2,63.7,142.4,63.6,139.6,63.5z M143.8,46.9c-0.9,0-1.6-0.8-1.6-1.7c0-0.9,0.7-1.6,1.6-1.6
		c0.9,0,1.6,0.8,1.6,1.7C145.4,46.2,144.7,46.9,143.8,46.9z"/>
	<path fill="#231F20" stroke="#231F20" stroke-width="0.7531" d="M159.9,54.7c-1.4,3.3-2.8,6.7-4.1,10c-0.2,0-0.5,0-0.7,0
		c-1.5-3.4-3-6.9-4.5-10.3c-0.7-1.6-1.3-2.2-2.5-2.3c0-0.2,0-0.5,0-0.7c2.2,0.1,4.4,0.1,6.5,0.2c0,0.2,0,0.5,0,0.7
		c-1.7-0.1-1.9,0.3-1.2,2.2c0.9,2,1.7,4.1,2.6,6.1c0.8-2,1.6-3.9,2.5-5.9c0.7-1.6,0.6-2.2-1.1-2.2c0-0.2,0-0.5,0-0.7
		c1.7,0.1,3.4,0.1,5.1,0.2c0,0.2,0,0.5,0,0.7C161.3,52.5,160.6,53,159.9,54.7z"/>
	<path fill="#231F20" stroke="#231F20" stroke-width="0.7531" d="M171.5,63.7c1.2,0.1,3-0.6,4-1.5c0.2,0.3,0.4,0.6,0.7,0.9
		c-1.3,1.3-3.5,2.3-5.6,2.2c-4-0.2-6.8-3.4-6.8-7.2c0-4,3.4-6.7,6.8-6.6c3.3,0.2,5.9,3,5,6.2c-2.9-0.1-5.9-0.3-8.8-0.4
		C166.3,60.8,167.8,63.5,171.5,63.7z M173.1,56.2c0.4-1.2-0.2-3-2.6-3.2c-1.6-0.1-2.9,1.1-3.4,2.9C169,56,171,56.1,173.1,56.2z"/>
	<path fill="#231F20" stroke="#231F20" stroke-width="0.7531" d="M189.7,56.6c-0.7,0-1.3-0.7-1.3-1.4c0-0.8-0.4-1.3-1.2-1.3
		c-0.8-0.1-2.8,1.2-2.8,4.2c0,0.7,0,1.4,0,2.1c0,3.7,0.4,4.4,2.9,4.5c0,0.3,0,0.5,0,0.8c-2.8-0.2-5.6-0.3-8.4-0.5c0-0.3,0-0.5,0-0.8
		c2.4,0.1,2.9-0.5,2.9-4.2c0-0.6,0-1.2,0-1.9c0-3.7-0.5-4.4-2.9-4.5c0-0.3,0-0.5,0-0.8c1.6-0.2,3.2-0.4,4.9-0.7
		c0.2,0.4,0.5,1.9,0.6,2.7c0.7-1.5,2.4-2.6,3.8-2.5c2,0.1,2.9,1.6,2.9,2.5C191.2,55.8,190.8,56.7,189.7,56.6z"/>
</g>
<g>
	<path fill="#49A942" d="M58.4,201.8l3.1-5l1,0.7l0.1,4.7l2.1-3.4l1,0.6l-3.1,5l-1.1-0.7l-0.1-4.6l-2.1,3.3L58.4,201.8z"/>
	<path fill="#49A942" d="M67.3,205.4l1,0.7c-0.3,0.3-0.7,0.5-1.1,0.5c-0.4,0-0.8-0.1-1.2-0.3c-0.7-0.4-1.1-0.9-1.2-1.5
		c-0.1-0.5,0-1,0.3-1.5c0.3-0.6,0.8-1,1.3-1.2c0.5-0.2,1.1-0.1,1.6,0.2c0.6,0.3,1,0.8,1.1,1.3c0.1,0.6,0,1.2-0.4,2l-2.6-1.4
		c-0.2,0.3-0.2,0.6-0.1,0.8c0.1,0.3,0.2,0.4,0.5,0.6c0.2,0.1,0.3,0.1,0.5,0.1C66.9,205.6,67.1,205.5,67.3,205.4z M67.9,204.4
		c0.1-0.3,0.2-0.6,0.1-0.8c-0.1-0.2-0.2-0.4-0.4-0.5c-0.2-0.1-0.5-0.1-0.7-0.1c-0.2,0.1-0.4,0.3-0.6,0.5L67.9,204.4z"/>
	<path fill="#49A942" d="M69.9,208.2l0.5-4.5l1.1,0.5l-0.4,2.9l1.9-2.3l1.1,0.5l-0.5,2.9l1.9-2.2l1.1,0.5l-3.1,3.3l-1.1-0.5l0.4-2.8
		l-1.8,2.2L69.9,208.2z"/>
	<path fill="#49A942" d="M80.6,206.2L83,207c0.5,0.2,0.8,0.3,1,0.4c0.2,0.1,0.4,0.3,0.5,0.4c0.1,0.2,0.2,0.4,0.3,0.6
		c0.1,0.2,0,0.5,0,0.7c-0.1,0.3-0.2,0.5-0.5,0.7c-0.2,0.2-0.5,0.3-0.8,0.3c0.3,0.2,0.6,0.5,0.7,0.8c0.1,0.3,0.1,0.6,0,0.9
		c-0.1,0.3-0.2,0.5-0.4,0.7c-0.2,0.2-0.4,0.3-0.7,0.4c-0.3,0.1-0.6,0.1-0.9,0c-0.2,0-0.7-0.2-1.5-0.4l-2-0.7L80.6,206.2z
		 M80.8,209.8l-0.5,1.5l1.1,0.4c0.4,0.1,0.7,0.2,0.8,0.2c0.2,0,0.4,0,0.5-0.1c0.2-0.1,0.3-0.2,0.3-0.4c0.1-0.2,0.1-0.3,0-0.5
		c0-0.1-0.1-0.3-0.3-0.4c-0.1-0.1-0.5-0.2-1-0.4L80.8,209.8z M81.5,207.6l-0.4,1.3l0.8,0.3c0.5,0.2,0.8,0.2,0.9,0.3
		c0.2,0,0.4,0,0.6,0c0.2-0.1,0.3-0.2,0.3-0.4c0.1-0.2,0.1-0.3,0-0.5c-0.1-0.1-0.2-0.3-0.4-0.3c-0.1-0.1-0.5-0.2-1-0.4L81.5,207.6z"
		/>
	<path fill="#49A942" d="M86.5,214.2l-1.2-0.3l1.1-4.2l1.1,0.3l-0.2,0.6c0.3-0.2,0.5-0.4,0.6-0.4c0.2-0.1,0.3-0.1,0.5,0
		c0.3,0.1,0.5,0.2,0.7,0.4l-0.6,0.9c-0.2-0.2-0.3-0.3-0.5-0.3s-0.3,0-0.4,0c-0.1,0.1-0.3,0.2-0.4,0.4c-0.1,0.2-0.3,0.7-0.5,1.4
		L86.5,214.2z"/>
	<path fill="#49A942" d="M92.2,215.5l0.1-0.6c-0.2,0.2-0.5,0.3-0.7,0.4c-0.3,0.1-0.6,0.1-0.9,0c-0.3-0.1-0.6-0.2-0.8-0.4
		c-0.2-0.2-0.3-0.4-0.4-0.6s0-0.6,0-1l0.5-2.7l1.2,0.2l-0.4,1.9c-0.1,0.6-0.2,1-0.2,1.1c0,0.1,0.1,0.3,0.2,0.4
		c0.1,0.1,0.2,0.2,0.4,0.2c0.2,0,0.4,0,0.6,0c0.2-0.1,0.3-0.2,0.4-0.3c0.1-0.1,0.2-0.5,0.3-1.1l0.4-1.8l1.2,0.2l-0.9,4.2L92.2,215.5
		z"/>
	<path fill="#49A942" d="M99.2,216.6l-1.2-0.2l0.3-2.2c0.1-0.5,0.1-0.8,0-0.9c0-0.1-0.1-0.3-0.2-0.3c-0.1-0.1-0.2-0.1-0.4-0.2
		c-0.2,0-0.4,0-0.6,0.1c-0.2,0.1-0.3,0.2-0.4,0.4c-0.1,0.2-0.2,0.5-0.2,1l-0.3,1.9L95,216l0.6-4.3l1.1,0.2l-0.1,0.6
		c0.5-0.4,1-0.6,1.6-0.5c0.3,0,0.5,0.1,0.7,0.2c0.2,0.1,0.4,0.3,0.4,0.4c0.1,0.2,0.1,0.3,0.2,0.5c0,0.2,0,0.4,0,0.8L99.2,216.6z"/>
	<path fill="#49A942" d="M100.7,215.5l1.2-0.1c0,0.2,0.1,0.4,0.3,0.5c0.1,0.1,0.4,0.2,0.6,0.2c0.3,0,0.5,0,0.7-0.1
		c0.1-0.1,0.2-0.2,0.2-0.3c0-0.1,0-0.2-0.1-0.2c-0.1-0.1-0.2-0.1-0.4-0.2c-0.9-0.3-1.5-0.5-1.8-0.7c-0.3-0.3-0.5-0.6-0.5-1
		c0-0.4,0.2-0.7,0.5-0.9c0.3-0.2,0.8-0.3,1.5-0.3c0.6,0.1,1.1,0.2,1.4,0.4c0.3,0.2,0.5,0.5,0.6,0.9l-1.1,0.1c0-0.2-0.1-0.3-0.2-0.4
		c-0.1-0.1-0.3-0.2-0.6-0.2s-0.5,0-0.7,0.1c-0.1,0.1-0.1,0.1-0.2,0.2c0,0.1,0,0.2,0.1,0.2c0.1,0.1,0.5,0.2,1.1,0.4
		c0.6,0.2,1.1,0.4,1.3,0.6c0.2,0.2,0.3,0.5,0.3,0.9c0,0.4-0.2,0.7-0.6,1c-0.4,0.3-0.9,0.4-1.6,0.3c-0.6,0-1.1-0.2-1.4-0.5
		C101,216.3,100.8,216,100.7,215.5z"/>
	<path fill="#49A942" d="M107.3,217.2l-1.4-4.3h1.2l0.8,2.8l0.8-2.8h1.2l0.7,2.8l0.9-2.8h1.2l-1.5,4.3H110l-0.7-2.8l-0.8,2.8H107.3z
		"/>
	<path fill="#49A942" d="M113.6,212.3v-1.1h1.2v1.1H113.6z M113.8,217.2l-0.2-4.3h1.2l0.2,4.3H113.8z"/>
	<path fill="#49A942" d="M120.6,213.7l-1.2,0.3c-0.1-0.2-0.2-0.4-0.3-0.5c-0.2-0.1-0.3-0.1-0.6-0.1c-0.3,0-0.5,0.1-0.7,0.4
		c-0.2,0.2-0.2,0.5-0.2,1s0.2,0.9,0.4,1.1c0.2,0.2,0.4,0.3,0.8,0.3c0.2,0,0.4-0.1,0.5-0.2c0.1-0.1,0.2-0.4,0.3-0.7l1.2,0.1
		c-0.1,0.5-0.3,0.9-0.6,1.2c-0.3,0.3-0.8,0.5-1.4,0.5c-0.7,0.1-1.2-0.1-1.6-0.5c-0.4-0.4-0.7-0.9-0.7-1.6c-0.1-0.7,0.1-1.3,0.5-1.7
		c0.4-0.4,0.9-0.7,1.5-0.7c0.5,0,1,0,1.3,0.2C120.1,212.9,120.4,213.3,120.6,213.7z"/>
	<path fill="#49A942" d="M122.3,216.6l-0.8-5.9l1.2-0.2l0.4,3.1l1.2-1.7l1.5-0.2l-1.3,1.8l2,2.5l-1.3,0.2l-1.4-1.8l-0.5,0.6l0.2,1.4
		L122.3,216.6z"/>
	<path fill="#49A942" d="M127.5,214.6l1.2-0.2l0.2,0.8c0.1,0.3,0.1,0.6,0.1,0.8s-0.1,0.4-0.2,0.6c-0.1,0.2-0.3,0.3-0.6,0.5l-0.3-0.4
		c0.2-0.1,0.4-0.3,0.4-0.4c0-0.1,0.1-0.3,0.1-0.6l-0.6,0.1L127.5,214.6z"/>
	<path fill="#49A942" d="M136.9,211.3h1.3c0,0.7-0.2,1.2-0.5,1.6c-0.3,0.4-0.8,0.7-1.5,0.9c-0.8,0.2-1.5,0.1-2.2-0.2
		c-0.7-0.4-1.1-1-1.4-1.9c-0.3-1-0.2-1.8,0.2-2.4c0.4-0.7,1-1.1,1.8-1.4c0.7-0.2,1.4-0.2,2,0.1c0.3,0.2,0.6,0.5,0.9,0.9l-1.1,0.6
		c-0.2-0.3-0.4-0.5-0.6-0.6c-0.3-0.1-0.6-0.1-0.9,0c-0.4,0.1-0.8,0.4-1,0.8c-0.2,0.4-0.2,0.9,0,1.6s0.5,1.2,0.8,1.4
		c0.4,0.2,0.8,0.3,1.2,0.2c0.3-0.1,0.6-0.3,0.8-0.5C136.9,212.1,137,211.8,136.9,211.3z"/>
	<path fill="#49A942" d="M140.2,209.4l-1.1,0.2c0-0.4,0.1-0.8,0.3-1.1s0.6-0.5,1.2-0.7c0.5-0.2,0.9-0.3,1.2-0.2
		c0.3,0,0.5,0.1,0.7,0.2c0.2,0.1,0.3,0.4,0.5,0.9l0.4,1.3c0.1,0.4,0.2,0.6,0.3,0.8s0.2,0.3,0.4,0.5l-1.1,0.4
		c-0.1-0.1-0.1-0.2-0.2-0.3c0-0.1-0.1-0.1-0.1-0.1c-0.1,0.2-0.3,0.5-0.5,0.6c-0.2,0.2-0.4,0.3-0.7,0.4c-0.4,0.2-0.8,0.2-1.2,0
		c-0.3-0.1-0.6-0.4-0.7-0.7c-0.1-0.2-0.1-0.5,0-0.7c0.1-0.2,0.2-0.4,0.3-0.6c0.2-0.2,0.4-0.4,0.8-0.6c0.5-0.3,0.8-0.5,1-0.6V209
		c-0.1-0.2-0.2-0.3-0.3-0.4c-0.1-0.1-0.4,0-0.7,0.1c-0.2,0.1-0.3,0.2-0.4,0.3C140.2,209.1,140.2,209.2,140.2,209.4z M142,209.8
		c-0.1,0.1-0.3,0.2-0.6,0.4s-0.5,0.3-0.5,0.4c-0.1,0.2-0.1,0.3-0.1,0.5c0.1,0.2,0.2,0.3,0.3,0.3c0.2,0.1,0.3,0.1,0.5,0
		c0.2-0.1,0.4-0.2,0.5-0.4c0.1-0.1,0.2-0.3,0.1-0.5c0-0.1,0-0.3-0.1-0.5L142,209.8z"/>
	<path fill="#49A942" d="M149.2,209.1l-1.1,0.5l-0.9-2c-0.2-0.4-0.3-0.7-0.4-0.8c-0.1-0.1-0.2-0.2-0.4-0.2c-0.1,0-0.3,0-0.4,0.1
		c-0.2,0.1-0.3,0.2-0.5,0.4c-0.1,0.2-0.2,0.3-0.1,0.5c0,0.2,0.1,0.5,0.3,0.9l0.8,1.8l-1.1,0.5l-1.7-4l1-0.4l0.2,0.6
		c0.2-0.6,0.5-1,1.1-1.2c0.2-0.1,0.5-0.2,0.7-0.2c0.2,0,0.4,0,0.6,0.1c0.2,0.1,0.3,0.2,0.4,0.3s0.2,0.4,0.4,0.7L149.2,209.1z"/>
	<path fill="#49A942" d="M150.4,205.3l-1.1,0.3c-0.1-0.4,0-0.8,0.2-1.1c0.2-0.3,0.5-0.6,1.1-0.9c0.5-0.2,0.9-0.4,1.2-0.4
		c0.3,0,0.5,0,0.7,0.2c0.2,0.1,0.4,0.4,0.6,0.8l0.6,1.2c0.2,0.3,0.3,0.6,0.4,0.7c0.1,0.1,0.3,0.3,0.4,0.4l-1.1,0.5
		c-0.1-0.1-0.1-0.1-0.3-0.3c0-0.1-0.1-0.1-0.1-0.1c-0.1,0.3-0.2,0.5-0.4,0.7c-0.2,0.2-0.4,0.3-0.6,0.5c-0.4,0.2-0.8,0.3-1.1,0.2
		s-0.6-0.3-0.8-0.6c-0.1-0.2-0.1-0.4-0.1-0.7c0-0.2,0.1-0.4,0.3-0.6c0.2-0.2,0.4-0.4,0.7-0.7c0.5-0.3,0.8-0.6,0.9-0.8v-0.1
		c-0.1-0.2-0.2-0.3-0.4-0.3c-0.1,0-0.4,0-0.6,0.2c-0.2,0.1-0.3,0.2-0.4,0.3C150.4,204.9,150.4,205,150.4,205.3z M152.2,205.4
		c-0.1,0.1-0.3,0.3-0.6,0.5c-0.3,0.2-0.4,0.4-0.5,0.5c-0.1,0.2-0.1,0.3,0,0.5c0.1,0.2,0.2,0.2,0.4,0.3c0.2,0,0.3,0,0.5-0.1
		c0.2-0.1,0.3-0.2,0.5-0.5c0.1-0.2,0.1-0.3,0.1-0.5c0-0.1-0.1-0.3-0.2-0.5L152.2,205.4z"/>
	<path fill="#49A942" d="M159.4,203.8l-1,0.6l-0.3-0.5c0,0.3-0.1,0.6-0.3,0.8c-0.2,0.2-0.3,0.4-0.6,0.5c-0.5,0.3-0.9,0.3-1.5,0.1
		c-0.5-0.2-1-0.6-1.3-1.2c-0.4-0.6-0.5-1.2-0.4-1.7c0.1-0.5,0.4-0.9,0.9-1.2c0.4-0.3,0.9-0.3,1.4-0.1l-1.1-1.9l1-0.6L159.4,203.8z
		 M155.5,203.4c0.2,0.4,0.5,0.7,0.7,0.8c0.3,0.2,0.6,0.2,0.9,0c0.2-0.1,0.4-0.4,0.4-0.6c0-0.2,0-0.6-0.2-1c-0.2-0.4-0.5-0.7-0.8-0.8
		c-0.3-0.1-0.5-0.1-0.8,0.1c-0.2,0.1-0.4,0.4-0.5,0.6C155.2,202.8,155.3,203.1,155.5,203.4z"/>
	<path fill="#49A942" d="M160,199.9l-1,0.4c-0.1-0.4-0.1-0.8,0-1.1c0.1-0.3,0.5-0.7,0.9-1s0.8-0.5,1.1-0.5c0.3,0,0.5,0,0.7,0.1
		c0.2,0.1,0.4,0.3,0.7,0.8l0.7,1.1c0.2,0.3,0.4,0.5,0.5,0.7c0.1,0.1,0.3,0.2,0.5,0.4l-1,0.7c-0.1,0-0.2-0.1-0.3-0.2
		c-0.1,0-0.1-0.1-0.1-0.1c-0.1,0.3-0.2,0.5-0.3,0.7c-0.1,0.2-0.3,0.4-0.5,0.5c-0.4,0.3-0.8,0.4-1.1,0.3c-0.4-0.1-0.6-0.2-0.8-0.5
		c-0.1-0.2-0.2-0.4-0.2-0.6c0-0.2,0.1-0.4,0.2-0.7c0.1-0.2,0.3-0.5,0.6-0.7c0.4-0.4,0.7-0.7,0.8-0.9l-0.1-0.1
		c-0.1-0.2-0.3-0.3-0.4-0.3s-0.4,0.1-0.6,0.2c-0.2,0.1-0.3,0.2-0.3,0.4C160,199.5,160,199.7,160,199.9z M161.9,199.7
		c-0.1,0.1-0.3,0.3-0.5,0.5s-0.4,0.4-0.4,0.5c-0.1,0.2-0.1,0.3,0,0.5c0.1,0.1,0.2,0.2,0.4,0.2s0.3,0,0.5-0.1
		c0.2-0.1,0.3-0.3,0.4-0.5c0.1-0.2,0.1-0.3,0-0.5c0-0.1-0.1-0.3-0.3-0.5L161.9,199.7z"/>
</g>
<g>
	<path fill="#49A942" d="M102.4,24l0.8-0.4c0.1,0,0.1-0.1,0.1-0.3c0-0.1,0-0.1-0.1-0.4l-0.6-2.3L105,21c0.1,0,0.1,0,0.2-0.3l0.5-1.1
		l1.8,2c0.2,0.2,0.4,0.3,0.5,0.3c0.2,0,0.3-0.2,0.3-0.4l-1-4.6l1.4,0.8c0.1,0,0.2,0.1,0.2,0.1c0.1,0,0.2-0.1,0.3-0.3l1.4-2.8
		l1.3,2.7c0.2,0.4,0.2,0.4,0.6,0.4l1.5-0.9l-1,4.5c0,0.4,0.1,0.5,0.3,0.5c0.1,0,0.2,0,0.3-0.1l1.9-2.2l0.4,1
		c0.1,0.3,0.3,0.4,0.4,0.4l2.3-0.5l-0.7,2.8c0,0.1,0,0.2,0.1,0.3l0.7,0.4l-3.4,2.8c-0.6,0.5-0.6,0.6-0.6,1l0.5,1.4l-3.8-0.7
		c-0.3,0-0.5,0.1-0.5,0.4l0.2,4h-1l0.1-4c0-0.4-0.2-0.4-0.5-0.4l-3.8,0.7l0.5-1.5c0-0.3,0-0.4-0.6-0.8L102.4,24z"/>
</g>
<g>
	<path d="M179.9,82.1c-0.1,1.3,0.9,2.5,2.3,2.6c7,0.5,14,1,20.9,1.6c1.3,0.1,2.5-0.9,2.6-2.2c0.1-1.3-0.9-2.5-2.2-2.6
		c-6.9-0.6-14-1.2-21-1.6C181.2,79.7,180,80.7,179.9,82.1z"/>
</g>
<g>
	<path d="M38.1,79.8c-8.6,0.6-14.9,1.1-20,1.6c-1.3,0.1-2.3,1.3-2.2,2.6s1.3,2.3,2.6,2.2c5-0.5,11.4-1,19.9-1.6
		c1.3-0.1,2.4-1.2,2.3-2.6C40.6,80.7,39.4,79.7,38.1,79.8z"/>
</g>
<g>
	<g>
		<path fill="#FFFFFF" d="M157.2,98.6c0.1-0.2,0.4,0,0.4,0.1C157.3,98.8,157.3,98.7,157.2,98.6z"/>
		<path fill="#FFFFFF" d="M165.4,101.1c0.3-0.1,1,0.5,0.9,0.8C165.9,101.8,165.8,101.3,165.4,101.1z"/>
		<path fill="#FFFFFF" d="M178.6,113.5c-0.1,0.3-0.2,0.6-0.6,0.7C178,113.8,178.2,113.5,178.6,113.5z"/>
		<path d="M161.4,117.4c0,0.1-0.1,0.2-0.1,0.3c-0.1-0.1-0.3-0.1-0.4-0.1C160.9,117.5,161.1,117.3,161.4,117.4z"/>
		<path d="M130.6,142.9c0.3,1.1,0.6,2.5-0.1,3.3c-0.2,0.2-0.7,0.1-0.7,0.5C128.9,146.1,128.9,142.8,130.6,142.9z"/>
		<path d="M63.1,148.3c0.5,0.2,0.4,0.9,0.7,1.3c0.2,0,0.2-0.1,0.4-0.1c0,0.3-0.1,0.2-0.3,0.1c0.2,0.2,0,0.4-0.1,0.6
			C63.3,150,63.4,148.9,63.1,148.3z"/>
		<path fill="#FFFFFF" d="M93.1,149.5c-0.1-0.2-0.3,0.1-0.4-0.1c0.6-0.3,1,0,0.6,0.6c-0.1,0-0.1-0.2-0.2-0.2c-0.2,0-0.1,0.4,0,0.5
			c-0.2,0.2-0.5-0.1-0.7-0.1C92.7,150,92.8,149.6,93.1,149.5z"/>
		<path fill="#FFFFFF" d="M94.7,150.8c0.2,0,0.3,0.1,0.3,0.3C94.8,151.1,94.7,151,94.7,150.8z"/>
		<path fill="#FFFFFF" d="M95.4,151.2c0,0.2-0.1,0.3-0.3,0.3C95.1,151.4,95.1,151.2,95.4,151.2z"/>
		<path fill="#FFFFFF" d="M97.5,151.8c0.1,0.2,0.3,0.2,0.5,0.1C98,152.1,97.4,152.2,97.5,151.8z"/>
		<path d="M82.4,152.7c0,0.5,0.6,1.7-0.1,2.1c0-0.1,0.1-0.2,0.1-0.3c-0.2,0.2-0.6,0.2-0.8,0.1c0.2-0.9,0.4-1.8,0.9-2.4
			c0.1,0.2-0.2,0.4,0.1,0.5C82.6,152.8,82.4,152.8,82.4,152.7z"/>
		<path fill="#FFFFFF" d="M130.3,152.4c0-0.2,0.4,0,0.3,0.1c-0.1,0-0.1,0.1-0.2,0.1C130.4,152.5,130.4,152.4,130.3,152.4z"/>
		<path d="M141.4,152.8c-0.5,0.2-1.5,0.2-2,0.2C139.7,152.7,140.8,152.6,141.4,152.8z"/>
		<path d="M83.6,153.8c-0.1,0-0.1,0.1-0.1,0.2c-0.3-0.2-0.5-0.4-0.8-0.4c0.6-0.3,1.7,0.1,2.2-0.4c-0.2,0.2-0.3,0.6-0.7,0.4
			C84.2,153.9,83.8,154.1,83.6,153.8z"/>
		<path d="M69.4,153.7c0-0.2,0.5-0.1,0.5,0C69.7,153.9,69.6,153.8,69.4,153.7z"/>
		<path d="M84.1,154c0.2,0,0,0.3,0.1,0.4c-0.1,0-0.2-0.1-0.3-0.1C83.9,154.1,84.1,154.2,84.1,154L84.1,154z"/>
		<path fill="#FFFFFF" d="M98.7,154.6c-0.1-0.1-0.2-0.1-0.2-0.3c0.2,0,0.3,0,0.5-0.1C99,154.4,98.8,154.4,98.7,154.6z"/>
		<path fill="#FFFFFF" d="M100,154.7c-0.1,0.4-0.7,0.1-0.8,0.3c-0.2-0.3-0.5,0-0.6-0.4C99,154.3,99.6,154.4,100,154.7z"/>
		<path d="M68.9,162.7c0.1-0.1,0.1,0,0.1,0.1c0.3-0.2,0.2,0.1,0.1,0.3c-0.1-0.1-0.3-0.1-0.4-0.1C68.7,162.9,68.9,162.9,68.9,162.7z"
			/>
		<path d="M70.8,166.3c0.1-0.2,0.3,0.2,0.3,0.4C70.9,166.7,70.9,166.4,70.8,166.3z"/>
		<path d="M131.2,170.7c0.1-0.1,0.1,0.7,0,0.9C131,171.3,131.3,171,131.2,170.7z"/>
		<path d="M126.9,176.4c0.2,0.1,0.2,0.3,0.2,0.5C126.9,176.9,127,176.6,126.9,176.4z"/>
		<path fill="#FFFFFF" d="M127.2,177.8c0.4,0.1,0.7,0.3,1,0.5C127.9,179,126.8,178.3,127.2,177.8z"/>
		<path d="M61.6,181c0.4-0.1,0.7,0.5,0.4,1.1C61.6,181.9,61.9,181.4,61.6,181z"/>
		<path d="M75.1,181.8c0.1,0,0.1,0.1,0.1,0c0.2,0.2,0.1,0.4,0.2,0.7c0.2,1.1,0.7,2.1,0.5,3C75.6,184.2,75.4,183,75.1,181.8z"/>
		<path d="M129.7,183.3c-0.2-0.1-1,0.5-1.2-0.1C129.1,183.1,129.3,182.8,129.7,183.3z"/>
		<path d="M60.1,183.2c0.1,0.1,0.1,0.2,0.1,0.4C60,183.6,60,183.3,60.1,183.2z"/>
		<path d="M80.8,183.3c0.1,0.2,0.2,0.5,0.2,0.7C80.9,183.9,80.8,183.6,80.8,183.3z"/>
		<path fill="#FFFFFF" d="M138.1,183.5c0,0.3-0.2,0.2-0.4,0.2C137.6,183.5,137.8,183.5,138.1,183.5z"/>
		<path d="M59.7,184.7c0.2-0.2,0.4,0.1,0.3,0.4C59.8,185,59.9,184.8,59.7,184.7z"/>
		<path d="M78.8,188.7c-0.4-0.7-0.7-1.3-1.6-1.5c-0.3-0.1-0.7,0.3-1-0.1c0.3,0.1,0.9,0.1,1-0.4C78.5,186.7,78.8,187.4,78.8,188.7z"
			/>
		<path d="M68.3,186.7c0.1,0,0.1,0,0.2,0c0,0.3,0.3,0.4,0.3,0.7c-0.1,0-0.2-0.1-0.3-0.1C68.8,186.9,68.3,187.1,68.3,186.7z"/>
		<path d="M67.7,187c0.1,0,0.2-0.1,0.3-0.1c0.1,0.4-0.1,0.6,0,0.9c-0.2,0.1-0.5-0.3-0.5,0.1C67.2,187.7,68.1,187.5,67.7,187z"/>
		<path d="M65.9,187c0,0.3-0.1,0.5-0.4,0.4C65.7,187.4,65.6,187,65.9,187z"/>
		<path fill="#FFFFFF" d="M64.5,187.5c-0.1,0.1-0.6,0.1-0.5-0.2C64.1,187.2,64.3,187.5,64.5,187.5z"/>
		<path d="M66.1,187.8c0.1,0,0.2,0,0.4,0C66.5,188.1,66,188.1,66.1,187.8z"/>
		<path d="M66,188.1c-0.3,0-0.3-0.1-0.5,0C65.4,187.9,66,187.8,66,188.1z"/>
		<path d="M83.6,188.3c0.1,0.7,1,0.9,1,1.6c-0.1,0.7-1.9,1.4-2.7,1.5c0.4-0.2,1-0.8,1.3-0.5c0.1-0.3,0.2-0.6,0.3-0.9
			c0.2-0.1,0.4,0,0.7,0c-0.4-0.5-0.9-0.8-1.2-1.5C83.3,188.4,83.3,188.2,83.6,188.3z"/>
		<path d="M159.4,119.3c-0.4-1,0.1-1,0.2-1.7c0.1-0.7-1-1.9-0.1-2.4c0.1-0.1,0.3,0,0.4-0.1c0,0.4,0.4,0.2,0.7,0.5
			c0.2,0.2,0.3,0.7,0.6,0.8c0.5,0.3,1.3-0.2,1.8,0.4c0,0.3,0,0.6,0,0.9c0.7,0.5,1.5,0.1,2.7,0.1c1.6,0,2.5-0.5,3.7-0.7
			c0.9-0.1,1.8-0.3,2.5-0.4c1.2-0.1,2.1,0.5,3,0.4c0.5,0,0.6-0.3,1-0.4c0.6-0.2,1.4-0.4,1.8-1c0.2-0.3,0.1-0.8,0.3-1.1
			c0.1-0.1,0.3-0.3,0.4-0.5c0.2-0.3,0.3-0.5,0.5-0.7c0.1-0.1,0-0.1,0-0.1c-0.1,0.1,0.4-0.3,0.2-0.4c-0.4-0.2-0.7-1.2-1.7-0.8
			c-0.2-0.5-0.9-0.2-1.1-0.4c0.7-0.3,1.7-0.3,2.4,0.1c-0.3-0.8-1.3-1-2-1.5c-0.6-0.4-1.4-1.1-2.1-1.7c-0.7-0.6-1-0.7-1.4-1.3
			c-0.1-0.2-0.8-0.7-1.5-1.1c-0.8-0.3-0.9-0.4-1.5-0.9c-0.2-0.2-0.3-0.5-0.5-0.7c-0.5-0.4-1.3-0.4-1.7-0.9c-0.2-0.2-0.2-0.6-0.4-0.8
			c-0.1-0.1-0.3,0-0.4-0.1c-0.4-0.3-0.6-0.7-1-1c0.4,0.2,0.2-0.1,0.3-0.2c0.3,0.1,0.5,0.7,0.7,0.5c-0.3-0.5-0.7-0.9-1.2-1.2
			c0.1-1.5-1.3-1.7-2.4-1.4c0.6,0.7,2.3,1.6,2.3,2.6c-0.4-0.4-1.1-1-1.5-1.3c-0.2-0.1-0.4-0.4-0.6-0.5c-0.8-0.5-1.9-0.7-2.8-1.2
			c-0.7-0.4-1.4-1.1-2.1-1.3c-0.2-0.1-0.4,0.1-0.6-0.1c-0.7-0.6-0.4-2.4,0.5-2.7c-0.8-0.4-1.3,0.2-1.8,0.6c-0.6,0.5-1.3,1.1-1.3,2.1
			c0,0.2,0.1,0.4,0.1,0.6c-0.2,0.8-1.1,1.4-1.9,1.9c-1,0.7-2.1,1.1-2.7,2.1c0.1-0.3,0,0.2,0,0c-1,0.4-1.6,1.2-2.4,1.8
			c-0.5,0.4-1,0.5-1.6,0.8c-1.9,0.9-3.7,2.2-5.8,2.6c-1.9,0.4-3.7,1.2-6,1.3c-0.3,0.5-0.7,0.8-1,1.3c-0.5-0.1-1.2-0.2-1.4,0.2
			c-0.3,0.5,0.4,1.5,0.4,2.4c0,0.8,0.3,1.8,0.4,2.1c-0.6-0.2-0.8-0.7-1.4-0.8c-0.2,0.1,0.1,0.7-0.2,0.7c-0.7-1-0.3-2.3-1-3
			c-0.2-0.2-0.4-0.2-0.6-0.3c-0.7-0.7-0.6-1.5-0.9-2c0.1-0.2-0.1-0.3,0-0.6c-1.4,0.1-2.4,0.4-3.9,0.6c-1.1,0.1-2.3-0.2-3.5-0.1
			c-0.9,0.1-1.7,0.6-2.7,0.7c-0.6,0-1.3-0.1-1.9-0.1s-1.1,0.4-1.7,0.4c-0.9,0.1-1.8-0.1-2.7-0.1c-0.6,0-1.2,0.3-1.8,0.4
			c-0.9,0.1-1.8-0.1-2.7-0.1c-1.1,0.1-2.2,0.3-3.3,0.4c-1.5,0.2-3,0-4.5,0.1c-2.1,0.2-4.2,0.2-6.4,0.3c-0.1,0.3-0.7,0.5-0.4,1
			c-0.9,0.6-1.3,1.1-1.9,1.9c0.1,0,0.3,0,0.3,0.1c-0.3,0.2-0.3,0.5-0.5,0.7c0.7,1.4-0.9,1.6-1.4,2.4c-0.2,0.4,0.1,0.7-0.4,0.9
			c-0.4-0.5-0.3-1.8-0.2-2.4c-0.3-0.1-0.5-0.9-0.6-1.3c-1.4-0.2-2.4-1.2-3.6-0.9c-0.3,0.1-0.6,0.4-1,0.5c-0.2,0.1-0.4,0-0.7,0.1
			c-0.3,0.1-0.7,0.3-1,0.4c-0.1,0-0.2-0.1-0.4-0.1c-0.2,0.1-0.4,0.3-0.6,0.4c-0.3,0.1-0.6,0-1,0.1c-0.3,0.1-0.5,0.3-0.7,0.3
			c-0.3,0-0.6-0.2-0.8-0.1c0,0-0.4,0.3-0.5,0.2c-0.4-0.1-1.4,0.1-1.6,0.4c-1.2,0.1-1.8,0.9-2.7,1.3l-0.1,0.1
			c-0.7,0.1-1.1,0.5-1.6,0.7c-0.2,0.1-0.5-0.1-0.7,0c-0.7,0.2-1.4,1-1.6,1.4c-1.1-0.5-2.4,0-3.3-0.5c0.4-0.3-0.1-1.1,0.4-1.1
			c-0.1-0.6-0.2-1.2-0.7-1.5c-0.7,0.1-1.2-0.3-1.6-0.3c-1.2-0.1-2.5,0.7-3.4,0.8c-0.7,0.1-1.1-0.4-1.5-0.4c-0.7,0-0.9,0.8-1.3,1.3
			c-0.9,1.2-2.3,3.2-2.1,5c0,0.2,0.2,0.3,0.2,0.5c0.1,0.8-0.3,1.8-0.3,2.7c0.1,1.9,0.6,3.8,0.7,5.6c0.1,1,0,2,0.6,2.7
			c0.7-0.4,0.7-1.5,1.4-1.8c0.2,2.4,0.7,4.6,1.2,7c0.4,1.7,0.5,3.4,1,5c-0.1-0.9-0.1-1.7,0-2.5c0-0.3,0.1-0.9,0.2-1.2
			c0-0.1,0.2-0.2,0.3-0.3c0.6-1,0.8-2.9,0.7-4.1c0.6-0.5,0.2-1.7-0.1-2.1c0.4,0,0.3-0.4,0.5-0.5c1.6,3.6,3.1,7.7,4,11.7
			c0.5,0.2,0.2,0.7,0.4,0.9c0.1,0.2,0-0.5,0.3-0.4c0.4,0.5,0.4,1.4,1.3,1.5c0.4-1.3-0.6-2.5-0.6-3.7c0.2,0.2,0.4-0.2,0.8-0.1
			c1.1-1,1.8-2.6,1.9-4.4c-0.7-0.4-0.7-1.5-1.5-1.8c0.3-1.4-0.5-2.2-0.8-3.2c-0.3-0.1-0.4,0.3-0.5,0.1c0.1-0.4,0.3-0.8,0.5-1
			c1,0.2,0.9-1.5,1.5-2.2c0.5-0.6,1.2-0.3,1.2-1.1c0.1,0.5,0.5,0.6,0.8,0.9c0.6,0.5,0.6,1,1.3,0.6c0.3,0.1,0.3,0.4,0.4,0.6
			c0.4-0.1,0.4,0.2,0.8,0.1c0.3,0.7,0.7,1.2,0.9,2.1c0.3-0.1,0.7,0.4,1,0.4s0.6-0.5,0.8-0.5c0.8-0.1,1.8,1.4,2.6,1.3
			c0.3,0,0.5-0.4,0.9-0.5c0.3-0.1,1.2-0.4,1.2-0.4c0.3,0,0.4,0.5,0.6,0.7c0.4,0.3,0.8,0.3,0.9,0.7c0.3-0.5,1.1-0.4,1.4-0.8
			c0.1-0.1,0-0.4,0.1-0.5c0.2-0.5,1-0.8,1-1.4c0.6,0,1.5,0.2,2.2-0.1c0.3-0.2,0.4-0.6,0.8-0.5c0,0.9,0,1.8,0.3,2.3
			c0.4,0.1,0.6,0,0.8,0.1c0.8,0.6-0.2,1.3-0.4,1.7c0,0.1,0,0.4,0,0.6c-0.1,0.5-0.5,1-0.6,1.6c-0.1,0.7,0,1.6,0.3,1.9
			c0.5,0.5,1.1-0.1,1.8-0.1c0.1,0,0.3,0.1,0.4,0.1c0.7-0.2,0.7-0.7,1.1-1c0.6-0.3,1,0,1.7,0.1c0.6-0.4,1.4-0.9,1.8-1.7
			c0.2-0.4,0-0.6,0.3-0.9c0.3-0.2,0.6,0,0.9-0.2c0,0.6,0,1-0.1,1.6c0.4,0.4,0.8,0.4,1.3,0.7c0.5-0.4,0.8-0.9,1.5-1.1
			c-0.1,0.5,0.4,0.8,0.5,1.3c0.2,0.7-0.1,1.5,0.7,1.6c0,0.9,0.2,1.6-0.1,2.7c0.3,0.2,0.6,0.4,0.7,0.8c1.4,0.2,1.9-0.7,2.6-1.3
			c-0.1,0.3,0,0.4,0.2,0.5c0.3-0.2,0.7-0.3,1-0.5c0.2,0.4,0.5,0.4,0.5,0.7s-0.4,0.5-0.4,1c-0.1,0.4,0.3,0.7,0.1,1
			c0.7,0.4,1.3,0.9,1.8,1.5c1,0,1.8-0.3,2.3-0.9c0.4-0.6,0.3-1.5,0.8-1.8c0.2-0.1,0.5,0,0.7-0.1c1.7-0.4,2-2.1,3.1-3.3
			c0.2,0,0.1,0.4,0.4,0.3c0.8-0.2,0.9-1.2,1.6-1.6c0.1,0.7-0.3,1.7,0.1,2.4c0.4,0,0.5-0.3,0.9-0.3c0.2,0.3-0.1,0.8,0.4,1
			c0.4,0.1,0.5-0.3,0.9-0.4c0.3-0.1,0.8,0.3,1,0c0,0.3,0,0.3,0.2,0.5c0.3-0.2,0.5,0.2,0.8,0c0.3-0.4,0.4-0.9,1-1.1
			c0.2,0.1,0.1,0.4,0.4,0.4c0.5-0.6,1-1.3,2.1-1.3c0-0.3,0.4-0.5,0.5-0.9c0.2-0.4,0.7-1.9,1-2c0.3-0.1,0.7,0.7,1,0.2
			c0,0.5,0.4,0.2,0.7,0.4c0.5,0.5,0.4,1.9,1.1,1.4c0.4,0.7,1.3,0.8,1.8,1.3c0.4-0.2,0.8-0.5,1.2-0.7c0.2,0.1,0.5,0.3,0.7,0.2
			c0.8-0.1,0.6-1.1,0.8-1.9c0.3-0.9,1-1.5,1.3-1.9c0.1,1.5,0.7,2.6,1.5,3.5c1,0,1.2,0.6,2.2,0.4c-0.2,0.5,0.3,0.8,0.3,1.3
			c0,0.3-0.3,0.6-0.3,1c0,0.5,0.2,0.9,0.2,1.5c0.1,0.7,0,1.2,0.7,1.2c0.3-0.9,0.5-2.2,0.8-3c0.3-0.7,0.7-0.8,1.2-1.2
			c0.4-0.3,0.5-0.8,1-1c0,0.2-0.1,0.5,0.1,0.5c0.2-0.7,0.9-0.9,1.2-1.5c0.1-0.1,0-0.4,0.1-0.5c0.1-0.2,0.4-0.3,0.5-0.4
			c0.7-1,1-2.9,1.1-4.2s-0.2-3.1,0.9-3.5c-0.1,0.4,0.2,0.7,0.2,1.1c0.1,1.1-0.6,2.2-0.4,2.9c0.4,0,0.1-0.7,0.5-0.7
			c0.1,0.2,0.5,0.3,0.7,0.4c0.4-0.4,0.7-0.8,1.3-1c0.5-0.7,1.3-0.9,1.8-1.6c0.7,0.1,0.3,0.8-0.1,1c0.2,0.8-0.6,2.9-0.3,3.7
			c0.6-1.6,1.5-3.9,2.1-5.4c0.7-1.8,1.9-3.7,2.9-5.3c0.5-0.8,1-1.7,1.4-2.7c0.5-0.9,1.1-1.8,1.5-2.7c0.4-0.9,0.4-1.9,1.2-2.4
			C159.4,118.8,159.8,118.9,159.4,119.3z M160.8,117.7c0.2,0-1.1,0.8-1,0.8c0-0.1,1.9-0.8,1.9-0.9
			C161.5,117.5,160.9,117.5,160.8,117.7z M88.7,146.4c0.2-1.1-2.5-1.2-2.1-0.4c0.3,0.1,0.7-0.3,0.8-0.2c0,0-0.2,0.1-0.1,0.1
			c0.4,0.2,0.6,0.2,0.7,0.6c0.2-0.1,0.2-0.3,0.2-0.4c0.4-0.1,0.2,0.6-0.1,0.4c0,0.2,0.1,0.3,0.3,0.3
			C88.3,146.5,88.7,146.5,88.7,146.4z M127.7,148.2c-0.1-0.4-0.8,0-1.3-0.3l0.1-0.1c-0.2-0.1-0.5,0-0.7,0c0-0.1,0-0.2-0.1-0.3
			c0,0.1,0,0.3-0.1,0.3c-0.2-0.1-0.2-0.3-0.4-0.3c0-0.1,0.2-0.1,0.1-0.2c-0.1-0.1-0.2-0.1-0.4-0.1c0,0.3-0.4,0.3-0.7,0.1
			c-0.2,0.3-0.5,0.2-1.1,0.4c-0.1,0.4-0.2,0.2-0.4,0.3c0.1,0,0.2,0.1,0.2,0.2c-0.6,0-1.2,0.2-1.7,0.8c-0.1-0.2,0.1-0.2,0.2-0.3
			c-0.3-0.1-0.4,0.4-0.5,0.1c0.2-0.4,0.8-0.3,1.2-0.6c-0.1,0.1,0-0.3,0.1-0.3c-0.3-0.1-0.3,0.2-0.5,0.3c-0.1,0-0.5-0.3-0.5-0.3
			c0.1,0-0.3,0.4-0.4,0.1c0,0.2-0.1,0.2-0.2,0.2c0-0.1,0-0.2-0.1-0.2c-0.7,0.3-0.5,0.5-1.1,0.4c-0.1,0.3-0.5,0.3-0.1,0.4
			c-0.1,0.1-0.2,0.2-0.4,0.1c0.1,0.2-0.1,0.3-0.1,0.4c-0.1-0.1-0.1-0.2-0.2,0c0.2,0.2-0.1,0.1,0.2,0.4c-0.4,0.3-0.2-0.4-0.7-0.2
			c0.3,0,0,0.1,0.1,0.2c-0.6-0.1-0.7,0.3-0.9,0.6c-0.3,0.1-0.3-0.2-0.4-0.2c-0.1,0.3,0.1,0.3,0.1,0.6c-0.3-0.1-0.6,0.1-0.4-0.2
			c-0.3,0.2-0.3,0.1-0.4,0.4c-0.1,0,0-0.2-0.1-0.2c0.1,0.3-0.8,0.1-0.6,0.6c0-0.1,0.3,0,0.3,0.1c-0.1,0.4-0.9,0.5-1.3,0.8
			c-0.2,0.1-0.1,0.3-0.3,0.4c-0.4,0.2-1,0.1-1.5,0.1c-0.3,0.1-0.6,0.3-0.8,0.2c0,0,0.2,0.3,0.1,0.4c-0.2-0.1-0.8,0.2-0.7,0.4
			c-0.4,0.1-0.6-0.1-0.7-0.1c0.3-0.1-0.2,0.4-0.1,0.1c-0.1,0.2,0.2,0.3,0,0.3c0-0.2-0.3-0.5-0.4-0.3c0.1,0,0.2,0.1,0.1,0.2
			c-0.2,0.1-0.2,0-0.5,0.1c-0.2-1,0.8-0.6,1-1c-0.1,0-0.1-0.1-0.1-0.1c-0.4,0.1-0.4-0.1-0.7,0.1c-0.8-0.3-1.1-0.9-2-1
			c0-0.1,0.1-0.2,0-0.2c-1.8,0.3-4.2-1.1-5.5-0.9c0.1,0.1,0.3,0.1,0.2,0.3c-0.1,0-0.2,0-0.2,0.1c-0.1-0.1,0.2-0.2,0-0.3
			c0,0.5-0.2-0.1-0.3-0.1c0,0-0.1,0.3-0.2,0.3s-0.3-0.2-0.4-0.1c0-0.1,0.2-0.1,0.2-0.2c-0.5-0.1-0.8,0.3-1.1,0.4c0,0,0-0.2-0.1-0.1
			c-0.2,0.1-0.3,0.8-0.7,0.2c-0.1,0.5-0.6,0-0.8,0.1c0.1,0,0.2,0,0.1,0.2c-0.1-0.1-0.3-0.1-0.4-0.2c0,0.5-1,0.3-1.3,0.2
			c-0.1,0.2-0.1,0.2-0.1,0.4c-0.3-0.1-0.5-0.2-0.7,0c0.2,0.1,0.2,0,0.3,0.1c-0.5,0.3-1.2,0.3-1.6-0.1c-0.1,0,0.1,0.3,0.1,0.4
			c-0.3-0.1-0.2,0.2-0.3,0.2c0.1-0.3-0.1-0.3-0.2-0.5c0.3-0.4,0.8,0.1,1.3-0.1c-0.2-0.1-0.2-0.3-0.5-0.1c-0.3-0.6-0.5-0.6-0.7-1.1
			c0,0.2-0.3,0-0.4,0.1c0-0.3-0.3-0.4-0.4-0.5c-0.3-0.4-1.3-1-1.3-1.3c-1-0.6-1.9-1.7-3-2.1c0.1,0,0.1,0.1,0,0.2
			c-0.5-0.3-0.3,0.1-0.7-0.1c0,0.2,0.2,0.3-0.1,0.4c0-0.2-0.2-0.2-0.4-0.2c-0.1,0.4,0.2,0.3,0.3,0.5c-0.3-0.1-0.4,0-0.7,0
			c0.1,0.4,0.7,0.9,0.4,1.3c0.3,0,0.2,0.3,0.4,0.4c-0.1,0.1-0.1,0.3-0.2,0.4c0.2,0.2,0.8,0,0.9,0.2c-0.3-0.1,0.2,0.3,0.4,0.4
			c0-0.3,0.4-0.2,0.4-0.4c-0.5-0.7-1.3-0.7-1.7-1.5c0.1,0,0.2,0.1,0.2,0c-0.2-0.2-0.4-0.3-0.4-0.7c0.3,0.1,0.4-0.2,0.4-0.1
			c-0.3,0.6,0.5,0.3,0.1,0.9c0.4,0.1,0.6,0.6,0.8,0.4c0.1,0.4,0.4,0.7,0.9,0.8c0-0.3-0.3-0.2-0.2-0.4c0.2,0.2,0.4,0.1,0.6-0.1
			c0.4,0.4,0.7,0.9-0.1,0.8c0,0.5-0.5,0.1-0.8,0.4c0.3,0.1,0.6,0.2,0.7,0.4c-0.1,0-0.3,0-0.3,0.1c0.2,0.1,0.3-0.1,0.4,0.1
			c-0.1,0.4-0.5,1.1-0.5,1.6c-0.4-0.1-0.3,0.1-0.4-0.3c0,0.3-1.2,0.2-0.7-0.1c-0.7,0.3-1,1.5-1.9,1.4c0,0.2,0.1,0.2,0.1,0.2
			c-0.1,0.2-0.3,0-0.4,0.1c0.2,0.1-0.2,0.4,0,0.5c-0.2,0.1-0.3,0.3-0.4,0.3c0.1,0.1,0.4,0.2,0.4,0.4c-0.3-0.1-0.9,0-0.6-0.3
			c-0.3-0.1-0.2,0.3-0.5,0.2c0-0.4-0.3-0.1-0.5-0.2c-0.1,0.2-0.1,0.4-0.3,0.4c-1.3-0.1-2.3,1.2-3,0.1c-0.4,0.4-1-0.1-1.3-0.3
			c-0.2,0.6-0.5,1.7-0.7,2.8c-0.2,0.8-0.6,2.6-0.5,3c0.2,0.9,1,0,1.1-0.3c0.2-0.7,0.1-1.4,0.7-1.8c0.5-0.3,1.3-0.3,1.8-0.5
			c1-0.3,1.9-0.9,3-1.4c0.8-0.4,2.1-1.2,2.6-1.8c0.2-0.3,0.5-0.7,1-0.6c1.3,0.2,3.5,1.4,6,1.8c0.5,0.1,1,0.1,1.5,0.1
			c1.1,0.1,2.7,0.6,3.6,0.4c1.2-0.3,2.3-1.1,3.4-1.3c0.6-0.1,1.2,0,1.8,0c1.2,0,2.4-0.4,3.4-0.7c3.3-1,7.1-2.8,10.6-3.8
			c0.8-0.2,1.6-0.5,2.4-0.6c0.7-0.1,3.1-0.7,3.5-0.2c0.3,0.4,0.4,3.3,0.4,4.2c0.1,2.1,0.6,4.3,0.5,6.2c-0.1,2,0,3.7,0.6,5
			c0.4-0.8-0.2-1.2-0.2-1.6c-0.1-0.9,0.2-0.9,0.5-1.2c0.1-0.1,0.3-0.5,0.5-0.7c0.6-0.4,0.1-0.8,0.1-1.4c0-0.3,0.4-0.4,0.1-0.7
			c0.2-0.1,0.4,0,0.6-0.2c0-0.7,0.3-0.7,0.3-1.5c-0.5-0.4-0.1-1.5-1-1.8c0.8-0.7-0.6-1.5-1.3-1.2c0-0.2-0.2-0.2-0.1-0.4
			c0.2-0.1,0.6-0.1,0.5-0.2c-0.1-0.2-0.2,0.2-0.4,0c0.1-0.4,0.4-0.5,0.7-0.8c-0.2,0-0.4,0.2-0.4-0.1c0.6-0.1,1.3-0.4,1.9-0.4
			c-0.1,0-0.2-0.1-0.2-0.1c0.4,0.1,0.3-0.3,0.7-0.4c0.1,0.7,0,1.6,0.3,2.4c0.1-3.8-0.6-6.7-2.1-8.9c-0.1,0.8-0.6,1.5-0.1,1.9
			c-0.4-0.1-0.7,0.1-0.7-0.1C127.9,148.1,127.9,148.2,127.7,148.2z M69.1,158c-0.1,0.1-0.3,0.3-0.2,0.4c0.3-0.1,0.6,0.6,0.8,0.2
			c-0.1,0.3-0.3,0.4-0.4,0.2c0,0.3,0.2,0.3-0.1,0.4c0.1,0.1,0.2,0.1,0.3,0.2c-0.2-0.1-0.3-0.1-0.4,0.1c0.3,0,0.3-0.1,0.5,0.1
			c-0.1,0.1-0.3,0.1-0.3,0.3c0.4,0,0,0.4,0.2,0.6c0-0.1,0.1-0.1,0.1,0c-0.1,0.1-0.3,0-0.4,0c-0.1,0.3,0,0.5,0.2,0.3
			c-0.1,0-0.2,0-0.1-0.1c0.3,0.3,0.3,0.4,0.1,0.7c-0.2,0-0.1-0.4-0.4-0.4c0,0.4-0.2,0.2,0,0.7c-0.2,0-0.1-0.2-0.2-0.2
			c-0.2,0.3,0.1,0.2,0.2,0.4c-0.2,0-0.3,0.5-0.4,0.4c0.5-0.2,0.5,0.2,0.4,0.4c0.2-0.8,1.3-2.2,1.5-3.5c0.1-0.5,0.3-1.2,0.5-1.3
			c0.1,0,0.5,0.3,0.5,0.2c0.5-4.5-1.3-8.5-3-11.2c-0.1,0.7,0.7,1.1,0.7,1.5c0,0.1-0.2,0.2,0.1,0.2c-0.2,0.4,0.6,1,0.4,1.7
			c0.1,0.2,0.2-0.1,0.2,0.1c0.1,1.1,0.7,2.7,0.6,4.1c-0.3,0.2-0.6-0.3-0.4-0.6c-0.4-0.1-0.5,0.1-0.8,0.1c-0.1-0.4-0.6-0.6-0.9-1
			c-0.5-0.5-0.8-1.5-1.6-1.5c0.2,0.2-0.1,0.8,0.3,0.6c-0.1-0.1-0.2-0.4,0-0.4c0.1,0.2,0.1,0.5,0,0.7c0.4-0.1,0.2,0.1,0.2,0.1
			c0.1,0.3,0.9,0.9,0.9,1.3c-0.9-0.8-1.6-1.7-2.2-2.8c-0.5-0.8-0.8-1.8-1.1-2.4c0,0-0.6-0.7-0.2-0.1c-0.1,0.2-0.1,0.2-0.3,0.3
			c0.2,0,0.2,0.1,0.2,0.2c-0.1,0.1-0.4,0-0.4,0.2c0.4,0.1,0.6,0.2,0.9,0.1c-0.1,0.2,0,0.2,0.1,0.4c-0.7-0.1-0.8,0-0.8,0.5
			c0.2,0,0.2-0.1,0.4-0.2c0,0.4-0.1,0.3,0,0.8c0.4,0.1,0.4-0.2,0.7-0.3c-0.4,0.3,0.1,0.7-0.2,1c0.3,0.1,0.3,0.3,0.5,0.3
			c0,0.1-0.1,0.1-0.2,0.1c0,0.1-0.1,0.4,0.1,0.4c0-0.2,0.1-0.2,0.2-0.2c0.2,0.2-0.1,0.1-0.1,0.4c0.3,0.2,0.8,0.2,0.6,0.6
			c0.1,0.2,0.2-0.1,0.3,0.1c-0.3,0.1,0,0.4,0.1,0.7c0.1,0,0.1-0.1,0.2-0.1c0,0.3,0.4,0.3,0.5,0.4c-0.4,0.2,0.1,0.5,0,0.9
			c-0.2,0.1-0.3-0.3-0.4-0.1c0.6,0.7,1.4,1.3,1.9,2.1c-0.1,0.1-0.3,0.1-0.3,0.3c0.1,0,0.2,0,0.2,0.1c-0.1,0.1-0.3,0-0.2,0.2
			c0.2,0,0.2-0.1,0.3,0.1 M63.9,150.3c0-0.2,0.3-0.4,0.1-0.6c0.2,0,0.3,0.1,0.3-0.1c-0.2-0.1-0.2,0.1-0.4,0.1
			c-0.3-0.3-0.3-1.1-0.7-1.3C63.4,148.9,63.3,150,63.9,150.3z M86,151.5c0.2,0,0.8-0.1,0.7-0.4C86.5,151.2,85.8,151.5,86,151.5z
			 M109.4,151.7c0.2,0.2,0.4,0.1,0.3,0.4c0.2,0.1,0.3,0,0.7,0c0.1-0.3-0.2,0-0.2-0.2c0.8,0.1,1.2-0.1,1.7-0.4
			c-0.5-0.5-0.9,0.2-1.2,0.1c0.1,0,0.2,0.2,0.1,0.2c-0.2-0.2-0.8-0.2-1,0C109.6,151.8,109.4,151.5,109.4,151.7z M82.6,152.7
			c-0.3-0.1-0.1-0.3-0.1-0.5c-0.5,0.6-0.6,1.6-0.9,2.4c0.2,0.1,0.6,0,0.8-0.1c0,0.1-0.1,0.2-0.1,0.3c0.7-0.4,0.1-1.6,0.1-2.1
			C82.4,152.8,82.6,152.8,82.6,152.7z M139.4,153c0.5,0,1.5-0.1,2-0.2C140.8,152.6,139.7,152.7,139.4,153z M84.2,153.6
			c0.3,0.2,0.5-0.2,0.7-0.4c-0.5,0.5-1.6,0.2-2.2,0.4c0.3,0.1,0.6,0.3,0.8,0.4c0-0.1,0.1-0.2,0.1-0.2
			C83.8,154.1,84.2,153.9,84.2,153.6z M84.1,154.1c0,0.1-0.2,0.1-0.2,0.2c0.1,0,0.2,0.1,0.3,0.1C84.2,154.3,84.3,154,84.1,154.1
			L84.1,154.1z M84.4,154.8c-0.2-0.1,0.2-0.2,0-0.4c-0.1,0.3-0.6,0-0.7,0.2C83.9,154.6,84.2,154.7,84.4,154.8z M68.7,163.1
			c0.2,0,0.4,0,0.4,0.1c0.1-0.2,0.2-0.4-0.1-0.3c0-0.1,0-0.3-0.1-0.1C68.9,162.9,68.7,162.9,68.7,163.1z M132,166
			c0.1,0.3,0.1,0.7,0.3,1C132.3,166.6,132.2,166.2,132,166z M71.1,166.8c0-0.2-0.2-0.6-0.3-0.4C70.9,166.4,70.9,166.7,71.1,166.8z
			 M131.7,168.5c0.1,0.1-0.4,0.9-0.3,1.2C131.4,169.6,131.8,168.6,131.7,168.5z M131.2,171.6c0.1-0.1,0.1-1,0-0.9
			C131.3,171,131,171.3,131.2,171.6z M127.1,176.9c0-0.3-0.1-0.4-0.2-0.5C127,176.6,126.9,176.9,127.1,176.9z M130.3,182.1
			c-0.2-0.2-0.4-0.3-0.7-0.1c-0.1-0.3-0.4-0.3-0.3-0.7c-0.4,0.2-0.7,0.1-1,0.4c0.2-0.3-0.1-0.3-0.1-0.4c-0.2-0.6,0.3-1.3,0.6-1.8
			c-0.3-0.6,0.1-1,0.1-1.6c-0.2,0-0.6-0.1-0.7-0.4c0,0.1-0.1,0.2-0.1,0.2c-0.1-0.7-0.8-0.5-1.1-0.2c-0.2-0.4-0.6-0.6-0.8-0.9
			c-0.3,0.5,0.2,0.7,0.4,0.9c-0.2,0.3,0,0.4,0.1,0.7c0.6,0.1,1,0.3,1.1,0.8c0.1,0.5-0.6,0.8-0.7,1.4c-0.2,1,0.5,1.6,0.9,2.4
			c0.3,0.1,0.1-0.3,0.4-0.2c0,0.1-0.2,0.3,0.1,0.2c0.1-0.1-0.1-0.4,0.2-0.5c0.3,0.2,0.5,0.5,0.9,0.5c0-0.1,0.1-0.2,0.2-0.2
			c0.2,0,0.2,0.3,0.5,0.3c0.2-0.1-0.1-0.2,0.1-0.3c0.1,0,0.1,0.1,0.1,0.1c-0.1,0.2-0.3,0.3-0.4,0.5c0.2,0.2,0.5,0.2,0.4-0.1
			c0.9,0.6,3,0.6,4.4,0.4c-0.2-0.7-1.2-1.5-1.7-2.3c-0.2-0.4-0.4-1.4-1.1-1c0.4,0.8,0.2,2.3-1,1.6c-0.2,0.1-0.2,0.3-0.4,0.3
			C130.5,182.2,130.4,182.2,130.3,182.1c0.1-0.2,0.3-0.1,0.2-0.3C130.2,181.9,130.4,182,130.3,182.1z M133.6,179.1
			c-0.2,0.1,0.4,0.4,0,0.5c-0.3-0.6-0.8-0.1-1.2-0.6c0.3,0,0.4-0.1,0.5-0.2c-0.2,0.2,0.1,0.3,0.2,0.1c-0.2-0.2-0.3-0.3-0.7-0.3
			c-0.1,0.3-0.2,0.6-0.1,0.9c1.3-0.4,0.6,1.3,0,0.2c0,0.8,1,0.8,1.4,0.4c0.5,0.1,0.4,0.9,0.7,1.1C134.8,180.3,134,179.8,133.6,179.1
			z M62,182.1c0.2-0.6,0-1.2-0.4-1.1C61.9,181.4,61.6,181.9,62,182.1z M61.4,181.8c-0.1,0.5,0.1,0.8,0.1,1.3
			c0.4,0.1,0.5,0.7,0.1,0.9c-0.1,0-0.1-0.2-0.4-0.1c0,0.2,0,0.4,0,0.7c0.6,0.4,1.4,0.6,1.8,1.6c0.3,0.8,0.4,2.3,1.2,1.8
			c0.3,0.4,1.1,0.2,1-0.5c-0.3-0.1-0.1,0.4-0.4,0.3c-0.1-0.3-0.2-0.3-0.4-0.4c0.5-0.1,0.1-1,0.5-1.1c-0.4-0.3-0.5-0.8-0.5-1.4
			c-0.4-0.3-0.4-0.1-0.9,0.2c-0.7,0.5-1,0.5-1.3-0.5c0.1-0.2,0.4,0.1,0.4-0.1c-0.3-0.4-0.9-0.4-1-0.8c0.4-0.1,0.4-0.4,0.5-0.7
			c-0.4-0.1-0.3-0.7-0.7-0.8c-0.1,0.2,0.1,0.3-0.1,0.4C61.6,182.2,61.6,182,61.4,181.8z M76.1,186.1c0.2-0.8-0.5-2.6-0.7-3.7
			c0-0.2,0.1-0.6-0.2-0.8c0,0.1-0.2,0.2-0.3,0.2C75.3,183,75.8,185,76.1,186.1z M59.9,183.3c0-0.4,0.2-0.6-0.2-1
			C59.4,182.6,59.7,183.2,59.9,183.3z M136.5,183.7c-0.7-0.2-1.3-0.8-1.8-1.3C134.8,183.4,135.8,183.8,136.5,183.7z M128.5,183.1
			c0.1,0.6,0.9,0.1,1.2,0.1C129.3,182.8,129.1,183.1,128.5,183.1z M140.9,183.3c-0.3-0.1-0.3,0.2-0.5-0.1c-0.1,0.4,0.6,0.2,0.8,0.2
			c-0.1-0.1-0.5-0.5-0.4-0.4C140.8,183.1,140.9,183.2,140.9,183.3z M138.4,183.3c-0.1,0-0.1-0.1-0.1-0.1c-0.8,0.1-1,0.4-1.6,0.5
			c0.3,0.4,1.7,0.4,1.9,0c0.1,0,0,0.2,0.1,0.2c0.4-0.3,1.3-0.1,1.7-0.4c-1-0.1-1.7,0.2-2.4-0.1C138.1,183.1,138.3,183.4,138.4,183.3
			z M60.3,183.6c0-0.2,0-0.4-0.1-0.4C60,183.3,60,183.6,60.3,183.6z M81,184.1c0-0.3-0.1-0.6-0.2-0.7
			C80.8,183.6,80.9,183.9,81,184.1z M67.6,185c-0.1-0.5-0.5-1.3-0.7-1.4C66,183.3,67.3,184.7,67.6,185z M60,185.1
			c0.1-0.2-0.1-0.6-0.3-0.4C59.9,184.8,59.8,185,60,185.1z M76.2,186.8c-0.1-0.2-0.3-0.4-0.1-0.7C75.5,186.1,76.1,187,76.2,186.8z
			 M77.2,186.6c-0.1,0.5-0.7,0.5-1,0.4c0.2,0.4,0.6,0.1,1,0.1c0.9,0.2,1.4,1.9,1.8,2.6C79,188.5,78.5,186.7,77.2,186.6z M68.5,187.3
			c0.1,0,0.2,0.1,0.3,0.1c0-0.3-0.3-0.4-0.3-0.7c-0.1,0-0.1,0-0.2,0C68.3,187.1,68.8,186.9,68.5,187.3z M67.5,187.9
			c0-0.3,0.3,0,0.5-0.1c-0.1-0.3,0.1-0.5,0-0.9c-0.1,0-0.2,0.1-0.3,0.1C68.1,187.5,67.2,187.7,67.5,187.9z M65.4,187.5
			c0.3,0,0.4-0.2,0.4-0.4C65.6,187,65.7,187.4,65.4,187.5z M66.5,187.8c-0.1,0-0.2,0-0.4,0C66,188.1,66.5,188.1,66.5,187.8z
			 M65.4,188.1c0.2-0.1,0.2,0,0.5,0C66,187.8,65.4,187.9,65.4,188.1z M83.2,188.3c0.2,0.6,0.7,1.1,1.1,1.6c-0.4,0-0.5-0.1-0.7,0
			c-0.1,0.3-0.2,0.6-0.3,0.9c-0.4-0.2-0.9,0.3-1.3,0.5c0.8,0,2.7-0.8,2.7-1.5c0.1-0.6-1-1-1.1-1.7C83.2,188.1,83.4,188.3,83.2,188.3
			z M79,190.4c0.2,0.1,0.1-0.2,0.3-0.1c-0.1,0.5,0.1,0.5,0.1,0.7c0.7,0.1,1.2,0.5,2.1,0.4c0.4-0.5-0.1-0.4,0.3-0.8
			c-0.2,0-0.2,0.1-0.4,0.1c0-0.1,0.1-0.2,0.1-0.3c-0.7,0.3-1.1,0.1-1.4,0.3c0-0.1,0-0.2,0.1-0.2c-0.3-0.1-0.4,0.3-0.5,0.1
			c0-0.2,0.2-0.3,0.3-0.4c-0.6,0.3-0.9-0.6-1.3-0.4C78.8,189.8,78.9,190.1,79,190.4z"/>
		<path fill="#FFFFFF" d="M166.5,102.6c0.2,0.1,0.2,0.2,0.1,0.4c0.4,0.1,0.7,0.6,1.3,0.8c-0.8-0.1-1.9-0.5-2-1.5
			c0.3,0.1,0.5,0.4,0.7,0.6C166.7,102.8,166.5,102.7,166.5,102.6z"/>
		<path d="M88.4,146.7c-0.2,0-0.3-0.1-0.3-0.3c0.3,0.2,0.4-0.4,0.1-0.4c-0.1,0.2,0,0.3-0.2,0.4c-0.1-0.4-0.2-0.4-0.7-0.6l0.1-0.1
			c-0.1-0.2-0.6-0.1-0.9-0.1c0.6-0.5,2.4-0.4,2.1,0.7C88.7,146.5,88.3,146.5,88.4,146.7z"/>
		<path fill="#FFFFFF" d="M119.4,148.6c0.1,0,0.2,0.1,0.1,0.3c0.2,0,0.3,0,0.3-0.2c0.1,0,0.2,0.1,0.1,0.2c0.2-0.2-0.1-0.3-0.4-0.2
			c0.2-0.3,0.7-0.3,1-0.2c-0.1,0.2,0,0.2-0.1,0.3c-0.2,0-0.1-0.2-0.1-0.2h-0.1c-0.1,0.1,0,0.2-0.2,0.1c0,0.2,0.1,0.2,0.1,0.4
			c-0.1,0-0.1,0.1-0.1,0.1c-0.1-0.1-0.2,0-0.3,0.1c-0.1-0.1,0-0.1,0-0.2c-0.2,0-0.2,0.2-0.4,0.1c0-0.1,0.1-0.1,0.1-0.2
			c-0.3-0.1-0.2,0.3-0.5,0.2C119,148.8,119.4,149.1,119.4,148.6z"/>
		<path d="M88.2,149.9c0.1,0.2-2.1,1.6-2.2,1.6C85.8,151.5,88.1,149.9,88.2,149.9z"/>
		<path fill="#FFFFFF" d="M91.3,152.3c0.2-0.3,0.5-0.5,0.5-1c0.1,0,0.2,0,0.2-0.1c0.6,0.3,0.3,0.7,0.5,0.8c-0.1,0.2-0.4,0.4-0.4,0.1
			c-0.1,0.1-0.1,0.2-0.1,0.4C91.6,152.4,91.6,152.6,91.3,152.3z"/>
		<path d="M109.7,151.8c0.2-0.2,0.8-0.2,1,0c0.2,0,0-0.2-0.1-0.2c0.2,0.1,0.7-0.6,1.2-0.1c-0.5,0.2-0.9,0.5-1.7,0.4
			c0,0.2,0.3,0,0.2,0.2c-0.3,0-0.4,0.1-0.7,0c0.2-0.4-0.1-0.3-0.3-0.4C109.4,151.5,109.6,151.8,109.7,151.8z"/>
		<path fill="#FFFFFF" d="M106.5,154.5c-0.2,0.1-0.4-0.1-0.4,0.3c-0.2-0.4-1,0.3-1.1,0c-0.1,0-0.1,0.2-0.1,0.3
			c-0.1-0.1-0.2-0.3-0.2-0.4c-0.1,0-0.3,0-0.3,0.1c0,0.1,0.1-0.1,0.1,0.1c0.1,0.3-0.3-0.1-0.4,0.1c-0.2,0-0.2-0.1-0.1-0.2
			c-0.3,0.1-0.4-0.1-0.7-0.1c0.1-0.3,0.2,0.1,0.1-0.4c0.2,0.2,0.6,0.1,0.7-0.1c0.1,0.1,0,0.1,0,0.2
			C104.8,154.1,106.4,153.3,106.5,154.5z"/>
		<path d="M83.6,154.6c0.1-0.3,0.6,0.1,0.7-0.2c0.2,0.1-0.2,0.3,0,0.4C84.2,154.7,83.9,154.6,83.6,154.6z"/>
		<path fill="#FFFFFF" d="M87.5,154.5c0.1-0.3,0.4,0.2,0.4-0.1c0.1,0,0,0.3-0.1,0.2C87.9,154.3,87.7,154.7,87.5,154.5z"/>
		<path fill="#FFFFFF" d="M69.9,154.6c0.2-0.3,0.4,0.5,0.7,0.2c0,0.2,0.2,0.3,0.1,0.7C70.3,155.2,70.2,154.8,69.9,154.6z"/>
		<path d="M132.3,167c-0.2-0.2-0.2-0.7-0.3-1C132.2,166.2,132.3,166.6,132.3,167z"/>
		<path d="M131.4,169.6c-0.1-0.3,0.4-1.1,0.3-1.2C131.8,168.6,131.4,169.6,131.4,169.6z"/>
		<path d="M130.5,181.8c0.1,0.2-0.1,0.1-0.1,0.3c0,0.1,0.1,0,0.1,0.2c0.2,0,0.3-0.2,0.4-0.3c1.1,0.7,1.4-0.9,1-1.6
			c0.7-0.5,0.9,0.6,1.1,1c0.5,0.8,1.5,1.6,1.7,2.3c-1.4,0.2-3.6,0.2-4.4-0.4c0,0.2-0.2,0.3-0.4,0.1c0.1-0.2,0.3-0.3,0.4-0.5
			c0-0.1-0.1-0.1-0.1-0.1c-0.2,0.1,0.1,0.2-0.1,0.3c-0.3,0-0.3-0.2-0.5-0.3c-0.1,0-0.2,0.1-0.2,0.2c-0.4-0.1-0.6-0.3-0.9-0.5
			c-0.3,0.1-0.1,0.4-0.2,0.5c-0.2,0.1-0.1-0.1-0.1-0.2c-0.3-0.1-0.1,0.3-0.4,0.2c-0.4-0.7-1.1-1.3-0.9-2.4c0.1-0.6,0.7-0.9,0.7-1.4
			c-0.1-0.5-0.5-0.7-1.1-0.8c-0.1-0.3-0.2-0.4-0.1-0.7c-0.2-0.2-0.7-0.4-0.4-0.9c0.3,0.3,0.6,0.5,0.8,0.9c0.3-0.3,1-0.5,1.1,0.2
			c0.1,0,0.2-0.1,0.1-0.2c0.1,0.3,0.5,0.4,0.7,0.4c0.1,0.6-0.3,1-0.1,1.6c-0.3,0.5-0.8,1.2-0.6,1.8c0,0,0.4,0,0.1,0.4
			c0.4-0.3,0.7-0.2,1-0.4c-0.1,0.5,0.2,0.5,0.3,0.7c0.3-0.2,0.4-0.1,0.7,0.1C130.4,182,130.2,181.9,130.5,181.8z M128.1,178.3
			c-0.3-0.2-0.6-0.4-1-0.5C126.8,178.3,127.9,179,128.1,178.3z M130.9,182.7c0-0.3,0.4-0.1,0.4-0.4
			C131,182.3,130.7,182.6,130.9,182.7z"/>
		<path d="M134.6,181.3c-0.4-0.2-0.3-1-0.7-1.1c-0.4,0.4-1.4,0.4-1.4-0.4c0.6,1.1,1.3-0.6,0-0.2c-0.2-0.3,0-0.6,0.1-0.9
			c0.3,0,0.5,0.1,0.7,0.3c-0.1,0.2-0.4,0.1-0.2-0.1c-0.2,0.2-0.2,0.2-0.5,0.2c0.4,0.5,0.9,0,1.2,0.6c0.4-0.1-0.2-0.5,0-0.5
			C134,179.8,134.8,180.3,134.6,181.3z"/>
		<path d="M61.7,182.4c0.2-0.1-0.1-0.2,0.1-0.4c0.3,0.2,0.3,0.7,0.7,0.8c-0.1,0.3-0.1,0.7-0.5,0.7c0.1,0.4,0.7,0.5,1,0.8
			c-0.1,0.2-0.3-0.1-0.4,0.1c0.3,1,0.6,1,1.3,0.5c0.5-0.3,0.4-0.5,0.9-0.2c0,0.6,0.2,1.1,0.5,1.4c-0.4,0.1-0.1,1-0.5,1.1
			c0.1,0.2,0.3,0.1,0.4,0.4c0.3,0.1,0.1-0.3,0.4-0.3c0.1,0.7-0.8,0.9-1,0.5c-0.8,0.4-0.8-1-1.2-1.8c-0.4-1-1.2-1.3-1.8-1.6
			c0-0.2,0-0.4,0-0.7c0.2-0.1,0.2,0.1,0.4,0.1c0.3-0.2,0.3-0.7-0.1-0.9c0-0.5-0.1-0.8-0.1-1.3C61.6,182,61.6,182.2,61.7,182.4z
			 M64,187.4c-0.1,0.3,0.4,0.3,0.5,0.2C64.3,187.5,64.1,187.2,64,187.4z"/>
		<path d="M59.7,182.3c0.4,0.3,0.2,0.6,0.2,1C59.7,183.2,59.4,182.6,59.7,182.3z"/>
		<path fill="#FFFFFF" d="M131.2,182.4c0,0.3-0.4,0.1-0.4,0.4C130.7,182.6,131,182.3,131.2,182.4z"/>
		<path d="M134.7,182.4c0.6,0.5,1.2,1.1,1.8,1.3C135.8,183.8,134.8,183.4,134.7,182.4z"/>
		<path d="M140.8,183c-0.1-0.2,0.3,0.3,0.4,0.4c-0.2,0-0.9,0.2-0.8-0.2c0.2,0.3,0.2-0.1,0.5,0.1C140.9,183.2,140.8,183.1,140.8,183z
			"/>
		<path d="M138,183.3c0.8,0.3,1.4,0,2.4,0.1c-0.4,0.3-1.3,0.1-1.7,0.4c-0.1,0,0-0.2-0.1-0.2c-0.3,0.4-1.7,0.4-1.9,0
			c0.6-0.1,0.9-0.4,1.6-0.5c0,0.1,0,0.1,0.1,0.1C138.3,183.4,138.1,183.1,138,183.3z M137.6,183.7c0.2,0,0.5,0,0.4-0.2
			C137.8,183.5,137.6,183.5,137.6,183.7z"/>
		<path d="M66.9,183.6c0.2,0.1,1.6,2.6,1.7,3C68.2,186.4,67.1,184,66.9,183.6z"/>
		<path d="M76.1,186.1c-0.2,0.3,0,0.5,0.1,0.7C76.1,187,75.5,186.1,76.1,186.1z"/>
		<path d="M78.6,189.6c0.4-0.1,0.7,0.7,1.3,0.4c-0.1,0.1-0.3,0.2-0.3,0.4c0.1,0.2,0.2-0.2,0.5-0.1c0,0.1-0.1,0.1-0.1,0.2
			c0.3-0.2,0.7,0,1.4-0.3c0,0.1-0.1,0.2-0.1,0.3c0.2,0.1,0.3-0.1,0.4-0.1c-0.4,0.4,0.1,0.3-0.3,0.8c-0.9,0.1-1.4-0.2-2.1-0.4
			c0-0.2-0.2-0.3-0.1-0.7c-0.2-0.1-0.1,0.2-0.3,0.1C78.9,190.1,78.8,189.8,78.6,189.6z"/>
		<path fill="#FFFFFF" d="M120.7,117.7c0.5,0.2,0.7,0.7,1.2,0.9c-0.5,2.3,4.5,1.6,2.8,3.8c-0.3-0.1-0.6-0.3-0.9-0.4
			c-0.6,0-0.3,0.7-0.9,0.6C121.9,121.3,120.9,119.3,120.7,117.7z"/>
		<path fill="#FFFFFF" d="M164.2,104.2c0.1,0.2,0.5,0.4,0.6,0c0.2,0.1,0.5,0.2,0.5,0.5c-0.6,0.3-1.5-0.1-2.2,0.1
			C163.2,104.7,164.1,104.5,164.2,104.2z"/>
		<path fill="#FFFFFF" d="M164.9,105.1c-0.2,0.2-0.3,0.7-0.7,0.6c0-0.2-0.1-0.2-0.2-0.2C163.9,105.1,164.4,105.1,164.9,105.1z"/>
	</g>
	<path fill="none" stroke="#000000" stroke-width="0.7068" d="M151.6,132.5c0,0-1.9,7.2-2.4,7.6c0,0-1.5,2.9-2.1,4.5
		c0,0-0.5,1.5-1,2.2c0,0-0.9,4-3.2,5.2c0,0-1.4,1.1-3.6,0.9c0,0-0.7,4.5-0.9,5.7c0,0-0.3,3.3-0.3,4.3c0,0,0.6,1.3,0,1.6
		c0,0-0.9,2.9-1.7,4c0,0,0.4,5.1,0.5,6.4c0,0,0.4,1.4,0.5,2.1c0,0,0.4,1.7,0.9,2.3c0,0,0.4,0.7,0.8,0.9c0,0,0.7,0.6,0.5,1.2l1.5,2.1
		c0,0-1.4,0.7-2.5,0.2c0,0-3.1,0.4-3.6-1c0,0-0.6-0.9-0.4-1.6"/>
	<path fill="none" stroke="#000000" stroke-width="0.7068" d="M129.1,147.3c0,0,0.2,0.7,0.8,1.6c0,0,0.9,2.5,0.9,3.8
		c0,0-0.1,5.5,0.3,6.6l0.3,1.8c0,0,0.3,1.8,0,3c0,0-0.2,1.2,0.2,2.1c0,0,0.8,1.9,0.8,3.2c0,0,0.3,5.7,0.1,6.8c0,0-0.9,1.8,0,2.6"/>
	<path fill="none" stroke="#000000" stroke-width="0.9011" d="M129.6,109.4c0,0,3.3,0.2,6,0.1"/>
	<path fill="none" stroke="#000000" stroke-width="0.7068" d="M60.3,117.4c0,0,1.6-2.4,5.6-3.7c0,0,2.2-0.9,5.7-0.7
		c0,0,3-0.3,3.9-0.4c0,0,4.4-0.5,7.4-0.6c0,0,6.9-0.5,7.3-0.4c0,0,4.1,0,5.3,0.4"/>
	<path fill="none" stroke="#000000" stroke-width="0.5521" d="M158.5,95.4c0,0,1.3,0.3,1.8,1.1c0,0,0.5,0.6,0.6,0.7
		c0.1,0.2-0.1-0.2-0.1-0.2s0.6,0.8,0.6,1.2c0,0,1.6,0.5,1.9,1l1.1,0.7"/>
	<path fill="none" stroke="#000000" stroke-width="0.7068" d="M128,162.7c0,0,0.2,7-0.8,11c0,0-0.8,2.5-0.7,2.7l-0.5,0.4"/>
	<path fill="#FFFFFF" d="M165.7,105.3c0,0,0,1.5-1.6,1.1c0,0,1,0.7,1.9,0c0,0,0.5,0,0.7,0C166.7,106.3,166.9,105.8,165.7,105.3z"/>
	<path fill="none" stroke="#231F20" stroke-width="0.7068" d="M60,132.7c0,0,0.6,3.8,0.8,4.2c0,0,0.9,4,1.1,5.2c0,0-0.2,1.9,0.4,2.8
		c0,0,0.6,4.9,0.4,6.4c0,0-0.9,4.5-1.4,4.7c0,0-1.3-2.4-1.5-4.7c0,0-0.5-9.2-0.2-11.8C59.6,139.5,59.7,133.5,60,132.7z"/>
	<path stroke="#000000" stroke-width="0.5521" d="M86.8,145.9c0,0-1.4,1-4.5,7.1"/>
	<path fill="none" stroke="#000000" stroke-width="0.7068" d="M144.8,138.5c0,0-0.8,3-1.7,4.4c0,0-1.7,1.7-1.8,2.6
		c0,0-1.4,5.5-1.8,7.2"/>
	<path fill="none" stroke="#231F20" stroke-width="0.7068" d="M71.4,157.8c0,0-0.3,2.7-0.9,4.2c0,0-0.5,1.3-0.5,1.8
		c0,0-0.5,1.2,0.1,1.8c0,0,1,1.5,1,1.9l0.6,1.1c0,0,1.4,5.6,1.8,7.4c0,0,1.1,5,1.7,5.7"/>
	<path fill="none" stroke="#231F20" stroke-width="0.7068" d="M70.8,158.1c0,0-0.8,3.2-1.4,4.2c0,0-0.9,2.5-0.9,3.2
		c0,0-0.5,2.4-0.8,3.2c0,0-0.8,1.7-1,2.7l-0.4,1.8c0,0-0.4,3.9-0.1,4.9c0,0,0.2,2.6,0,3.3c0,0,0.1,1.7,0.5,2.4"/>
	<path fill="none" stroke="#231F20" stroke-width="0.7068" d="M80.9,159.2c0,0-1.2,2.8-1.3,3.4l-0.3,0.8c0,0-1,7.8-0.9,8.6
		c0,0,0.4,5,0.8,6v0.5c0,0,0.2,0.9,0.5,1.3c0,0,0.4,0.7,0.4,1.2c0,0,0.5,2.2,0.8,2.6c0,0,0.2,0.6,0.2,1.2c0,0,0.5,1.5,1,2
		c0,0,1.1,0.7,1.3,1.3"/>
	<path d="M64,187.8c0.2,0.4,1.7,0.8,2.2,0.8c0.4,0,2.2-0.9,2.3-1.1C67,187.2,65.4,189.1,64,187.8"/>
	<path fill="none" stroke="#231F20" stroke-width="0.7068" d="M58.8,129.7c0.2,1.2-0.4,7.1-0.4,7.1c-0.2,0.8,0,7.2,0,7.2
		c0.2,1.2-0.2,6.1-0.2,6.1c-0.3,1.3-0.5,2.5-0.5,2.5c-0.1,0.5-0.5,2-0.5,2c-0.1,0.4-1.3,1.8-1.3,1.8c-1.3,1.5-0.3,3.5-0.3,3.5
		c0.3,0.8,0,1.1,0,1.1c0.4,0.6,0,1.4,0,2c0,0.3,0,0.5,0.1,0.8c0.1,0.4,0,0.8,0.1,1.2c0.1,0.3,0.5,0.5,0.5,1c0,0.4-0.2,0.8-0.2,1.2
		c-0.1,1.1,0.8,1.9,0.5,3c-0.2,0.7-0.2,1.2-0.2,2c0,0.4-0.2,1-0.1,1.4c0.2,0.9,1.1,1,0.8,1.9c-0.2,0.6-0.8,0.9-0.6,1.7
		c0.1,0.4,0.3,0.6,0.4,1.1c0,0.3,0,0.7,0.1,0.9c0.4,0.6,0.5,2,0.8,2.7c0.1,0,0.1,0,0.1-0.1c0.1,0.3,0.1,0.5,0.2,0.8
		c0.1-0.5,0-1,0.1-1.5c0,0.1,0.1,0.2,0.1,0.2c0-0.1,0.2-0.3,0.3-0.5c0.3,0.1,0.7,1.6,0.8,1.9c0.2,0.8,0.2,1.5,0.6,2.3
		c0.2-0.6-0.1-1.8-0.2-2.5c0.3,0.4,0.6,0.9,1,1c-0.2-0.2-0.3-0.6-0.2-0.7c0.1-0.6-0.3-1.1-0.4-1.7c0.2,0,0.4-0.1,0.6,0
		c0.1-0.1,0.2-0.1,0.3-0.2c0-0.4,0-0.8,0-1.1c0.5,0.6,0.5,2.6,0.2,3.3"/>
	<path fill="none" stroke="#231F20" stroke-width="0.7068" d="M61.4,155.9c-0.1,1,0.6,1.2,0.9,1.9c0.3,0.7,0.2,1.9,0.2,2.6
		c0,0.7,0,1.4,0.1,2.1c0.2,1.2,0.7,1.9,0.6,3c0,0.9,0.2,1.3,0.3,2.1c0.2,1-0.1,2.1-0.1,3c0,0.7-0.1,1.5,0,2.2
		c0.1,1.2,2.4,6.1-0.5,4.1c-0.2,0.5-0.2,1-0.2,1.6c-0.1-0.2-0.4-0.4-0.5-0.6c-0.4,0.2-0.1,1.4-0.2,2c-0.1,0.6-0.3,1.1-0.7,1.6"/>
	<path fill="none" stroke="#231F20" stroke-width="0.5521" d="M62.5,146.9c0,0,1.8,4.3,7.2,9.7"/>
	<path fill="none" stroke="#231F20" stroke-width="0.7068" d="M158.2,120.1c0,0,1.5-1.6,3.1-2.1c2.5,0,2.5-0.3,3.2-0.4"/>
</g>
<g>
	<path fill="#FFFFFF" d="M102.9,182.9c0.6,0,0.7-0.1,0.7-0.9v-2.4c0-0.8-0.1-0.9-0.7-0.9v-0.2h3.8l0.1,1.1h-0.2v-0.2
		c-0.1-0.4-0.2-0.6-0.9-0.6h-1.1v1.7h0.4c0.7,0,0.9-0.1,0.9-0.8h0.2v1.9h-0.2c0-0.7-0.1-0.8-0.9-0.8h-0.4v1c0,0.8,0.1,0.9,0.7,0.9
		h0.7c0.7,0,0.8-0.2,0.9-0.6v-0.2h0.2L107,183L102.9,182.9L102.9,182.9z"/>
	<path fill="#FFFFFF" d="M108.8,183.3c-0.6,0-0.9-0.6-0.9,0h-0.2v-1.1h0.2c0,0.4,0.4,0.8,0.9,0.8c0.2,0,0.4-0.1,0.4-0.3
		s-0.2-0.3-0.5-0.5l-0.4-0.2c-0.4-0.2-0.6-0.5-0.6-0.8c0-0.6,0.5-0.8,0.9-0.8c0.6,0,0.8,0.3,0.8,0h0.2v0.9h-0.2
		c0-0.3-0.4-0.6-0.7-0.6c-0.2,0-0.4,0.1-0.4,0.3s0.1,0.3,0.5,0.4l0.4,0.2c0.4,0.2,0.6,0.5,0.6,0.8
		C109.8,183,109.3,183.3,108.8,183.3z"/>
	<path fill="#FFFFFF" d="M110.1,180.9v-0.3c0.4-0.1,0.9-0.6,1-1.1h0.3v1h0.6v0.3h-0.6v1.4c0,0.4,0.1,0.6,0.3,0.6
		c0.1,0,0.3-0.1,0.5-0.2l0.1,0.2c-0.2,0.2-0.7,0.5-0.9,0.5c-0.5,0-0.9-0.4-0.9-1v-1.4H110.1z"/>
	<path fill="#FFFFFF" d="M113.3,183.2c-0.3,0-0.5-0.2-0.5-0.5s0.2-0.5,0.5-0.5c0.3,0,0.5,0.2,0.5,0.5S113.5,183.2,113.3,183.2z"/>
</g>
<g>
	<path fill="#FFFFFF" d="M101.6,191.1v-0.2c0.6,0,0.7-0.1,0.7-0.9v-1.1c0-0.8-0.1-0.9-0.7-0.9v-0.2h2.3v0.2c-0.6,0-0.7,0.1-0.7,0.9
		v1.1c0,0.8,0.1,0.9,0.7,0.9v0.2H101.6z"/>
	<path fill="#FFFFFF" d="M107.5,187.8l-1.7,4.4c-0.1,0.2-0.2,0.3-0.4,0.3c-0.2,0-0.4-0.3-0.2-0.6l1.6-3.4h-1.1
		c-0.7,0-0.8,0.2-0.9,0.6v0.2h-0.2l0.3-2.3h0.1c0,0.5,0.1,0.6,0.9,0.6h1.5v0.2H107.5z"/>
	<path fill="#FFFFFF" d="M111.4,189.8c0,0.8-0.7,1.4-1.6,1.4c-0.8,0-1.6-0.6-1.6-1.3c0-0.7,0.5-1,1-1.3c-0.4-0.4-0.8-0.8-0.8-1.2
		c0-0.7,0.6-1.1,1.3-1.1c0.7,0,1.3,0.5,1.3,1s-0.4,0.8-0.8,1.1C110.8,188.8,111.4,189.2,111.4,189.8z M109,189.9
		c0,0.4,0.3,0.9,0.8,0.9c0.4,0,0.7-0.4,0.7-0.8c0-0.5-0.4-0.9-0.9-1.2C109.3,189.1,109,189.4,109,189.9z M110.4,187.2
		c0-0.4-0.3-0.6-0.6-0.6c-0.3,0-0.5,0.3-0.5,0.5c0,0.4,0.3,0.7,0.6,1C110.2,187.8,110.4,187.5,110.4,187.2z"/>
	<path fill="#FFFFFF" d="M113.2,190.5c-0.1-0.1,0-0.3,0.1-0.4l0.4-0.5c0.3-0.3,0.4-0.7,0.4-0.9c0-0.5-0.2-0.8-0.6-0.8
		c-0.4,0-0.8,0.5-0.5,1.1l-0.4,0.2c-0.9-0.6-0.4-1.8,0.9-1.8c0.9,0,1.6,0.4,1.6,1.1c0,0.6-0.5,1-0.8,1.2L114,190
		c0.7,0.1,1.3,0.7,1.3,1.3c0,0.8-0.8,1.3-1.6,1.3c-1.2,0-1.7-1-1.2-1.1c0.4-0.1,0.4,0.8,1.1,0.8c0.4,0,0.6-0.4,0.6-1
		c0-0.5-0.1-0.8-0.5-1.1C113.5,190.3,113.4,190.6,113.2,190.5z"/>
</g>
</svg>
