<?xml version="1.0" encoding="utf-8"?>
<!-- Generator: Adobe Illustrator 16.0.0, SVG Export Plug-In . SVG Version: 6.00 Build 0)  -->
<svg version="1.2" baseProfile="tiny" id="Layer_1" xmlns="http://www.w3.org/2000/svg" xmlns:xlink="http://www.w3.org/1999/xlink"
	 x="0px" y="0px" width="32.251px" height="68.075px" viewBox="0 0 32.251 68.075" xml:space="preserve">
<path fill-rule="evenodd" d="M0.037,40.159c0-6.639,0.062-13.278-0.035-19.916c-0.032-2.205,0.401-4.27,1.004-6.34
	c0.546-1.874,1.127-3.737,1.627-5.623c0.161-0.605,0.119-1.266,0.16-1.901c0.128-2.01,0.252-4.02,0.378-6.03
	c2.016-0.113,4.032-0.31,6.048-0.325c5.839-0.043,11.678-0.017,17.517-0.012c1.677,0.001,2.179,0.367,2.003,2.042
	c-0.479,4.57,0.807,8.75,2.574,12.842c0.695,1.607,0.942,3.246,0.938,4.998c-0.036,15.358-0.021,30.715-0.021,46.072
	c0,1.997-0.104,2.103-2.104,2.104c-7.479,0.001-14.958,0.021-22.436-0.03c-0.729-0.005-1.538-0.312-2.167-0.705
	c-1.51-0.945-2.927-2.041-4.4-3.047c-0.781-0.533-1.115-1.176-1.109-2.173C0.057,54.797,0.037,47.478,0.037,40.159z M29.661,52.202
	c0-11.09,0-22.097,0-33.122c-7.201,0-14.324,0-21.553,0c0,0.415,0,0.727,0,1.039c0,6.595,0.016,13.189-0.017,19.784
	c-0.004,0.879,0.229,1.131,1.133,1.176c4.139,0.208,6.056,3.962,3.995,7.516c-0.616,1.062-0.963,2.326-1.212,3.543
	c-0.366,1.793-1.317,2.753-3.134,2.836c-0.225,0.01-0.448,0.07-0.76,0.123c0,3.319-0.016,6.591,0.03,9.861
	c0.004,0.266,0.417,0.725,0.674,0.75c0.934,0.092,1.882,0.035,2.896,0.035c-0.046-0.91-0.116-1.66-0.115-2.41
	c0.003-1.568,0.461-2.39,2.005-2.66c1.678-0.295,3.423-0.209,5.238-0.293C20.258,55.147,24.118,52.603,29.661,52.202z M3.873,12.991
	c-0.228,0.758-0.452,1.517-0.685,2.273c-0.542,1.756-1,3.517-0.831,5.39c0.436,4.825-0.692,9.691,0.618,14.535
	c0.362,1.339,0.271,2.854,0.918,4.206c0.46,0.961,0.177,1.888-0.718,2.396c-0.779,0.441-0.826,1.01-0.824,1.756
	c0.02,5.756,0.04,11.513-0.015,17.268c-0.01,1.07,0.34,1.721,1.142,2.062c0.705-0.559,1.373-1.025,1.953-1.582
	c0.218-0.209,0.326-0.63,0.327-0.954c0.017-10.112,0.017-20.226-0.002-30.339c-0.001-0.363-0.109-0.859-0.357-1.066
	c-1.872-1.562-2.02-3.709-2.014-5.875c0.004-1.712,0.583-2.33,2.313-2.74C6.098,17.637,4.81,15.353,3.873,12.991z M5.892,9.379
	c0,0.262-0.045,0.467,0.007,0.643c0.561,1.91,1.16,3.808,1.698,5.724c0.227,0.806,0.804,0.747,1.414,0.747
	c6.318-0.004,12.636-0.002,18.955-0.006c0.348,0,0.693-0.04,1.266-0.075c-0.863-2.341-1.663-4.537-2.496-6.721
	c-0.064-0.169-0.356-0.345-0.55-0.354c-0.857-0.039-1.718-0.017-2.476-0.017c-0.115,0.223-0.15,0.258-0.148,0.293
	c0.003,0.159,0.014,0.319,0.027,0.478c0.164,1.85-0.771,3.082-2.227,4.055c-1.44,0.964-2.539,0.044-3.744-0.556
	c-0.834-0.417-1.777-0.615-2.625-1.009c-0.649-0.301-1.414-0.632-1.782-1.181c-0.328-0.489-0.18-1.295-0.249-2.022
	C10.623,9.379,8.284,9.379,5.892,9.379z M5.267,2.53c0,1.501,0,2.842,0,4.237c6.996,0,13.917,0,20.916,0c0-1.441,0-2.811,0-4.237
	C19.17,2.53,12.25,2.53,5.267,2.53z"/>
<path fill-rule="evenodd" fill="#FFFFFF" d="M29.661,52.202c-5.543,0.4-9.402,2.945-10.818,8.178
	c-1.815,0.084-3.56-0.002-5.238,0.293c-1.544,0.271-2.002,1.092-2.005,2.66c-0.001,0.75,0.069,1.5,0.115,2.41
	c-1.014,0-1.962,0.057-2.896-0.035c-0.257-0.025-0.67-0.484-0.674-0.75c-0.046-3.271-0.03-6.542-0.03-9.861
	c0.312-0.053,0.535-0.113,0.76-0.123c1.817-0.083,2.768-1.043,3.134-2.836c0.249-1.217,0.596-2.481,1.212-3.543
	c2.062-3.554,0.144-7.308-3.995-7.516c-0.905-0.045-1.138-0.297-1.133-1.176c0.033-6.594,0.018-13.189,0.017-19.784
	c0-0.312,0-0.624,0-1.039c7.229,0,14.352,0,21.553,0C29.661,30.105,29.661,41.112,29.661,52.202z M28.508,39.386
	c-0.226-2.016-0.521-4.598-2.408-6.623c-0.701-0.753-1.562-1.321-2.645-0.98c-1.099,0.346-1.418,1.317-1.785,2.328
	c-0.459,1.261-1.041,2.534-1.838,3.601c-0.937,1.254-1.275,2.668-0.679,4.085c1.034,2.456,2.634,2.604,5.438,2.56
	C27.104,44.317,28.676,42.354,28.508,39.386z M15.602,28.904c0.342-0.059,0.826-0.093,1.28-0.229
	c1.167-0.348,2.391-0.812,2.592-2.154c0.193-1.294-0.937-1.848-1.867-2.489c-0.875-0.603-1.702-1.262-1.319-2.637
	c0.28-1.006-0.718-1.808-1.833-1.464c-1.199,0.371-2.419,0.822-3.471,1.49c-1.74,1.104-2.317,2.77-1.383,4.016
	C11.047,27.367,12.925,28.733,15.602,28.904z"/>
<path fill-rule="evenodd" fill="#FFFFFF" d="M3.873,12.991c0.938,2.362,2.226,4.646,1.826,7.329
	c-1.729,0.411-2.309,1.028-2.313,2.74c-0.005,2.166,0.143,4.312,2.014,5.875c0.248,0.207,0.356,0.704,0.357,1.066
	C5.775,40.114,5.775,50.228,5.759,60.34c0,0.324-0.109,0.745-0.327,0.954c-0.581,0.557-1.249,1.023-1.953,1.582
	c-0.802-0.342-1.152-0.992-1.142-2.062c0.054-5.755,0.034-11.512,0.015-17.268C2.349,42.8,2.396,42.231,3.175,41.79
	c0.895-0.508,1.178-1.435,0.718-2.396c-0.647-1.353-0.556-2.867-0.918-4.206c-1.31-4.843-0.183-9.71-0.618-14.535
	c-0.169-1.874,0.29-3.634,0.831-5.39C3.421,14.508,3.645,13.749,3.873,12.991z"/>
<path fill-rule="evenodd" fill="#FFFFFF" d="M5.892,9.379c2.392,0,4.73,0,7.07,0c0.068,0.727-0.079,1.533,0.249,2.022
	c0.368,0.549,1.132,0.88,1.782,1.181c0.849,0.394,1.792,0.592,2.625,1.009c1.205,0.601,2.304,1.52,3.744,0.556
	c1.455-0.974,2.391-2.206,2.227-4.055c-0.014-0.159-0.024-0.319-0.027-0.478c-0.002-0.035,0.033-0.071,0.148-0.293
	c0.758,0,1.618-0.022,2.476,0.017c0.193,0.008,0.485,0.185,0.55,0.354c0.833,2.184,1.633,4.38,2.496,6.721
	c-0.572,0.035-0.918,0.075-1.266,0.075c-6.318,0.004-12.636,0.002-18.955,0.006c-0.61,0-1.188,0.06-1.414-0.747
	c-0.538-1.916-1.137-3.814-1.698-5.724C5.847,9.846,5.892,9.641,5.892,9.379z"/>
<path fill-rule="evenodd" fill="#FFFFFF" d="M5.267,2.53c6.983,0,13.904,0,20.916,0c0,1.426,0,2.796,0,4.237
	c-6.998,0-13.92,0-20.916,0C5.267,5.373,5.267,4.031,5.267,2.53z"/>
<path fill-rule="evenodd" d="M28.508,39.386c0.168,2.969-1.404,4.932-3.916,4.971c-2.805,0.045-4.404-0.104-5.438-2.56
	c-0.597-1.417-0.258-2.831,0.679-4.085c0.797-1.066,1.379-2.34,1.838-3.601c0.367-1.011,0.687-1.982,1.785-2.328
	c1.083-0.341,1.943,0.227,2.645,0.98C27.987,34.788,28.283,37.37,28.508,39.386z"/>
<path fill-rule="evenodd" d="M15.602,28.904c-2.676-0.17-4.554-1.537-6.001-3.466c-0.934-1.247-0.357-2.912,1.383-4.016
	c1.052-0.667,2.271-1.119,3.471-1.49c1.115-0.344,2.113,0.458,1.833,1.464c-0.383,1.375,0.444,2.034,1.319,2.637
	c0.931,0.641,2.061,1.195,1.867,2.489c-0.201,1.342-1.425,1.806-2.592,2.154C16.428,28.811,15.943,28.845,15.602,28.904z"/>
</svg>
