<?xml version="1.0"?><svg width="640" height="480" xmlns="http://www.w3.org/2000/svg">
 <title>small house</title>
 <metadata id="metadata7">image/svg+xml</metadata>
 <g>
  <title>Layer 1</title>
  <g id="layer1">
   <path fill="#000000" stroke-width="0.4" stroke-miterlimit="4" id="rect2391" d="m442.886932,216.75177l0,0zm0,0l-141.401947,-111.003647l-141.4832,111.051712l0,158.686676c0,4.098267 3.735931,7.385803 8.359268,7.385803l88.423584,0l0,-69.575806c0,-4.098236 3.708801,-7.409882 8.332184,-7.409882l72.65506,0c4.62323,0 8.332184,3.311646 8.332184,7.409882l0,69.575806l88.450745,0c4.623322,0 8.332123,-3.287537 8.332123,-7.385803l0,-158.734741zm-282.885132,0.048065l0,0z"/>
   <path fill="#000000" stroke-width="0.4" stroke-miterlimit="4" id="path2399" d="m300.66452,45.000011l-200.664467,157.500019l21.137657,21.138184l180.347733,-141.564484l180.30661,141.564484l21.096588,-21.138184l-200.623383,-157.500019l-0.779816,0.8004l-0.820923,-0.8004z"/>
   <path fill="#000000" stroke-width="0.4" stroke-miterlimit="4" id="rect2404" d="m160.001785,67.671478l50.869003,0l-0.443207,26.707245l-50.425797,40.380371l0,-67.087616z"/>
  </g>
 </g>
</svg>