<?xml version="1.0" encoding="utf-8"?>
<!-- Generator: Adobe Illustrator 16.0.0, SVG Export Plug-In . SVG Version: 6.00 Build 0)  -->
<!DOCTYPE svg PUBLIC "-//W3C//DTD SVG 1.1 Basic//EN" "http://www.w3.org/Graphics/SVG/1.1/DTD/svg11-basic.dtd">
<svg version="1.1" baseProfile="basic" id="Layer_1"
	 xmlns="http://www.w3.org/2000/svg" xmlns:xlink="http://www.w3.org/1999/xlink" x="0px" y="0px" width="160px"
	 height="125" viewBox="0 0 473.757 376.958" xml:space="preserve">
<g>
	<path fill="#8C8B8B" stroke="#999999" stroke-miterlimit="10" d="M126.332,22.959v22.357h173.712h173.713v165.82v165.822h-8.372
		h-8.372v-26.085v-26.084H291.672H126.332v26.084c0,24.405-0.209,26.085-3.975,26.085c-2.304,0-2.304,0-4.701-0.039
		c-4.883-0.312,4.701,0.039-1.089,0.016c-7.239-0.133-6.978-2.587-6.978-26.062v-26.084H55.172H0.757V198.094
		C0.757,114.812,2.39,72.639,2.85,71.4c1.265-3.404,0.477-1.516,1.079-2.969c0.426-1.028,0.349-0.686,1.014-2.125
		c0.479-1.034,1.308-3.173,3.028-4.949c3.705-3.828,11.148-10.476,16.855-12.314c2.661-0.856,1.046-0.698,5.232-1.863
		c1.199-0.333,14.651-1.863,39.766-1.863h39.766V22.959V0.602h8.372h8.371V22.959z"/>
</g>
</svg>
